<?xml version="1.0" standalone="no"?>
<!DOCTYPE svg PUBLIC "-//W3C//DTD SVG 1.0//EN" "http://www.w3.org/TR/2001/REC-SVG-20010904/DTD/svg10.dtd">
<svg xmlns="http://www.w3.org/2000/svg" xmlns:xlink="http://www.w3.org/1999/xlink" id="body_1" width="673" height="180">

<defs>
    <clipPath  id="1">

    <path id=""  clip-rule="evenodd" transform="matrix(1 0 0 1 0 0)"  d="M0 135L0 -0.01300049L0 -0.01300049L505.697 -0.01300049L505.697 -0.01300049L505.697 135L505.697 135L0 135z" />    </clipPath>
    <clipPath  id="2">

    <path id=""  clip-rule="evenodd" transform="matrix(1 0 0 1 0 0)"  d="M0 -0.01300049L505.697 -0.01300049L505.697 -0.01300049L505.697 135L505.697 135L0 135z" />    </clipPath>
</defs>

<g transform="matrix(1.3333 0 0 1.3333 0 0)">
	<g clip-path="url(#1)" >
		<g clip-path="url(#2)" >
    <path id=""  transform="matrix(1 0 0 -1 0 135)"  d="M242.168 114.8995C 242.168 114.8995 242.168 119.7555 247.023 119.7555C 251.646 119.7555 251.415 114.6695 251.415 114.6695L251.415 114.6695L251.415 101.4915L251.415 101.4915L256.27 101.4915L256.27 101.4915L256.27 114.6695C 256.27 114.6695 256.501 123.9165 248.641 123.9165C 243.555 123.9165 241.705 119.9855 241.705 119.9855L241.705 119.9855L241.474 123.4545L241.474 123.4545L237.081 123.4545L237.081 123.4545L237.313 117.2125L237.313 117.2125L237.313 101.4915L237.313 101.4915L242.168 101.4915zM460.871 114.8995C 460.871 114.8995 460.871 119.7555 465.726 119.7555C 470.35 119.7555 470.118 114.6695 470.118 114.6695L470.118 114.6695L470.118 101.4915L470.118 101.4915L474.973 101.4915L474.973 101.4915L474.973 114.6695C 474.973 114.6695 475.205 123.9165 467.345 123.9165C 462.258 123.9165 460.871 119.9855 460.871 119.9855L460.871 119.9855L460.871 133.3955L460.871 133.3955L456.016 133.3955L456.016 133.3955L456.016 101.4915L456.016 101.4915L460.871 101.4915zM271.297 17.10751C 297.422 17.10751 297.422 63.3455 272.684 63.3455C 261.356 63.3455 257.426 55.0235 257.426 55.0235L257.426 55.0235L256.964 62.4205L256.964 62.4205L248.178 62.4205L248.178 62.4205L248.641 52.4805L248.641 52.4805L248.641 -0.0004959106L248.641 -0.0004959106L258.582 -0.0004959106L258.582 -0.0004959106L258.582 23.3505C 258.582 23.3505 261.587 17.10751 271.297 17.10751M269.448 55.4845C 284.937 55.4845 284.937 24.7365 269.217 24.7365C 258.813 24.7365 258.582 35.6035 258.582 35.6035L258.582 35.6035L258.582 43.6945C 258.582 43.6945 258.813 55.4845 269.448 55.4845M194.774 112.5885C 194.774 127.6155 173.505 127.6155 173.505 112.3565C 173.505 96.8675 194.774 97.3295 194.774 112.5885M189.688 112.5885C 189.688 101.9535 178.36 101.7225 178.36 112.3565C 178.36 122.7605 189.688 122.9915 189.688 112.5885M298.115 112.5885C 298.115 127.6155 276.846 127.6155 276.846 112.3565C 276.846 96.8675 298.115 97.3295 298.115 112.5885M293.029 112.5885C 293.029 101.9535 281.7 101.7225 281.7 112.3565C 281.7 122.7605 293.029 122.9915 293.029 112.5885M402.612 114.8995C 402.612 114.8995 402.612 119.7555 407.467 119.7555C 412.091 119.7555 411.859 114.6695 411.859 114.6695L411.859 114.6695L411.859 101.4915L411.859 101.4915L416.714 101.4915L416.714 101.4915L416.714 114.6695C 416.714 114.6695 416.946 123.9165 409.085 123.9165C 403.999 123.9165 402.149 119.9855 402.149 119.9855L402.149 119.9855L401.918 123.4545L401.918 123.4545L397.526 123.4545L397.526 123.4545L397.757 117.2125L397.757 117.2125L397.757 101.4915L397.757 101.4915L402.612 101.4915zM93.052 94.7865C 93.052 94.7865 85.423 106.5775 69.70099 106.5775C 60.91599 106.5775 53.51797 101.0285 48.89499 101.0285C 43.34598 101.0285 38.25998 106.1145 29.24399 106.1145C 11.905 106.1145 -2.429016 89.7005 0.3459778 64.7325C 2.888 42.3075 18.84 16.8765 30.63098 16.8765C 38.02899 16.8765 41.26498 21.7315 50.28198 21.7315C 59.298 21.7315 61.841 17.10751 69.70099 17.10751C 82.879 17.10751 93.745 40.4575 96.05698 48.3175C 77.793 55.7165 73.16898 82.3035 93.052 94.7865M71.55099 135.0135C 58.836 134.0885 46.58298 121.6055 47.97 107.7325C 61.60999 107.2715 72.93799 121.1425 71.55099 135.0135M188.994 18.0325L169.112 79.5285L169.112 79.5285L156.859 79.5285L156.859 79.5285L136.977 18.0325L136.977 18.0325L147.15 18.0325L147.15 18.0325L152.698 36.06551L152.698 36.06551L172.811 36.06551L172.811 36.06551L178.36 18.0325zM170.962 43.6945L154.548 43.6945L154.548 43.6945L162.639 70.7435zM220.205 17.10751C 246.329 17.10751 246.329 63.3455 221.592 63.3455C 210.264 63.3455 206.334 55.0235 206.334 55.0235L206.334 55.0235L205.871 62.4205L205.871 62.4205L197.086 62.4205L197.086 62.4205L197.549 51.7855L197.549 51.7855L197.549 -0.0004959106L197.549 -0.0004959106L207.49 -0.0004959106L207.49 -0.0004959106L207.49 23.3505C 207.49 23.3505 210.495 17.10751 220.205 17.10751M218.355 55.4845C 234.076 55.4845 234.076 24.7365 218.124 24.7365C 207.721 24.7365 207.49 35.6035 207.49 35.6035L207.49 35.6035L207.49 43.6945C 207.49 43.6945 207.721 55.4845 218.355 55.4845M325.858 17.10751C 338.573 17.10751 348.052 23.3505 348.052 35.37151C 348.052 45.0815 341.116 49.9365 332.562 53.4035C 327.013 55.7165 320.771 58.0275 320.771 64.27051C 320.771 69.5875 325.626 72.3615 331.406 72.3615C 338.111 72.3615 343.197 69.5875 343.197 69.5875L343.197 69.5875L345.74 77.4475C 345.74 77.4475 340.654 80.45351 331.637 80.45351C 320.309 80.45351 310.83 73.9805 310.83 63.1135C 310.83 55.4845 316.148 49.4745 327.013 45.5435C 333.024 43.4635 338.111 40.6895 338.111 34.4465C 338.111 28.20451 333.024 25.1995 326.32 25.1995C 317.766 25.1995 312.218 29.1295 312.218 29.1295L312.218 29.1295L309.906 21.0375C 309.906 21.0375 314.761 17.10751 325.858 17.10751M360.073 32.5975C 360.073 22.6565 363.541 17.10751 372.557 17.10751C 377.412 17.10751 380.187 18.2645 380.187 18.2645L380.187 18.2645L379.955 25.6615C 379.955 25.6615 378.106 25.1995 375.563 25.1995C 371.633 25.1995 369.783 27.9745 369.783 33.5225L369.783 33.5225L369.783 55.0235L369.783 55.0235L380.649 55.0235L380.649 55.0235L380.649 62.4205L380.649 62.4205L369.783 62.4205L369.783 62.4205L369.783 73.5175L369.783 73.5175L360.073 70.5125L360.073 70.5125L360.073 62.4205L360.073 62.4205L353.6 62.4205L353.6 62.4205L353.6 55.0235L353.6 55.0235L360.073 55.0235zM429.661 40.4575C 429.661 71.20551 386.198 71.4375 386.198 39.7645C 386.198 9.016502 429.661 9.4795 429.661 40.4575M419.489 40.2265C 419.489 18.9575 396.138 18.7265 396.138 39.9955C 396.138 61.0335 419.489 61.4955 419.489 40.2265M448.156 42.53851C 448.156 42.53851 448.387 54.0985 458.559 54.0985C 460.178 54.0985 461.565 53.8665 461.565 53.8665L461.565 53.8665L461.565 63.1135C 461.565 63.1135 460.178 63.3455 459.253 63.3455C 449.543 63.3455 447 53.4035 447 53.4035L447 53.4035L446.537 62.4205L446.537 62.4205L437.984 62.4205L437.984 62.4205L438.215 52.9415L438.215 52.9415L438.215 18.0325L438.215 18.0325L448.156 18.0325zM488.382 17.10751C 496.936 17.10751 503.179 19.8825 503.179 19.8825L503.179 19.8825L501.791 26.8175C 501.791 26.8175 497.399 24.7365 489.769 24.7365C 475.205 24.7365 475.898 37.91451 475.898 37.91451L475.898 37.91451L505.49 37.91451C 506.877 51.7855 501.329 63.3455 487.226 63.3455C 472.199 63.3455 466.42 50.1675 466.42 39.7645C 466.42 27.7425 473.124 17.10751 488.382 17.10751M475.898 44.8505C 475.898 47.1625 478.21 56.6415 486.533 56.6415C 496.936 56.6415 496.243 44.8505 496.243 44.8505zM167.725 117.4425C 167.725 127.1525 161.714 132.0085 151.311 132.0085C 146.687 132.0085 142.988 131.3155 142.988 131.3155L142.988 131.3155L142.988 101.7225C 142.988 101.7225 147.15 101.2605 149.924 101.2605C 161.021 101.2605 167.725 106.5775 167.725 117.4425M162.639 117.2125C 162.639 109.5825 158.709 105.1905 151.08 105.1905C 148.999 105.1905 147.612 105.4215 147.612 105.4215L147.612 105.4215L147.612 127.8465C 147.612 127.8465 149.924 128.0775 151.542 128.0775C 158.94 128.0775 162.639 124.3785 162.639 117.2125M231.071 123.4545L226.447 123.4545L226.447 123.4545L222.054 106.1145L222.054 106.1145L217.43 123.4545L217.43 123.4545L213.5 123.4545L213.5 123.4545L208.414 106.1145L208.414 106.1145L204.484 123.4545L204.484 123.4545L199.629 123.4545L199.629 123.4545L206.102 101.4915L206.102 101.4915L210.726 101.4915L210.726 101.4915L215.35 117.6745L215.35 117.6745L219.742 101.4915L219.742 101.4915L224.366 101.4915zM264.824 101.4915L269.679 101.4915L269.679 101.4915L269.679 133.3945L269.679 133.3945L264.824 133.3945zM303.663 107.5025C 303.663 100.3355 313.142 98.9485 316.841 104.0345L316.841 104.0345L317.304 101.4915L317.304 101.4915L321.696 101.4915L321.696 101.4915L321.234 105.6525L321.234 105.6525L321.234 114.8995C 321.234 120.9105 318.46 123.9165 312.68 123.9165C 308.056 123.9165 305.282 122.0665 305.282 122.0665L305.282 122.0665L306.206 118.8305C 306.206 118.8305 308.287 120.4485 311.986 120.4485C 315.223 120.4485 316.379 118.8305 316.379 115.5945C 309.906 115.8245 303.663 113.5135 303.663 107.5025M308.518 107.9645C 308.518 113.2815 316.61 112.3565 316.61 112.3565L316.61 112.3565L316.61 109.1205C 316.61 104.0345 308.518 102.6475 308.518 107.9645M337.417 101.0285C 342.965 101.0285 344.584 104.9595 344.584 104.9595L344.584 104.9595L344.815 101.4915L344.815 101.4915L349.207 101.4915C 349.207 101.4915 348.976 104.7285 348.976 107.5025L348.976 107.5025L348.976 133.3955L348.976 133.3955L344.121 133.3955L344.121 133.3955L344.121 120.9105C 344.121 120.9105 342.503 123.9165 337.879 123.9165C 325.395 123.9165 324.933 101.0285 337.417 101.0285M339.035 119.9855C 344.121 119.9855 344.121 114.4385 344.121 114.4385L344.121 114.4385L344.121 110.7385C 344.121 110.7385 344.121 104.9595 338.804 104.9595C 331.406 104.9595 330.944 119.9855 339.035 119.9855M390.59 112.5885C 390.59 127.6155 369.321 127.6155 369.321 112.3565C 369.321 96.8675 390.59 97.3295 390.59 112.5885M385.504 112.5885C 385.504 101.9535 374.176 101.7225 374.176 112.3565C 374.176 122.7605 385.504 122.9915 385.504 112.5885M439.139 108.6575C 439.139 104.0345 440.989 101.0285 445.15 101.0285C 447.925 101.0285 449.08 101.7225 449.08 101.7225L449.08 101.7225L448.849 105.4215C 448.849 105.4215 448.156 105.1905 446.769 105.1905C 444.919 105.1905 443.994 106.3465 443.994 109.1205L443.994 109.1205L443.994 119.7555L443.994 119.7555L449.312 119.7555L449.312 119.7555L449.312 123.4545L449.312 123.4545L443.994 123.4545L443.994 123.4545L443.994 128.7715L443.994 128.7715L439.139 127.3845L439.139 127.3845L439.139 123.4545L439.139 123.4545L435.903 123.4545L435.903 123.4545L435.903 119.7555L435.903 119.7555L439.139 119.7555zM492.775 101.2605C 497.399 101.2605 500.173 102.4165 500.173 102.4165L500.173 102.4165L499.479 105.8845C 499.479 105.8845 497.63 104.9595 493.469 104.9595C 486.302 104.9595 486.533 111.2005 486.533 111.2005L486.533 111.2005L501.098 111.2005C 502.254 116.5185 499.711 123.9165 492.312 123.9165C 485.608 123.9165 481.909 118.1375 481.909 112.1255C 481.909 106.5775 484.914 101.2605 492.775 101.2605M486.533 114.6695C 486.533 114.6695 486.995 120.4485 491.85 120.4485C 497.168 120.4485 496.705 114.6695 496.705 114.6695z" stroke="none" fill="#222426" fill-rule="nonzero" />
		</g>
	</g>
</g>
</svg>