<?xml version="1.0" encoding="UTF-8" standalone="no"?>
<!DOCTYPE svg PUBLIC "-//W3C//DTD SVG 1.1//EN" "http://www.w3.org/Graphics/SVG/1.1/DTD/svg11.dtd">
<svg xmlns="http://www.w3.org/2000/svg" xmlns:xlink="http://www.w3.org/1999/xlink" version="1.1" width="316pt" height="418.533pt" viewBox="0 0 316 418.533">
<g enable-background="new">
<g>
<g id="Layer-1" data-name="Layer">
<clipPath id="cp0">
<path transform="matrix(1,0,0,-1,0,418.533)" d="M 0 418.533 L 316 418.533 L 316 0 L 0 0 Z "/>
</clipPath>
<g clip-path="url(#cp0)">
<path transform="matrix(1,0,0,-1,2.2146,234.9314)" d="M 0 0 L 2.134 -1.22 L 2.134 -183.602 L 19.528 -183.602 L 19.528 183.123 C 19.528 202.129 34.936 217.536 53.941 217.536 L 73.374 217.536 C 76.459 217.536 78.96 215.036 78.96 211.951 L 78.96 209.08 C 78.96 199.98 86.336 192.604 95.436 192.604 L 216.135 192.604 C 225.234 192.604 232.611 199.98 232.611 209.08 L 232.611 211.951 C 232.611 215.036 235.112 217.536 238.197 217.536 L 257.629 217.536 C 276.635 217.536 292.042 202.129 292.042 183.123 L 292.042 -183.602 L 309.437 -183.602 L 309.437 13.431 L 311.57 14.65 C 312.939 15.433 313.785 16.889 313.785 18.467 L 313.785 81.783 C 313.785 83.36 312.939 84.816 311.57 85.6 L 309.437 86.818 L 309.437 183.123 C 309.437 211.69 286.196 234.931 257.629 234.931 L 53.941 234.931 C 25.374 234.931 2.134 211.69 2.134 183.123 L 2.134 147.545 L 0 146.325 C -1.369 145.543 -2.215 144.086 -2.215 142.508 L -2.215 129.057 C -2.215 127.479 -1.369 126.022 0 125.24 L 2.134 124.021 L 2.134 102.318 L 0 101.1 C -1.369 100.316 -2.215 98.86 -2.215 97.283 L -2.215 60.639 C -2.215 59.061 -1.369 57.604 0 56.821 L 2.134 55.602 L 2.134 45.496 L 0 44.277 C -1.369 43.495 -2.215 42.038 -2.215 40.461 L -2.215 3.816 C -2.215 2.238 -1.369 .782 0 0 " fill="#00cc89"/>
<path transform="matrix(1,0,0,-1,191.9197,20.293702)" d="M 0 0 C -2.883 0 -5.219 -2.337 -5.219 -5.219 C -5.219 -8.101 -2.883 -10.437 0 -10.437 C 2.882 -10.437 5.218 -8.101 5.218 -5.219 C 5.218 -2.337 2.882 0 0 0 M -15.945 -2.899 L -51.894 -2.899 C -53.17 -2.899 -54.213 -3.943 -54.213 -5.219 C -54.213 -6.494 -53.17 -7.538 -51.894 -7.538 L -15.945 -7.538 C -14.67 -7.538 -13.626 -6.494 -13.626 -5.219 C -13.626 -3.943 -14.67 -2.899 -15.945 -2.899 " fill="#ffffff"/>
</g>
</g>
</g>
</g>
</svg>
