<?xml version="1.0" standalone="no"?>
<!DOCTYPE svg PUBLIC "-//W3C//DTD SVG 1.0//EN" "http://www.w3.org/TR/2001/REC-SVG-20010904/DTD/svg10.dtd">
<svg xmlns="http://www.w3.org/2000/svg" xmlns:xlink="http://www.w3.org/1999/xlink" id="body_1" width="167" height="35">

<defs>
    <clipPath  id="1">

    <path id=""  clip-rule="evenodd" transform="matrix(1 0 0 1 0 0)"  d="M0 26L0 -0.1238995L0 -0.1238995L125.11 -0.1238995L125.11 -0.1238995L125.11 26L125.11 26L0 26z" />    </clipPath>
    <clipPath  id="2">

    <path id=""  clip-rule="evenodd" transform="matrix(1 0 0 1 0 0)"  d="M0 -0.1240005L125.11 -0.1240005L125.11 -0.1240005L125.11 26L125.11 26L0 26z" />    </clipPath>
</defs>

<g transform="matrix(1.3333 0 0 1.3333 0 0)">
	<g clip-path="url(#1)" >
		<g clip-path="url(#2)" >
    <path id=""  transform="matrix(1 0 0 -1 0 26)"  d="M16.2181 25.7321C 9.222099 27.4781 2.135101 23.2191 0.391098 16.2201C -1.353897 9.223099 2.905098 2.1361 9.900101 0.391099C 16.8981 -1.353901 23.9861 2.904099 25.7301 9.9021C 27.4741 16.8991 23.2161 23.9881 16.2181 25.7321M18.8201 14.9231C 18.6311 13.6501 17.9261 13.0341 16.9901 12.8181C 18.2761 12.1491 18.9301 11.1221 18.3061 9.3431C 17.5321 7.1331 15.6951 6.946099 13.2511 7.408099L13.2511 7.408099L12.6581 5.031099L12.6581 5.031099L11.2251 5.389099L11.2251 5.389099L11.8111 7.733099C 11.4391 7.826099 11.0601 7.924099 10.6681 8.0301L10.6681 8.0301L10.0811 5.674099L10.0811 5.674099L8.650101 6.031099L8.650101 6.031099L9.242104 8.4121C 8.907104 8.498099 8.5681 8.5891 8.2211 8.6761L8.2211 8.6761L6.356102 9.142099L6.356102 9.142099L7.0681 10.7811C 7.0681 10.7811 8.1231 10.5011 8.1091 10.5221C 8.515099 10.4211 8.695099 10.6861 8.766098 10.8621L8.766098 10.8621L9.703102 14.6191C 9.756104 14.6071 9.807098 14.5941 9.855103 14.5821C 9.797104 14.6051 9.745102 14.6191 9.705101 14.6301L9.705101 14.6301L10.3741 17.3121C 10.3921 17.6161 10.2861 18.0001 9.7061 18.1461C 9.729103 18.1601 8.6651 18.4041 8.6651 18.4041L8.6651 18.4041L9.047104 19.9351L9.047104 19.9351L11.0231 19.4411L11.0231 19.4411L11.0221 19.4341C 11.3191 19.3601 11.6241 19.2901 11.9371 19.2191L11.9371 19.2191L12.5241 21.5721L12.5241 21.5721L13.9561 21.2151L13.9561 21.2151L13.3811 18.9071C 13.7651 18.8201 14.1531 18.7321 14.5291 18.6381L14.5291 18.6381L15.1011 20.9301L15.1011 20.9301L16.5331 20.5721L16.5331 20.5721L15.9471 18.2191C 17.7561 17.5951 19.0791 16.6611 18.8201 14.9231M11.9211 12.9091L11.1341 9.755099C 12.1061 9.514099 15.1021 8.552099 15.5451 10.3311C 16.0081 12.1871 12.8931 12.6671 11.9211 12.9091M12.9941 17.2151L12.2811 14.3541C 13.0901 14.1521 15.5841 13.3291 15.9891 14.9481C 16.4091 16.6371 13.8041 17.0141 12.9941 17.2151M42.9431 16.1381C 42.4311 16.7751 41.7931 17.2821 41.0211 17.6581C 40.2511 18.0311 39.3361 18.2211 38.2781 18.2211C 37.7711 18.2211 37.2981 18.1631 36.8571 18.0541C 36.4151 17.9421 35.9741 17.7891 35.5351 17.5921L35.5351 17.5921L37.5831 26.1201L37.5831 26.1201L32.4611 25.3261L32.4611 25.3261L26.7411 1.2941C 27.3811 0.9840994 28.0601 0.7410994 28.7761 0.5670996C 29.4901 0.3900995 30.1681 0.2580996 30.8091 0.1680994C 31.4461 0.08209991 32.0151 0.03109932 32.5091 0.02109909C 33.0041 0.01109982 33.3541 0.005099297 33.5531 0.005099297C 35.0941 0.005099297 36.5291 0.2970991 37.8481 0.8820992C 39.1701 1.4661 40.3171 2.257099 41.2861 3.259099C 42.2581 4.264099 43.0221 5.4401 43.5851 6.7981C 44.1481 8.1521 44.4271 9.591099 44.4271 11.1121C 44.4271 12.1031 44.3061 13.0281 44.0651 13.8891C 43.8231 14.7471 43.4471 15.4961 42.9431 16.1381M39.1061 8.269099C 38.8201 7.476099 38.4281 6.766099 37.9331 6.1361C 37.4381 5.5081 36.8471 5.0041 36.1611 4.6311C 35.4791 4.259099 34.7521 4.068099 33.9811 4.068099C 33.7391 4.068099 33.5431 4.069099 33.3861 4.069099C 33.2301 4.069099 33.1011 4.076099 32.9881 4.088099C 32.8811 4.1001 32.7741 4.1151 32.6761 4.1381C 32.5771 4.158099 32.4611 4.1811 32.3291 4.2041L32.3291 4.2041L34.5101 13.2611C 34.9081 13.6111 35.3541 13.8441 35.8511 13.9561C 36.3461 14.0631 36.7451 14.1211 37.0561 14.1211C 38.0021 14.1211 38.6551 13.8221 39.0071 13.2291C 39.3591 12.6321 39.5351 11.8081 39.5351 10.7501C 39.5351 9.889099 39.3911 9.062099 39.1061 8.269099M50.2691 20.5811C 50.8181 20.1741 51.4371 19.9711 52.1201 19.9711C 52.5821 19.9711 53.0161 20.0551 53.4251 20.2331C 53.8301 20.4101 54.1921 20.6471 54.4981 20.9431C 54.8081 21.2411 55.0551 21.5931 55.2411 22.0011C 55.4291 22.4091 55.5231 22.8451 55.5231 23.3091C 55.5231 24.1441 55.2461 24.7681 54.6971 25.1771C 54.1461 25.5841 53.5301 25.7871 52.8471 25.7871C 52.3831 25.7871 51.9481 25.6991 51.5391 25.5241C 51.1321 25.3461 50.7751 25.1081 50.4661 24.8131C 50.1561 24.5141 49.9091 24.1621 49.7201 23.7541C 49.5341 23.3451 49.4411 22.9111 49.4411 22.4491C 49.4411 21.6091 49.7141 20.9861 50.2691 20.5811M44.8461 0.4650993L49.7401 0.4650993L49.7401 0.4650993L53.9051 17.8521L53.9051 17.8521L48.9781 17.8521zM61.1011 13.8211L66.55611 13.8211L66.55611 13.8211L67.5471 17.8531L67.5471 17.8531L62.0591 17.8531L62.0591 17.8531L63.3181 22.9791L63.3181 22.9791L58.1931 22.1851L58.1931 22.1851L54.9511 8.4991C 54.6871 7.375099 54.5331 6.3081 54.4891 5.292099C 54.4451 4.279099 54.6011 3.380099 54.9511 2.6001C 55.3061 1.816099 55.8991 1.198099 56.7371 0.7450991C 57.5761 0.2960997 58.7551 0.07009983 60.2751 0.07009983C 61.3321 0.07009983 62.2471 0.1560993 63.0201 0.3340998C 63.7911 0.5100994 64.5071 0.719099 65.16811 0.9610996L65.16811 0.9610996L64.8031 4.731099C 64.2961 4.5531 63.7951 4.4161 63.3011 4.318099C 62.8041 4.219099 62.2891 4.168099 61.7621 4.168099C 61.1211 4.168099 60.6331 4.2581 60.2911 4.436099C 59.9481 4.6101 59.7121 4.8571 59.5801 5.1781C 59.4481 5.4971 59.3931 5.8761 59.4161 6.318099C 59.4381 6.759099 59.5141 7.2321 59.6481 7.7391zM77.7461 14.1521C 78.4301 14.1521 79.0081 14.0821 79.4811 13.9371C 79.9541 13.7941 80.4111 13.6361 80.8531 13.4571L80.8531 13.4571L82.5401 17.2941C 81.8991 17.6021 81.1901 17.8481 80.4061 18.0371C 79.6251 18.2261 78.73911 18.3191 77.7451 18.3191C 76.1591 18.3191 74.7191 18.0311 73.4341 17.4591C 72.14211 16.8851 71.0441 16.1021 70.1431 15.1131C 69.2401 14.1201 68.5421 12.9631 68.0591 11.6401C 67.5741 10.3181 67.3311 8.9051 67.3311 7.408099C 67.3311 6.418099 67.4721 5.470099 67.7471 4.566099C 68.0231 3.663099 68.4671 2.8761 69.0871 2.201099C 69.7031 1.528099 70.4861 0.9970999 71.43311 0.5980997C 72.3791 0.2030993 73.5361 0.004099846 74.9041 0.004099846C 75.9391 0.004099846 76.8321 0.09909916 77.5821 0.2820997C 78.3311 0.4720993 79.0131 0.6890993 79.6321 0.9290991L79.6321 0.9290991L79.26711 4.861099C 78.8031 4.665099 78.2761 4.498099 77.6791 4.366099C 77.0871 4.2351 76.4681 4.1691 75.8271 4.1691C 74.53011 4.1691 73.6351 4.5151 73.1511 5.210099C 72.6641 5.904099 72.4221 6.814099 72.4221 7.937099C 72.4221 9.833099 72.9041 11.3451 73.8611 12.4681C 74.8221 13.5901 76.1131 14.1521 77.7461 14.1521M97.1511 16.3011C 96.5851 16.9391 95.8701 17.4371 95.00211 17.7881C 94.1301 18.1411 93.1211 18.3191 91.97411 18.3191C 90.4111 18.3191 89.0211 17.9821 87.8121 17.3121C 86.6011 16.6371 85.5731 15.7721 84.73911 14.7131C 83.8991 13.6561 83.2641 12.4671 82.83611 11.1441C 82.4061 9.823099 82.1941 8.500099 82.1941 7.175099C 82.1941 6.1191 82.3321 5.1551 82.6211 4.285099C 82.9091 3.4141 83.3311 2.6591 83.8941 2.022099C 84.4561 1.380099 85.1661 0.8860998 86.0251 0.5340996C 86.8851 0.1820993 87.9001 0.004099846 89.0681 0.004099846C 90.6761 0.004099846 92.0941 0.3410997 93.3161 1.0131C 94.5391 1.6851 95.55811 2.550099 96.3731 3.6071C 97.1901 4.665099 97.80811 5.8571 98.2251 7.175099C 98.6411 8.500099 98.8511 9.8241 98.8511 11.1451C 98.8511 12.2011 98.7081 13.1671 98.4211 14.0361C 98.1351 14.9081 97.7101 15.6601 97.1511 16.3011M93.6821 8.483099C 93.4921 7.7231 93.21111 7.022099 92.83611 6.384099C 92.4601 5.7441 91.9961 5.215099 91.4491 4.7981C 90.8971 4.377099 90.2591 4.168099 89.5311 4.168099C 88.6051 4.168099 87.9681 4.4781 87.6131 5.0931C 87.2631 5.7111 87.0851 6.5701 87.0851 7.674099C 87.0851 8.3571 87.1771 9.077099 87.3651 9.838099C 87.5531 10.5981 87.8331 11.2971 88.2101 11.9381C 88.5831 12.5751 89.0461 13.1051 89.5971 13.5251C 90.1461 13.9411 90.7871 14.1521 91.5131 14.1521C 92.4381 14.1521 93.0781 13.8431 93.4311 13.2281C 93.7831 12.6091 93.96111 11.7481 93.96111 10.6491C 93.96111 9.966099 93.8661 9.2421 93.6821 8.483099M103.4171 17.8521L99.2851 0.4650993L99.2851 0.4650993L104.1821 0.4650993L104.1821 0.4650993L108.3461 17.8521zM104.7091 20.5811C 105.2581 20.1741 105.8771 19.9711 106.5601 19.9711C 107.0241 19.9711 107.4581 20.0551 107.8681 20.2331C 108.2751 20.4101 108.6311 20.6471 108.9421 20.9431C 109.2501 21.2411 109.4981 21.5931 109.6831 22.0011C 109.8681 22.4091 109.9671 22.8451 109.9671 23.3091C 109.9671 24.1441 109.6891 24.7681 109.1381 25.1771C 108.5881 25.5841 107.9701 25.7871 107.2861 25.7871C 106.8241 25.7871 106.3891 25.6991 105.9831 25.5241C 105.5761 25.3461 105.2151 25.1081 104.9081 24.8131C 104.5991 24.5141 104.3501 24.1621 104.1631 23.7541C 103.9771 23.3451 103.8821 22.9111 103.8821 22.4491C 103.8821 21.6091 104.1581 20.9861 104.7091 20.5811M124.2191 16.0031C 123.2371 17.5011 121.4581 18.2531 118.8771 18.2531C 117.9991 18.2531 117.2091 18.2151 116.5161 18.1361C 115.8231 18.0591 115.1921 17.9591 114.6331 17.8361C 114.0681 17.7171 113.5621 17.5851 113.1101 17.4421C 112.6581 17.3011 112.2431 17.1701 111.8721 17.0621L111.8721 17.0621L107.8701 0.4670992L107.8701 0.4670992L112.7971 0.4670992L112.7971 0.4670992L116.0041 13.9201C 116.6671 14.0531 117.3161 14.1211 117.9541 14.1211C 118.6151 14.1211 119.1041 13.9941 119.4261 13.7411C 119.7441 13.4841 119.9491 13.1531 120.0361 12.7481C 120.1271 12.3381 120.1311 11.8651 120.0541 11.3281C 119.9771 10.7861 119.8721 10.2321 119.7391 9.657099L119.7391 9.657099L117.5581 0.4670992L117.5581 0.4670992L122.4831 0.4670992L122.4831 0.4670992L124.7341 9.8551C 125.3701 12.4541 125.2001 14.5051 124.2191 16.0031" stroke="none" fill="#7A8599" fill-rule="nonzero" />
		</g>
	</g>
</g>
</svg>