<?xml version="1.0" standalone="no"?>
<!DOCTYPE svg PUBLIC "-//W3C//DTD SVG 1.0//EN" "http://www.w3.org/TR/2001/REC-SVG-20010904/DTD/svg10.dtd">
<svg xmlns="http://www.w3.org/2000/svg" xmlns:xlink="http://www.w3.org/1999/xlink" id="body_1" width="184" height="23">

<defs>
    <clipPath  id="1">

    <path id=""  clip-rule="evenodd" transform="matrix(1 0 0 1 0 0)"  d="M0 17L0 -0.4962997L0 -0.4962997L138.61 -0.4962997L138.61 -0.4962997L138.61 17L138.61 17L0 17z" />    </clipPath>
    <clipPath  id="2">

    <path id=""  clip-rule="evenodd" transform="matrix(1 0 0 1 0 0)"  d="M0 -0.4960003L138.61 -0.4960003L138.61 -0.4960003L138.61 17L138.61 17L0 17z" />    </clipPath>
</defs>

<g transform="matrix(1.3333 0 0 1.3333 0 0)">
	<g clip-path="url(#1)" >
		<g clip-path="url(#2)" >
    <path id=""  transform="matrix(1 0 0 -1 0 17)"  d="M36.0872 0.3878999C 35.2602 0.3878999 34.4292 0.4129 33.6132 0.4678998C 32.7522 0.5249 31.8952 0.6438999 31.0512 0.8238997L31.0512 0.8238997L31.0512 15.4719C 31.8102 15.6109 32.5762 15.7089 33.3462 15.7649C 34.1732 15.8329 34.9452 15.8659 35.6622 15.8639C 36.5512 15.8719 37.4372 15.8009 38.3132 15.6519C 39.0442 15.5429 39.7492 15.3039 40.3952 14.9479C 40.9592 14.6349 41.4292 14.1789 41.7612 13.6279C 42.1052 13.0129 42.2772 12.3179 42.2572 11.6139C 42.2572 10.4069 41.6752 9.4549 40.5102 8.7599C 41.4742 8.4029 42.1232 7.8989 42.4692 7.2809C 42.8212 6.6339 43.0022 5.9059 42.9932 5.1679C 42.9932 3.5799 42.4102 2.3929 41.2572 1.5969C 40.0832 0.7799001 38.3732 0.3878999 36.0872 0.3878999M34.3652 9.7539L36.0212 9.7539C 37.0752 9.7539 37.8122 9.8869 38.2722 10.1549C 38.7212 10.4279 38.9802 10.9279 38.9442 11.4519C 38.9442 12.0659 38.7112 12.4909 38.2522 12.7379C 37.7812 12.9849 37.0982 13.1089 36.2032 13.1089C 35.9112 13.1089 35.5992 13.1089 35.2632 13.0979C 34.9272 13.0889 34.6362 13.0739 34.3682 13.0439C 34.3652 13.0439 34.3652 9.7539 34.3652 9.7539M34.3652 7.1569L34.3652 3.2529C 34.6122 3.2189 34.8792 3.1979 35.1712 3.1849C 35.4632 3.1729 35.7852 3.1619 36.1352 3.1619C 36.9772 3.1289 37.8172 3.2769 38.5972 3.5969C 39.2252 3.8889 39.5382 4.4239 39.5382 5.2099C 39.5382 5.9019 39.2802 6.4069 38.7562 6.6979C 38.2302 7.0009 37.4792 7.1439 36.5052 7.1439L36.5052 7.1439L34.3672 7.1439L34.3672 7.1439L34.3672 7.1589z" stroke="none" fill="#7A8599" fill-rule="nonzero" />
    <path id=""  transform="matrix(1 0 0 -1 0 17)"  d="M47.836 15.359C 47.864 14.825 47.649 14.307 47.253 13.949C 46.472 13.263 45.304 13.263 44.522 13.949C 44.129 14.31 43.916 14.826 43.939 15.359C 43.911 15.893 44.126 16.411 44.522 16.769C 44.896 17.105 45.384 17.289 45.888 17.284C 46.392 17.292 46.88 17.108 47.253 16.769C 47.648 16.41 47.862 15.892 47.836 15.359M47.524 0.577L44.279 0.577L44.279 0.577L44.279 12.049L44.279 12.049L47.524 12.049z" stroke="none" fill="#7A8599" fill-rule="nonzero" />
    <path id=""  transform="matrix(1 0 0 -1 0 17)"  d="M49.2704 14.903L52.5154 15.427L52.5154 15.427L52.5154 12.049L52.5154 12.049L56.4184 12.049L56.4184 12.049L56.4184 9.341L56.4184 9.341L52.5154 9.341L52.5154 9.341L52.5154 5.315C 52.4904 4.749 52.6134 4.186 52.8724 3.681C 53.1054 3.28 53.5994 3.068 54.3264 3.068C 54.6864 3.07 55.0454 3.103 55.4004 3.168C 55.7464 3.23 56.0864 3.32 56.4184 3.434999L56.4184 3.434999L56.8784 0.9069996C 56.4534 0.7349997 56.0154 0.5959997 55.5684 0.4919996C 54.9884 0.3649998 54.3954 0.3039999 53.8014 0.3129997C 53.0504 0.2930002 52.3024 0.4139996 51.5964 0.6700001C 51.0484 0.8769999 50.5654 1.224 50.1964 1.677999C 49.8354 2.132 49.5864 2.664 49.4694 3.231C 49.3264 3.896 49.2544 4.575 49.2564 5.256L49.2564 5.256L49.2564 14.903z" stroke="none" fill="#7A8599" fill-rule="nonzero" />
    <path id=""  transform="matrix(1 0 0 -1 0 17)"  d="M56.8788 6.3093C 56.8728 7.1073 57.0098 7.8993 57.2798 8.6493C 57.7908 10.0953 58.8868 11.2603 60.2988 11.8603C 61.0838 12.1953 61.9298 12.3583 62.7828 12.3403C 63.3468 12.3463 63.9088 12.2893 64.4598 12.1723C 64.9668 12.0613 65.4618 11.9043 65.9388 11.7023L65.9388 11.7023L65.2678 9.1053C 64.9378 9.2263 64.6008 9.3273 64.2588 9.4073C 63.8578 9.500299 63.4478 9.5453 63.0368 9.5403C 62.0728 9.5403 61.3588 9.2393 60.8898 8.6453C 60.4198 8.052299 60.1868 7.2703 60.1868 6.2953C 60.1868 5.2663 60.4088 4.4603 60.8458 3.9013C 61.2908 3.3313 62.0658 3.0503 63.1608 3.0503C 63.5848 3.0513 64.0088 3.0893 64.4268 3.1633C 64.8528 3.2283 65.2698 3.3443 65.6688 3.5093L65.6688 3.5093L66.1278 0.8473001C 65.6698 0.6633 65.1928 0.5243001 64.7078 0.4323001C 64.0888 0.3112998 63.4588 0.2512999 62.8278 0.2532997C 61.9028 0.2322998 60.9838 0.3912997 60.1208 0.7242999C 59.4108 1.0043 58.7718 1.4403 58.2518 1.9993C 57.7578 2.5453 57.3938 3.1973 57.1888 3.9043C 56.9828 4.6893 56.8798 5.4973 56.8788 6.3093" stroke="none" fill="#7A8599" fill-rule="nonzero" />
    <path id=""  transform="matrix(1 0 0 -1 0 17)"  d="M77.3109 6.3298C 77.3189 5.4898 77.1869 4.6538 76.9199 3.8568C 76.6839 3.1458 76.2989 2.4938 75.7909 1.9418C 75.2919 1.4108 74.6849 0.9907999 74.0109 0.7108002C 72.5249 0.1308002 70.8749 0.1308002 69.3899 0.7108002C 68.7159 0.9898 68.1079 1.4098 67.6089 1.9418C 67.0989 2.4948 66.7059 3.1458 66.4569 3.8568C 66.1709 4.6498 66.0299 5.4878 66.0419 6.3298C 66.0319 7.1708 66.1759 8.0058 66.4669 8.7938C 66.7249 9.4968 67.1239 10.1408 67.6409 10.6838C 68.1459 11.2098 68.7559 11.6258 69.4309 11.9048C 70.1469 12.2008 70.9169 12.3498 71.6909 12.3408C 72.4739 12.3498 73.2489 12.2008 73.9729 11.9048C 74.6459 11.6298 75.2539 11.2138 75.7529 10.6838C 76.2629 10.1398 76.6549 9.4958 76.9059 8.7938C 77.1809 8.001801 77.3169 7.1688 77.3109 6.3298M73.9999 6.3298C 73.9999 7.3388 73.7979 8.1208 73.3959 8.6898C 72.6889 9.6388 71.3469 9.8338 70.3979 9.1258C 70.2329 9.0028 70.0859 8.855801 69.9629 8.6898C 69.5619 8.1208 69.3489 7.3248 69.3489 6.3298C 69.3489 5.3218 69.5509 4.5298 69.9629 3.9458C 70.6379 2.9978 71.9539 2.7758 72.9019 3.4518C 73.0939 3.5878 73.2609 3.7548 73.3959 3.9458C 73.7989 4.5398 73.9989 5.3348 73.9989 6.3298z" stroke="none" fill="#7A8599" fill-rule="nonzero" />
    <path id=""  transform="matrix(1 0 0 -1 0 17)"  d="M82.169 15.359C 82.197 14.825 81.982 14.307 81.586 13.949C 80.805 13.263 79.637 13.263 78.855 13.949C 78.462 14.31 78.248 14.826 78.272 15.359C 78.244 15.893 78.459 16.411 78.855 16.769C 79.229 17.105 79.717 17.289 80.221 17.284C 80.725 17.292 81.213 17.108 81.586 16.769C 81.981 16.41 82.195 15.892 82.169 15.359M81.867 0.577L78.62199 0.577L78.62199 0.577L78.62199 12.049L78.62199 12.049L81.867 12.049z" stroke="none" fill="#7A8599" fill-rule="nonzero" />
    <path id=""  transform="matrix(1 0 0 -1 0 17)"  d="M83.7119 11.6579C 84.4149 11.8499 85.1289 11.9999 85.8509 12.1029C 86.7569 12.2439 87.6739 12.3149 88.5909 12.3159C 89.4179 12.3429 90.2409 12.2129 91.0209 11.9349C 91.6159 11.7179 92.1449 11.3469 92.5539 10.8619C 92.94189 10.3769 93.2179 9.8099 93.3589 9.2049C 93.5239 8.5049 93.6019 7.7869 93.5929 7.0669L93.5929 7.0669L93.5929 0.5879002L93.5929 0.5879002L90.3479 0.5879002L90.3479 0.5879002L90.3479 6.6769C 90.3479 7.7289 90.2139 8.467899 89.9329 8.9029C 89.6509 9.3389 89.1369 9.5519 88.3889 9.5519C 88.1549 9.5519 87.9079 9.540899 87.6509 9.5169C 87.3949 9.4929 87.1569 9.4719 86.9579 9.4379L86.9579 9.4379L86.9579 0.5879002L86.9579 0.5879002L83.7129 0.5879002L83.7129 0.5879002L83.7129 11.6579z" stroke="none" fill="#7A8599" fill-rule="nonzero" />
    <path id=""  transform="matrix(1 0 0 -1 0 17)"  d="M102.4667 0.2751C 100.0037 0.2751 98.1377 0.9581 96.8507 2.3231C 95.5647 3.6881 94.9267 5.6241 94.9267 8.1411C 94.9087 9.2841 95.11169 10.4201 95.5197 11.4861C 95.8777 12.4181 96.4267 13.2641 97.1317 13.9691C 97.8257 14.6501 98.6577 15.1721 99.57069 15.5041C 100.5587 15.8591 101.6007 16.0371 102.6497 16.0281C 103.2347 16.0341 103.8197 15.9861 104.3957 15.8841C 104.8617 15.8071 105.3207 15.6981 105.7717 15.5581C 106.1097 15.4571 106.4387 15.3301 106.7557 15.1771C 107.0137 15.0441 107.2017 14.9441 107.3247 14.8761L107.3247 14.8761L106.3407 12.1341C 105.8237 12.4021 105.2797 12.6121 104.7177 12.7621C 104.0317 12.9461 103.3237 13.0331 102.6147 13.0191C 102.0927 13.0181 101.5747 12.9311 101.0817 12.7621C 100.5807 12.5841 100.1267 12.2961 99.75069 11.9211C 99.3417 11.4951 99.0257 10.9881 98.82069 10.4331C 98.5717 9.7171 98.4547 8.963099 98.4747 8.2071C 98.47269 7.5501 98.5467 6.8961 98.6967 6.2571C 98.8347 5.6961 99.0857 5.1681 99.4347 4.7051C 99.79169 4.2561 100.2517 3.8991 100.7767 3.6661C 101.4077 3.3941 102.0917 3.2641 102.7787 3.2851C 103.2247 3.2841 103.6687 3.3141 104.1107 3.3751C 104.4657 3.4211 104.8177 3.4931 105.1637 3.5881C 105.4387 3.6581 105.7077 3.7471 105.9697 3.8551C 106.2027 3.9551 106.4157 4.0571 106.5977 4.1361L106.5977 4.1361L107.5367 1.4061C 106.9017 1.0531 106.2207 0.7911 105.5137 0.6241C 104.5167 0.3781 103.4927 0.2611 102.4667 0.2751" stroke="none" fill="#7A8599" fill-rule="nonzero" />
    <path id=""  transform="matrix(1 0 0 -1 0 17)"  d="M112.6277 12.3503C 113.4387 12.3703 114.2457 12.2593 115.0227 12.0253C 115.6057 11.8473 116.1337 11.5243 116.5557 11.0843C 116.9457 10.6663 117.2257 10.1593 117.3717 9.6063C 117.5337 8.9743 117.6137 8.3233 117.6057 7.6703L117.6057 7.6703L117.6057 0.9133C 117.1357 0.8132999 116.4967 0.6903 115.6697 0.5562999C 114.6737 0.4063001 113.6677 0.3343 112.6607 0.3433001C 111.9847 0.3362999 111.3097 0.4052999 110.6477 0.5453C 110.0947 0.6603 109.5687 0.8753 109.0947 1.1843C 108.6627 1.4773 108.3157 1.8773 108.0857 2.3463C 107.8377 2.9023 107.7197 3.5053 107.7387 4.1133C 107.7217 4.7053 107.8597 5.2923 108.1417 5.8153C 108.3967 6.2713 108.7667 6.6533 109.2147 6.9223C 109.6897 7.2133 110.2127 7.4183 110.7587 7.5273C 111.3547 7.6533 111.9607 7.7153 112.5707 7.7153C 112.9947 7.7153 113.3647 7.6913 113.6887 7.6613C 113.9577 7.6383 114.2247 7.5903 114.4847 7.5163L114.4847 7.5163L114.4847 7.8183C 114.5057 8.3123 114.3227 8.7933 113.9797 9.1493C 113.6437 9.4863 113.0637 9.6543 112.2337 9.6543C 111.6877 9.6523 111.1417 9.6113 110.6007 9.5303C 110.1237 9.4673 109.6547 9.3553 109.2007 9.1943L109.2007 9.1943L108.7857 11.8113C 108.9747 11.8663 109.2107 11.9353 109.4887 11.9993C 109.7677 12.0653 110.0827 12.1233 110.4187 12.1783C 110.7547 12.2333 111.1017 12.2683 111.4717 12.3123C 111.8657 12.3273 112.2467 12.3503 112.6277 12.3503M112.8847 2.8513C 113.2107 2.8513 113.5127 2.8623 113.8007 2.8753C 114.0327 2.8793 114.2647 2.9023 114.4937 2.9433L114.4937 2.9433L114.4937 5.4073C 114.2977 5.4473 114.0997 5.4773 113.9007 5.4973C 113.6627 5.5283 113.4227 5.5423 113.1837 5.5423C 112.8957 5.5403 112.6087 5.5223 112.3227 5.4873C 112.0757 5.4623 111.8377 5.3903 111.6187 5.2753C 111.4247 5.1823 111.2587 5.0393 111.1387 4.8593C 111.0177 4.6653 110.9557 4.4403 110.9607 4.2113C 110.9607 3.7063 111.1287 3.3503 111.4747 3.1583C 111.9077 2.9273 112.3957 2.8223 112.8847 2.8513" stroke="none" fill="#7A8599" fill-rule="nonzero" />
    <path id=""  transform="matrix(1 0 0 -1 0 17)"  d="M122.6513 2.905C 123.0813 2.877 123.5123 2.937 123.9173 3.084C 124.1693 3.209 124.3163 3.476 124.2883 3.757C 124.2653 4.054 124.0813 4.317 123.8073 4.439C 123.3403 4.704 122.8503 4.925 122.3423 5.097C 121.8703 5.268 121.4073 5.467 120.9573 5.691C 120.5683 5.874 120.2123 6.12 119.9033 6.419C 119.6103 6.707 119.3803 7.052999 119.2313 7.437C 119.0633 7.891 118.9843 8.374 118.9983 8.857C 118.9623 9.851 119.4073 10.801 120.1953 11.41C 120.9903 12.038 122.0873 12.35 123.4853 12.349C 124.1573 12.348 124.8283 12.286 125.4883 12.161C 126.0063 12.071 126.5153 11.936 127.0113 11.759L127.0113 11.759L126.4423 9.231C 126.0393 9.372 125.6283 9.487 125.2113 9.578C 124.7213 9.684 124.2223 9.737 123.7213 9.735C 122.7033 9.735 122.1983 9.454 122.1983 8.884C 122.1963 8.765 122.2183 8.647 122.2663 8.538C 122.3253 8.421 122.4143 8.319 122.5233 8.246C 122.6943 8.13 122.8743 8.03 123.0623 7.947C 123.3413 7.81 123.6303 7.691 123.9233 7.59C 124.5303 7.371 125.1203 7.11 125.6903 6.807C 126.0973 6.592 126.4673 6.313 126.7883 5.981C 127.0473 5.698 127.2413 5.362 127.3573 4.997C 127.4773 4.586 127.5343 4.159 127.5253 3.73C 127.5253 2.602 127.0993 1.737 126.2493 1.168C 125.3983 0.585 124.2013 0.2969999 122.6483 0.2969999C 121.7953 0.28 120.9423 0.3669999 120.1093 0.553C 119.6313 0.6729999 119.1613 0.8169999 118.7003 0.99L118.7003 0.99L119.2493 3.632C 119.8003 3.414 120.3703 3.242 120.9503 3.116C 121.5063 2.976 122.0783 2.906 122.6513 2.905" stroke="none" fill="#7A8599" fill-rule="nonzero" />
    <path id=""  transform="matrix(1 0 0 -1 0 17)"  d="M128.7304 0.5769L128.7304 16.9719L128.7304 16.9719L131.9744 17.4969L131.9744 17.4969L131.9744 12.0009C 132.2514 12.0879 132.5314 12.1589 132.8154 12.2139C 133.1424 12.2789 133.4754 12.3119 133.8104 12.3129C 134.5994 12.3389 135.3854 12.2099 136.1264 11.9319C 136.7014 11.7039 137.2094 11.3349 137.6044 10.8579C 137.9824 10.3699 138.2504 9.804899 138.3854 9.2019C 138.5454 8.5009 138.6214 7.7829 138.6094 7.0629L138.6094 7.0629L138.6094 0.5839L138.6094 0.5839L135.3654 0.5839L135.3654 0.5839L135.3654 6.6769C 135.3654 7.7289 135.2304 8.467899 134.9634 8.902901C 134.6974 9.3389 134.1914 9.551901 133.4744 9.551901C 133.2004 9.5539 132.9264 9.526899 132.6584 9.4729C 132.4274 9.429899 132.2004 9.3729 131.9754 9.304899L131.9754 9.304899L131.9754 0.5879L131.9754 0.5879L128.7304 0.5879z" stroke="none" fill="#7A8599" fill-rule="nonzero" />
    <path id=""  transform="matrix(1 0 0 -1 0 17)"  d="M20.2919 -0.0003C 25.1229 3.3867 26.2949 10.0477 22.9089 14.8787C 22.1949 15.8957 21.3099 16.7817 20.2919 17.4957L20.2919 17.4957L28.3199 17.4957L28.3199 17.4957L28.3199 -0.0003z" stroke="none" fill="#7A8599" fill-rule="nonzero" />
    <path id=""  transform="matrix(1 0 0 -1 0 17)"  d="M3.4853 8.7487C 3.4823 5.2657 5.1823 1.9987 8.0373 0.001700401L8.0373 0.001700401L0.000300169 0.001700401L0.000300169 0.001700401L0.000300169 17.4957L0.000300169 17.4957L8.0373 17.4957C 5.1823 15.4987 3.4833 12.2327 3.4853 8.7487" stroke="none" fill="#7A8599" fill-rule="nonzero" />
    <path id=""  transform="matrix(1 0 0 -1 0 17)"  d="M15.1093 10.0817L15.1143 10.0887L15.1143 10.0887L15.1173 10.0927L15.1173 10.0927L15.1213 10.0977L15.1213 10.0977L15.1233 10.1007L15.1233 10.1007L15.1273 10.1047L15.1273 10.1047L15.1293 10.1077L15.1293 10.1077L15.1323 10.1127L15.1323 10.1127L15.1333 10.1157L15.1333 10.1157L15.1373 10.1207L15.1373 10.1207L15.1393 10.1237L15.1393 10.1237L15.1423 10.1287L15.1423 10.1287L15.1443 10.1317L15.1443 10.1317L15.1473 10.1367L15.1473 10.1367L15.1493 10.1387L15.1493 10.1387L15.1523 10.1437L15.1523 10.1437L15.1543 10.1457L15.1543 10.1457L15.1573 10.1507L15.1573 10.1507L15.1593 10.1527L15.1593 10.1527L15.1623 10.1577L15.1623 10.1577L15.1633 10.1607L15.1633 10.1607L15.1673 10.1657L15.1673 10.1657L15.1683 10.1687L15.1683 10.1687L15.1713 10.1737L15.1713 10.1737L15.1723 10.1757L15.1723 10.1757L15.1763 10.1807L15.1763 10.1807L15.1773 10.1837L15.1773 10.1837L15.1803 10.1867L15.1803 10.1867L15.1823 10.1897L15.1823 10.1897L15.1843 10.1937L15.1843 10.1937L15.1863 10.1967L15.1863 10.1967L15.1883 10.2017L15.1883 10.2017L15.1903 10.2037L15.1903 10.2037L15.1923 10.2087L15.1923 10.2087L15.1923 10.2107L15.1923 10.2107L15.1953 10.2157L15.1953 10.2157L15.1953 10.2177L15.1953 10.2177L15.1983 10.2217L15.1983 10.2217L15.1983 10.2247L15.1983 10.2247L15.2003 10.2277L15.2003 10.2277L15.2003 10.2297L15.2003 10.2297L15.2033 10.2347L15.2033 10.2347L15.2033 10.2367L15.2033 10.2367L15.2053 10.2417L15.2053 10.2417L15.2053 10.2437L15.2053 10.2437L15.2073 10.2477L15.2073 10.2477L15.2073 10.2497L15.2073 10.2497L15.2103 10.2547L15.2103 10.2547L15.2133 10.2607L15.2133 10.2607L15.2183 10.2747C 15.2883 10.4297 15.3063 10.6027 15.2713 10.7687L15.2713 10.7687L15.2713 10.7697C 15.2703 10.7747 15.2683 10.7797 15.2683 10.7847L15.2683 10.7847L15.2653 10.7887C 15.2653 10.7957 15.2643 10.8037 15.2623 10.8107C 15.2603 10.8167 15.2583 10.8217 15.2563 10.8297L15.2563 10.8297L15.2543 10.8337L15.2543 10.8337L15.2503 10.8477L15.2503 10.8477L15.2503 10.8507C 15.2003 11.0127 15.1003 11.1547 14.9653 11.2577C 14.9613 11.2597 14.9573 11.2637 14.9533 11.2657L14.9533 11.2657L14.9473 11.2687L14.9473 11.2687L14.9423 11.2717L14.9423 11.2717L14.9413 11.2717L14.9413 11.2717L14.9373 11.2747L14.9373 11.2747L14.9363 11.2747L14.9363 11.2747L14.9333 11.2807L14.9333 11.2807L14.9313 11.2807L14.9313 11.2807L14.9273 11.2827L14.9273 11.2827L14.9253 11.2827L14.9253 11.2827L14.9223 11.2857L14.9223 11.2857L14.9203 11.2857L14.9203 11.2857L14.9163 11.2887L14.9163 11.2887L14.9143 11.2897L14.9143 11.2897L14.9093 11.2927L14.9093 11.2927L14.9063 11.2947L14.9063 11.2947L14.9023 11.2967L14.9023 11.2967L14.8993 11.2987L14.8993 11.2987L14.8953 11.3007L14.8953 11.3007L14.8923 11.3027L14.8923 11.3027L14.8883 11.3047L14.8883 11.3047L14.8853 11.3067L14.8853 11.3067L14.8803 11.3087L14.8803 11.3087L14.8793 11.3107L14.8793 11.3107L14.8743 11.3127L14.8743 11.3127L14.8713 11.3147L14.8713 11.3147L14.8663 11.3177L14.8663 11.3177L14.8633 11.3197L14.8633 11.3197L14.8593 11.3227L14.8593 11.3227L14.8563 11.3237L14.8563 11.3237L14.8503 11.3267L14.8503 11.3267L14.8473 11.3287L14.8473 11.3287L14.8423 11.3307L14.8423 11.3307L14.8423 11.3367L14.8423 11.3367L14.8373 11.3397L14.8373 11.3397L14.8343 11.3407L14.8343 11.3407L14.8293 11.3437L14.8293 11.3437L14.8263 11.3457L14.8263 11.3457L14.8193 11.3497L14.8193 11.3497L14.8163 11.3507L14.8163 11.3507L14.8113 11.3527L14.8113 11.3527L14.8083 11.3537L14.8083 11.3537L14.8033 11.3577L14.8033 11.3577L14.8003 11.3587L14.8003 11.3587L14.7953 11.3617L14.7953 11.3617L14.7923 11.3627L14.7923 11.3627L14.7863 11.3677L14.7863 11.3677L14.7823 11.3687L14.7823 11.3687L14.7733 11.3727C 14.4753 11.5077 14.1403 11.5327 13.8263 11.4467C 13.6093 11.3907 12.9533 11.2257 12.7953 11.1847L12.7953 11.1847L13.2843 9.292701C 13.4423 9.3337 14.0973 9.5057 14.3153 9.5607C 14.6323 9.636701 14.9133 9.8197 15.1093 10.0817" stroke="none" fill="#7A8599" fill-rule="nonzero" />
    <path id=""  transform="matrix(1 0 0 -1 0 17)"  d="M16.4374 7.9597L16.4374 7.9597C 16.4364 7.9657 16.4354 7.9707 16.4344 7.9757L16.4344 7.9757L16.4314 7.9797C 16.4314 7.9897 16.4314 7.9987 16.4284 7.9987C 16.4264 8.006701 16.4244 8.0137 16.4224 8.0207L16.4224 8.0207L16.4204 8.0247L16.4204 8.0247L16.4164 8.0387L16.4164 8.0387L16.4144 8.0417C 16.3584 8.2197 16.2434 8.3727 16.0894 8.4777C 16.0844 8.4807 16.0794 8.4827 16.0744 8.4867L16.0744 8.4867L16.0684 8.4907L16.0684 8.4907L16.0634 8.4947L16.0634 8.4947L16.0604 8.4957L16.0604 8.4957L16.0564 8.4987L16.0564 8.4987L16.0534 8.499701L16.0534 8.499701L16.0484 8.5037L16.0484 8.5037L16.0454 8.5047L16.0454 8.5047L16.0414 8.5077L16.0414 8.5077L16.0394 8.5097L16.0394 8.5097L16.0344 8.5127L16.0344 8.5127L16.0314 8.5147L16.0314 8.5147L16.0274 8.5177L16.0274 8.5177L16.0244 8.5197L16.0244 8.5197L16.0194 8.5217L16.0194 8.5217L16.0164 8.5237L16.0164 8.5237L16.0094 8.5307L16.0094 8.5307L16.0064 8.532701L16.0064 8.532701L16.0014 8.5357L16.0014 8.5357L15.9994 8.5367L15.9994 8.5367L15.9944 8.539701L15.9944 8.539701L15.9914 8.5417L15.9914 8.5417L15.9854 8.5447L15.9854 8.5447L15.9824 8.5457L15.9824 8.5457L15.9774 8.5487L15.9774 8.5487L15.9744 8.5507L15.9744 8.5507L15.9684 8.5537L15.9684 8.5537L15.9654 8.5547L15.9654 8.5547L15.9604 8.5577L15.9604 8.5577L15.9584 8.558701L15.9584 8.558701L15.9534 8.5627L15.9534 8.5627L15.9504 8.5637L15.9504 8.5637L15.9444 8.565701L15.9444 8.565701L15.9414 8.5667L15.9414 8.5667L15.9344 8.5707L15.9344 8.5707L15.9324 8.5717L15.9324 8.5717L15.9254 8.5757L15.9254 8.5757L15.9224 8.5767L15.9224 8.5767L15.9164 8.5797L15.9164 8.5797L15.9144 8.5817L15.9144 8.5817L15.9074 8.5847L15.9074 8.5847L15.9034 8.5857L15.9034 8.5857L15.8964 8.5897L15.8964 8.5897L15.8934 8.5897L15.8934 8.5897L15.8864 8.5927L15.8864 8.5927L15.8834 8.5927L15.8834 8.5927L15.8754 8.5957L15.8754 8.5957L15.8714 8.5977L15.8714 8.5977L15.8614 8.6017C 15.5044 8.7407 15.1134 8.7607 14.7454 8.6587C 14.4884 8.5927 13.7094 8.3967 13.5234 8.348701L13.5234 8.348701L14.0494 6.2937C 14.2384 6.3417 15.0134 6.5447 15.2704 6.6107C 15.6424 6.6987 15.9764 6.9047 16.2204 7.1987L16.2204 7.1987L16.2274 7.2077L16.2274 7.2077L16.2314 7.2117L16.2314 7.2117L16.2354 7.2177L16.2354 7.2177L16.2384 7.2217L16.2384 7.2217L16.2424 7.2277L16.2424 7.2277L16.2444 7.2307L16.2444 7.2307L16.2494 7.2367L16.2494 7.2367L16.2504 7.2397L16.2504 7.2397L16.2554 7.2457L16.2554 7.2457L16.2574 7.2487L16.2574 7.2487L16.2614 7.2557L16.2614 7.2557L16.2644 7.2587L16.2644 7.2587L16.2674 7.2647L16.2674 7.2647L16.2704 7.2677L16.2704 7.2677L16.2734 7.2727L16.2734 7.2727L16.2754 7.2757L16.2754 7.2757L16.2784 7.2817L16.2784 7.2817L16.2804 7.2847L16.2804 7.2847L16.2844 7.2907L16.2844 7.2907L16.2854 7.2927L16.2854 7.2927L16.2894 7.2987L16.2894 7.2987L16.2904 7.3017L16.2904 7.3017L16.2944 7.3067L16.2944 7.3067L16.2954 7.3097L16.2954 7.3097L16.2994 7.3137L16.2994 7.3137L16.3004 7.3157L16.3004 7.3157L16.3044 7.3207L16.3044 7.3207L16.3054 7.3237L16.3054 7.3237L16.3094 7.3287L16.3094 7.3287L16.3104 7.3307L16.3104 7.3307L16.3134 7.3357L16.3134 7.3357L16.3154 7.3387L16.3154 7.3387L16.3184 7.3437L16.3184 7.3437L16.3204 7.3467L16.3204 7.3467L16.3234 7.3507L16.3234 7.3507L16.3254 7.3537L16.3254 7.3537L16.3284 7.3577L16.3284 7.3577L16.3304 7.3607L16.3304 7.3607L16.3334 7.3657L16.3334 7.3657L16.3344 7.3677L16.3344 7.3677L16.3374 7.3727L16.3374 7.3727L16.3394 7.3757L16.3394 7.3757L16.3414 7.3797L16.3414 7.3797L16.3434 7.3827L16.3434 7.3827L16.3454 7.3877L16.3454 7.3877L16.3474 7.3897L16.3474 7.3897L16.3504 7.3957L16.3504 7.3957L16.3544 7.4017L16.3544 7.4017L16.3624 7.4177C 16.4484 7.5837 16.4744 7.7737 16.4374 7.9577z" stroke="none" fill="#7A8599" fill-rule="nonzero" />
    <path id=""  transform="matrix(1 0 0 -1 0 17)"  d="M14.1602 17.4936C 9.3332 17.4936 5.420199 13.5806 5.4192 8.7536C 5.4192 3.9266 9.3322 0.01259995 14.1592 0.01259995C 18.9862 0.01259995 22.9002 3.9256 22.9002 8.7526L22.9002 8.7526L22.9002 8.7536C 22.9002 13.5806 18.9882 17.4936 14.1612 17.4936zM18.1992 7.2136L18.1992 7.2136C 18.1952 7.2046 18.1902 7.1946 18.1862 7.1856L18.1862 7.1856L18.1802 7.1726L18.1802 7.1726L18.1762 7.1616L18.1762 7.1616L18.1742 7.1576L18.1742 7.1576L18.1702 7.1496L18.1702 7.1496L18.1682 7.1456L18.1682 7.1456L18.1642 7.1366L18.1642 7.1366L18.1612 7.1316L18.1612 7.1316L18.1562 7.1226L18.1562 7.1226L18.1542 7.1176L18.1542 7.1176L18.1492 7.1096L18.1492 7.1096L18.1472 7.1046L18.1472 7.1046L18.1412 7.0956L18.1412 7.0956L18.1392 7.0906L18.1392 7.0906L18.1352 7.0816L18.1352 7.0816L18.1332 7.0766L18.1332 7.0766L18.1282 7.0676L18.1282 7.0676L18.1252 7.0636L18.1252 7.0636L18.1212 7.0546L18.1212 7.0546L18.1182 7.0496L18.1182 7.0496L18.1132 7.0396L18.1132 7.0396L18.1102 7.0346L18.1102 7.0346L18.1052 7.0256L18.1052 7.0256L18.1022 7.0196L18.1022 7.0196L18.0962 7.0096L18.0962 7.0096L18.0942 7.0036L18.0942 7.0036L18.0892 6.9946L18.0892 6.9946L18.0862 6.9886L18.0862 6.9886L18.0792 6.9796L18.0792 6.9796L18.0762 6.9736L18.0762 6.9736L18.0702 6.9636L18.0702 6.9636L18.0672 6.9576L18.0672 6.9576L18.0612 6.9466L18.0612 6.9466L18.0582 6.9416L18.0582 6.9416L18.0532 6.9306L18.0532 6.9306L18.0502 6.9256L18.0502 6.9256L18.0442 6.9136L18.0442 6.9136L18.0412 6.9076L18.0412 6.9076L18.0342 6.8976L18.0342 6.8976L18.0312 6.8916L18.0312 6.8916L18.0242 6.8806L18.0242 6.8806L18.0212 6.8746L18.0212 6.8746L18.0142 6.8626L18.0142 6.8626L18.0112 6.8576L18.0112 6.8576L18.0042 6.8456L18.0042 6.8456L18.0002 6.8396L18.0002 6.8396L17.9932 6.8276L17.9932 6.8276L17.9872 6.8196L17.9872 6.8196L17.9752 6.8036C 17.5982 6.2616 17.0372 5.8766 16.3952 5.7206L16.3952 5.7206L16.0082 5.6206L16.0082 5.6206L16.4102 4.0566L16.4102 4.0566L15.4802 3.8176L15.4802 3.8176L15.0792 5.3756L15.0792 5.3756L14.3352 5.1846L14.3352 5.1846L14.7352 3.6266L14.7352 3.6266L13.8052 3.3876L13.8052 3.3876L13.4002 4.9406L13.4002 4.9406L11.4842 4.4476L11.4842 4.4476L11.4442 5.6276L11.4442 5.6276L12.1222 5.8026C 12.2922 5.8476 12.3942 6.0216 12.3502 6.1926L12.3502 6.1926L11.2792 10.3636C 11.2132 10.6196 10.9522 10.7736 10.6962 10.7076L10.6962 10.7076L9.9242 10.5096L9.9242 10.5096L9.6682 11.5016L9.6682 11.5016L11.5872 11.9946L11.5872 11.9946L11.1862 13.5526L11.1862 13.5526L12.1172 13.7906L12.1172 13.7906L12.5172 12.2386L12.5172 12.2386L13.2612 12.4296L13.2612 12.4296L12.8612 13.9876L12.8612 13.9876L13.7912 14.2266L13.7912 14.2266L14.1932 12.6626L14.1932 12.6626L14.3502 12.7036C 14.9162 12.8576 15.5182 12.7986 16.0442 12.5376L16.0442 12.5376L16.0602 12.5286L16.0602 12.5286L16.0682 12.5256L16.0682 12.5256L16.0792 12.5206L16.0792 12.5206L16.0852 12.5176L16.0852 12.5176L16.0952 12.5116L16.0952 12.5116L16.1012 12.5086L16.1012 12.5086L16.1112 12.5016L16.1112 12.5016L16.1172 12.4996L16.1172 12.4996L16.1272 12.4926L16.1272 12.4926L16.1322 12.4896L16.1322 12.4896L16.1402 12.4846L16.1402 12.4846L16.1452 12.4816L16.1452 12.4816L16.1552 12.4756L16.1552 12.4756L16.1602 12.4726L16.1602 12.4726L16.1702 12.4666L16.1702 12.4666L16.1742 12.4646L16.1742 12.4646L16.1832 12.4586L16.1832 12.4586L16.1882 12.4566L16.1882 12.4566L16.1972 12.4506L16.1972 12.4506L16.2012 12.4476L16.2012 12.4476L16.2102 12.4426L16.2102 12.4426L16.2152 12.4406L16.2152 12.4406L16.2232 12.4346L16.2232 12.4346L16.2272 12.4326L16.2272 12.4326L16.2362 12.4266L16.2362 12.4266L16.2412 12.4246L16.2412 12.4246L16.2502 12.4196L16.2502 12.4196L16.2542 12.4166L16.2542 12.4166L16.2622 12.4106L16.2622 12.4106L16.2662 12.4086L16.2662 12.4086L16.2742 12.4026L16.2742 12.4026L16.2782 12.4006L16.2782 12.4006L16.2862 12.3956L16.2862 12.3956L16.2912 12.3936L16.2912 12.3936L16.2992 12.3876L16.2992 12.3876L16.3022 12.3846L16.3022 12.3846L16.3102 12.3786L16.3102 12.3786L16.3132 12.3756L16.3132 12.3756L16.3212 12.3706L16.3212 12.3706L16.3252 12.3676L16.3252 12.3676L16.3322 12.3626L16.3322 12.3626L16.3352 12.3596L16.3352 12.3596L16.3422 12.3556L16.3422 12.3556L16.3452 12.3516L16.3452 12.3516L16.3512 12.3466L16.3512 12.3466L16.3552 12.3436L16.3552 12.3436L16.3632 12.3386L16.3632 12.3386L16.3732 12.3306C 16.3802 12.3246 16.3882 12.3186 16.3952 12.3136C 16.6422 12.1116 16.8232 11.8416 16.9152 11.5356L16.9152 11.5356L16.9232 11.5116L16.9232 11.5116L16.9232 11.5096L16.9232 11.5096L16.9272 11.5016C 16.9302 11.4896 16.9342 11.4776 16.9372 11.4656C 16.9392 11.4526 16.9432 11.4406 16.9462 11.4286L16.9462 11.4286L16.9502 11.4216L16.9502 11.4216L16.9502 11.4196C 16.9522 11.4116 16.9542 11.4026 16.9562 11.3946L16.9562 11.3946L16.9562 11.3926C 17.0232 11.0806 16.9952 10.7566 16.8752 10.4616C 16.8712 10.4526 16.8682 10.4436 16.8642 10.4356L16.8642 10.4356L16.8592 10.4236L16.8592 10.4236L16.8552 10.4146L16.8552 10.4146L16.8532 10.4096L16.8532 10.4096L16.8492 10.4026L16.8492 10.4026L16.8472 10.3986L16.8472 10.3986L16.8452 10.3916L16.8452 10.3916L16.8432 10.3876L16.8432 10.3876L16.8392 10.3796L16.8392 10.3796L16.8382 10.3756L16.8382 10.3756L16.8332 10.3666L16.8332 10.3666L16.8312 10.3636L16.8312 10.3636L16.8272 10.3556L16.8272 10.3556L16.8252 10.3516L16.8252 10.3516L16.8202 10.3436L16.8202 10.3436L16.8192 10.3396L16.8192 10.3396L16.8142 10.3316L16.8142 10.3316L16.8112 10.3266L16.8112 10.3266L16.8072 10.3186L16.8072 10.3186L16.8052 10.3156L16.8052 10.3156L16.8002 10.3066L16.8002 10.3066L16.7982 10.3016L16.7982 10.3016L16.7932 10.2926L16.7932 10.2926L16.7902 10.2886L16.7902 10.2886L16.7852 10.2786L16.7852 10.2786L16.7832 10.2756L16.7832 10.2756L16.7782 10.2666L16.7782 10.2666L16.7752 10.2616L16.7752 10.2616L16.7702 10.2526L16.7702 10.2526L16.7682 10.2476L16.7682 10.2476L16.7622 10.2376L16.7622 10.2376L16.7602 10.2346L16.7602 10.2346L16.7552 10.2246L16.7552 10.2246L16.7522 10.2196L16.7522 10.2196L16.7472 10.2106L16.7472 10.2106L16.7432 10.2056L16.7432 10.2056L16.7382 10.1956L16.7382 10.1956L16.7342 10.1916L16.7342 10.1916L16.7282 10.1816L16.7282 10.1816L16.7242 10.1766L16.7242 10.1766L16.7192 10.1656L16.7192 10.1656L16.7162 10.1616L16.7162 10.1616L16.7092 10.1516L16.7092 10.1516L16.7062 10.1476L16.7062 10.1476L16.6992 10.1366L16.6992 10.1366L16.6962 10.1316L16.6962 10.1316L16.6902 10.1216L16.6902 10.1216L16.6852 10.1136L16.6852 10.1136L16.6752 10.0996C 16.6112 10.0046 16.5402 9.9146 16.4622 9.830601C 16.7402 9.7916 17.0102 9.7066 17.2602 9.5786C 17.2652 9.5746 17.2712 9.5716 17.2772 9.5686L17.2772 9.5686L17.2862 9.5646L17.2862 9.5646L17.2982 9.5586L17.2982 9.5586L17.3032 9.5546L17.3032 9.5546L17.3152 9.5486L17.3152 9.5486L17.3212 9.5446L17.3212 9.5446L17.3332 9.5386L17.3332 9.5386L17.3392 9.5346L17.3392 9.5346L17.3492 9.5276L17.3492 9.5276L17.3552 9.5256L17.3552 9.5256L17.3672 9.5196L17.3672 9.5196L17.3722 9.5166L17.3722 9.5166L17.3842 9.5096L17.3842 9.5096L17.3882 9.5066L17.3882 9.5066L17.3992 9.5006L17.3992 9.5006L17.4052 9.497601L17.4052 9.497601L17.4152 9.4916L17.4152 9.4916L17.4212 9.4886L17.4212 9.4886L17.4302 9.483601L17.4302 9.483601L17.4352 9.4796L17.4352 9.4796L17.4462 9.4736L17.4462 9.4736L17.4502 9.4706L17.4502 9.4706L17.4612 9.4636L17.4612 9.4636L17.4652 9.4606L17.4652 9.4606L17.4752 9.4536L17.4752 9.4536L17.4802 9.4506L17.4802 9.4506L17.4892 9.4436L17.4892 9.4436L17.4942 9.4416L17.4942 9.4416L17.5032 9.4356L17.5032 9.4356L17.5082 9.4326L17.5082 9.4326L17.5162 9.4256L17.5162 9.4256L17.5212 9.4226L17.5212 9.4226L17.5302 9.4166L17.5302 9.4166L17.5352 9.4136L17.5352 9.4136L17.5402 9.4056L17.5402 9.4056L17.5452 9.4026L17.5452 9.4026L17.5532 9.3976L17.5532 9.3976L17.5662 9.3786L17.5662 9.3786L17.5742 9.372601L17.5742 9.372601L17.5792 9.3706L17.5792 9.3706L17.5872 9.3636L17.5872 9.3636L17.5912 9.3606L17.5912 9.3606L17.5982 9.3566L17.5982 9.3566L17.6012 9.353601L17.6012 9.353601L17.6092 9.3476L17.6092 9.3476L17.6132 9.344601L17.6132 9.344601L17.6212 9.337601L17.6212 9.337601L17.6332 9.3296L17.6332 9.3296L17.6572 9.3106C 17.9352 9.0836 18.1382 8.7796 18.2412 8.4376L18.2412 8.4376L18.2412 8.4356C 18.2452 8.4256 18.2472 8.4156 18.2502 8.4066L18.2502 8.4066L18.2502 8.4046L18.2502 8.4046L18.2552 8.3966C 18.2552 8.379601 18.2572 8.365601 18.2572 8.3576C 18.2612 8.344601 18.2632 8.3296 18.2672 8.3166L18.2672 8.3166L18.2692 8.313601L18.2692 8.313601L18.2692 8.3116L18.2692 8.3116L18.2762 8.2826C 18.3602 7.9276 18.3332 7.5546 18.1992 7.2136" stroke="none" fill="#7A8599" fill-rule="nonzero" />
		</g>
	</g>
</g>
</svg>