<?xml version="1.0" standalone="no"?>
<!DOCTYPE svg PUBLIC "-//W3C//DTD SVG 1.0//EN" "http://www.w3.org/TR/2001/REC-SVG-20010904/DTD/svg10.dtd">
<svg xmlns="http://www.w3.org/2000/svg" xmlns:xlink="http://www.w3.org/1999/xlink" id="body_1" width="93" height="93">

<defs>
    <clipPath  id="1">

    <path id=""  clip-rule="evenodd" transform="matrix(1 0 0 1 0 0)"  d="M0 70L0 0L0 0L70 0L70 0L70 70L70 70L0 70z" />    </clipPath>
    <clipPath  id="2">

    <path id=""  clip-rule="evenodd" transform="matrix(1 0 0 1 0 0)"  d="M0 0L70 0L70 0L70 70L70 70L0 70z" />    </clipPath>
</defs>

<g transform="matrix(1.3333 0 0 1.3333 0 0)">
	<g clip-path="url(#1)" >
		<g clip-path="url(#2)" >
    <path id=""  transform="matrix(1 0 0 -1 0 70)"  d="M55.5 6.6396L62.75 24.5256C 62.75 24.5256 66 39.0256 66.25 40.0256C 66.5 41.0256 55.5 63.3606 55.5 63.3606C 49.737 67.5336 42.658 69.9996 35 69.9996C 27.342 69.9996 20.263 67.5336 14.5 63.3606C 13.346 62.4746 7.25 37.5256 7.25 37.5256L7.25 37.5256L14.5 6.6396C 20.263 2.4666 27.342 -0.0004000664 35 -0.0004000664C 42.658 -0.0004000664 49.737 2.4666 55.5 6.6396" stroke="none" fill="#EBEFF5" fill-rule="evenodd" />
    <path id=""  transform="matrix(1 0 0 -1 0 70)"  d="M41.7822 29.3896L48.4582 34.7166L48.4582 34.7166L46.8932 35.4336C 46.6712 35.5356 46.5592 35.7886 46.6362 36.0226L46.6362 36.0226L47.9872 40.1386L47.9872 40.1386L44.1772 39.2706C 43.9262 39.2126 43.6702 39.3426 43.5672 39.5786L43.5672 39.5786L42.8022 41.3396L42.8022 41.3396L39.7392 38.0206C 39.4082 37.6616 38.8142 37.9626 38.9072 38.4416L38.9072 38.4416L40.3972 46.1246L40.3972 46.1246L38.1682 44.7296C 37.9082 44.5666 37.5642 44.6586 37.4212 44.9296L37.4212 44.9296L35.0002 49.4946L35.0002 49.4946L32.5792 44.9296C 32.4352 44.6586 32.0922 44.5666 31.8322 44.7296L31.8322 44.7296L29.6022 46.1246L29.6022 46.1246L31.0932 38.4416C 31.1852 37.9626 30.5922 37.6616 30.2612 38.0206L30.2612 38.0206L27.1982 41.3396L27.1982 41.3396L26.4322 39.5786C 26.3302 39.3426 26.0742 39.2126 25.8222 39.2706L25.8222 39.2706L22.0122 40.1386L22.0122 40.1386L23.3632 36.0226C 23.4402 35.7886 23.3292 35.5356 23.1062 35.4336L23.1062 35.4336L21.5422 34.7166L21.5422 34.7166L28.2182 29.3896C 28.4812 29.1796 28.5782 28.8236 28.4592 28.5086L28.4592 28.5086L27.6462 26.3726L27.6462 26.3726L33.8032 27.5076C 34.2532 27.5906 34.6622 27.2346 34.6422 26.7786L34.6422 26.7786L34.3632 20.5046L34.3632 20.5046L35.6362 20.5046L35.6362 20.5046L35.3572 26.7786C 35.3382 27.2346 35.7472 27.5906 36.1962 27.5076L36.1962 27.5076L42.3532 26.3726L42.3532 26.3726L41.5412 28.5086C 41.4222 28.8236 41.5182 29.1796 41.7822 29.3896" stroke="none" fill="#FF5555" fill-rule="nonzero" />
    <path id=""  transform="matrix(1 0 0 -1 0 70)"  d="M0 35.0004C 0 23.3284 5.717999 12.9984 14.5 6.6394L14.5 6.6394L14.5 63.3604C 5.717999 57.0024 0 46.6724 0 35.0004M55.5 63.3604L55.5 6.6394C 64.282 12.9984 70 23.3284 70 35.0004C 70 46.6724 64.282 57.0024 55.5 63.3604" stroke="none" fill="#FF5555" fill-rule="nonzero" />
		</g>
	</g>
</g>
</svg>