<?xml version="1.0" standalone="no"?>
<!DOCTYPE svg PUBLIC "-//W3C//DTD SVG 1.0//EN" "http://www.w3.org/TR/2001/REC-SVG-20010904/DTD/svg10.dtd">
<svg xmlns="http://www.w3.org/2000/svg" xmlns:xlink="http://www.w3.org/1999/xlink" id="body_2" width="17" height="17">

<defs>
    <clipPath  id="1">

    <path id=""  clip-rule="evenodd" transform="matrix(1 0 0 1 0 0)"  d="M0 13L0 -0.5L0 -0.5L13.5 -0.5L13.5 -0.5L13.5 13L13.5 13L0 13z" />    </clipPath>
    <clipPath  id="2">

    <path id=""  clip-rule="evenodd" transform="matrix(1 0 0 1 0 0)"  d="M0 -0.5L13.5 -0.5L13.5 -0.5L13.5 13L13.5 13L0 13z" />    </clipPath>
</defs>

<g transform="matrix(1.3333 0 0 1.3333 0 0)">
	<g clip-path="url(#1)" >
		<g clip-path="url(#2)" >
    <path id=""  transform="matrix(1 0 0 -1 0 13)"  d="M12.75 6L12.75 2.062C 12.75 1.337 12.163 0.75 11.438 0.75L11.438 0.75L2.062 0.75C 1.337 0.75 0.75 1.337 0.75 2.062L0.75 2.062L0.75 11.438C 0.75 12.163 1.337 12.75 2.062 12.75L2.062 12.75L6 12.75" stroke="#1B66FF" stroke-width="1.5" stroke-linecap="round" fill="none" />
    <path id=""  transform="matrix(1 0 0 -1 0 13)"  d="M9 12.75L12.75 12.75L12.75 12.75L12.75 9" stroke="#1B66FF" stroke-width="1.5" stroke-linecap="round" fill="none" />
    <path id=""  transform="matrix(1 0 0 -1 0 13)"  d="M6.75 6.75L12.75 12.75" stroke="#1B66FF" stroke-width="1.5" stroke-linecap="round" fill="none" />
		</g>
	</g>
</g>
</svg>