<?xml version="1.0" standalone="no"?>
<!DOCTYPE svg PUBLIC "-//W3C//DTD SVG 1.0//EN" "http://www.w3.org/TR/2001/REC-SVG-20010904/DTD/svg10.dtd">
<svg xmlns="http://www.w3.org/2000/svg" xmlns:xlink="http://www.w3.org/1999/xlink" id="body_2" width="21" height="20">

<defs>
    <clipPath  id="1">

    <path id=""  clip-rule="evenodd" transform="matrix(1 0 0 1 0 0)"  d="M0 15L0 -0.2826004L0 -0.2826004L16.0691 -0.2826004L16.0691 -0.2826004L16.0691 15L16.0691 15L0 15z" />    </clipPath>
</defs>

<g transform="matrix(1.3333 0 0 1.3333 0 0)">
	<g clip-path="url(#1)" >
    <path id=""  transform="matrix(1 0 0 -1 0 15)"  d="M8.0343 15.2829L5.5513 10.2519L5.5513 10.2519L0.0002994537 9.4459L0.0002994537 9.4459L4.0173 5.5289L4.0173 5.5289L3.0693 -0.0001001358L3.0693 -0.0001001358L8.0343 2.6099L8.0343 2.6099L13.0003 -0.0001001358L13.0003 -0.0001001358L12.0523 5.5289L12.0523 5.5289L16.0693 9.4459L16.0693 9.4459L10.5173 10.2519z" stroke="none" fill="#00CC89" fill-rule="nonzero" />
	</g>
</g>
</svg>