<?xml version="1.0" standalone="no"?>
<!DOCTYPE svg PUBLIC "-//W3C//DTD SVG 1.0//EN" "http://www.w3.org/TR/2001/REC-SVG-20010904/DTD/svg10.dtd">
<svg xmlns="http://www.w3.org/2000/svg" xmlns:xlink="http://www.w3.org/1999/xlink" id="body_2" width="145" height="60">

<defs>
    <clipPath  id="1">

    <path id=""  clip-rule="evenodd" transform="matrix(1 0 0 1 0 0)"  d="M0 45L0 -0.1381989L0 -0.1381989L109.441 -0.1381989L109.441 -0.1381989L109.441 45L109.441 45L0 45z" />    </clipPath>
    <clipPath  id="2">

    <path id=""  clip-rule="evenodd" transform="matrix(1 0 0 1 0 0)"  d="M0 -0.1380005L109.441 -0.1380005L109.441 -0.1380005L109.441 45L109.441 45L0 45z" />    </clipPath>
</defs>

<g transform="matrix(1.3333 0 0 1.3333 0 0)">
	<g clip-path="url(#1)" >
		<g clip-path="url(#2)" >
    <path id=""  transform="matrix(1 0 0 -1 0 45)"  d="M30.8298 43.7081C 29.1688 44.5151 27.3928 44.8561 25.5708 45.0151C 25.0188 45.0631 24.4648 45.0981 23.9108 45.1381L23.9108 45.1381L10.3698 45.1381C 10.3528 45.0801 10.3278 45.0231 10.3168 44.9651C 10.1308 43.9261 9.945801 42.8871 9.760801 41.8481C 9.5998 40.9411 9.437801 40.0341 9.271801 39.0991L9.271801 39.0991L9.566801 39.0991C 10.9898 39.0961 12.4128 39.0931 13.8358 39.0891C 16.4268 39.0821 19.0188 39.0851 21.6098 39.0641C 22.7808 39.0551 23.9408 38.9171 25.0618 38.5501C 26.6058 38.0431 27.7268 37.1051 28.1528 35.4741C 28.3578 34.6891 28.4168 33.8891 28.3438 33.0861C 28.1758 31.2271 27.7718 29.4161 27.1838 27.6481C 26.7548 26.3571 26.0908 25.2041 25.0338 24.3091C 23.6228 23.1151 21.9398 22.5731 20.1468 22.4011C 18.8058 22.2741 17.4498 22.2681 16.1018 22.2601C 12.9608 22.2411 9.819801 22.2541 6.6798 22.2541L6.6798 22.2541L6.340801 22.2541C 5.9788 20.2291 5.622801 18.2391 5.2628 16.2251L5.2628 16.2251L5.487801 16.2251C 9.9298 16.2251 14.3718 16.2021 18.8138 16.2391C 20.1898 16.2511 21.5778 16.3451 22.9388 16.5461C 25.8098 16.9721 28.3178 18.1911 30.3868 20.2551C 31.9958 21.8601 33.1058 23.7831 33.9128 25.8921C 34.7238 28.0121 35.1778 30.2141 35.4328 32.4591C 35.6328 34.2321 35.6678 36.0071 35.3138 37.7681C 34.7718 40.4661 33.3338 42.4901 30.8298 43.7081M109.3698 32.4901C 109.1058 34.6441 108.0098 36.1391 105.9308 36.8661C 104.5878 37.3361 103.1938 37.4401 101.7868 37.4421C 100.1808 37.4441 98.5738 37.4421 96.9688 37.4421L96.9688 37.4421L96.6248 37.4421C 96.6288 37.5321 96.6248 37.5921 96.6348 37.6491C 97.0098 39.7591 97.3888 41.8661 97.7578 43.9761C 97.8248 44.3601 97.8548 44.7511 97.9008 45.1381L97.9008 45.1381L90.9468 45.1381C 90.9068 44.9931 90.8548 44.8501 90.8288 44.7031C 90.5938 43.3841 90.3638 42.0631 90.1308 40.7441C 89.4688 36.9951 88.8048 33.2461 88.1438 29.4981C 87.4798 25.7391 86.8168 21.9801 86.1548 18.2221C 86.0398 17.5651 85.9258 16.9081 85.81081 16.2511C 85.8688 16.2341 85.8978 16.2191 85.9258 16.2191C 88.1718 16.2171 90.4188 16.2181 92.6648 16.2121C 92.8448 16.2121 92.8798 16.2961 92.9038 16.4471C 93.0238 17.1781 93.1538 17.9071 93.28281 18.6381C 93.9908 22.6671 94.6998 26.6951 95.4088 30.7241C 95.4858 31.1591 95.5688 31.5941 95.6488 32.0281C 96.9088 32.0281 98.1288 32.0321 99.3478 32.0251C 99.6008 32.0241 99.8558 31.9961 100.1058 31.9601C 101.2808 31.7861 101.9888 31.1801 102.1428 30.1391C 102.2098 29.6821 102.2148 29.1971 102.1378 28.7441C 101.5208 25.1331 100.8758 21.5251 100.2408 17.9161C 100.1438 17.3611 100.0508 16.8051 99.9538 16.2381C 100.0318 16.2271 100.0708 16.2171 100.1098 16.2171C 102.3358 16.2161 104.5628 16.2191 106.7888 16.2111C 107.0078 16.2101 107.0238 16.3261 107.0538 16.4901C 107.7148 20.2601 108.3788 24.0281 109.0468 27.7971C 109.3218 29.3501 109.5648 30.9031 109.3698 32.4901M13.9318 27.6971C 15.5728 27.8131 16.6928 28.6611 17.1948 30.2271C 17.4278 30.9511 17.5768 31.7001 17.7568 32.4391C 17.8548 32.8401 17.9378 33.2441 18.0338 33.6811L18.0338 33.6811L17.6278 33.6811L17.6278 33.6811L4.756802 33.6811C 4.573801 33.6811 4.3918 33.6771 4.208801 33.6671C 2.457802 33.5721 1.303802 32.6721 0.7887993 31.0011C 0.7228012 30.7871 0.6648026 30.5711 0.6118011 30.3541C 0.4057999 29.5091 0.2038002 28.6611 -0.0001983643 27.8141L-0.0001983643 27.8141L-0.0001983643 27.6321C 0.1308022 27.6411 0.2617989 27.6601 0.3917999 27.6611C 4.579802 27.6621 8.768801 27.6611 12.9568 27.6631C 13.2818 27.6641 13.6068 27.6751 13.9318 27.6971M42.7608 8.1021L41.4508 8.1021L41.4508 8.1021L41.4508 7.4101C 40.3268 8.5431 38.3138 8.3151 37.3838 7.4891C 36.3928 6.6091 36.1458 4.9961 36.8538 3.8431C 37.2148 3.2541 37.7298 2.8481 38.3848 2.6551C 39.4638 2.3391 40.4858 2.4391 41.4208 3.2401C 41.4008 2.9851 41.3938 2.8031 41.3718 2.6231C 41.2728 1.8001 40.8548 1.3431 40.0388 1.2411C 39.6708 1.1951 39.2748 1.1821 38.9188 1.2661C 38.3778 1.3931 37.8588 1.6201 37.3018 1.8141C 37.1398 1.5411 36.9408 1.2041 36.6978 0.7921C 37.1498 0.5971003 37.5548 0.3891001 37.9808 0.2461004C 38.3398 0.1260996 38.7258 0.07909966 39.0998 0.0001001358L39.0998 0.0001001358L40.0748 0.0001001358C 40.1318 0.01710033 40.1878 0.04609966 40.2448 0.05309963C 41.8268 0.2451 42.7068 1.1241 42.7578 2.7071C 42.8138 4.4641 42.7818 6.2241 42.7868 7.9811C 42.7868 8.0201 42.7708 8.0581 42.7608 8.1021M39.6368 3.6701C 38.6028 3.6741 37.8578 4.3731 37.8538 5.3481C 37.8488 6.3181 38.5928 7.0141 39.6388 7.0151C 40.6828 7.0161 41.4198 6.3231 41.4168 5.3451C 41.4148 4.3701 40.6678 3.6671 39.6368 3.6701M50.3368 37.4291C 49.2558 37.4201 48.1618 37.3271 47.0988 37.1341C 44.3738 36.6401 42.0398 35.3901 40.3728 33.1391C 37.9668 29.8901 37.1478 26.1851 37.6698 22.2181C 37.9808 19.8531 39.3098 18.1251 41.5178 17.1311C 43.0758 16.4291 44.7308 16.2201 46.4198 16.2171C 50.3938 16.2111 54.3678 16.2151 58.3418 16.2151L58.3418 16.2151L58.6798 16.2151C 59.9278 23.3011 61.1708 30.3531 62.4198 37.4421L62.4198 37.4421L62.0158 37.4421C 58.1228 37.4421 54.2298 37.4631 50.3368 37.4291M53.4768 26.8571C 53.1798 25.1481 52.8778 23.4401 52.5878 21.7291C 52.5528 21.5261 52.4948 21.4331 52.2678 21.4361C 50.9678 21.4561 49.6668 21.4381 48.3678 21.4821C 47.8558 21.5001 47.3348 21.5971 46.8428 21.7411C 45.4328 22.1521 44.6468 23.1201 44.5478 24.6271C 44.4418 26.2461 44.7428 27.8071 45.4868 29.2561C 46.3488 30.9321 47.7948 31.8571 49.6208 32.0591C 51.1888 32.2321 52.7788 32.2041 54.4088 32.2661C 54.0868 30.3961 53.7828 28.6271 53.4768 26.8571M73.1098 37.4371C 72.53281 37.4351 71.9498 37.4051 71.3798 37.3221C 69.5428 37.0541 67.9628 36.2721 66.7998 34.7971C 65.2938 32.8841 64.7298 30.6711 64.9898 28.2751C 65.18781 26.4591 66.2108 25.2161 67.9458 24.5981C 68.6888 24.3331 69.4628 24.2191 70.2498 24.2171C 72.0388 24.2131 73.8288 24.2181 75.6178 24.2131C 75.8288 24.2131 76.0458 24.1941 76.2508 24.1461C 76.5658 24.0721 76.7938 23.8751 76.8998 23.5601C 77.1688 22.7671 76.6548 21.7571 75.8508 21.5301C 75.6098 21.4621 75.3498 21.4451 75.0988 21.4441C 71.6108 21.4391 68.1248 21.4411 64.6378 21.4411L64.6378 21.4411L64.2518 21.4411C 63.9448 19.6851 63.6458 17.9761 63.3378 16.2151L63.3378 16.2151L63.7428 16.2151C 67.72881 16.2151 71.7128 16.2101 75.6978 16.2211C 76.2948 16.2231 76.8988 16.2611 77.4868 16.3571C 79.0538 16.6141 80.4338 17.2701 81.5158 18.4561C 83.1848 20.2861 83.7858 22.4961 83.7058 24.9171C 83.6648 26.1451 83.2518 27.2481 82.3238 28.1011C 81.3828 28.9681 80.2238 29.3441 78.9808 29.3911C 77.2348 29.4571 75.4858 29.4361 73.7378 29.4511C 73.3728 29.4551 73.0058 29.4401 72.6408 29.4611C 72.07581 29.4921 71.6888 29.8571 71.6908 30.4151C 71.6928 31.4671 72.2638 32.2071 73.3598 32.2071C 76.7558 32.2061 80.1508 32.2071 83.5468 32.2071L83.5468 32.2071L83.9268 32.2071C 84.2458 33.9531 84.5618 35.6811 84.8838 37.4421L84.8838 37.4421L84.4558 37.4421C 80.6738 37.4421 76.8928 37.4471 73.1098 37.4371M28.5678 9.9311C 27.3718 9.9901 26.1708 9.9491 24.9728 9.9511C 24.9238 9.9511 24.8748 9.9381 24.8118 9.9301L24.8118 9.9301L24.8118 2.2251C 25.7688 2.2251 26.7008 2.2161 27.6328 2.2301C 28.1488 2.2381 28.6748 2.2321 29.1798 2.3261C 32.4158 2.9291 32.9178 6.0201 31.9738 7.8891C 31.2768 9.2661 30.0458 9.8571 28.5678 9.9311M28.6048 3.4981C 27.8308 3.4281 27.0468 3.4861 26.2478 3.4861L26.2478 3.4861L26.2478 8.6731C 27.0878 8.6731 27.9168 8.7541 28.7238 8.6551C 30.1288 8.4841 30.9588 7.4291 30.9258 6.0161C 30.8938 4.6411 29.9938 3.6251 28.6048 3.4981M90.0378 8.0101C 89.0428 8.3451 88.0768 8.2731 87.2068 7.6141C 87.1638 7.5821 87.1128 7.5601 87.0228 7.5101L87.0228 7.5101L87.0228 10.4211L87.0228 10.4211L85.6628 10.4211L85.6628 10.4211L85.6628 2.2471L85.6628 2.2471L87.0438 2.2471L87.0438 2.2471L87.0438 2.6031C 87.0438 3.5081 87.0318 4.4121 87.0468 5.3161C 87.0648 6.4101 87.7548 7.0381 88.8248 6.9641C 89.6138 6.9101 90.0528 6.4071 90.06081 5.5221C 90.0688 4.5361 90.06281 3.5511 90.0638 2.5641C 90.0638 2.4581 90.0728 2.3501 90.0788 2.2501L90.0788 2.2501L91.4248 2.2501C 91.4248 3.5821 91.4728 4.8931 91.4068 6.1981C 91.3638 7.0581 90.8828 7.7241 90.0378 8.0101M68.4428 8.7201C 69.5038 8.9441 70.4288 8.678101 71.1968 7.8921C 71.5228 8.2011 71.8218 8.4831 72.1178 8.7641C 71.0138 10.0431 68.9718 10.4341 67.2938 9.7221C 65.8338 9.1001 64.71581 7.6111 64.9558 5.5191C 65.1418 3.9081 66.3978 2.5561 68.09081 2.2101C 69.6588 1.8901 71.5448 2.4691 72.0948 3.4491C 71.8028 3.7251 71.5098 4.0051 71.20081 4.2971C 69.8558 2.9261 67.9868 3.3311 67.1888 4.1211C 66.2338 5.0641 66.0978 6.6591 66.90781 7.7461C 67.2948 8.2641 67.8138 8.5861 68.4428 8.7201M75.8718 8.1811C 74.8778 8.2231 73.9288 8.0811 73.0458 7.4671C 73.2318 7.1201 73.40781 6.7931 73.5918 6.4511C 74.2218 6.9061 74.9068 7.0741 75.6518 7.0161C 76.4298 6.9561 76.8848 6.4521 76.8188 5.6831C 76.3488 5.6831 75.8728 5.6841 75.3978 5.6831C 74.8368 5.6811 74.2798 5.6481 73.7648 5.3911C 72.7518 4.8851 72.5578 3.4791 73.3958 2.7171C 74.1528 2.0271 75.7348 1.9451 76.5598 2.5571C 76.6748 2.6421 76.7788 2.7431 76.9348 2.8761L76.9348 2.8761L76.9348 2.2461L76.9348 2.2461L78.2148 2.2461C 78.2208 2.3631 78.2298 2.4631 78.2298 2.5621C 78.2308 3.6191 78.2318 4.6761 78.2298 5.7331C 78.2248 7.2481 77.3858 8.1171 75.8718 8.1811M76.3118 3.4351C 75.7498 3.1091 75.15781 3.0431 74.5728 3.3761C 74.3228 3.5171 74.2238 3.7661 74.2478 4.0531C 74.2728 4.3321 74.4278 4.5281 74.68581 4.6261C 74.8448 4.6861 75.0188 4.7361 75.1868 4.7411C 75.7248 4.7551 76.2628 4.7461 76.8148 4.7461C 76.93581 4.1781 76.8038 3.7231 76.3118 3.4351M55.4068 8.1181C 54.7868 8.2021 54.1298 8.1401 53.5068 8.0371C 53.0528 7.9631 52.6268 7.7171 52.1508 7.5331C 52.3658 7.1311 52.5358 6.8111 52.7258 6.4551C 52.8198 6.5151 52.8958 6.5651 52.9738 6.6101C 53.6528 7.0061 54.3798 7.1371 55.1438 6.9481C 55.7208 6.8061 56.0588 6.2531 55.9358 5.6831C 55.4648 5.6831 54.9858 5.7151 54.5138 5.6741C 54.0028 5.6301 53.4788 5.5761 52.9958 5.4181C 52.4248 5.2321 52.1028 4.7661 52.0318 4.1591C 51.9548 3.5001 52.1578 2.9321 52.7248 2.5731C 53.6408 1.9941 54.6058 2.0131 55.5658 2.4741C 55.7388 2.5561 55.8768 2.7111 56.0688 2.8621L56.0688 2.8621L56.0688 2.2441L56.0688 2.2441L57.3318 2.2441C 57.3468 2.2881 57.3628 2.3161 57.3628 2.3441C 57.3638 3.5531 57.4018 4.7641 57.3508 5.9711C 57.2978 7.2381 56.6658 7.9481 55.4068 8.1181M55.4268 3.4221C 54.8588 3.1071 54.2628 3.0301 53.6918 3.3941C 53.2118 3.7021 53.2948 4.4041 53.8218 4.6251C 53.9868 4.6941 54.1748 4.7371 54.3538 4.7421C 54.8808 4.7581 55.4088 4.7471 55.9558 4.7471C 56.0698 4.1691 55.9398 3.7081 55.4268 3.4221M83.3908 5.4311C 83.2378 5.4841 83.0798 5.5221 82.9218 5.5581C 82.3678 5.6821 81.8118 5.7931 81.2598 5.9251C 81.0248 5.9801 80.8558 6.1341 80.8448 6.3911C 80.8348 6.6431 80.9838 6.8251 81.2088 6.9001C 81.4548 6.9831 81.7168 7.0431 81.9748 7.0591C 82.6048 7.1001 83.1938 6.9261 83.7628 6.6331C 83.9438 6.9891 84.1128 7.3211 84.2958 7.6791C 84.1928 7.7321 84.1078 7.7841 84.0178 7.8221C 83.1518 8.1831 82.2518 8.258101 81.3308 8.133101C 80.8698 8.0701 80.4538 7.8991 80.0798 7.6161C 79.28281 7.0131 79.13181 5.4101 80.4828 4.8901C 80.7098 4.8031 80.9488 4.7501 81.1868 4.6981C 81.7118 4.5841 82.2448 4.5031 82.7608 4.3571C 82.9058 4.3161 83.0848 4.1051 83.0978 3.9581C 83.1108 3.8081 82.9618 3.6221 82.8428 3.4871C 82.7728 3.4071 82.6268 3.3651 82.5108 3.3581C 82.1478 3.3341 81.7728 3.2731 81.4238 3.3381C 80.8838 3.4371 80.3608 3.6301 79.7988 3.7921C 79.6548 3.5111 79.4848 3.1791 79.3068 2.8291C 79.36681 2.7831 79.3968 2.7561 79.4308 2.7361C 79.5098 2.6901 79.58881 2.6431 79.6718 2.6051C 80.4038 2.2661 81.1798 2.1261 81.9798 2.1521C 82.6228 2.1731 83.2518 2.2811 83.7948 2.6731C 84.3338 3.0601 84.5448 3.5891 84.46581 4.2371C 84.3868 4.8831 83.9648 5.2291 83.3908 5.4311M50.9228 3.5361C 50.8558 3.4981 50.8128 3.4721 50.7668 3.4491C 49.9398 3.0411 49.3478 3.4031 49.3478 4.3141C 49.3468 5.0971 49.3468 5.8801 49.3468 6.6621L49.3468 6.6621L49.3468 6.9831L49.3468 6.9831L50.9088 6.9831L50.9088 6.9831L50.9088 8.0881L50.9088 8.0881L49.3488 8.0881L49.3488 8.0881L49.3488 9.3991L49.3488 9.3991L47.9328 9.3991L47.9328 9.3991L47.9328 8.0721L47.9328 8.0721L46.9998 8.0721L46.9998 8.0721L46.9998 6.9591L46.9998 6.9591L47.9438 6.9591L47.9438 6.9591L47.9438 6.5981C 47.9448 5.7651 47.9298 4.9311 47.9498 4.0981C 47.9808 2.8101 48.7178 2.1161 50.0098 2.1491C 50.4748 2.1611 50.9338 2.2321 51.3138 2.5601C 51.2428 2.7411 51.1828 2.9011 51.1188 3.0611C 51.0558 3.2191 50.9888 3.3751 50.9228 3.5361M59.1338 2.2491L60.4908 2.2491L60.4908 2.2491L60.4908 10.4061L60.4908 10.4061L59.1338 10.4061zM33.7558 2.2461L35.1258 2.2461L35.1258 2.2461L35.1258 8.0971L35.1258 8.0971L33.7558 8.0971zM44.6028 2.2451L45.9638 2.2451L45.9638 2.2451L45.9638 8.1071L45.9638 8.1071L44.6028 8.1071zM45.2688 10.7451C 44.7628 10.7391 44.4008 10.3981 44.3968 9.9231C 44.3928 9.4311 44.7568 9.0881 45.2818 9.0891C 45.7928 9.0891 46.1668 9.442101 46.1748 9.9291C 46.1818 10.4071 45.7998 10.7511 45.2688 10.7451M34.4598 10.7451C 33.9488 10.7471 33.5588 10.3851 33.5598 9.9111C 33.5608 9.4451 33.9358 9.0931 34.4358 9.0891C 34.9678 9.0841 35.3448 9.4361 35.3458 9.9391C 35.3458 10.4081 34.9778 10.7431 34.4598 10.7451" stroke="none" fill="#7A8599" fill-rule="nonzero" />
		</g>
	</g>
</g>
</svg>