<?xml version="1.0" standalone="no"?>
<!DOCTYPE svg PUBLIC "-//W3C//DTD SVG 1.0//EN" "http://www.w3.org/TR/2001/REC-SVG-20010904/DTD/svg10.dtd">
<svg xmlns="http://www.w3.org/2000/svg" xmlns:xlink="http://www.w3.org/1999/xlink" id="body_1" width="188" height="40">

<defs>
    <clipPath  id="1">

    <path id=""  clip-rule="evenodd" transform="matrix(1 0 0 1 0 0)"  d="M0 30L0 -0.1513004L0 -0.1513004L141.373 -0.1513004L141.373 -0.1513004L141.373 30L141.373 30L0 30z" />    </clipPath>
    <clipPath  id="2">

    <path id=""  clip-rule="evenodd" transform="matrix(1 0 0 1 0 0)"  d="M0 -0.1509991L141.373 -0.1509991L141.373 -0.1509991L141.373 30L141.373 30L0 30z" />    </clipPath>
</defs>

<g transform="matrix(1.3333 0 0 1.3333 0 0)">
	<g clip-path="url(#1)" >
		<g clip-path="url(#2)" >
    <path id=""  transform="matrix(1 0 0 -1 0 30)"  d="M16.6104 -9.918213E-05L13.6074 -9.918213E-05C 13.5444 0.01889992 13.4814 0.04590034 13.4164 0.05590057C 12.8584 0.1438999 12.2924 0.1909008 11.7444 0.3219013C 8.2544 1.152901 5.3894 2.9709 3.1754 5.8039C 1.3824 8.095901 0.3713999 10.7019 0.07339954 13.5819C -0.07760048 15.0359 0.01039982 16.4869 0.2873993 17.9299C 0.8204002 20.6979 2.0484 23.1159 3.9264 25.1999C 5.3274 26.7559 6.9944 27.9669 8.910399 28.8229C 10.3314 29.4579 11.8094 29.8849 13.3624 30.0369C 13.6804 30.0679 13.9974 30.1129 14.3134 30.1509L14.3134 30.1509L15.9044 30.1509C 15.9774 30.1329 16.0514 30.1069 16.1254 30.0979C 16.7534 30.0159 17.3874 29.9699 18.0094 29.8539C 20.7904 29.3419 23.2134 28.0899 25.2984 26.1949C 26.8924 24.7459 28.1244 23.0209 28.9754 21.0359C 29.8094 19.0929 30.1814 17.0699 30.1744 14.9469C 30.1674 13.0339 29.8404 11.2009 29.1354 9.4399C 28.0604 6.755901 26.3414 4.5529 24.0084 2.8449C 22.2014 1.5219 20.1964 0.6338997 17.9854 0.2308998C 17.5284 0.1478996 17.0694 0.07690048 16.6104 -9.918213E-05M10.2414 23.2019L10.2414 15.9499L10.2414 15.9499L8.3314 15.9499L8.3314 15.9499L8.3314 14.1329L8.3314 14.1329L10.2514 14.1329L10.2514 14.1329L10.2514 6.8899L10.2514 6.8899L10.6054 6.8899C 12.3334 6.8899 14.0594 6.9009 15.7864 6.8859C 16.5624 6.877901 17.3284 6.9359 18.0794 7.128901C 20.4914 7.7439 22.1414 9.202901 22.9124 11.5899C 23.5014 13.4129 23.5194 15.2809 23.1984 17.1509C 22.9674 18.4979 22.4504 19.7339 21.5284 20.7649C 20.0494 22.4189 18.1034 23.0839 15.9704 23.1829C 14.0804 23.2719 12.1834 23.2019 10.2414 23.2019" stroke="none" fill="#7A8599" fill-rule="nonzero" />
    <path id=""  transform="matrix(1 0 0 -1 0 30)"  d="M13.3234 9.8386L13.3234 14.1446L13.3234 14.1446L16.7114 14.1446L16.7114 14.1446L16.7114 15.9436L16.7114 15.9436L13.3304 15.9436L13.3304 15.9436L13.3304 20.2006C 14.7194 20.1596 16.1104 20.3546 17.4434 19.7976C 18.9844 19.1536 19.8704 17.9816 20.1914 16.3846C 20.4204 15.2466 20.4164 14.0966 20.0904 12.9636C 19.6094 11.2926 18.4714 10.3046 16.8004 10.0366C 15.6694 9.8556 14.5034 9.898601 13.3234 9.8386" stroke="none" fill="#7A8599" fill-rule="nonzero" />
    <path id=""  transform="matrix(1 0 0 -1 0 30)"  d="M50.7763 15.0759C 50.7763 13.8859 50.5673 12.7849 50.1493 11.7719C 49.7303 10.7609 49.1233 9.9279 48.3263 9.2729C 47.5293 8.6199 46.5753 8.2269 45.4643 8.0969C 45.0073 8.0459 44.4453 8.0189 43.7793 8.0189L43.7793 8.0189L39.2123 8.0189L39.2123 8.0189L39.2123 22.1329L39.2123 22.1329L43.7793 22.1329C 44.4453 22.1329 45.0073 22.1059 45.4643 22.0549C 46.5753 21.9229 47.5293 21.5299 48.3263 20.8779C 49.1233 20.2239 49.7303 19.3909 50.1493 18.3789C 50.5673 17.3649 50.7763 16.2639 50.7763 15.0759M47.9543 15.0759C 47.9543 16.1999 47.7313 17.1689 47.2873 17.9869C 46.8443 18.8039 46.1833 19.3159 45.3083 19.5259C 45.0073 19.5909 44.4973 19.6239 43.7793 19.6239L43.7793 19.6239L41.9173 19.6239L41.9173 19.6239L41.9173 10.5269L41.9173 10.5269L43.7793 10.5269C 44.5113 10.5269 45.0203 10.5609 45.3083 10.6259C 46.1833 10.8359 46.8443 11.3479 47.2873 12.1649C 47.7313 12.9809 47.9543 13.9519 47.9543 15.0759" stroke="none" fill="#7A8599" fill-rule="nonzero" />
    <path id=""  transform="matrix(1 0 0 -1 0 30)"  d="M55.7748 8.665401C 54.7438 9.2934 53.9458 10.1614 53.3838 11.2734C 52.8218 12.3834 52.5408 13.6514 52.5408 15.0764C 52.5408 16.4994 52.8178 17.7674 53.3738 18.8774C 53.9288 19.9884 54.7228 20.8584 55.7548 21.4864C 56.7868 22.1124 57.9958 22.4264 59.3808 22.4264C 60.7668 22.4264 61.9688 22.1224 62.9888 21.5154C 64.0078 20.9074 64.7908 20.0474 65.3408 18.9384C 65.8898 17.8264 66.1838 16.5394 66.2228 15.0764C 66.1958 13.6124 65.9018 12.3254 65.3408 11.2134C 64.7788 10.1034 63.9878 9.243401 62.9688 8.6364C 61.9498 8.0284 60.7528 7.7254 59.3808 7.7254C 58.0088 7.7254 56.8068 8.038401 55.7748 8.665401M62.3908 11.5564C 63.0638 12.4384 63.3998 13.6124 63.3998 15.0764C 63.3998 16.5774 63.0538 17.7614 62.3618 18.6234C 61.6678 19.4864 60.6498 19.9174 59.3028 19.9174C 58.0618 19.9174 57.0908 19.4834 56.3918 18.6134C 55.6938 17.7444 55.3438 16.6044 55.3438 15.1934C 55.3438 13.6254 55.6868 12.4074 56.3728 11.5374C 57.0588 10.6684 58.0878 10.2334 59.4598 10.2334C 60.7408 10.2334 61.7178 10.6744 62.3908 11.5564" stroke="none" fill="#7A8599" fill-rule="nonzero" />
    <path id=""  transform="matrix(1 0 0 -1 0 30)"  d="M81.1389 14.6638C 81.1389 13.6838 80.9889 12.7818 80.6879 11.9598C 80.3869 11.1358 79.9689 10.4108 79.4329 9.782801C 78.8319 9.0768 78.1039 8.5588 77.2469 8.2248C 76.3919 7.8928 75.4599 7.7258 74.4539 7.7258C 73.4089 7.7258 72.4509 7.9248 71.5829 8.3218C 70.7129 8.7228 69.9929 9.2938 69.4169 10.0378C 68.3319 11.4348 67.7899 13.1158 67.7899 15.0758C 67.7899 17.1658 68.3259 18.8578 69.3979 20.1518C 70.0109 20.9098 70.7499 21.4778 71.6129 21.8578C 72.4749 22.2358 73.4219 22.4268 74.4539 22.4268C 75.3039 22.4268 76.0719 22.3278 76.7579 22.1328C 77.4439 21.9358 78.0679 21.6098 78.6299 21.1518C 79.2309 20.6678 79.7039 20.1328 80.0509 19.5438C 80.3969 18.9558 80.6549 18.3038 80.8259 17.5838L80.8259 17.5838L77.9049 17.1738C 77.7999 17.5128 77.6759 17.8168 77.5319 18.0848C 77.3879 18.3518 77.1789 18.6098 76.9049 18.8578C 76.3039 19.4078 75.5449 19.6758 74.6309 19.6618C 74.0419 19.6758 73.4879 19.5638 72.9639 19.3298C 72.4429 19.0938 72.0249 18.7608 71.7099 18.3298C 71.1349 17.5838 70.8339 16.4998 70.8089 15.0758C 70.8339 13.6638 71.1349 12.5798 71.7099 11.8218C 72.0249 11.3918 72.4429 11.0578 72.9639 10.8218C 73.4879 10.5878 74.0419 10.4758 74.6309 10.4888C 75.4929 10.4758 76.2509 10.7498 76.9049 11.3108C 77.2049 11.5738 77.4469 11.8958 77.6299 12.2828C 77.8129 12.6688 77.9309 13.0498 77.9829 13.4298L77.9829 13.4298L75.2389 13.4298L75.2389 13.4298L75.2389 15.4878L75.2389 15.4878L81.0989 15.4878C 81.1249 15.2518 81.1389 14.9768 81.1389 14.6638" stroke="none" fill="#7A8599" fill-rule="nonzero" />
    <path id=""  transform="matrix(1 0 0 -1 0 30)"  d="M85.9611 19.6423L85.9611 16.6233L85.9611 16.6233L91.3311 16.6233L91.3311 16.6233L91.3311 14.1353L91.3311 14.1353L85.9611 14.1353L85.9611 14.1353L85.9611 10.5093L85.9611 10.5093L92.50809 10.5093L92.50809 10.5093L92.50809 8.0193L92.50809 8.0193L83.2951 8.0193L83.2951 8.0193L83.2951 22.1323L83.2951 22.1323L92.50809 22.1323L92.50809 22.1323L92.50809 19.6423z" stroke="none" fill="#7A8599" fill-rule="nonzero" />
    <path id=""  transform="matrix(1 0 0 -1 0 30)"  d="M106.7189 12.1755C 106.5229 11.5215 106.2649 10.9365 105.9449 10.4205C 105.6229 9.9045 105.1899 9.4235 104.6409 8.9795C 103.5819 8.143499 102.1839 7.7255 100.4469 7.7255C 99.4009 7.7255 98.4439 7.9245 97.5739 8.3215C 96.7049 8.7225 95.9839 9.2935 95.40791 10.0375C 94.32291 11.4355 93.7809 13.1155 93.7809 15.0755C 93.7809 17.1655 94.3179 18.8585 95.3889 20.1525C 96.0029 20.9095 96.74091 21.4785 97.6039 21.8585C 98.4659 22.2365 99.4139 22.4265 100.4469 22.4265C 101.2949 22.4265 102.0639 22.3275 102.7489 22.1325C 103.4359 21.9365 104.0599 21.6105 104.6209 21.1525C 105.2229 20.6675 105.6959 20.1325 106.0419 19.5435C 106.3889 18.9555 106.6469 18.3035 106.8169 17.5835L106.8169 17.5835L104.1509 17.2115C 104.0059 17.7075 103.7909 18.1405 103.5039 18.5055C 102.7979 19.4465 101.8119 19.9175 100.5439 19.9175C 99.9429 19.9175 99.3739 19.7965 98.83891 19.5545C 98.3029 19.3135 97.8719 18.9635 97.54491 18.5055C 96.9049 17.7075 96.5849 16.6125 96.5849 15.2135C 96.5849 13.6715 96.9049 12.4815 97.54491 11.6455C 97.8849 11.1755 98.3319 10.8215 98.8879 10.5875C 99.4429 10.3515 100.0469 10.2335 100.7009 10.2335C 101.8649 10.2335 102.7979 10.7045 103.5039 11.6455C 103.7789 12.0245 103.9809 12.4155 104.1119 12.8215z" stroke="none" fill="#7A8599" fill-rule="nonzero" />
    <path id=""  transform="matrix(1 0 0 -1 0 30)"  d="M111.4233 8.665401C 110.3913 9.2934 109.5933 10.1614 109.0313 11.2734C 108.4703 12.3834 108.1883 13.6514 108.1883 15.0764C 108.1883 16.4994 108.4663 17.7674 109.0213 18.8774C 109.5763 19.9884 110.3703 20.8584 111.4023 21.4864C 112.4343 22.1124 113.6433 22.4264 115.0293 22.4264C 116.4143 22.4264 117.6173 22.1224 118.6363 21.5154C 119.6553 20.9074 120.4393 20.0474 120.9883 18.9384C 121.5373 17.8264 121.8313 16.5394 121.8703 15.0764C 121.8443 13.6124 121.5503 12.3254 120.9883 11.2134C 120.4263 10.1034 119.6353 9.243401 118.6163 8.6364C 117.5973 8.0284 116.4013 7.7254 115.0293 7.7254C 113.6573 7.7254 112.4553 8.038401 111.4233 8.665401M118.0383 11.5564C 118.7113 12.4384 119.0473 13.6124 119.0473 15.0764C 119.0473 16.5774 118.7013 17.7614 118.0093 18.6234C 117.3163 19.4864 116.2973 19.9174 114.9513 19.9174C 113.7093 19.9174 112.7393 19.4834 112.0403 18.6134C 111.3413 17.7444 110.9913 16.6044 110.9913 15.1934C 110.9913 13.6254 111.3353 12.4074 112.0203 11.5374C 112.7073 10.6684 113.7353 10.2334 115.1073 10.2334C 116.3883 10.2334 117.3653 10.6744 118.0383 11.5564" stroke="none" fill="#7A8599" fill-rule="nonzero" />
    <path id=""  transform="matrix(1 0 0 -1 0 30)"  d="M126.888 8.019L124.222 8.019L124.222 8.019L124.222 22.132L124.222 22.132L126.888 22.132z" stroke="none" fill="#7A8599" fill-rule="nonzero" />
    <path id=""  transform="matrix(1 0 0 -1 0 30)"  d="M138.6682 12.7233L138.6682 22.1323L138.6682 22.1323L141.3732 22.1323L141.3732 22.1323L141.3732 8.0193L141.3732 8.0193L138.6682 8.0193L138.6682 8.0193L132.5332 17.4273L132.5332 17.4273L132.5332 8.0193L132.5332 8.0193L129.8282 8.0193L129.8282 8.0193L129.8282 22.1323L129.8282 22.1323L132.5332 22.1323z" stroke="none" fill="#7A8599" fill-rule="nonzero" />
		</g>
	</g>
</g>
</svg>