<?xml version="1.0" standalone="no"?>
<!DOCTYPE svg PUBLIC "-//W3C//DTD SVG 1.0//EN" "http://www.w3.org/TR/2001/REC-SVG-20010904/DTD/svg10.dtd">
<svg xmlns="http://www.w3.org/2000/svg" xmlns:xlink="http://www.w3.org/1999/xlink" id="body_1" width="183" height="45">

<defs>
    <clipPath  id="1">

    <path id=""  clip-rule="evenodd" transform="matrix(1 0 0 1 0 0)"  d="M0 34L0 -0.3532982L0 -0.3532982L137.108 -0.3532982L137.108 -0.3532982L137.108 34L137.108 34L0 34z" />    </clipPath>
    <clipPath  id="2">

    <path id=""  clip-rule="evenodd" transform="matrix(1 0 0 1 0 0)"  d="M0 -0.3530006L137.108 -0.3530006L137.108 -0.3530006L137.108 34L137.108 34L0 34z" />    </clipPath>
    <clipPath  id="3">

    <path id=""  clip-rule="evenodd" transform="matrix(1 0 0 1 0 0)"  d="M0 12.3546L21.0868 12.3546L21.0868 12.3546L21.0868 23.3741L21.0868 23.3741L0 23.3741z" />    </clipPath>
    <clipPath  id="4">

    <path id=""  clip-rule="evenodd" transform="matrix(1 0 0 1 0 0)"  d="M0 -0.3532982L10.537 -0.3532982L10.537 -0.3532982L10.537 23.3741L10.537 23.3741L0 23.3741z" />    </clipPath>
    <clipPath  id="5">

    <path id=""  clip-rule="evenodd" transform="matrix(1 0 0 1 0 0)"  d="M10.537 -0.3532982L21.0868 -0.3532982L21.0868 -0.3532982L21.0868 23.3741L21.0868 23.3741L10.537 23.3741z" />    </clipPath>
    <clipPath  id="6">

    <path id=""  clip-rule="evenodd" transform="matrix(1 0 0 1 0 0)"  d="M0 19.1466L10.537 19.1466L10.537 19.1466L10.537 34L10.537 34L0 34z" />    </clipPath>
    <clipPath  id="7">

    <path id=""  clip-rule="evenodd" transform="matrix(1 0 0 1 0 0)"  d="M10.537 19.1466L21.0868 19.1466L21.0868 19.1466L21.0868 34L21.0868 34L10.537 34z" />    </clipPath>
</defs>

<g transform="matrix(1.3333 0 0 1.3333 0 0)">
	<g clip-path="url(#1)" >
		<g clip-path="url(#2)" >
    <path id=""  transform="matrix(1 0 0 -1 0 34)"  d="M38.8725 14.5868C 38.8725 14.3458 38.6695 14.1428 38.4155 14.1428L38.4155 14.1428L29.9985 14.1428C 30.2145 12.0608 31.7765 10.1568 33.9855 10.1568C 35.4955 10.1568 36.6135 10.7278 37.4505 11.9338C 37.5395 12.0608 37.6665 12.1498 37.8195 12.1498C 38.0605 12.1498 38.2385 11.9718 38.2385 11.7308C 38.2385 11.6418 38.2125 11.5788 38.1745 11.5148C 37.3245 10.0428 35.6355 9.3188 33.9855 9.3188C 31.1545 9.3188 29.1225 11.8578 29.1225 14.5618C 29.1225 17.2788 31.1415 19.8038 33.9855 19.8038C 36.8165 19.8038 38.8605 17.2918 38.8725 14.5868M37.9715 14.9808C 37.7935 17.0628 36.1945 18.9658 33.9855 18.9658C 31.7765 18.9658 30.2145 17.0628 29.9985 14.9808z" stroke="none" fill="#7A8599" fill-rule="nonzero" />
    <path id=""  transform="matrix(1 0 0 -1 0 34)"  d="M49.1053 19.6009C 49.3463 19.6009 49.5243 19.3849 49.5243 19.1819C 49.5243 18.9409 49.3463 18.7629 49.1053 18.7629L49.1053 18.7629L46.8453 18.7629L46.8453 18.7629L46.8453 9.8899C 46.8453 9.673901 46.6673 9.470901 46.4263 9.470901C 46.1853 9.470901 46.0073 9.686901 46.0073 9.8899L46.0073 9.8899L46.0073 18.7629L46.0073 18.7629L43.8363 18.7629C 43.5953 18.7629 43.4183 18.9409 43.4183 19.1819C 43.4183 19.3979 43.5953 19.6009 43.8363 19.6009L43.8363 19.6009L46.0073 19.6009L46.0073 19.6009L46.0073 22.8379C 46.0073 23.0539 46.1723 23.2569 46.3883 23.2829C 46.6553 23.3079 46.8583 23.1179 46.8583 22.8639L46.8583 22.8639L46.8583 19.6009z" stroke="none" fill="#7A8599" fill-rule="nonzero" />
    <path id=""  transform="matrix(1 0 0 -1 0 34)"  d="M62.8797 15.3109L62.8797 9.9409C 62.8797 9.6999 62.6637 9.5219 62.4607 9.5219C 62.2197 9.5219 62.0417 9.6999 62.0417 9.9409L62.0417 9.9409L62.0417 15.3109C 62.0417 17.1259 61.0137 18.9279 58.9947 18.9279C 56.4047 18.9279 55.2877 16.6689 55.4407 14.3459C 55.4407 14.2829 55.4657 14.0159 55.4657 13.9779L55.4657 13.9779L55.4657 9.953899C 55.4657 9.7379 55.3007 9.5349 55.0847 9.5089C 54.8177 9.4839 54.6147 9.6739 54.6147 9.9279L54.6147 9.9279L54.6147 27.5859C 54.6147 27.8019 54.7927 28.0049 55.0337 28.0049C 55.2757 28.0049 55.4527 27.7899 55.4527 27.5859L55.4527 27.5859L55.4527 17.6089C 56.1767 18.9029 57.4717 19.7789 58.9827 19.7789C 61.4707 19.7789 62.8797 17.6089 62.8797 15.3109" stroke="none" fill="#7A8599" fill-rule="nonzero" />
    <path id=""  transform="matrix(1 0 0 -1 0 34)"  d="M77.9998 14.5868C 77.9998 14.3458 77.7968 14.1428 77.5428 14.1428L77.5428 14.1428L69.1258 14.1428C 69.3418 12.0608 70.9028 10.1568 73.1118 10.1568C 74.6228 10.1568 75.7398 10.7278 76.5778 11.9338C 76.6668 12.0608 76.7938 12.1498 76.9458 12.1498C 77.1878 12.1498 77.3648 11.9718 77.3648 11.7308C 77.3648 11.6418 77.3398 11.5788 77.3018 11.5148C 76.4508 10.0428 74.7628 9.3188 73.1118 9.3188C 70.2808 9.3188 68.2498 11.8578 68.2498 14.5618C 68.2498 17.2788 70.2688 19.8038 73.1118 19.8038C 75.9308 19.8038 77.9868 17.2918 77.9998 14.5868M77.0858 14.9808C 76.9078 17.0628 75.3088 18.9658 73.0998 18.9658C 70.8908 18.9658 69.3288 17.0628 69.1128 14.9808z" stroke="none" fill="#7A8599" fill-rule="nonzero" />
    <path id=""  transform="matrix(1 0 0 -1 0 34)"  d="M88.3465 19.2074C 88.3465 18.9404 88.1945 18.7884 87.9525 18.7504C 85.47749 18.3824 84.3605 16.3644 84.3605 14.0164L84.3605 14.0164L84.3605 9.9914C 84.3605 9.775399 84.1955 9.572399 83.9795 9.5474C 83.71249 9.521399 83.5095 9.712399 83.5095 9.966399L83.5095 9.966399L83.5095 19.1444C 83.5095 19.3594 83.6745 19.5624 83.8905 19.5884C 84.15749 19.6134 84.3605 19.4234 84.3605 19.1694L84.3605 19.1694L84.3605 17.3044C 85.05849 18.4834 86.4425 19.6014 87.8895 19.6014C 88.1055 19.6014 88.3465 19.4484 88.3465 19.2074" stroke="none" fill="#7A8599" fill-rule="nonzero" />
    <path id=""  transform="matrix(1 0 0 -1 0 34)"  d="M102.183 14.5868C 102.183 14.3458 101.98 14.1428 101.726 14.1428L101.726 14.1428L93.31 14.1428C 93.52499 12.0608 95.087 10.1568 97.296 10.1568C 98.806 10.1568 99.924 10.7278 100.761 11.9338C 100.85 12.0608 100.977 12.1498 101.13 12.1498C 101.371 12.1498 101.549 11.9718 101.549 11.7308C 101.549 11.6418 101.523 11.5788 101.485 11.5148C 100.635 10.0428 98.946 9.3188 97.296 9.3188C 94.466 9.3188 92.434 11.8578 92.434 14.5618C 92.434 17.2788 94.453 19.8038 97.296 19.8038C 100.127 19.8038 102.171 17.2918 102.183 14.5868M101.282 14.9808C 101.104 17.0628 99.505 18.9658 97.296 18.9658C 95.087 18.9658 93.526 17.0628 93.31 14.9808z" stroke="none" fill="#7A8599" fill-rule="nonzero" />
    <path id=""  transform="matrix(1 0 0 -1 0 34)"  d="M115.7928 19.1058L115.7928 16.1998L115.7928 16.1998L115.7928 9.889801C 115.7928 9.648801 115.5768 9.4708 115.3738 9.4708C 115.1328 9.4708 114.9548 9.648801 114.9548 9.889801L114.9548 9.889801L114.9548 11.6418C 114.2568 10.2578 113.0248 9.254801 111.4508 9.254801C 108.9498 9.254801 107.5658 11.4258 107.5658 13.7238L107.5658 13.7238L107.5658 19.1188C 107.5658 19.3348 107.7438 19.5378 107.9848 19.5378C 108.2268 19.5378 108.4038 19.3218 108.4038 19.1188L108.4038 19.1188L108.4038 13.7238C 108.4038 11.9088 109.4328 10.1058 111.4508 10.1058C 114.2818 10.1058 114.9548 12.7588 114.9548 15.6918L114.9548 15.6918L114.9548 19.1308C 114.9548 19.3848 115.2218 19.6388 115.5258 19.5248C 115.6908 19.4488 115.7928 19.2838 115.7928 19.1058" stroke="none" fill="#7A8599" fill-rule="nonzero" />
    <path id=""  transform="matrix(1 0 0 -1 0 34)"  d="M137.1082 15.349L137.1082 9.953C 137.1082 9.712 136.8922 9.535 136.6892 9.535C 136.4482 9.535 136.2702 9.712 136.2702 9.953L136.2702 9.953L136.2702 15.349C 136.2702 17.164 135.2422 18.941 133.2232 18.941C 130.6842 18.941 129.7192 16.225 129.7192 14.118L129.7192 14.118L129.7192 9.953C 129.7192 9.712 129.5042 9.535 129.3002 9.535C 129.0592 9.535 128.8812 9.712 128.8812 9.953L128.8812 9.953L128.8812 15.349C 128.8812 17.164 127.8532 18.941 125.8352 18.941C 123.2702 18.941 122.2162 16.923 122.3052 14.232C 122.3052 14.168 122.3312 14.054 122.3052 14.016L122.3052 14.016L122.3052 9.966C 122.3052 9.75 122.1402 9.547 121.9242 9.521999C 121.6582 9.496 121.4552 9.687 121.4552 9.941L121.4552 9.941L121.4552 19.144C 121.4552 19.36 121.6202 19.563 121.8362 19.588C 122.1022 19.614 122.3052 19.423 122.3052 19.169L122.3052 19.169L122.3052 17.634C 123.0292 18.928 124.3242 19.779 125.8352 19.779C 127.5482 19.779 128.8812 18.687 129.4272 17.101C 130.1262 18.675 131.4842 19.779 133.2232 19.779C 135.6992 19.779 137.1082 17.634 137.1082 15.349" stroke="none" fill="#7A8599" fill-rule="nonzero" />
			<g>
				<g clip-path="url(#3)" >
    <path id=""  transform="matrix(1 0 0 -1 0 34)"  d="M10.5369 21.6449L-0.0001001358 16.8599L-0.0001001358 16.8599L10.5369 10.6259L10.5369 10.6259L21.0869 16.8599z" stroke="none" fill="#7A8599" fill-rule="nonzero" fill-opacity="0.6" />
				</g>
			</g>
			<g>
				<g clip-path="url(#4)" >
    <path id=""  transform="matrix(1 0 0 -1 0 34)"  d="M-0.0002 16.8597L10.5368 10.6267L10.5368 10.6267L10.5368 21.6447L10.5368 21.6447L10.5368 34.3527z" stroke="none" fill="#7A8599" fill-rule="nonzero" fill-opacity="0.4470588" />
				</g>
			</g>
			<g>
				<g clip-path="url(#5)" >
    <path id=""  transform="matrix(1 0 0 -1 0 34)"  d="M10.5369 34.3529L10.5369 21.6449L10.5369 21.6449L10.5369 10.6259L10.5369 10.6259L21.0869 16.8599z" stroke="none" fill="#7A8599" fill-rule="nonzero" fill-opacity="0.8" />
				</g>
			</g>
			<g>
				<g clip-path="url(#6)" >
    <path id=""  transform="matrix(1 0 0 -1 0 34)"  d="M-0.0002 14.8539L10.5368 -0.0001001358L10.5368 -0.0001001358L10.5368 8.6329z" stroke="none" fill="#7A8599" fill-rule="nonzero" fill-opacity="0.4470588" />
				</g>
			</g>
			<g>
				<g clip-path="url(#7)" >
    <path id=""  transform="matrix(1 0 0 -1 0 34)"  d="M10.5369 8.6332L10.5369 0.0001993179L10.5369 0.0001993179L21.0869 14.8542z" stroke="none" fill="#7A8599" fill-rule="nonzero" fill-opacity="0.8" />
				</g>
			</g>
		</g>
	</g>
</g>
</svg>