<?xml version="1.0" standalone="no"?>
<!DOCTYPE svg PUBLIC "-//W3C//DTD SVG 1.0//EN" "http://www.w3.org/TR/2001/REC-SVG-20010904/DTD/svg10.dtd">
<svg xmlns="http://www.w3.org/2000/svg" xmlns:xlink="http://www.w3.org/1999/xlink" id="body_1" width="152" height="68">

<defs>
    <clipPath  id="1">

    <path id=""  clip-rule="evenodd" transform="matrix(1 0 0 1 0 0)"  d="M0 51L0 -0.7636986L0 -0.7636986L114.591 -0.7636986L114.591 -0.7636986L114.591 51L114.591 51L0 51z" />    </clipPath>
    <clipPath  id="2">

    <path id=""  clip-rule="evenodd" transform="matrix(1 0 0 1 0 0)"  d="M0 -0.7639999L114.591 -0.7639999L114.591 -0.7639999L114.591 51L114.591 51L0 51z" />    </clipPath>
</defs>

<g transform="matrix(1.3333 0 0 1.3333 0 0)">
	<g clip-path="url(#1)" >
    <path id=""  transform="matrix(1 0 0 -1 0 51)"  d="M15.8459 12.6075L0.6098995 21.4325L0.6098995 21.4325L15.9869 -0.0004997253L15.9869 -0.0004997253L31.3869 21.4325zM-0.0001001358 25.1655L15.8929 16.3395L15.8929 16.3395L31.3399 24.9775L31.3399 24.9775L15.8929 31.8565zM15.7989 51.7635L0.5628996 28.5695L0.5628996 28.5695L15.8229 35.0015L15.8229 35.0015L30.6129 28.4055L30.6129 28.4055L15.7999 51.7635z" stroke="none" fill="#7A8599" fill-rule="nonzero" />
    <path id=""  transform="matrix(1 0 0 -1 0 51)"  d="M45.4573 38.2367L45.4573 35.9067L45.4573 35.9067L49.6033 35.9067L49.6033 35.9067L49.6033 33.9847L49.6033 33.9847L45.4573 33.9847L45.4573 33.9847L45.4573 31.1847L45.4573 31.1847L50.5113 31.1847L50.5113 31.1847L50.5113 29.2637L50.5113 29.2637L43.3993 29.2637L43.3993 29.2637L43.3993 40.1577L43.3993 40.1577L50.5113 40.1577L50.5113 40.1577L50.5113 38.2367z" stroke="none" fill="#7A8599" fill-rule="nonzero" />
		<g clip-path="url(#2)" >
    <path id=""  transform="matrix(1 0 0 -1 0 51)"  d="M54.8694 32.8499L54.8694 32.3659C 54.8694 32.1229 54.8814 31.9209 54.9064 31.7599C 54.9314 31.5989 54.9744 31.4729 55.0354 31.3819C 55.2074 31.1099 55.4944 30.9539 55.8974 30.9129C 55.9684 30.9029 56.0794 30.8979 56.2304 30.8979C 56.5434 30.8979 56.8764 30.9229 57.2294 30.9729L57.2294 30.9729L57.2294 29.2639C 56.8864 29.1729 56.4474 29.1269 55.9134 29.1269C 55.4994 29.1269 55.1414 29.1529 54.8394 29.2039C 54.4454 29.2739 54.1224 29.3849 53.8704 29.5359C 53.6184 29.6869 53.3864 29.9189 53.1744 30.2319C 53.0334 30.4439 52.9364 30.6829 52.8874 30.9509C 52.8364 31.2179 52.8104 31.5429 52.8104 31.9269L52.8104 31.9269L52.8104 32.7289L52.8104 32.7289L52.8104 35.8459L52.8104 35.8459L51.4194 35.8459L51.4194 35.8459L51.4194 37.4349L51.4194 37.4349L52.8104 37.4349L52.8104 37.4349L52.8104 39.7039L52.8104 39.7039L54.8694 39.7039L54.8694 39.7039L54.8694 37.4349L54.8694 37.4349L57.2294 37.4349L57.2294 37.4349L57.2294 35.8459L57.2294 35.8459L54.8694 35.8459z" stroke="none" fill="#7A8599" fill-rule="nonzero" />
    <path id=""  transform="matrix(1 0 0 -1 0 51)"  d="M66.4143 35.808C 66.5453 35.429 66.6263 35.046 66.6563 34.658C 66.6863 34.269 66.7013 33.787 66.7013 33.212L66.7013 33.212L66.7013 29.264L66.7013 29.264L64.6133 29.264L64.6133 29.264L64.6133 33.122C 64.6133 34.161 64.4323 34.877 64.0683 35.271C 63.7863 35.583 63.3823 35.74 62.8573 35.74C 62.4543 35.74 62.1063 35.634 61.8133 35.422C 61.5013 35.19 61.2993 34.842 61.2083 34.378C 61.1473 34.085 61.1173 33.566 61.1173 32.82L61.1173 32.82L61.1173 29.264L61.1173 29.264L59.0453 29.264L59.0453 29.264L59.0453 40.158L59.0453 40.158L60.8603 40.158L60.8603 40.158L60.8603 36.587L60.8603 36.587L60.9673 36.708C 61.2493 37.051 61.6123 37.298 62.0563 37.45C 62.5003 37.601 62.9533 37.676 63.4173 37.676C 64.4063 37.676 65.2033 37.378 65.8093 36.784C 66.0813 36.511 66.2823 36.186 66.4143 35.808" stroke="none" fill="#7A8599" fill-rule="nonzero" />
    <path id=""  transform="matrix(1 0 0 -1 0 51)"  d="M71.0443 31.4346C 71.36629 31.1176 71.8003 30.9586 72.3453 30.9586C 72.7283 30.9586 73.0663 31.0466 73.3583 31.2226C 73.6513 31.3996 73.8783 31.6546 74.0393 31.9866L74.0393 31.9866L76.0983 31.3966C 75.8053 30.6716 75.3233 30.0956 74.6523 29.6726C 73.9813 29.2486 73.2533 29.0366 72.4663 29.0366C 71.6293 29.0366 70.8883 29.2166 70.24129 29.5736C 69.5963 29.9316 69.0973 30.4306 68.7443 31.0716C 68.3913 31.7126 68.21429 32.4356 68.21429 33.2426C 68.21429 34.1206 68.3863 34.8916 68.72829 35.5576C 69.0713 36.2236 69.5563 36.7406 70.1823 37.1086C 70.8073 37.4766 71.5273 37.6616 72.3453 37.6616C 73.1513 37.6616 73.8463 37.4816 74.4263 37.1246C 75.00529 36.7656 75.4473 36.2616 75.7493 35.6106C 76.0523 34.9606 76.2033 34.2116 76.2033 33.3636C 76.2033 33.2326 76.1933 33.0366 76.17329 32.7736L76.17329 32.7736L70.4383 32.7736C 70.5203 32.1986 70.7213 31.7526 71.0443 31.4346M70.4993 34.3626L74.0853 34.3626C 74.0153 34.8666 73.8463 35.2456 73.5783 35.4976C 73.31129 35.7496 72.8993 35.8766 72.3453 35.8766C 71.3363 35.8766 70.7213 35.3716 70.4993 34.3626" stroke="none" fill="#7A8599" fill-rule="nonzero" />
    <path id=""  transform="matrix(1 0 0 -1 0 51)"  d="M82.1956 37.4652C 82.3056 37.4652 82.4626 37.4542 82.6646 37.4352L82.6646 37.4352L82.6646 35.5132C 82.4826 35.5632 82.2916 35.5882 82.0896 35.5882C 81.71661 35.5882 81.3736 35.5182 81.0606 35.3762C 80.3136 35.0242 79.94061 34.3782 79.94061 33.4402L79.94061 33.4402L79.94061 29.2642L79.94061 29.2642L77.8676 29.2642L77.8676 29.2642L77.8676 37.4352L77.8676 37.4352L79.6836 37.4352L79.6836 37.4352L79.6836 36.1182C 79.8956 36.4912 80.1876 36.7992 80.5606 37.0412C 81.0246 37.3232 81.5696 37.4652 82.1956 37.4652" stroke="none" fill="#7A8599" fill-rule="nonzero" />
    <path id=""  transform="matrix(1 0 0 -1 0 51)"  d="M86.17509 31.4346C 86.49709 31.1176 86.9311 30.9586 87.4761 30.9586C 87.8591 30.9586 88.1971 31.0466 88.4891 31.2226C 88.7821 31.3996 89.00909 31.6546 89.1701 31.9866L89.1701 31.9866L91.2291 31.3966C 90.9361 30.6716 90.45409 30.0956 89.7831 29.6726C 89.1121 29.2486 88.38409 29.0366 87.5971 29.0366C 86.76009 29.0366 86.0181 29.2166 85.37209 29.5736C 84.7271 29.9316 84.2281 30.4306 83.8741 31.0716C 83.52209 31.7126 83.34509 32.4356 83.34509 33.2426C 83.34509 34.1206 83.5171 34.8916 83.85909 35.5576C 84.2021 36.2236 84.6871 36.7406 85.3121 37.1086C 85.9381 37.4766 86.6581 37.6616 87.4761 37.6616C 88.2821 37.6616 88.9771 37.4816 89.5571 37.1246C 90.13609 36.7656 90.57809 36.2616 90.8801 35.6106C 91.1831 34.9606 91.3341 34.2116 91.3341 33.3636C 91.3341 33.2326 91.3241 33.0366 91.30409 32.7736L91.30409 32.7736L85.5691 32.7736C 85.65009 32.1986 85.8521 31.7526 86.17509 31.4346M85.6301 34.3626L89.21609 34.3626C 89.1461 34.8666 88.9771 35.2456 88.7091 35.4976C 88.44209 35.7496 88.0301 35.8766 87.4761 35.8766C 86.46709 35.8766 85.8521 35.3716 85.6301 34.3626" stroke="none" fill="#7A8599" fill-rule="nonzero" />
    <path id=""  transform="matrix(1 0 0 -1 0 51)"  d="M100.5042 37.4349L100.5042 29.2639L100.5042 29.2639L98.6882 29.2639L98.6882 29.2639L98.6882 30.1109L98.6882 30.1109L98.58221 29.9899C 98.3002 29.6469 97.9372 29.3999 97.4922 29.2479C 97.0492 29.0969 96.59521 29.0219 96.1312 29.0219C 95.1432 29.0219 94.34621 29.3189 93.7402 29.9139C 93.4682 30.1869 93.2662 30.5119 93.1352 30.8899C 93.0042 31.2689 92.9232 31.6519 92.8932 32.0399C 92.86221 32.4279 92.84821 32.9109 92.84821 33.4849L92.84821 33.4849L92.84821 37.4349L92.84821 37.4349L94.9362 37.4349L94.9362 37.4349L94.9362 33.5759C 94.9362 32.5369 95.1172 31.8209 95.4812 31.4269C 95.76321 31.1149 96.16621 30.9579 96.6912 30.9579C 97.1052 30.9579 97.4522 31.0639 97.73421 31.2759C 98.0472 31.5079 98.24921 31.8559 98.3402 32.3199C 98.40021 32.6129 98.43121 33.1319 98.43121 33.8779L98.43121 33.8779L98.43121 37.4349z" stroke="none" fill="#7A8599" fill-rule="nonzero" />
    <path id=""  transform="matrix(1 0 0 -1 0 51)"  d="M114.4397 35.7621C 114.5407 35.3641 114.5907 34.8571 114.5907 34.2411L114.5907 34.2411L114.5907 29.2641L114.5907 29.2641L112.5027 29.2641L112.5027 29.2641L112.5027 34.0901C 112.5027 34.3931 112.4717 34.6401 112.4117 34.8311C 112.3507 35.0241 112.2507 35.2001 112.1097 35.3621C 111.9777 35.5021 111.8217 35.6111 111.6397 35.6871C 111.4587 35.7621 111.2667 35.8001 111.0657 35.8001C 110.8637 35.8001 110.6717 35.7601 110.4907 35.6791C 110.3087 35.5981 110.1517 35.4881 110.0207 35.3461C 109.8697 35.1751 109.7687 35.0001 109.7187 34.8251C 109.6687 34.6481 109.6427 34.4441 109.6427 34.2111L109.6427 34.2111L109.6427 29.2641L109.6427 29.2641L107.5547 29.2641L107.5547 29.2641L107.5547 34.0901C 107.5547 34.3931 107.5247 34.6401 107.4637 34.8311C 107.4037 35.0241 107.3017 35.2001 107.1617 35.3621C 107.0307 35.5021 106.8737 35.6111 106.6927 35.6871C 106.5107 35.7621 106.3187 35.8001 106.1177 35.8001C 105.9157 35.8001 105.7237 35.7601 105.5427 35.6791C 105.3607 35.5981 105.2047 35.4881 105.0737 35.3461C 104.9217 35.1751 104.8207 35.0001 104.7707 34.8251C 104.7197 34.6481 104.6947 34.4441 104.6947 34.2111L104.6947 34.2111L104.6947 29.2641L104.6947 29.2641L102.6227 29.2641L102.6227 29.2641L102.6227 37.4351L102.6227 37.4351L104.4377 37.4351L104.4377 37.4351L104.4377 36.5571C 104.7197 36.9001 105.0707 37.1641 105.4897 37.3511C 105.9077 37.5371 106.3437 37.6311 106.7977 37.6311C 107.1707 37.6311 107.5467 37.5681 107.9247 37.4421C 108.3037 37.3161 108.6137 37.1261 108.8557 36.8741C 109.0377 36.6831 109.1637 36.5161 109.2347 36.3751C 109.5267 36.7691 109.8947 37.0761 110.3387 37.2981C 110.7827 37.5201 111.2517 37.6311 111.7467 37.6311C 112.1197 37.6311 112.4957 37.5681 112.8737 37.4421C 113.2517 37.3161 113.5617 37.1261 113.8037 36.8741C 114.1267 36.5321 114.3377 36.1601 114.4397 35.7621" stroke="none" fill="#7A8599" fill-rule="nonzero" />
    <path id=""  transform="matrix(1 0 0 -1 0 51)"  d="M52.9319 15.0404C 52.7819 14.5364 52.5809 14.0844 52.3339 13.6864C 52.0869 13.2874 51.7519 12.9174 51.3279 12.5744C 50.5109 11.9284 49.4319 11.6054 48.0899 11.6054C 47.2839 11.6054 46.5439 11.7594 45.8729 12.0674C 45.2029 12.3754 44.6459 12.8154 44.2019 13.3914C 43.3649 14.4704 42.9459 15.7674 42.9459 17.2794C 42.9459 18.8944 43.3599 20.2004 44.1869 21.1984C 44.6609 21.7834 45.2309 22.2234 45.8969 22.5154C 46.5619 22.8084 47.2929 22.9544 48.0899 22.9544C 48.7459 22.9544 49.3389 22.8784 49.8689 22.7274C 50.3979 22.5754 50.8789 22.3234 51.3129 21.9714C 51.7779 21.5974 52.1429 21.1844 52.4109 20.7294C 52.6769 20.2754 52.8769 19.7714 53.0079 19.2174L53.0079 19.2174L50.9509 18.9294C 50.8389 19.3124 50.6719 19.6444 50.4509 19.9284C 49.9069 20.6544 49.1449 21.0174 48.1659 21.0174C 47.7019 21.0174 47.2629 20.9244 46.8499 20.7374C 46.4359 20.5504 46.1029 20.2804 45.8509 19.9284C 45.3569 19.3124 45.1099 18.4654 45.1099 17.3864C 45.1099 16.1954 45.3569 15.2774 45.8509 14.6324C 46.1139 14.2694 46.4579 13.9964 46.8879 13.8144C 47.3159 13.6334 47.7829 13.5424 48.2869 13.5424C 49.1849 13.5424 49.9069 13.9054 50.4509 14.6324C 50.6619 14.9244 50.8189 15.2274 50.9199 15.5394z" stroke="none" fill="#7A8599" fill-rule="nonzero" />
    <path id=""  transform="matrix(1 0 0 -1 0 51)"  d="M54.672 22.954L56.731 22.954L56.731 22.954L56.731 11.832L56.731 11.832L54.672 11.832z" stroke="none" fill="#7A8599" fill-rule="nonzero" />
    <path id=""  transform="matrix(1 0 0 -1 0 51)"  d="M64.0528 11.8327L64.0528 12.8317C 63.6798 12.3977 63.2848 12.0847 62.8658 11.8927C 62.4478 11.7017 61.9048 11.6057 61.2388 11.6057C 60.4218 11.6057 59.7688 11.8407 59.2798 12.3087C 58.7898 12.7787 58.5458 13.3957 58.5458 14.1627C 58.5458 15.2317 59.0348 15.9837 60.0128 16.4177C 60.4268 16.5987 60.8778 16.7407 61.3678 16.8407C 61.8568 16.9417 62.4948 17.0487 63.2818 17.1587L63.2818 17.1587L63.8108 17.2347C 63.7608 17.6287 63.5988 17.9127 63.3278 18.0897C 63.0548 18.2657 62.7218 18.3537 62.3288 18.3537C 61.9558 18.3537 61.6228 18.2707 61.3298 18.1047C 61.0378 17.9377 60.8208 17.6887 60.6788 17.3557L60.6788 17.3557L58.8328 17.9157C 59.1248 18.5907 59.5778 19.1457 60.1878 19.5797C 60.7978 20.0127 61.5318 20.2307 62.3888 20.2307C 63.2468 20.2307 63.9528 20.0587 64.5078 19.7157C 65.0618 19.3727 65.4508 18.8637 65.6728 18.1877C 65.7938 17.8147 65.8538 17.3197 65.8538 16.7047L65.8538 16.7047L65.8538 11.8327zM63.8108 15.5697C 63.3368 15.4897 62.9258 15.4167 62.5788 15.3507C 62.2298 15.2857 61.9048 15.2077 61.6018 15.1167C 60.9068 14.9237 60.5578 14.5907 60.5578 14.1177C 60.5578 13.8757 60.6588 13.6637 60.8608 13.4817C 61.0628 13.2997 61.3498 13.2097 61.7228 13.2097C 62.0958 13.2097 62.4498 13.3027 62.7828 13.4897C 63.1158 13.6757 63.3678 13.9107 63.5388 14.1927C 63.7198 14.4957 63.8108 14.9547 63.8108 15.5697" stroke="none" fill="#7A8599" fill-rule="nonzero" />
    <path id=""  transform="matrix(1 0 0 -1 0 51)"  d="M72.2542 17.431C 72.2142 17.734 72.0632 17.981 71.8002 18.172C 71.5382 18.365 71.21021 18.46 70.81721 18.46C 70.4942 18.46 70.22421 18.402 70.0072 18.286C 69.79021 18.17 69.68221 18.021 69.68221 17.839C 69.68221 17.648 69.7452 17.496 69.8712 17.386C 69.99721 17.275 70.19621 17.179 70.4692 17.098C 70.82121 16.997 71.2862 16.871 71.86021 16.72C 72.7592 16.488 73.4122 16.188 73.82021 15.82C 74.2292 15.452 74.4342 14.929 74.4342 14.253C 74.4342 13.426 74.1202 12.779 73.4952 12.309C 72.8692 11.84 72.0772 11.606 71.1192 11.606C 70.0612 11.606 69.20821 11.826 68.5632 12.264C 67.91721 12.702 67.5192 13.376 67.3672 14.284L67.3672 14.284L69.47021 14.602C 69.5512 14.208 69.7422 13.906 70.0452 13.694C 70.34821 13.482 70.72121 13.376 71.16521 13.376C 71.5082 13.376 71.7872 13.444 72.0052 13.58C 72.22221 13.716 72.3302 13.91 72.3302 14.162C 72.3302 14.365 72.2542 14.526 72.1032 14.647C 71.9512 14.768 71.72021 14.874 71.4072 14.965L71.4072 14.965L69.3792 15.525C 68.83521 15.676 68.4082 15.941 68.1012 16.319C 67.79321 16.698 67.64021 17.169 67.64021 17.734C 67.64021 18.268 67.7882 18.722 68.0862 19.096C 68.3832 19.469 68.77621 19.751 69.2662 19.943C 69.7552 20.134 70.29221 20.231 70.8772 20.231C 71.7952 20.231 72.5772 20.021 73.22321 19.603C 73.8682 19.184 74.2462 18.586 74.3582 17.809z" stroke="none" fill="#7A8599" fill-rule="nonzero" />
    <path id=""  transform="matrix(1 0 0 -1 0 51)"  d="M80.5305 17.431C 80.4905 17.734 80.3395 17.981 80.0765 18.172C 79.8145 18.365 79.4865 18.46 79.09351 18.46C 78.7705 18.46 78.5005 18.402 78.2835 18.286C 78.06651 18.17 77.9585 18.021 77.9585 17.839C 77.9585 17.648 78.0215 17.496 78.1475 17.386C 78.2735 17.275 78.4725 17.179 78.7455 17.098C 79.0975 16.997 79.5615 16.871 80.13651 16.72C 81.0355 16.488 81.6885 16.188 82.0965 15.82C 82.5055 15.452 82.7095 14.929 82.7095 14.253C 82.7095 13.426 82.3965 12.779 81.7715 12.309C 81.1455 11.84 80.3535 11.606 79.3955 11.606C 78.3365 11.606 77.4845 11.826 76.8395 12.264C 76.1935 12.702 75.7955 13.376 75.6435 14.284L75.6435 14.284L77.74651 14.602C 77.8275 14.208 78.0185 13.906 78.3215 13.694C 78.6245 13.482 78.99751 13.376 79.44151 13.376C 79.7845 13.376 80.0635 13.444 80.2805 13.58C 80.4985 13.716 80.6065 13.91 80.6065 14.162C 80.6065 14.365 80.5305 14.526 80.3795 14.647C 80.2275 14.768 79.99651 14.874 79.6825 14.965L79.6825 14.965L77.6555 15.525C 77.1105 15.676 76.6845 15.941 76.3775 16.319C 76.0695 16.698 75.9155 17.169 75.9155 17.734C 75.9155 18.268 76.0645 18.722 76.3625 19.096C 76.6595 19.469 77.05251 19.751 77.5425 19.943C 78.0315 20.134 78.5685 20.231 79.1535 20.231C 80.0715 20.231 80.8535 20.021 81.4995 19.603C 82.1445 19.184 82.5225 18.586 82.63451 17.809z" stroke="none" fill="#7A8599" fill-rule="nonzero" />
    <path id=""  transform="matrix(1 0 0 -1 0 51)"  d="M86.583 21.138L84.524 21.138L84.524 21.138L84.524 22.954L84.524 22.954L86.583 22.954zM86.583 11.832L84.524 11.832L84.524 11.832L84.524 20.003L84.524 20.003L86.583 20.003z" stroke="none" fill="#7A8599" fill-rule="nonzero" />
    <path id=""  transform="matrix(1 0 0 -1 0 51)"  d="M94.1028 16.9622C 93.9818 17.3862 93.7728 17.7162 93.4748 17.9532C 93.1768 18.1902 92.8368 18.3092 92.4538 18.3092C 91.8288 18.3092 91.3598 18.0892 91.0458 17.6502C 90.7338 17.2112 90.5778 16.6342 90.5778 15.9182C 90.5778 15.1912 90.7388 14.6112 91.0618 14.1782C 91.3838 13.7442 91.8488 13.5272 92.4538 13.5272C 92.8978 13.5272 93.2438 13.6282 93.4908 13.8302C 93.7378 14.0312 93.9258 14.3392 94.0578 14.7532L94.0578 14.7532L96.1618 14.3142C 95.92879 13.4462 95.4898 12.7782 94.8448 12.3092C 94.1988 11.8402 93.4018 11.6062 92.4538 11.6062C 91.6258 11.6062 90.9078 11.7922 90.2968 12.1652C 89.6868 12.5382 89.2178 13.0532 88.8898 13.7092C 88.5628 14.3642 88.3988 15.1012 88.3988 15.9182C 88.3988 16.7452 88.56779 17.4832 88.9058 18.1352C 89.2438 18.7852 89.7198 19.2972 90.3348 19.6702C 90.9508 20.0432 91.6668 20.2312 92.4838 20.2312C 93.44279 20.2312 94.2488 19.9852 94.9058 19.4962C 95.5608 19.0072 95.9798 18.3442 96.1618 17.5072z" stroke="none" fill="#7A8599" fill-rule="nonzero" />
		</g>
	</g>
</g>
</svg>