<?xml version="1.0" standalone="no"?>
<!DOCTYPE svg PUBLIC "-//W3C//DTD SVG 1.0//EN" "http://www.w3.org/TR/2001/REC-SVG-20010904/DTD/svg10.dtd">
<svg xmlns="http://www.w3.org/2000/svg" xmlns:xlink="http://www.w3.org/1999/xlink" id="body_4" width="25" height="24">

<defs>
    <clipPath  id="1">

    <path id=""  clip-rule="evenodd" transform="matrix(1 0 0 1 0 0)"  d="M0 18L0 -0.9981995L0 -0.9981995L19.7014 -0.9981995L19.7014 -0.9981995L19.7014 18L19.7014 18L0 18z" />    </clipPath>
    <clipPath  id="2">

    <path id=""  clip-rule="evenodd" transform="matrix(1 0 0 1 0 0)"  d="M0 -0.9979992L19.701 -0.9979992L19.701 -0.9979992L19.701 18L19.701 18L0 18z" />    </clipPath>
</defs>

<g transform="matrix(1.3333 0 0 1.3333 0 0)">
	<g clip-path="url(#1)" >
		<g clip-path="url(#2)" >
    <path id=""  transform="matrix(1 0 0 -1 0 18)"  d="M18.2809 5.6252C 18.2809 2.7472 16.7169 1.4062 13.3589 1.4062L13.3589 1.4062L5.624901 1.4062L5.624901 1.4062L5.624901 8.9272L5.624901 8.9272L8.407901 13.1012L8.407901 13.1012L8.949901 16.8962L8.949901 16.8962L9.046901 17.5782L9.046901 17.5782L9.843901 17.5782C 10.8559 17.5782 11.2499 17.1832 11.2499 16.1722L11.2499 16.1722L11.2499 11.2502L11.2499 11.2502L16.8749 11.2502C 17.8869 11.2502 18.2809 10.8552 18.2809 9.843201zM4.218901 1.4062L1.405901 1.4062L1.405901 1.4062L1.405901 8.437201L1.405901 8.437201L4.218901 8.437201zM16.8749 12.6562L12.6559 12.6562L12.6559 12.6562L12.6559 16.1722C 12.7359 16.9392 12.4659 17.7032 11.9199 18.2482C 11.3749 18.7952 10.6109 19.0642 9.843901 18.9842L9.843901 18.9842L8.737901 18.9842C 8.243901 18.9842 7.816901 18.6402 7.7089 18.1582L7.7089 18.1582L7.697901 18.0772L7.697901 18.0772L7.060901 13.6172L7.060901 13.6172L4.5459 9.843201L4.5459 9.843201L-9.918213E-05 9.843201L-9.918213E-05 9.843201L-9.918213E-05 0.0002002716L-9.918213E-05 0.0002002716L13.3589 0.0002002716C 18.5899 0.0002002716 19.6879 3.058201 19.6879 5.6252L19.6879 5.6252L19.6879 9.843201C 19.7679 10.6112 19.4979 11.3752 18.9519 11.9202C 18.4059 12.4672 17.6429 12.7362 16.8749 12.6562" stroke="none" fill="#222426" fill-rule="evenodd" />
		</g>
	</g>
</g>
</svg>