<?xml version="1.0" standalone="no"?>
<!DOCTYPE svg PUBLIC "-//W3C//DTD SVG 1.0//EN" "http://www.w3.org/TR/2001/REC-SVG-20010904/DTD/svg10.dtd">
<svg xmlns="http://www.w3.org/2000/svg" xmlns:xlink="http://www.w3.org/1999/xlink" id="body_1" width="65" height="89">

<defs>
    <clipPath  id="1">

    <path id=""  clip-rule="evenodd" transform="matrix(1 0 0 1 0 0)"  d="M0 67L0 -0.4673004L0 -0.4673004L49.0672 -0.4673004L49.0672 -0.4673004L49.0672 67L49.0672 67L0 67z" />    </clipPath>
    <clipPath  id="2">

    <path id=""  clip-rule="evenodd" transform="matrix(1 0 0 1 0 0)"  d="M0 -0.4670029L49.067 -0.4670029L49.067 -0.4670029L49.067 67L49.067 67L0 67z" />    </clipPath>
</defs>

<g transform="matrix(1.3333 0 0 1.3333 0 0)">
	<g clip-path="url(#1)" >
		<g clip-path="url(#2)" >
    <path id=""  transform="matrix(1 0 0 -1 0 67)"  d="M45.5766 28.0547L45.5766 28.0547L45.5766 28.0547L45.1826 31.7747L45.1826 31.7747L47.7126 34.0827C 47.9656 34.9867 48.1856 35.8917 48.3696 36.7977L48.3696 36.7977L45.7926 42.9297C 45.7926 42.9297 48.2926 47.4197 48.6446 47.4197C 48.4676 48.3747 48.2326 49.3097 47.9466 50.2217L47.9466 50.2217L44.8606 52.3557L44.8606 52.3557L45.2716 55.9837C 43.5206 58.7437 41.2386 61.1377 38.5636 63.0117L38.5636 63.0117L38.5606 63.0237C 38.5036 63.0647 38.4406 63.0997 38.3826 63.1407C 38.2666 63.2187 38.1556 63.3037 38.0386 63.3807L38.0386 63.3807L38.0386 63.3627C 34.1616 65.9377 29.5336 67.4667 24.5386 67.4667C 19.5446 67.4667 14.9166 65.9377 11.0386 63.3627L11.0386 63.3627L11.0386 63.3807C 10.9226 63.3037 10.8106 63.2187 10.6966 63.1407C 10.6386 63.0997 10.5756 63.0647 10.5166 63.0237L10.5166 63.0237L10.5136 63.0117C 7.8396 61.1377 5.556599 58.7437 3.805599 55.9827L3.805599 55.9827L3.604599 51.9917L3.604599 51.9917L1.131599 50.2217C 0.8456001 49.3087 0.6105995 48.3747 0.4325981 47.4197L0.4325981 47.4197L4.292599 42.4297L4.292599 42.4297L0.7085991 36.7977C 0.8915977 35.8917 1.112598 34.9867 1.3666 34.0827L1.3666 34.0827L5.293598 32.3667L5.293598 32.3667L3.501598 28.0547C 4.4496 25.8447 5.538601 23.6797 6.711597 21.6007L6.711597 21.6007L6.710598 21.6007L6.710598 21.6007L6.719601 21.5857C 6.724598 21.5757 6.730598 21.5647 6.736599 21.5527L6.736599 21.5527L6.737598 21.5537C 7.698601 19.8517 8.7146 18.2147 9.746597 16.6477L9.746597 16.6477L9.746597 16.6447C 9.757599 16.6297 9.766598 16.6157 9.7766 16.5997C 10.0476 16.1897 10.3186 15.7867 10.5916 15.3877C 10.6966 15.2317 10.8036 15.0727 10.9096 14.9177C 10.9526 14.8547 10.9956 14.7887 11.0386 14.7267L11.0386 14.7267L11.0386 14.7327C 16.4606 6.890701 21.9376 1.3307 22.3676 0.901701C 22.9426 0.3247013 23.7236 -0.0002994537 24.5386 -0.0002994537C 25.3526 -0.0002994537 26.1356 0.3247013 26.7106 0.901701C 27.1396 1.3307 32.6186 6.890701 38.0386 14.7327L38.0386 14.7327L38.0386 14.7267C 38.0826 14.7887 38.1256 14.8547 38.1686 14.9177C 38.2746 15.0727 38.3806 15.2317 38.4866 15.3877C 38.7596 15.7867 39.0306 16.1897 39.3016 16.5997C 39.3106 16.6157 39.3216 16.6297 39.3316 16.6447L39.3316 16.6447L39.3316 16.6477C 40.3636 18.2147 41.3796 19.8517 42.3406 21.5537L42.3406 21.5537L42.3416 21.5527C 42.3476 21.5647 42.3526 21.5757 42.3586 21.5857L42.3586 21.5857L42.3676 21.6007L42.3676 21.6007L42.3666 21.6007C 43.5396 23.6797 44.6286 25.8447 45.5766 28.0547" stroke="none" fill="#1B66FF" fill-rule="nonzero" />
    <path id=""  transform="matrix(1 0 0 -1 0 67)"  d="M48.8627 39.8613C 48.9887 40.8673 49.0727 41.8913 49.0727 42.9333C 49.0727 43.8363 49.0167 44.7233 48.9217 45.6003L48.9217 45.6003L48.9247 45.6003C 48.9237 45.6213 48.9177 45.6403 48.9157 45.6613C 48.9137 45.6743 48.9137 45.6893 48.9117 45.7033L48.9117 45.7033L48.9087 45.7033C 48.8427 46.2833 48.7507 46.8533 48.6447 47.4203L48.6447 47.4203L42.3007 47.4203L42.3007 47.4203L47.9467 50.2213C 47.3037 52.2713 46.4007 54.2043 45.2717 55.9833L45.2717 55.9833L29.8497 48.3293L29.8497 48.3293L29.8497 66.8733C 28.7767 67.1153 27.6757 67.2853 26.5537 67.3783C 26.4567 67.3853 26.3597 67.3943 26.2617 67.40131C 25.6927 67.4423 25.1187 67.4663 24.5397 67.4663L24.5397 67.4663L24.5387 67.4663C 23.9587 67.4663 23.3847 67.4423 22.8157 67.40131C 22.7177 67.3943 22.6217 67.3853 22.5237 67.3783C 21.4017 67.2853 20.3017 67.1153 19.2277 66.8733L19.2277 66.8733L19.2277 48.3293L19.2277 48.3293L3.805702 55.9823C 2.676701 54.2043 1.772701 52.2713 1.131702 50.2213L1.131702 50.2213L6.777702 47.4203L6.777702 47.4203L0.4327011 47.4203C 0.3277016 46.8533 0.2347031 46.2833 0.1697006 45.7033L0.1697006 45.7033L0.1657028 45.7033C 0.1646996 45.6893 0.1637001 45.6743 0.1627007 45.6613C 0.1597023 45.6403 0.1557007 45.6213 0.1527023 45.6003L0.1527023 45.6003L0.1576996 45.6003C 0.06170273 44.7233 0.005702972 43.8363 0.005702972 42.9333C 0.005702972 41.8913 0.08970261 40.8673 0.2157021 39.8613C 0.3227005 38.8413 0.5017014 37.8203 0.7087021 36.7983L0.7087021 36.7983L6.835701 36.7983L6.835701 36.7983L1.3657 34.0833C 1.933701 32.0523 2.652702 30.0353 3.501701 28.0543L3.501701 28.0543L19.2277 35.8593L19.2277 35.8593L19.2277 4.292301C 20.9757 2.310303 22.1757 1.0933 22.3677 0.9013023C 22.9427 0.3243027 23.7237 0.0003013611 24.5387 0.0003013611C 25.3527 0.0003013611 26.1347 0.3243027 26.7107 0.9013023C 26.9017 1.0933 28.1017 2.310303 29.8497 4.291302L29.8497 4.291302L29.8497 35.8593L29.8497 35.8593L45.5767 28.0543C 46.4247 30.0353 47.1437 32.0523 47.7127 34.0833L47.7127 34.0833L42.2427 36.7983L42.2427 36.7983L48.3697 36.7983C 48.5777 37.8203 48.7557 38.8413 48.8627 39.8613" stroke="none" fill="#EBEFF5" fill-rule="nonzero" />
    <path id=""  transform="matrix(1 0 0 -1 0 67)"  d="M48.9454 45.3079L27.7374 45.3079L27.7374 45.3079L27.7374 67.2419C 27.3584 67.2929 26.9784 67.3409 26.5934 67.37289C 26.5034 67.3809 26.4154 67.3929 26.3254 67.3989C 25.7354 67.44189 25.1404 67.4669 24.5394 67.4669L24.5394 67.4669L24.5384 67.4669C 23.9374 67.4669 23.3434 67.44189 22.7534 67.3989C 22.6634 67.3929 22.5744 67.3809 22.4844 67.3739C 22.1004 67.3409 21.7204 67.2929 21.3404 67.2419L21.3404 67.2419L21.3404 45.3079L21.3404 45.3079L0.1323996 45.3079C 0.05539989 44.5249 0.005399704 43.7349 0.005399704 42.9339C 0.005399704 41.8919 0.08939934 40.8669 0.2153997 39.8609C 0.2483997 39.5449 0.3084002 39.2269 0.3523998 38.9099L0.3523998 38.9099L21.3404 38.9099L21.3404 38.9099L21.3404 1.969898C 21.9004 1.374901 22.2704 0.9988976 22.3674 0.900898C 22.9424 0.3238983 23.7244 -9.918213E-05 24.5384 -9.918213E-05C 25.3534 -9.918213E-05 26.1354 0.3238983 26.7104 0.900898C 26.8084 0.9988976 27.1774 1.374901 27.7374 1.969898L27.7374 1.969898L27.7374 38.9099L27.7374 38.9099L48.7264 38.9099C 48.7694 39.2269 48.8294 39.5449 48.8624 39.8609C 48.9884 40.8669 49.0724 41.8919 49.0724 42.9339C 49.0724 43.7349 49.0224 44.5249 48.9454 45.3079M35.0614 36.7979L46.7334 31.0049C 46.9524 31.6129 47.1674 32.2229 47.3584 32.8339L47.3584 32.8339L39.3734 36.7979zM2.3744 30.9179C 2.5914 30.3159 2.825399 29.7189 3.0674 29.1219L3.0674 29.1219L18.5334 36.7979L18.5334 36.7979L14.2214 36.7979zM46.7574 53.2969C 46.4844 53.8769 46.1824 54.4409 45.8664 54.9949L45.8664 54.9949L30.6034 47.4199L30.6034 47.4199L34.9154 47.4199zM13.9584 47.4199L2.2834 53.2139C 2.0144 52.6349 1.7724 52.0409 1.5484 51.4399L1.5484 51.4399L9.6464 47.4199z" stroke="none" fill="#FF5555" fill-rule="nonzero" />
		</g>
	</g>
</g>
</svg>