<?xml version="1.0" standalone="no"?>
<!DOCTYPE svg PUBLIC "-//W3C//DTD SVG 1.0//EN" "http://www.w3.org/TR/2001/REC-SVG-20010904/DTD/svg10.dtd">
<svg xmlns="http://www.w3.org/2000/svg" xmlns:xlink="http://www.w3.org/1999/xlink" id="body_3" width="65" height="89">

<defs>
    <clipPath  id="1">

    <path id=""  clip-rule="evenodd" transform="matrix(1 0 0 1 0 0)"  d="M0 67L0 -0.4673004L0 -0.4673004L49.0672 -0.4673004L49.0672 -0.4673004L49.0672 67L49.0672 67L0 67z" />    </clipPath>
    <clipPath  id="2">

    <path id=""  clip-rule="evenodd" transform="matrix(1 0 0 1 0 0)"  d="M0 -0.4670029L49.067 -0.4670029L49.067 -0.4670029L49.067 67L49.067 67L0 67z" />    </clipPath>
</defs>

<g transform="matrix(1.3333 0 0 1.3333 0 0)">
	<g clip-path="url(#1)" >
		<g clip-path="url(#2)" >
    <path id=""  transform="matrix(1 0 0 -1 0 67)"  d="M11.4174 63.5547L3.4174 43.5547L3.4174 43.5547L11.4174 14.5547L11.4174 14.5547L11.2514 14.4277C 16.6014 6.743698 21.9384 1.325699 22.3624 0.9016991C 22.9374 0.3246994 23.7194 -0.0003013611 24.5334 -0.0003013611C 25.3484 -0.0003013611 26.1304 0.3246994 26.7044 0.9016991C 27.1694 1.3657 33.5184 7.803699 39.3254 16.6447L39.3254 16.6447L44.4174 40.5547L44.4174 40.5547L38.5564 63.0237C 34.5774 65.8117 29.7504 67.4667 24.5334 67.4667C 19.6474 67.4667 15.1024 66.0187 11.2744 63.5467C 11.3594 63.5517 11.4174 63.5547 11.4174 63.5547" stroke="none" fill="#EBEFF5" fill-rule="nonzero" />
    <path id=""  transform="matrix(1 0 0 -1 0 67)"  d="M29.1069 38.5459L33.6099 42.1389L33.6099 42.1389L32.5539 42.6219C 32.4039 42.6919 32.3299 42.8619 32.3799 43.0199L32.3799 43.0199L33.2919 45.7949L33.2919 45.7949L30.7219 45.2099C 30.5529 45.1709 30.3799 45.2589 30.3109 45.4179L30.3109 45.4179L29.7939 46.6059L29.7939 46.6059L27.7289 44.3669C 27.5059 44.1249 27.1059 44.3279 27.1689 44.6499L27.1689 44.6499L28.1729 49.8319L28.1729 49.8319L26.6699 48.8909C 26.4949 48.7809 26.2629 48.8429 26.1669 49.0259L26.1669 49.0259L24.5339 52.1059L24.5339 52.1059L22.9009 49.0259C 22.8039 48.8429 22.5729 48.7809 22.3969 48.8909L22.3969 48.8909L20.8939 49.8319L20.8939 49.8319L21.8989 44.6499C 21.9609 44.3279 21.5609 44.1249 21.3379 44.3669L21.3379 44.3669L19.2729 46.6059L19.2729 46.6059L18.7559 45.4179C 18.6869 45.2589 18.5139 45.1709 18.3449 45.2099L18.3449 45.2099L15.7759 45.7949L15.7759 45.7949L16.6869 43.0199C 16.7379 42.8619 16.6639 42.6919 16.5129 42.6219L16.5129 42.6219L15.4579 42.1389L15.4579 42.1389L19.9609 38.5459C 20.1369 38.4039 20.2039 38.1639 20.1229 37.9519L20.1229 37.9519L19.5749 36.5129L19.5749 36.5129L23.7269 37.2769C 24.0299 37.3329 24.3059 37.0929 24.2929 36.7849L24.2929 36.7849L24.1039 32.5549L24.1039 32.5549L24.9619 32.5549L24.9619 32.5549L24.7749 36.7849C 24.7609 37.0929 25.0379 37.3329 25.3399 37.2769L25.3399 37.2769L29.4929 36.5129L29.4929 36.5129L28.9449 37.9519C 28.8639 38.1639 28.9299 38.4039 29.1069 38.5459" stroke="none" fill="#FF5555" fill-rule="nonzero" />
    <path id=""  transform="matrix(1 0 0 -1 0 67)"  d="M0.153801 45.6376L0.1527977 45.6386C 0.1517982 45.6336 0.1517982 45.6286 0.1507988 45.6226C 0.1497993 45.6156 0.1478004 45.6086 0.1478004 45.6006L0.1478004 45.6006L0.1487999 45.6006C 0.05379868 44.7246 0.0007972717 43.8346 0.0007972717 42.9336C 0.0007972717 41.8916 0.08379745 40.8676 0.2038002 39.9176C 0.865799 33.6716 3.494801 27.3226 6.716801 21.6006L6.716801 21.6006L6.712799 21.6006C 6.740799 21.5506 6.769798 21.5036 6.797798 21.4546C 6.8638 21.3376 6.924801 21.2186 6.991798 21.1036L6.991798 21.1036L6.996799 21.1156C 8.282799 18.8696 9.6558 16.7346 11.0338 14.7406L11.0338 14.7406L11.0338 63.3826C 5.110798 59.4566 0.969799 53.0466 0.153801 45.6376M49.0668 42.9336C 49.0668 43.8356 49.0108 44.7236 48.9158 45.6006L48.9158 45.6006L48.9198 45.6006C 48.9178 45.6216 48.9128 45.6406 48.9108 45.6616C 48.9088 45.6746 48.9078 45.6896 48.9068 45.7036L48.9068 45.7036L48.9038 45.7036C 48.0698 53.0836 43.9368 59.4666 38.0338 63.3806L38.0338 63.3806L38.0338 14.7266C 39.5048 16.8556 40.9738 19.1426 42.3358 21.5536L42.3358 21.5536L42.3368 21.5526C 42.3418 21.5646 42.3478 21.5756 42.3538 21.5856C 42.3568 21.5906 42.3598 21.5956 42.3618 21.6006C 45.5798 27.3086 48.1988 33.6416 48.8578 39.8616C 48.9828 40.8676 49.0668 41.8916 49.0668 42.9336" stroke="none" fill="#FF5555" fill-rule="nonzero" />
		</g>
	</g>
</g>
</svg>