<?xml version="1.0" standalone="no"?>
<!DOCTYPE svg PUBLIC "-//W3C//DTD SVG 1.0//EN" "http://www.w3.org/TR/2001/REC-SVG-20010904/DTD/svg10.dtd">
<svg xmlns="http://www.w3.org/2000/svg" xmlns:xlink="http://www.w3.org/1999/xlink" id="body_1" width="441" height="467">

<defs>
    <clipPath  id="1">

    <path id=""  clip-rule="evenodd" transform="matrix(1 0 0 1 0 0)"  d="M0 350L0 -0.5400085L0 -0.5400085L331.536 -0.5400085L331.536 -0.5400085L331.536 350L331.536 350L0 350z" />    </clipPath>
    <clipPath  id="2">

    <path id=""  clip-rule="evenodd" transform="matrix(1 0 0 1 0 0)"  d="M0 -0.5400085L331.536 -0.5400085L331.536 -0.5400085L331.536 350L331.536 350L0 350z" />    </clipPath>
    <clipPath  id="3">

    <path id=""  clip-rule="evenodd" transform="matrix(1 0 0 1 0 0)"  d="M38.7307 220.547L273.57 220.547L273.57 220.547L273.57 324.477L273.57 324.477L38.7307 324.477z" />    </clipPath>
</defs>

<g transform="matrix(1.3333 0 0 1.3333 0 0)">
	<g clip-path="url(#1)" >
		<g clip-path="url(#2)" >
    <path id=""  transform="matrix(1 0 0 -1 0 350)"  d="M151.3462 246.4645C 150.8602 247.4365 149.4022 258.7795 152.8052 266.2335C 156.2072 273.6875 160.5642 283.3315 161.8602 293.8635C 163.1572 304.3965 162.6702 308.4475 162.8322 313.7945C 162.9942 319.1425 164.2092 327.4065 169.1522 334.2935C 174.0942 341.1795 179.5232 344.1775 183.7362 345.4735C 187.9492 346.7705 193.7832 347.3375 193.7832 347.3375C 193.7832 347.3375 202.9382 351.2265 215.3332 349.4445C 227.7302 347.6615 232.5912 336.5615 233.6442 333.6445C 234.6982 330.7285 239.2352 317.4405 234.8602 312.5795C 235.9932 306.7455 235.5082 300.3455 231.7812 293.2155C 228.0542 286.0855 226.6762 285.7615 222.6252 278.5505C 218.5752 271.3405 217.8452 269.4765 210.3112 264.0485C 205.0442 259.3485 201.3172 256.5135 197.5902 254.4065C 193.8642 252.2995 190.2982 250.5985 186.4092 251.7335C 185.8422 248.4115 186.1852 245.9785 186.3472 244.1145C 186.5092 242.2515 184.6462 236.4185 184.6462 236.4185L184.6462 236.4185L179.4602 230.6655L179.4602 230.6655L168.8472 226.9385L168.8472 226.9385L162.5272 227.5865z" stroke="none" fill="#FFFFFF" fill-rule="nonzero" />
    <path id=""  transform="matrix(1 0 0 -1 0 350)"  d="M165.1011 294.9982C 165.1011 294.9982 162.1031 293.7022 161.1311 293.7022C 161.8601 299.2112 162.1031 307.6372 162.1841 310.5542C 162.2651 313.4712 163.9671 322.4642 165.1821 325.8672C 166.3981 329.2692 167.4511 333.6442 173.7701 339.6402C 180.0901 345.6362 188.9211 347.1752 190.7851 347.2562C 192.6481 347.3372 194.2681 347.4182 194.2681 347.4182C 194.2681 347.4182 200.5881 349.5252 206.8271 349.8492C 213.0651 350.1732 222.1391 348.7142 227.7301 343.1242C 233.3211 337.5342 236.0751 329.5942 236.3991 325.2182C 236.7231 320.8432 237.3721 313.8752 235.0221 312.4172C 232.6721 310.9592 224.1651 311.5262 223.1931 312.0122C 222.2201 312.4982 221.7351 312.2552 220.0331 314.5242C 218.6561 317.3592 214.2811 323.0312 209.4191 326.0292C 204.5581 329.0262 199.4541 332.2672 195.2411 329.4322C 191.0281 326.5962 189.0021 323.8412 188.0301 319.2232C 187.0581 314.6052 187.2201 311.0402 185.4371 309.5812C 183.6551 308.1232 181.0621 303.9912 179.2801 304.8822C 177.4971 305.7732 178.3881 309.9062 177.2541 312.7412C 176.1201 315.5772 171.9071 316.9552 169.3951 313.7942C 166.8831 310.6352 164.0481 303.7482 164.0481 300.9122C 164.0481 298.0772 165.1011 294.9982 165.1011 294.9982" stroke="none" fill="#222426" fill-rule="nonzero" />
    <path id=""  transform="matrix(1 0 0 -1 0 350)"  d="M92.8492 237.7145C 92.8492 243.0615 89.6902 250.3535 95.5232 251.5685C 101.3572 252.7845 124.7722 255.0525 140.6522 254.7285C 145.5132 259.2655 151.1842 262.0205 151.1842 262.0205C 151.1842 262.0205 154.4252 242.5755 166.0922 233.8255C 170.3052 234.1495 170.6292 234.9595 170.6292 234.9595C 170.6292 234.9595 182.4582 240.1445 186.3472 246.9505C 188.7782 242.2515 190.0742 241.4415 190.2362 238.8485C 194.1252 235.6075 221.8342 214.7045 226.6962 209.8435C 231.5572 204.9825 236.2562 198.9865 233.6632 188.6155C 231.0712 178.2455 225.2372 158.1515 225.2372 158.1515L225.2372 158.1515L114.7252 158.4765C 114.7252 158.4765 90.74319 216.1625 90.74319 219.0795C 90.74319 221.9965 92.8492 237.7145 92.8492 237.7145" stroke="none" fill="#00CC89" fill-rule="nonzero" />
    <path id=""  transform="matrix(1 0 0 -1 0 350)"  d="M148.0249 161.6359C 146.5659 162.7299 146.4449 164.7959 148.6319 169.6569C 150.8199 174.5179 157.2609 192.0189 159.5699 204.2929C 160.8379 209.2009 161.0279 209.6409 161.0279 209.6409C 161.0279 209.6409 157.1389 220.6999 155.0739 223.2519C 156.0459 225.3179 157.2609 226.1689 157.2609 226.1689L157.2609 226.1689L166.0919 233.8249C 166.0919 233.8249 168.3199 236.6209 172.8169 232.3669C 177.3129 228.1139 180.2299 225.1969 180.1089 223.0089C 179.9869 220.8219 177.1919 212.4359 172.9379 209.6409C 174.3969 202.7139 175.4909 180.3519 169.0489 159.9349C 162.4869 156.7749 148.0249 161.6359 148.0249 161.6359" stroke="none" fill="#FFFEFE" fill-rule="nonzero" />
    <path id=""  transform="matrix(1 0 0 -1 0 350)"  d="M200.2046 231.0709C 205.1916 225.7329 224.0496 205.2289 226.8576 197.3659C 229.7046 189.3949 224.0506 164.1749 222.6336 158.1599L222.6336 158.1599L225.2366 158.1519C 225.2366 158.1519 231.0706 178.2449 233.6636 188.6159C 236.2566 198.9869 231.5576 204.9819 226.6956 209.8429C 223.4386 213.0989 209.9376 223.5489 200.2046 231.0709" stroke="none" fill="#FFFEFE" fill-rule="nonzero" />
    <path id=""  transform="matrix(1 0 0 -1 0 350)"  d="M145.9995 242.5753C 145.9995 250.3173 149.1505 256.0093 151.7405 259.3933C 151.3515 261.0253 151.1845 262.0203 151.1845 262.0203C 151.1845 262.0203 145.5135 259.2653 140.6515 254.7283C 140.6135 254.7293 140.5745 254.7293 140.5365 254.7303C 140.4605 234.6983 149.0775 215.8383 149.0775 215.8383C 149.0775 215.8383 145.9995 229.4503 145.9995 242.5753" stroke="none" fill="#FFFEFE" fill-rule="nonzero" />
    <path id=""  transform="matrix(1 0 0 -1 0 350)"  d="M307.5181 -0.0004L24.01709 -0.0004C 10.75308 -0.0004 -0.0009155273 10.7526 -0.0009155273 24.0176L-0.0009155273 24.0176L-0.0009155273 140.2916C -0.0009155273 153.5566 10.75308 164.3096 24.01709 164.3096L24.01709 164.3096L307.5181 164.3096C 320.7831 164.3096 331.5361 153.5566 331.5361 140.2916L331.5361 140.2916L331.5361 24.0176C 331.5361 10.7526 320.7831 -0.0004 307.5181 -0.0004" stroke="none" fill="#1B66FF" fill-rule="nonzero" />
    <path id=""  transform="matrix(1 0 0 -1 0 350)"  d="M279.6255 89.4694C 279.6255 85.7104 276.5785 82.6634 272.8195 82.6634C 269.0615 82.6634 266.0145 85.7104 266.0145 89.4694C 266.0145 93.2284 269.0615 96.2754 272.8195 96.2754C 276.5785 96.2754 279.6255 93.2284 279.6255 89.4694z" stroke="#FFFEFE" stroke-width="1.5" stroke-linecap="round" fill="none" />
    <path id=""  transform="matrix(1 0 0 -1 0 350)"  d="M221.2905 80.7184C 221.2905 76.9594 218.2435 73.9124 214.4845 73.9124C 210.7265 73.9124 207.6795 76.9594 207.6795 80.7184C 207.6795 84.4774 210.7265 87.5244 214.4845 87.5244C 218.2435 87.5244 221.2905 84.4774 221.2905 80.7184z" stroke="#FFFEFE" stroke-width="1.5" stroke-linecap="round" fill="none" />
    <path id=""  transform="matrix(1 0 0 -1 0 350)"  d="M162.9556 48.1481C 162.9556 44.3901 159.9086 41.3421 156.1496 41.3421C 152.3926 41.3421 149.3446 44.3901 149.3446 48.1481C 149.3446 51.9071 152.3926 54.9551 156.1496 54.9551C 159.9086 54.9551 162.9556 51.9071 162.9556 48.1481z" stroke="#FFFEFE" stroke-width="1.5" stroke-linecap="round" fill="none" />
    <path id=""  transform="matrix(1 0 0 -1 0 350)"  d="M104.6216 66.6207C 104.6216 62.8627 101.5736 59.8147 97.8156 59.8147C 94.05759 59.8147 91.0106 62.8627 91.0106 66.6207C 91.0106 70.3797 94.05759 73.4277 97.8156 73.4277C 101.5736 73.4277 104.6216 70.3797 104.6216 66.6207z" stroke="#FFFEFE" stroke-width="1.5" stroke-linecap="round" fill="none" />
    <path id=""  transform="matrix(1 0 0 -1 0 350)"  d="M46.2867 26.2731C 46.2867 22.5141 43.2397 19.4671 39.4807 19.4671C 35.7227 19.4671 32.6757 22.5141 32.6757 26.2731C 32.6757 30.0321 35.7227 33.0791 39.4807 33.0791C 43.2397 33.0791 46.2867 30.0321 46.2867 26.2731z" stroke="#FFFEFE" stroke-width="1.5" stroke-linecap="round" fill="none" />
    <path id=""  transform="matrix(1 0 0 -1 0 350)"  d="M221.2905 81.7399L266.0145 88.4479" stroke="#FFFEFE" stroke-width="1.5" stroke-linecap="round" fill="none" />
    <path id=""  transform="matrix(1 0 0 -1 0 350)"  d="M162.0903 51.4655L208.5443 77.4025" stroke="#FFFEFE" stroke-width="1.5" stroke-linecap="round" fill="none" />
    <path id=""  transform="matrix(1 0 0 -1 0 350)"  d="M104.3042 64.567L149.6612 50.204" stroke="#FFFEFE" stroke-width="1.5" stroke-linecap="round" fill="none" />
    <path id=""  transform="matrix(1 0 0 -1 0 350)"  d="M45.0757 30.1432L92.2207 62.7502" stroke="#FFFEFE" stroke-width="1.5" stroke-linecap="round" fill="none" />
			<g>
				<g clip-path="url(#3)" >
    <path id=""  transform="matrix(1 0 0 -1 0 350)"  d="M39.481 38.4264L39.481 128.7024" stroke="#FFFEFE" stroke-width="1.5" stroke-linecap="round" fill="none" stroke-opacity="0.3960784" />
    <path id=""  transform="matrix(1 0 0 -1 0 350)"  d="M97.8159 78.4498L97.8159 108.2858" stroke="#FFFEFE" stroke-width="1.5" stroke-linecap="round" fill="none" stroke-opacity="0.3960784" />
    <path id=""  transform="matrix(1 0 0 -1 0 350)"  d="M97.8159 26.2731L97.8159 55.6021" stroke="#FFFEFE" stroke-width="1.5" stroke-linecap="round" fill="none" stroke-opacity="0.3960784" />
    <path id=""  transform="matrix(1 0 0 -1 0 350)"  d="M156.1499 59.8151L156.1499 102.4531" stroke="#FFFEFE" stroke-width="1.5" stroke-linecap="round" fill="none" stroke-opacity="0.3960784" />
    <path id=""  transform="matrix(1 0 0 -1 0 350)"  d="M156.1499 26.2731L156.1499 36.9671" stroke="#FFFEFE" stroke-width="1.5" stroke-linecap="round" fill="none" stroke-opacity="0.3960784" />
    <path id=""  transform="matrix(1 0 0 -1 0 350)"  d="M214.4849 92.2233L214.4849 107.7993" stroke="#FFFEFE" stroke-width="1.5" stroke-linecap="round" fill="none" stroke-opacity="0.3960784" />
    <path id=""  transform="matrix(1 0 0 -1 0 350)"  d="M214.4849 26.2731L214.4849 68.7281" stroke="#FFFEFE" stroke-width="1.5" stroke-linecap="round" fill="none" stroke-opacity="0.3960784" />
    <path id=""  transform="matrix(1 0 0 -1 0 350)"  d="M272.8199 118.8795L272.8199 128.7025" stroke="#FFFEFE" stroke-width="1.5" stroke-linecap="round" fill="none" stroke-opacity="0.3960784" />
    <path id=""  transform="matrix(1 0 0 -1 0 350)"  d="M272.8199 26.2731L272.8199 77.4021" stroke="#FFFEFE" stroke-width="1.5" stroke-linecap="round" fill="none" stroke-opacity="0.3960784" />
				</g>
			</g>
    <path id=""  transform="matrix(1 0 0 -1 0 350)"  d="M248.409 143.4066C 246.221 145.7556 241.765 148.7536 239.253 147.3766C 239.253 147.3766 237.592 145.4726 239.659 141.1576C 241.725 136.8436 244.216 132.9546 244.216 132.9546C 244.216 132.9546 244.017 133.0066 243.672 133.0976C 244.311 132.4666 244.931 131.7746 245.493 131.0106C 248.044 128.0936 263.398 122.5846 263.398 122.5846C 261.048 126.4736 250.596 141.0566 248.409 143.4066M270.066 105.8986C 268.172 106.8856 267.17 109.8666 266.517 110.5936C 265.423 111.8086 254.729 115.6966 254.729 115.6966L254.729 115.6966L258.496 109.6206L258.496 109.6206L258.456 109.3126C 259.906 107.4286 264.243 101.8496 265.585 100.7086C 267.206 99.3316 267.773 98.9266 268.746 99.4116C 269.708 99.8936 270.985 100.3036 270.066 105.8986M194.814 141.5226C 193.781 141.7046 193.234 142.9196 190.621 143.7716C 188.008 144.6216 185.699 144.9866 178.65 145.5936C 171.601 146.2016 157.443 148.3286 151.731 148.8146C 146.019 149.3006 138.18 149.3616 135.507 149.2396C 132.834 149.1186 131.253 148.8756 131.253 148.8756C 131.253 148.8756 132.59 151.1236 128.276 153.0676C 128.033 157.3826 128.276 157.5036 127.972 159.5096C 127.669 161.5146 123.637 189.7506 122.179 197.0426C 120.72 204.3336 122.341 207.0076 122.341 207.0076C 122.341 207.0076 128.418 233.0966 114.239 240.4686C 100.06 247.8416 95.199 250.8396 89.60899 249.7866C 84.018 248.7326 76.96899 245.5736 74.62 238.4436C 72.27 231.3136 72.27 223.2116 73.08099 216.4866C 73.891 209.7626 77.53699 195.3406 78.02299 192.0186C 78.509 188.6966 79.643 182.2956 80.45399 177.2726C 81.26299 172.2496 82.72199 157.5036 86.69199 142.5156C 90.66199 127.5256 96.09 115.4546 103.382 108.2436C 108.082 104.3546 112.051 104.2726 115.617 104.9216C 119.181 105.5696 141.867 109.7016 152.805 110.5126C 163.743 111.3216 185.293 113.1866 185.293 113.1866C 185.293 113.1866 193.072 112.7806 196.232 112.6996C 199.391 112.6186 210.249 112.6996 210.815 112.9426C 210.968 113.0086 211.172 113.1626 211.421 113.3366C 211.125 116.1136 210.786 120.3946 210.856 125.0556C 210.977 133.0756 216.807 138.5496 216.807 138.5496C 216.153 138.7696 215.436 138.9696 214.684 139.0916C 212.071 139.5176 195.847 141.3406 194.814 141.5226" stroke="none" fill="#00CC88" fill-rule="nonzero" />
    <path id=""  transform="matrix(1 0 0 -1 0 350)"  d="M263.398 122.5836C 261.048 126.4736 250.596 141.0566 248.409 143.4066C 246.336 145.6326 242.229 148.4346 239.668 147.5506C 243.254 145.3856 246.743 140.0986 257.616 124.7966C 260.827 123.5066 263.398 122.5836 263.398 122.5836" stroke="none" fill="#FFFEFE" fill-rule="nonzero" />
    <path id=""  transform="matrix(1 0 0 -1 0 350)"  d="M194.814 141.5226C 193.781 141.7046 193.234 142.9196 190.621 143.7716C 188.008 144.6216 185.699 144.9866 178.65 145.5936C 171.601 146.2016 157.443 148.3286 151.731 148.8146C 146.019 149.3006 138.18 149.3616 135.507 149.2396C 132.834 149.1186 131.253 148.8756 131.253 148.8756C 131.253 148.8756 131.39 149.1106 131.434 149.4916C 124.215 147.6186 116.763 145.2056 113.429 142.5966C 125.257 145.5126 133.036 147.7816 149.078 145.1886C 165.12 142.5966 173.87 137.4106 179.217 138.7076C 184.565 140.0036 191.695 141.2996 193.963 141.2996C 187.967 138.0596 187.32 136.1146 187.32 136.1146C 187.32 136.1146 194.935 139.8416 216.163 138.3826C 216.146 138.5116 216.132 138.6316 216.117 138.7566C 215.657 138.8896 215.183 139.0106 214.684 139.0916C 212.071 139.5176 195.847 141.3406 194.814 141.5226" stroke="none" fill="#FFFEFE" fill-rule="nonzero" />
    <path id=""  transform="matrix(1 0 0 -1 0 350)"  d="M111.4615 104.6598C 111.2585 104.7748 111.0545 104.8898 110.8365 105.0028C 92.8495 114.2388 95.7665 138.0588 90.4185 165.2818C 85.0715 192.5048 84.0995 178.8928 81.1825 209.5188C 78.5945 236.6938 90.1595 247.7848 92.8015 249.9418C 91.7175 250.0378 90.67551 249.9878 89.60851 249.7858C 84.0185 248.7328 76.9695 245.5738 74.61951 238.4438C 72.2705 231.3138 72.2705 223.2118 73.08051 216.4868C 73.8915 209.7628 77.5365 195.3408 78.0235 192.0188C 78.50951 188.6968 79.6435 182.2958 80.45351 177.2728C 81.2635 172.2498 82.7225 157.5038 86.6915 142.5148C 90.6615 127.5258 96.0905 115.4548 103.3825 108.2438C 106.3365 105.7988 109.0025 104.8598 111.4615 104.6598" stroke="none" fill="#FFFEFE" fill-rule="nonzero" />
    <path id=""  transform="matrix(1 0 0 -1 0 350)"  d="M272.148 110.4313C 271.986 113.5903 271.662 114.2393 270.042 116.4263C 268.616 118.3503 266.252 120.7743 264.214 122.1023L264.214 122.1023L261.656 123.1113C 261.656 123.1113 248.531 128.4573 245.493 131.0103C 244.885 131.7793 244.377 132.4463 243.909 133.0353C 242.146 133.4963 233.162 135.8413 229.389 136.6613C 225.197 137.5733 219.606 137.3293 219.606 137.3293C 219.606 137.3293 218.425 138.0063 216.807 138.5503C 216.02 137.8093 211.402 133.1173 210.735 124.4483C 210.359 119.5703 210.853 115.8283 211.42 113.3353C 212.099 113.8073 213.142 114.4263 214.624 113.8333C 216.649 113.0243 230.99 103.7873 238.282 100.6273C 239.821 100.5463 244.115 101.4383 250.758 105.4083C 257.079 109.3773 257.969 109.9453 257.969 109.9453L257.969 109.9453L254.729 115.6973C 254.729 115.6973 265.544 112.1723 266.517 110.5933C 267.198 109.4873 268.061 106.9583 270.057 105.9533C 270.051 105.9893 270.047 106.0203 270.042 106.0563C 271.743 106.5413 272.31 107.2713 272.148 110.4313" stroke="none" fill="#FFFEFE" fill-rule="nonzero" />
    <path id=""  transform="matrix(1 0 0 -1 0 350)"  d="M220.7066 314.7355C 215.4126 322.6755 205.4876 329.6235 199.5316 330.2855C 193.5766 330.9465 188.2826 324.6605 187.9526 317.3815C 187.6216 310.1035 181.0046 304.4785 179.3506 304.4785C 177.6956 304.4785 179.3506 313.0815 174.3876 315.3975C 169.4246 317.7135 162.1456 304.4785 164.4616 296.5385C 166.7776 288.5975 171.4096 290.5835 171.4096 290.5835" stroke="#212325" stroke-width="1.5" stroke-linecap="round" fill="none" />
    <path id=""  transform="matrix(1 0 0 -1 0 350)"  d="M223.6011 312.5846C 223.6011 312.5846 234.5201 309.1106 236.2561 314.5696C 237.9941 320.0286 236.7531 335.4136 225.3381 344.8426C 213.9241 354.2726 193.5771 347.3246 193.5771 347.3246C 193.5771 347.3246 162.5591 347.5726 162.8071 309.6066" stroke="#212325" stroke-width="1.5" stroke-linecap="round" fill="none" />
    <path id=""  transform="matrix(1 0 0 -1 0 350)"  d="M226.0005 316.8859C 226.0005 316.8859 235.5955 321.6829 225.3385 335.2479" stroke="#FFFEFE" stroke-width="1.5" stroke-linecap="round" fill="none" />
    <path id=""  transform="matrix(1 0 0 -1 0 350)"  d="M213.9243 343.5197C 213.9243 343.5197 218.3903 342.0307 221.0373 339.3837" stroke="#FFFEFE" stroke-width="1.5" stroke-linecap="round" fill="none" />
    <path id=""  transform="matrix(1 0 0 -1 0 350)"  d="M192.9146 343.3542C 192.9146 343.3542 178.6876 343.5202 171.4096 328.7962" stroke="#FFFEFE" stroke-width="1.5" stroke-linecap="round" fill="none" />
    <path id=""  transform="matrix(1 0 0 -1 0 350)"  d="M235.0991 312.5846C 235.0991 312.5846 237.9111 301.6666 229.1431 288.7636C 220.3751 275.8596 220.2101 272.0556 214.4201 267.2576C 208.6301 262.4606 193.7421 248.3986 185.6361 252.0386C 177.5311 255.6776 167.9361 272.2206 167.1091 277.5146C 166.2821 282.8076 170.0861 288.4326 170.0861 288.4326" stroke="#212325" stroke-width="1.5" stroke-linecap="round" fill="none" />
    <path id=""  transform="matrix(1 0 0 -1 0 350)"  d="M170.9136 310.1032C 171.5746 310.2692 174.8836 308.4492 174.2226 303.6512C 173.5596 298.8542 172.2366 297.0352 172.2366 297.0352" stroke="#212325" stroke-width="1.5" stroke-linecap="round" fill="none" />
    <path id=""  transform="matrix(1 0 0 -1 0 350)"  d="M168.2661 300.0124C 168.2661 300.0124 170.2511 303.1554 173.8911 302.1624" stroke="#212325" stroke-width="1.5" stroke-linecap="round" fill="none" />
    <path id=""  transform="matrix(1 0 0 -1 0 350)"  d="M213.7583 299.8468C 213.7583 299.8468 207.4723 305.3058 197.2163 303.8168" stroke="#212325" stroke-width="1.5" stroke-linecap="round" fill="none" />
    <path id=""  transform="matrix(1 0 0 -1 0 350)"  d="M219.5484 295.0495C 219.5484 295.0495 226.4964 294.0565 227.9864 287.7705" stroke="#212325" stroke-width="1.5" stroke-linecap="round" fill="none" />
    <path id=""  transform="matrix(1 0 0 -1 0 350)"  d="M202.5093 275.1984C 202.5093 275.1984 207.9693 272.2204 209.2923 273.3784C 210.6153 274.5364 210.6153 284.1314 213.2623 289.2594" stroke="#212325" stroke-width="1.5" stroke-linecap="round" fill="none" />
    <path id=""  transform="matrix(1 0 0 -1 0 350)"  d="M184.9741 273.8752L188.4491 274.7022" stroke="#212325" stroke-width="1.5" stroke-linecap="round" fill="none" />
    <path id=""  transform="matrix(1 0 0 -1 0 350)"  d="M195.7271 264.4455C 195.7271 264.4455 190.2681 266.4305 186.6281 274.3715" stroke="#212325" stroke-width="1.5" stroke-linecap="round" fill="none" />
    <path id=""  transform="matrix(1 0 0 -1 0 350)"  d="M206.1255 293.4518C 205.0455 291.5808 203.1105 290.6758 201.8055 291.4298C 200.4985 292.1838 200.3155 294.3118 201.3965 296.1818C 202.4765 298.0538 204.4105 298.9588 205.7165 298.2038C 207.0215 297.4508 207.2055 295.3228 206.1255 293.4518" stroke="none" fill="#212325" fill-rule="nonzero" />
    <path id=""  transform="matrix(1 0 0 -1 0 350)"  d="M222.98 285.0368C 221.942 283.2388 220.083 282.3688 218.827 283.0938C 217.572 283.8178 217.395 285.8638 218.433 287.6618C 219.472 289.4598 221.332 290.3298 222.586 289.6048C 223.842 288.8808 224.018 286.8348 222.98 285.0368" stroke="none" fill="#212325" fill-rule="nonzero" />
    <path id=""  transform="matrix(1 0 0 -1 0 350)"  d="M151.9048 258.6637C 151.9048 258.6637 155.2138 242.1207 166.2968 234.0147C 166.2968 234.0147 151.9048 223.7587 149.4238 214.4947C 141.1518 229.5487 139.8288 251.2197 140.8208 254.8587C 147.7688 259.6557 151.0778 261.9717 151.0778 261.9717C 151.0778 261.9717 160.3258 280.3267 161.9798 294.7187" stroke="#212325" stroke-width="1.5" stroke-linecap="round" fill="none" />
    <path id=""  transform="matrix(1 0 0 -1 0 350)"  d="M184.4937 245.0983C 181.1847 239.3083 169.6047 234.5113 169.6047 234.5113C 169.6047 234.5113 180.3577 229.0523 184.1627 214.8253C 189.7877 222.1043 189.9527 240.4663 189.9527 240.4663L189.9527 240.4663L186.3127 246.5873C 185.8167 249.2343 186.4637 251.5423 186.4637 251.5423" stroke="#212325" stroke-width="1.5" stroke-linecap="round" fill="none" />
    <path id=""  transform="matrix(1 0 0 -1 0 350)"  d="M154.7163 223.5929C 154.7163 223.5929 159.3493 216.4799 160.8373 209.2009C 164.1463 210.5249 167.1233 211.6819 173.4093 209.8629C 173.4093 209.8629 179.2433 215.2609 180.0703 223.6979" stroke="#212325" stroke-width="1.5" stroke-linecap="round" fill="none" />
    <path id=""  transform="matrix(1 0 0 -1 0 350)"  d="M171.0943 165.3629C 171.0943 165.3629 176.0633 192.8239 173.4163 209.2009" stroke="#212325" stroke-width="1.5" stroke-linecap="round" fill="none" />
    <path id=""  transform="matrix(1 0 0 -1 0 350)"  d="M147.1069 165.859C 147.1069 165.859 156.3709 185.048 160.8369 209.201" stroke="#212325" stroke-width="1.5" stroke-linecap="round" fill="none" />
    <path id=""  transform="matrix(1 0 0 -1 0 350)"  d="M140.8208 254.8585C 140.8208 254.8585 87.2228 255.3555 77.6288 243.4445C 68.0338 231.5335 74.3198 200.1025 80.9368 184.8835" stroke="#212325" stroke-width="1.5" stroke-linecap="round" fill="none" />
    <path id=""  transform="matrix(1 0 0 -1 0 350)"  d="M184.0796 128.4733C 184.0796 128.4733 186.5606 138.8943 193.0136 141.1283C 200.4576 142.3693 216.9176 138.5643 216.9176 138.5643C 206.6606 127.9763 211.6236 113.0883 211.6236 113.0883C 211.6236 113.0883 194.7496 112.0953 185.1546 113.0883C 179.5306 112.4263 148.7616 110.7723 129.9026 107.4633C 111.0446 104.1553 106.0816 100.1853 95.1636 119.3743C 84.24461 138.5643 79.9436 181.5753 79.9436 181.5753" stroke="#212325" stroke-width="1.5" stroke-linecap="round" fill="none" />
    <path id=""  transform="matrix(1 0 0 -1 0 350)"  d="M194.2534 141.6242C 194.2534 141.6242 191.2754 144.6022 186.5614 144.8502C 186.5614 144.8502 178.6204 145.0982 164.7254 147.0832C 150.8294 149.0682 126.2634 152.7912 112.6154 141.8722" stroke="#212325" stroke-width="1.5" stroke-linecap="round" fill="none" />
    <path id=""  transform="matrix(1 0 0 -1 0 350)"  d="M105.1714 148.3239C 105.1714 148.3239 119.3164 156.5129 128.9924 152.5429" stroke="#212325" stroke-width="1.5" stroke-linecap="round" fill="none" />
    <path id=""  transform="matrix(1 0 0 -1 0 350)"  d="M128.2486 157.0089C 128.2486 157.0089 125.0226 183.0639 122.7896 192.4929C 120.5566 201.9219 122.0456 206.6369 122.0456 206.6369" stroke="#212325" stroke-width="1.5" stroke-linecap="round" fill="none" />
    <path id=""  transform="matrix(1 0 0 -1 0 350)"  d="M190.0357 238.8952C 190.0357 238.8952 213.3607 221.0292 219.3157 216.3142C 225.2707 211.6002 236.9337 203.1632 234.2047 189.0192C 231.4747 174.8752 227.2567 164.7012 227.2567 164.7012" stroke="#212325" stroke-width="1.5" stroke-linecap="round" fill="none" />
    <path id=""  transform="matrix(1 0 0 -1 0 350)"  d="M216.0903 182.319C 216.0903 182.319 208.1503 171.401 205.9163 164.949" stroke="#212325" stroke-width="1.5" stroke-linecap="round" fill="none" />
    <path id=""  transform="matrix(1 0 0 -1 0 350)"  d="M195.2466 119.7877C 195.2466 118.3717 194.1356 117.2247 192.7656 117.2247C 191.3936 117.2247 190.2836 118.3717 190.2836 119.7877C 190.2836 121.2037 191.3936 122.3517 192.7656 122.3517C 194.1356 122.3517 195.2466 121.2037 195.2466 119.7877" stroke="none" fill="#212325" fill-rule="nonzero" />
    <path id=""  transform="matrix(1 0 0 -1 0 350)"  d="M213.7739 114.2457C 213.7739 114.2457 234.2869 102.1707 237.9259 100.6817C 241.5659 99.1917 254.7989 107.7947 256.7849 109.2837" stroke="#212325" stroke-width="1.5" stroke-linecap="round" fill="none" />
    <path id=""  transform="matrix(1 0 0 -1 0 350)"  d="M248.5132 110.7721C 248.5132 110.7721 244.0472 103.8241 237.9262 100.6811" stroke="#212325" stroke-width="1.5" stroke-linecap="round" fill="none" />
    <path id=""  transform="matrix(1 0 0 -1 0 350)"  d="M253.8071 115.9C 254.3031 115.735 265.2211 112.095 266.5451 110.441C 267.8691 108.787 268.3651 105.975 270.0191 105.975C 271.6731 105.975 273.3281 107.298 271.5081 114.577C 268.3651 119.375 263.8981 122.187 263.8981 122.187C 263.8981 122.187 249.8371 127.976 247.3561 129.3C 244.8741 130.624 244.5431 132.774 244.5431 132.774C 244.5431 132.774 226.5121 138.564 219.2331 137.24" stroke="#212325" stroke-width="1.5" stroke-linecap="round" fill="none" />
    <path id=""  transform="matrix(1 0 0 -1 0 350)"  d="M263.898 122.1871C 263.898 122.1871 258.77 128.4731 253.311 136.9101C 247.852 145.3461 242.393 148.6551 239.581 147.4971C 239.581 147.4971 235.61 145.5121 244.543 132.7741" stroke="#212325" stroke-width="1.5" stroke-linecap="round" fill="none" />
    <path id=""  transform="matrix(1 0 0 -1 0 350)"  d="M270.0191 105.9752C 270.0191 105.9752 271.3421 100.1852 268.5301 99.1922C 265.7181 98.2002 255.4611 114.0802 255.4611 114.0802" stroke="#212325" stroke-width="1.5" stroke-linecap="round" fill="none" />
    <path id=""  transform="matrix(1 0 0 -1 0 350)"  d="M268.6958 169.4376C 268.5038 168.9506 267.2068 148.4286 269.5228 147.2706C 271.8388 146.1126 282.4258 139.9916 284.0808 140.1576C 285.7348 140.3226 294.3368 150.4136 294.3368 150.4136C 294.3368 150.4136 292.1858 143.7966 290.8628 140.3226C 292.5168 138.8336 295.9908 140.4876 298.8028 147.2706C 301.6158 154.0526 304.1848 163.6766 303.9308 164.3096C 302.6078 167.6176 292.0208 171.4226 285.8998 172.9116C 279.7788 174.4006 270.8458 174.8966 268.6958 169.4376" stroke="none" fill="#FFFEFE" fill-rule="nonzero" />
    <path id=""  transform="matrix(1 0 0 -1 0 350)"  d="M268.6958 169.4376C 268.5038 168.9506 267.2068 148.4286 269.5228 147.2706C 271.8388 146.1126 282.4258 139.9916 284.0808 140.1576C 285.7348 140.3226 294.3368 150.4136 294.3368 150.4136C 294.3368 150.4136 292.1858 143.7966 290.8628 140.3226C 292.5168 138.8336 295.9908 140.4876 298.8028 147.2706C 301.6158 154.0526 304.1848 163.6766 303.9308 164.3096C 302.6078 167.6176 292.0208 171.4226 285.8998 172.9116C 279.7788 174.4006 270.8458 174.8966 268.6958 169.4376z" stroke="#212325" stroke-width="1.5" stroke-linecap="round" fill="none" />
		</g>
	</g>
</g>
</svg>