<?xml version="1.0" standalone="no"?>
<!DOCTYPE svg PUBLIC "-//W3C//DTD SVG 1.0//EN" "http://www.w3.org/TR/2001/REC-SVG-20010904/DTD/svg10.dtd">
<svg xmlns="http://www.w3.org/2000/svg" xmlns:xlink="http://www.w3.org/1999/xlink" id="body_1" width="439" height="479">

<defs>
    <clipPath  id="1">

    <path id=""  clip-rule="evenodd" transform="matrix(1 0 0 1 0 0)"  d="M0 359L0 -0.75L0 -0.75L329.728 -0.75L329.728 -0.75L329.728 359L329.728 359L0 359z" />    </clipPath>
    <clipPath  id="2">

    <path id=""  clip-rule="evenodd" transform="matrix(1 0 0 1 0 0)"  d="M0 -0.75L329.728 -0.75L329.728 -0.75L329.728 359L329.728 359L0 359z" />    </clipPath>
</defs>

<g transform="matrix(1.3333 0 0 1.3333 0 0)">
	<g clip-path="url(#1)" >
		<g clip-path="url(#2)" >
    <path id=""  transform="matrix(1 0 0 -1 0 359)"  d="M114.1136 199.5C 109.6136 212 110.2806 212.833 111.6136 215.667C 112.9466 218.5 116.9466 221.5 118.9466 224.5C 120.9466 227.5 121.1136 233.5 118.7806 241.667C 116.4466 249.833 114.2806 260.333 112.2806 261C 107.2806 258.833 103.7806 259.833 100.4466 265.167C 97.1136 270.5 96.4466 275.833 96.7806 278.833C 97.1136 281.833 99.2806 282.333 99.2806 282.333C 99.2806 282.333 91.9466 304.333 90.9466 309.833C 89.9466 315.333 92.7806 319 92.7806 319C 92.7806 319 89.1136 318 86.7806 318.167C 91.1136 324.5 91.7806 329.167 93.2806 332.333C 94.7806 335.5 99.4466 343.5 107.6136 345.167C 104.9466 347.333 105.2806 349.5 105.2806 349.5C 105.2806 349.5 121.9466 354 126.1136 355.167C 130.2806 356.333 134.4466 356.667 141.4466 354.5C 140.9466 357.667 141.9466 359.167 141.9466 359.167C 141.9466 359.167 145.9466 355.667 151.6136 354.167C 157.2806 352.667 160.1136 351 161.4466 349.667C 162.7806 348.333 166.2806 348.833 169.1136 344.833C 171.9466 340.833 177.7806 331.167 178.1136 327.667C 178.4466 324.167 178.6136 317.667 172.6136 314.5C 174.9466 305.333 177.6136 292.5 178.1136 276.833C 178.6136 261.167 176.2806 248.833 171.1136 241.667C 173.4466 232.167 176.9466 222.667 185.4466 218.333C 185.4466 208.167 179.9466 196 179.9466 196z" stroke="none" fill="#FFFFFF" fill-rule="nonzero" />
    <path id=""  transform="matrix(1 0 0 -1 0 359)"  d="M99.7806 0C 88.1136 1 83.8636 1.75 82.3636 15.5C 80.8636 29.25 86.6136 54.75 86.6136 54.75C 86.6136 54.75 59.3636 37.5 42.8636 33C 26.3636 28.5 15.6136 29 6.863602 35.5C -1.886398 42 0.6136017 61 3.113602 69.75C 5.613602 78.5 20.8636 127.5 29.8636 148C 38.8636 168.5 51.3636 195.5 58.1136 199.75C 64.8636 204 90.3636 211.5 95.3636 213.25C 100.3636 215 113.9466 220.667 113.9466 220.667C 113.9466 220.667 119.6966 210.083 129.2806 206.167C 138.8636 202.25 147.3636 199.667 159.6136 202.667C 171.8636 205.667 176.3636 209.667 178.7806 214.583C 181.1966 219.5 181.2806 220.667 181.2806 220.667C 181.2806 220.667 181.1136 222.083 186.8636 220.667C 192.6136 219.25 221.9466 209.167 225.6136 207.333C 229.2806 205.5 239.2806 202.833 240.9466 202C 242.6136 201.167 258.7806 188.833 266.2806 176.667C 273.7806 164.5 278.7806 151 287.4466 138.167C 296.1136 125.333 310.4466 107.5 314.1136 97.833C 317.7806 88.167 320.2806 80.667 314.2806 72.667C 308.2806 64.667 301.4466 61.667 286.9466 56.5C 272.4466 51.333 245.7806 42.833 245.2806 42.667C 244.7806 42.5 243.1136 42.667 243.6136 36.167C 244.1136 29.667 246.1136 7.333 232.1136 5.167C 218.1136 3 99.7806 0 99.7806 0" stroke="none" fill="#00CC89" fill-rule="nonzero" />
    <path id=""  transform="matrix(1 0 0 -1 0 359)"  d="M154.8636 65.75L163.3636 82.75L163.3636 82.75L168.6136 85C 168.6136 85 174.6136 83.667 177.2806 77C 179.9466 70.333 180.9886 66.75 184.3636 66C 187.7386 65.25 191.4886 57.625 193.1136 52.25C 194.7386 46.875 194.6136 32.75 185.8636 31.125C 177.1136 29.5 164.4886 34.25 159.3636 35.125C 154.2386 36 140.2386 39.375 135.3636 43.5C 130.4886 47.625 127.6136 53.125 127.4886 53.5C 127.3636 53.875 154.8636 65.75 154.8636 65.75" stroke="none" fill="#FFFEFE" fill-rule="nonzero" />
    <path id=""  transform="matrix(1 0 0 -1 0 359)"  d="M95.3636 213.25C 90.3636 211.5 64.8636 204 58.1136 199.75C 51.3636 195.5 38.8636 168.5 29.8636 148C 20.8636 127.5 5.613602 78.5 3.113602 69.75C 0.6136017 61 -1.886398 42 6.863602 35.5C 6.868599 35.496 6.873604 35.494 6.877602 35.49001C 6.583603 35.983 6.247604 36.48599 5.863602 37C -6.636398 53.75 19.8636 96.25 25.1136 111C 30.3636 125.75 47.1136 170 55.1136 183.5C 63.1136 197 68.1136 196.25 78.3636 200.5C 88.6136 204.75 113.9466 220.667 113.9466 220.667C 113.9466 220.667 100.3636 215 95.3636 213.25" stroke="none" fill="#FFFEFE" fill-rule="nonzero" />
    <path id=""  transform="matrix(1 0 0 -1 0 359)"  d="M93.8636 107.5C 93.1136 107.5 52.6136 95.5 23.6136 79.25C 42.6136 82 94.6136 102 94.6136 102z" stroke="none" fill="#FFFEFE" fill-rule="nonzero" />
    <path id=""  transform="matrix(1 0 0 -1 0 359)"  d="M204.1136 73.333C 204.1136 73.333 204.2936 73.391 204.6186 73.484C 206.3706 73.994 212.3596 75.589 217.2806 75.167C 223.1136 74.667 228.1136 78.833 230.9466 80.667C 233.7806 82.5 250.4466 91.667 260.7806 90.333C 254.7806 92.333 240.6136 90.167 240.6136 90.167C 240.6136 90.167 244.4466 99.167 262.1136 102.167C 251.7806 102.333 238.4466 101.333 234.6136 89.167C 227.9466 85.167 221.9466 82.167 217.9466 81.167C 213.9466 80.167 207.4466 76.5 204.1136 73.333" stroke="none" fill="#FFFEFE" fill-rule="nonzero" />
    <path id=""  transform="matrix(1 0 0 -1 0 359)"  d="M316.765 77.0371C 319.319 83.4931 317.108 89.9401 314.114 97.8331C 310.447 107.5001 296.114 125.3331 287.447 138.1671C 278.781 151.0001 273.781 164.5001 266.281 176.6671C 258.781 188.8331 242.614 201.1671 240.947 202.0001C 240.39 202.2781 238.893 202.7651 237.022 203.3531C 244.614 195.7701 252.284 187.3771 255.114 181.5001C 261.614 168.0001 268.114 143.0001 287.114 125.5001C 304.38 109.5971 317.514 89.5661 316.765 77.0371" stroke="none" fill="#FFFEFE" fill-rule="nonzero" />
    <path id=""  transform="matrix(1 0 0 -1 0 359)"  d="M172.0384 127.4092L107.4724 141.7692C 103.0294 142.7582 98.6264 139.9572 97.6384 135.5132L97.6384 135.5132L76.89941 42.2692C 75.91141 37.8272 78.71241 33.4242 83.1544 32.4352L83.1544 32.4352L147.7214 18.0752C 152.1644 17.0872 156.5674 19.8882 157.5564 24.3312L157.5564 24.3312L178.2944 117.5752C 179.2824 122.0182 176.4814 126.4212 172.0384 127.4092" stroke="none" fill="#FFFEFE" fill-rule="nonzero" />
    <path id=""  transform="matrix(1 0 0 -1 0 359)"  d="M117.3636 297.25C 117.3636 297.25 122.1136 299.75 126.3636 298.75C 130.6136 297.75 138.6136 297 139.8636 299.5" stroke="#222426" stroke-width="1.5" stroke-linecap="round" fill="none" />
    <path id=""  transform="matrix(1 0 0 -1 0 359)"  d="M151.8636 300.5C 151.8636 300.5 160.8636 306.5 163.3636 306.75C 165.8636 307 168.8636 306.25 168.8636 306.25" stroke="#222426" stroke-width="1.5" stroke-linecap="round" fill="none" />
    <path id=""  transform="matrix(1 0 0 -1 0 359)"  d="M149.4466 292.667C 149.4466 292.667 146.7806 290.667 149.6136 286.667C 152.4466 282.667 157.1136 277.167 157.2806 276C 157.4466 274.833 152.4466 270.5 151.2806 270.167" stroke="#222426" stroke-width="1.5" stroke-linecap="round" fill="none" />
    <path id=""  transform="matrix(1 0 0 -1 0 359)"  d="M146.9466 254.167C 146.9466 254.167 159.6136 255.333 165.1136 264.667" stroke="#222426" stroke-width="1.5" stroke-linecap="round" fill="none" />
    <path id=""  transform="matrix(1 0 0 -1 0 359)"  d="M134.8734 287.75C 135.6424 285.382 134.8404 282.999 133.0824 282.429C 131.3244 281.857 129.2754 283.314 128.5074 285.683C 127.7374 288.05 128.5394 290.433 130.2974 291.004C 132.0564 291.574 134.1034 290.118 134.8734 287.75" stroke="none" fill="#222426" fill-rule="nonzero" />
    <path id=""  transform="matrix(1 0 0 -1 0 359)"  d="M165.2816 294.4873C 166.0516 292.1193 165.2496 289.7363 163.4906 289.1663C 161.7326 288.5943 159.6846 290.0513 158.9156 292.4203C 158.1466 294.7883 158.9486 297.1703 160.7066 297.7413C 162.4646 298.3113 164.5126 296.8553 165.2816 294.4873" stroke="none" fill="#222426" fill-rule="nonzero" />
    <path id=""  transform="matrix(1 0 0 -1 0 359)"  d="M170.7806 321.5C 170.7806 321.5 173.2806 313.5 175.4466 302.5C 177.1966 293.615 179.8166 274.62 177.5976 259.915C 177.0706 256.413 173.9886 236.375 158.4886 231.875C 148.3216 229.542 134.2806 234.5 122.7806 247.5" stroke="#222426" stroke-width="1.5" stroke-linecap="round" fill="none" />
    <path id=""  transform="matrix(1 0 0 -1 0 359)"  d="M114.6136 256.833C 114.6136 256.833 121.6136 234.5 120.6136 229.167C 119.6136 223.833 116.9466 222.333 116.9466 222.333" stroke="#222426" stroke-width="1.5" stroke-linecap="round" fill="none" />
    <path id=""  transform="matrix(1 0 0 -1 0 359)"  d="M113.1136 261C 113.1136 261 106.2806 256.667 101.2806 265.167C 96.2806 273.667 95.2806 281.167 99.6136 282C 103.9466 282.833 105.4466 281.167 105.4466 281.167" stroke="#222426" stroke-width="1.5" stroke-linecap="round" fill="none" />
    <path id=""  transform="matrix(1 0 0 -1 0 359)"  d="M106.7806 267.333C 106.7806 267.333 103.6136 270.167 106.2806 274C 106.2806 274 102.4466 277.833 100.2806 277.167" stroke="#222426" stroke-width="1.5" stroke-linecap="round" fill="none" />
    <path id=""  transform="matrix(1 0 0 -1 0 359)"  d="M106.2806 285.5C 106.2806 285.5 111.2806 292.833 109.1136 299.5C 106.9466 306.167 107.7806 311.333 107.7806 311.333" stroke="#222426" stroke-width="1.5" stroke-linecap="round" fill="none" />
    <path id=""  transform="matrix(1 0 0 -1 0 359)"  d="M141.2806 325.833C 141.2806 325.833 136.2806 332 127.7806 326C 119.2806 320 111.2806 312.167 100.9466 317.333" stroke="#222426" stroke-width="1.5" stroke-linecap="round" fill="none" />
    <path id=""  transform="matrix(1 0 0 -1 0 359)"  d="M93.2806 320C 92.7806 319.833 89.2806 313.333 92.1136 304.833C 94.9466 296.333 98.6136 284.5 98.9466 282.167" stroke="#222426" stroke-width="1.5" stroke-linecap="round" fill="none" />
    <path id=""  transform="matrix(1 0 0 -1 0 359)"  d="M87.1136 318.5C 87.1136 318.5 89.9466 320.333 91.7806 327.667C 93.6136 335 99.4466 342.667 107.6136 345.167" stroke="#222426" stroke-width="1.5" stroke-linecap="round" fill="none" />
    <path id=""  transform="matrix(1 0 0 -1 0 359)"  d="M105.4466 349.167C 105.4466 349.167 126.7806 356.667 132.7806 356C 138.7806 355.333 141.6136 354.167 141.6136 354.167" stroke="#222426" stroke-width="1.5" stroke-linecap="round" fill="none" />
    <path id=""  transform="matrix(1 0 0 -1 0 359)"  d="M142.1136 359C 142.9466 358.5 149.6136 354.333 155.1136 353C 160.6136 351.667 162.9466 349.333 162.7806 344.5" stroke="#222426" stroke-width="1.5" stroke-linecap="round" fill="none" />
    <path id=""  transform="matrix(1 0 0 -1 0 359)"  d="M168.2806 346C 168.2806 346 172.6136 338.333 175.4466 334.333C 178.2806 330.333 179.6136 321 176.2806 317.5" stroke="#222426" stroke-width="1.5" stroke-linecap="round" fill="none" />
    <path id=""  transform="matrix(1 0 0 -1 0 359)"  d="M173.7806 326.167C 173.7806 326.167 169.4466 323.833 164.7806 328.167C 160.1136 332.5 156.4466 326.667 156.2806 326" stroke="#222426" stroke-width="1.5" stroke-linecap="round" fill="none" />
    <path id=""  transform="matrix(1 0 0 -1 0 359)"  d="M155.4466 336.333C 155.4466 336.333 149.9466 329.667 150.4466 325.5" stroke="#222426" stroke-width="1.5" stroke-linecap="round" fill="none" />
    <path id=""  transform="matrix(1 0 0 -1 0 359)"  d="M129.4466 340C 130.2806 340 142.4466 341.667 145.6136 325.833" stroke="#222426" stroke-width="1.5" stroke-linecap="round" fill="none" />
    <path id=""  transform="matrix(1 0 0 -1 0 359)"  d="M171.6136 241.833C 173.2806 226.667 181.2806 220.667 181.2806 220.667C 181.2806 220.667 177.6136 201.667 149.9466 201.333C 122.2806 201 114.2806 220.833 114.2806 220.833C 114.2806 220.833 80.2806 207.333 72.6136 205.167C 64.9466 203 57.6136 201.667 50.7806 190.833C 43.9466 180 25.3636 140.25 21.3636 127C 17.3636 113.75 -2.136398 65.25 1.113602 49.25C 4.363602 33.25 11.1136 29.25 30.3636 30.5C 49.6136 31.75 76.8636 49.75 76.8636 49.75" stroke="#222426" stroke-width="1.5" stroke-linecap="round" fill="none" />
    <path id=""  transform="matrix(1 0 0 -1 0 359)"  d="M23.3636 79.25C 24.1136 79.25 61.3636 99.25 82.8636 104.25" stroke="#222426" stroke-width="1.5" stroke-linecap="round" fill="none" />
    <path id=""  transform="matrix(1 0 0 -1 0 359)"  d="M36.3636 96.5C 37.1136 96.5 52.3636 103.5 66.6136 99.75" stroke="#222426" stroke-width="1.5" stroke-linecap="round" fill="none" />
    <path id=""  transform="matrix(1 0 0 -1 0 359)"  d="M71.1136 150.75C 71.1136 150.75 74.3636 125.25 72.3636 101.25" stroke="#222426" stroke-width="1.5" stroke-linecap="round" fill="none" />
    <path id=""  transform="matrix(1 0 0 -1 0 359)"  d="M171.3636 71.75C 171.3636 71.75 168.8636 67 159.6136 70C 150.3636 73 137.3636 81.5 134.8636 82C 132.3636 82.5 128.6136 81.25 130.1136 78.75C 131.6136 76.25 146.3636 62 148.3636 61.25" stroke="#222426" stroke-width="1.5" stroke-linecap="round" fill="none" />
    <path id=""  transform="matrix(1 0 0 -1 0 359)"  d="M138.6136 65.5C 138.6136 65.5 128.6136 69.25 125.1136 70C 121.6136 70.75 121.3636 65.5 123.3636 63.25C 125.3636 61 124.1136 56.25 126.3636 54.5C 128.6136 52.75 136.6136 48.75 143.6136 45.75" stroke="#222426" stroke-width="1.5" stroke-linecap="round" fill="none" />
    <path id=""  transform="matrix(1 0 0 -1 0 359)"  d="M132.1136 47C 132.1136 47 136.3636 41.25 146.3636 38.5C 156.3636 35.75 176.1136 30.75 179.6136 30.75C 183.1136 30.75 186.1136 31.25 186.1136 31.25" stroke="#222426" stroke-width="1.5" stroke-linecap="round" fill="none" />
    <path id=""  transform="matrix(1 0 0 -1 0 359)"  d="M173.1136 82.75C 173.1136 82.75 176.6136 80.75 178.6136 73.25C 180.6136 65.75 184.6136 66 184.6136 66" stroke="#222426" stroke-width="1.5" stroke-linecap="round" fill="none" />
    <path id=""  transform="matrix(1 0 0 -1 0 359)"  d="M187.3636 68.5C 187.3636 68.5 199.8636 72.5 203.3636 72.5C 208.8636 77.25 213.1136 80.25 219.3636 81.5C 225.6136 82.75 231.8636 89 237.6136 89.75C 243.3636 90.5 257.3636 92.75 260.8636 90.5" stroke="#222426" stroke-width="1.5" stroke-linecap="round" fill="none" />
    <path id=""  transform="matrix(1 0 0 -1 0 359)"  d="M262.3636 102.25C 262.3636 102.25 239.3636 105.25 234.6136 89" stroke="#222426" stroke-width="1.5" stroke-linecap="round" fill="none" />
    <path id=""  transform="matrix(1 0 0 -1 0 359)"  d="M231.3636 121.25C 231.3636 120 236.1136 102.75 236.6136 94" stroke="#222426" stroke-width="1.5" stroke-linecap="round" fill="none" />
    <path id=""  transform="matrix(1 0 0 -1 0 359)"  d="M188.1136 30C 188.1136 30 204.3636 31.25 211.8636 34.25C 223.1136 34.5 228.1136 35.25 241.3636 41C 254.6136 46.75 283.8636 55.25 291.3636 58.25C 298.8636 61.25 317.6136 66.75 317.8636 83C 318.1136 99.25 299.1136 120.75 286.8636 138.5C 274.6136 156.25 272.1136 173.25 256.1136 189C 240.1136 204.75 241.6136 200.75 228.6136 205.75C 215.6136 210.75 193.1136 219.75 184.3636 221.25" stroke="#222426" stroke-width="1.5" stroke-linecap="round" fill="none" />
    <path id=""  transform="matrix(1 0 0 -1 0 359)"  d="M237.8636 199C 237.8636 199 232.6136 196.5 229.6136 183" stroke="#222426" stroke-width="1.5" stroke-linecap="round" fill="none" />
    <path id=""  transform="matrix(1 0 0 -1 0 359)"  d="M228.6136 127.25C 228.6136 127.25 224.1136 136.25 223.8636 154.75" stroke="#222426" stroke-width="1.5" stroke-linecap="round" fill="none" />
    <path id=""  transform="matrix(1 0 0 -1 0 359)"  d="M224.8636 166L226.1136 172.75" stroke="#222426" stroke-width="1.5" stroke-linecap="round" fill="none" />
    <path id=""  transform="matrix(1 0 0 -1 0 359)"  d="M57.8636 194.75C 57.8636 194.75 62.3636 189.5 66.6136 175" stroke="#222426" stroke-width="1.5" stroke-linecap="round" fill="none" />
    <path id=""  transform="matrix(1 0 0 -1 0 359)"  d="M158.1136 141.75C 158.1136 141.75 156.3636 153.75 158.6136 154.75C 160.8636 155.75 203.1136 157 205.6136 156.25C 208.1136 155.5 210.6136 119 209.3636 114C 208.1136 109 189.1136 99.75 188.1136 99.5C 187.1136 99.25 179.3636 101.75 179.3636 101.75" stroke="#222426" stroke-width="1.5" stroke-linecap="round" fill="none" />
    <path id=""  transform="matrix(1 0 0 -1 0 359)"  d="M186.9466 64.333C 187.4466 64 200.2806 46.333 190.2806 33.5" stroke="#222426" stroke-width="1.5" stroke-linecap="round" fill="none" />
    <path id=""  transform="matrix(1 0 0 -1 0 359)"  d="M207.7806 70.667C 207.7806 70.167 226.4466 54.5 212.4466 34.333" stroke="#222426" stroke-width="1.5" stroke-linecap="round" fill="none" />
    <path id=""  transform="matrix(1 0 0 -1 0 359)"  d="M194.3636 47.25L209.1136 51" stroke="#222426" stroke-width="1.5" stroke-linecap="round" fill="none" />
    <path id=""  transform="matrix(1 0 0 -1 0 359)"  d="M192.1136 57L209.3636 62.5" stroke="#222426" stroke-width="1.5" stroke-linecap="round" fill="none" />
    <path id=""  transform="matrix(1 0 0 -1 0 359)"  d="M188.1136 62.5C 188.8636 62.5 199.6136 66 199.6136 66" stroke="#222426" stroke-width="1.5" stroke-linecap="round" fill="none" />
    <path id=""  transform="matrix(1 0 0 -1 0 359)"  d="M231.9466 5.333C 231.9466 5.333 246.6136 0.3330002 243.2806 42" stroke="#222426" stroke-width="1.5" stroke-linecap="round" fill="none" />
    <path id=""  transform="matrix(1 0 0 -1 0 359)"  d="M85.2806 5C 85.2806 6 80.6136 8 82.6136 29.667" stroke="#222426" stroke-width="1.5" stroke-linecap="round" fill="none" />
    <path id=""  transform="matrix(1 0 0 -1 0 359)"  d="M140.6136 102C 140.6136 97.72 137.1436 94.25 132.8636 94.25C 128.5836 94.25 125.1136 97.72 125.1136 102C 125.1136 106.28 128.5836 109.75 132.8636 109.75C 137.1436 109.75 140.6136 106.28 140.6136 102" stroke="none" fill="#222426" fill-rule="nonzero" />
    <path id=""  transform="matrix(1 0 0 -1 0 359)"  d="M329.7278 278.25C 329.7278 247.184 304.5438 222 273.4778 222C 242.4128 222 217.2278 247.184 217.2278 278.25C 217.2278 309.316 242.4128 334.5 273.4778 334.5C 304.5438 334.5 329.7278 309.316 329.7278 278.25" stroke="none" fill="#1B66FF" fill-rule="nonzero" />
    <path id=""  transform="matrix(1 0 0 -1 0 359)"  d="M248.1028 259L237.2278 259C 235.9978 259 234.9988 259.998 234.9988 261.229L234.9988 261.229L234.9988 269.104C 234.9988 270.335 235.9978 271.333 237.2278 271.333L237.2278 271.333L248.1028 271.333C 249.3338 271.333 250.3318 270.335 250.3318 269.104L250.3318 269.104L250.3318 261.229C 250.3318 259.998 249.3338 259 248.1028 259" stroke="none" fill="#FFFEFE" fill-rule="nonzero" />
    <path id=""  transform="matrix(1 0 0 -1 0 359)"  d="M289.5648 259L277.9328 259C 276.9108 259 276.0828 259.828 276.0828 260.851L276.0828 260.851L276.0828 265.649C 276.0828 266.672 276.9108 267.5 277.9328 267.5L277.9328 267.5L289.5648 267.5C 290.5868 267.5 291.4158 266.672 291.4158 265.649L291.4158 265.649L291.4158 260.851C 291.4158 259.828 290.5868 259 289.5648 259" stroke="none" fill="#FFFEFE" fill-rule="nonzero" />
    <path id=""  transform="matrix(1 0 0 -1 0 359)"  d="M267.2484 259L259.1664 259C 257.1644 259 255.5404 260.623 255.5404 262.626L255.5404 262.626L255.5404 287.999C 255.5404 290.002 257.1644 291.625 259.1664 291.625L259.1664 291.625L267.2484 291.625C 269.2504 291.625 270.8744 290.002 270.8744 287.999L270.8744 287.999L270.8744 262.626C 270.8744 260.623 269.2504 259 267.2484 259" stroke="none" fill="#FFFEFE" fill-rule="nonzero" />
    <path id=""  transform="matrix(1 0 0 -1 0 359)"  d="M307.8929 259L300.6889 259C 298.4439 259 296.6239 260.819 296.6239 263.064L296.6239 263.064L296.6239 295.936C 296.6239 298.181 298.4439 300 300.6889 300L300.6889 300L307.8929 300C 310.1379 300 311.9569 298.181 311.9569 295.936L311.9569 295.936L311.9569 263.064C 311.9569 260.819 310.1379 259 307.8929 259" stroke="none" fill="#FFFEFE" fill-rule="nonzero" />
    <path id=""  transform="matrix(1 0 0 -1 0 359)"  d="M224.2806 330.5C 224.2806 321.939 217.3416 315 208.7806 315C 200.2196 315 193.2806 321.939 193.2806 330.5C 193.2806 339.061 200.2196 346 208.7806 346C 217.3416 346 224.2806 339.061 224.2806 330.5" stroke="none" fill="#1B66FE" fill-rule="nonzero" />
		</g>
	</g>
</g>
</svg>