<?xml version="1.0" standalone="no"?>
<!DOCTYPE svg PUBLIC "-//W3C//DTD SVG 1.0//EN" "http://www.w3.org/TR/2001/REC-SVG-20010904/DTD/svg10.dtd">
<svg xmlns="http://www.w3.org/2000/svg" xmlns:xlink="http://www.w3.org/1999/xlink" id="body_1" width="455" height="447">

<defs>
    <clipPath  id="1">

    <path id=""  clip-rule="evenodd" transform="matrix(1 0 0 1 0 0)"  d="M0 335L0 -0.677002L0 -0.677002L341.605 -0.677002L341.605 -0.677002L341.605 335L341.605 335L0 335z" />    </clipPath>
    <clipPath  id="2">

    <path id=""  clip-rule="evenodd" transform="matrix(1 0 0 1 0 0)"  d="M0 -0.677002L341.605 -0.677002L341.605 -0.677002L341.605 335L341.605 335L0 335z" />    </clipPath>
</defs>

<g transform="matrix(1.3333 0 0 1.3333 0 0)">
	<g clip-path="url(#1)" >
		<g clip-path="url(#2)" >
    <path id=""  transform="matrix(1 0 0 -1 0 335)"  d="M276 206.167C 279.875 202.667 286.25 195.792 290.875 188.542C 295.5 181.292 302.625 169.917 306.875 164.542C 311.125 159.167 323.125 144.292 326.5 140.542C 329.875 136.792 341.25 121.167 341 119.792C 340.75 118.417 332.625 105.292 324.25 97.16701C 324.833 95.50001 323.875 94.54201 323.875 94.54201C 323.875 94.54201 308.25 75.41701 307.375 75.16701C 306.5 74.91701 305.125 74.66701 305.125 74.66701L305.125 74.66701L287.25 50.04201C 287.25 50.04201 290.875 48.91701 293.5 44.16701C 294.875 42.04201 295 48.41701 298.125 51.29201C 300.375 53.29201 302 51.66701 302 49.66701C 302 47.66701 302.125 43.04201 302.125 43.04201C 302.125 43.04201 304 45.41701 306.25 44.04201C 306.125 41.79201 306.125 31.04201 305.625 30.29201C 305.125 29.54201 303 26.91701 302 25.91701C 301 24.91701 294 16.79201 291.875 17.04201C 289.75 17.29201 272.25 35.04201 268.75 38.41701C 265.25 41.79201 261 46.66701 261.375 49.41701L261.375 49.41701L269 65.54201L269 65.54201L283.75 94.29201C 283.75 94.29201 284 97.91701 285 99.16701C 286 100.417 295 114.542 295 114.542L295 114.542L297.75 116.167C 297.75 116.167 295 120.167 292.625 122.042C 290.25 123.917 268.875 147.042 268.5 146.917C 268.125 146.792 267.375 144.042 267.375 144.042L267.375 144.042L265.625 137.667L265.625 137.667L259.75 135.667L259.75 135.667L253 142.792C 253 142.792 246.125 182.542 247 186.917C 247.875 191.292 249.5 196.667 249.5 196.667L249.5 196.667L259 205.792L259 205.792L263.875 208.542C 263.875 208.542 267.375 211.917 276 206.167" stroke="none" fill="#FFFFFF" fill-rule="nonzero" />
    <path id=""  transform="matrix(1 0 0 -1 0 335)"  d="M256.167 130.167L260.167 131.333L260.167 131.333L264.333 133C 264.333 133 254.167 94.33301 254 93.33301C 254 93.33301 254.25 90.04201 256 83.16701C 257.75 76.29201 263.5 55.91701 263.5 55.91701L263.5 55.91701L261.625 50.16701C 261.625 50.16701 262.125 48.41701 261.125 48.66701C 260.125 48.91701 253.75 56.41701 253.75 56.41701C 253.75 56.41701 227.75 44.91701 227.75 44.54201C 227.75 44.16701 218.25 14.16701 218.25 14.16701C 218.25 14.16701 199.625 9.167007 179 17.41701C 158.375 25.66701 153.75 32.79201 153.75 32.79201C 153.75 32.79201 165.75 58.91701 168.375 67.91701C 171 76.91701 172.125 83.04201 168.875 92.54201C 165.625 102.042 164.75 104.042 165.125 104.167C 165.5 104.292 171.5 104.542 171.5 104.542z" stroke="none" fill="#FFFFFF" fill-rule="nonzero" />
    <path id=""  transform="matrix(1 0 0 -1 0 335)"  d="M264.625 312.1665C 264.625 312.1665 275 304.7915 273.5 297.1665C 272.125 291.4165 264.375 285.6665 264.375 285.6665C 264.375 285.6665 260.375 284.5415 260.5 285.9165C 260.625 287.2915 264.625 312.1665 264.625 312.1665" stroke="none" fill="#1B66FF" fill-rule="nonzero" />
    <path id=""  transform="matrix(1 0 0 -1 0 335)"  d="M188.25 315.1665L181.5 306.5415C 181.5 306.5415 177.875 290.6665 178.25 275.1665C 178.625 259.6665 181.375 249.9165 182.875 248.2915C 184.375 246.6665 188.25 244.6665 198.5 245.2915C 202.5 244.9165 203.875 234.9165 199.625 228.9165C 195.375 222.9165 199.75 215.1665 200.375 213.9165C 201 212.6665 205.375 208.2915 210.125 208.4165C 214.875 208.5415 223.25 212.7915 230.5 217.9165C 237.75 223.0415 239.75 225.4165 239.75 225.4165L239.75 225.4165L236.25 236.2915L236.25 236.2915L239.25 262.4165C 239.25 262.4165 246.375 269.1665 247.125 270.1665C 247.875 271.1665 256.5 289.2915 255.125 289.7915C 253.75 290.2915 246.75 291.1665 246.75 291.1665L246.75 291.1665L238.625 292.1665L238.625 292.1665L207.25 313.9165z" stroke="none" fill="#FFFEFE" fill-rule="nonzero" />
    <path id=""  transform="matrix(1 0 0 -1 0 335)"  d="M166.5 101.333C 173.5 96 177.833 83 174.167 69.333C 170.5 55.667 161.5 40 165.5 34.333C 169.5 28.667 182.833 13.333 215.5 14C 234.167 17.667 245.333 21.333 255.5 28.167C 253.833 37.333 250.833 54.5 250.833 54.5L250.833 54.5L262.5 32.333L262.5 32.333L269.333 37.833C 269.333 37.833 262.583 44.167 261.5 47.833C 261.25 52.167 250.5 79.333 248.833 91C 247.167 102.667 264.167 131.333 264.167 131.333L264.167 131.333L266.25 139.542C 266.25 139.542 263.125 136.167 260 138.417C 256.875 140.667 251.5 156.542 252.25 171.667C 253 186.792 256.25 198.417 262.25 204.167C 268.25 209.917 271.625 208.792 271.625 208.792C 271.625 208.792 264.375 210.792 260.75 211.917C 257.125 213.042 248.25 216.667 247.25 217.667C 246.25 218.667 238.5 223.667 238.5 223.667C 238.5 223.667 220.75 209.417 210.125 208.417C 205.625 208.917 205.125 209.792 205.125 209.792L205.125 209.792L189.333 218.333C 189.333 218.333 171.5 206.792 167.5 195.042C 163.341 182.824 155.75 154.75 155.75 154.75C 155.75 154.75 160.667 109 166.5 101.333" stroke="none" fill="#00CC89" fill-rule="nonzero" />
    <path id=""  transform="matrix(1 0 0 -1 0 335)"  d="M122.875 109.792C 123.5 115.667 127.875 131.542 131.125 140.292C 134.375 149.042 143.125 169.667 147.875 179.542C 152.625 189.417 155.75 196.667 157.875 199.292C 160 201.917 163.208 207.375 166.167 207.833C 164 202.917 162.875 197.917 162 191.292C 161.125 184.667 155.625 153.417 155.625 153.417L155.625 153.417L157.625 154.167C 157.625 154.167 169.917 172.417 172.833 177.75C 175.75 183.083 184.417 199.25 185.25 200.417C 186.083 201.583 186.167 203.5 185.75 204.417C 185.333 205.333 184.75 207.75 186.75 210.833C 188.75 213.917 190.75 214.333 190.75 214.333C 190.75 214.333 188.417 221.167 183.5 228.167C 178.583 235.167 174.75 238.833 171.583 245.167C 168.417 251.5 166.583 256.583 164.417 259.333C 162.25 262.083 163.333 263.833 164.25 263.583C 165.167 263.333 168.083 262.333 170.583 258.417C 173.083 254.5 174.75 253.083 174.75 253.083C 174.75 253.083 176.417 259.5 179.667 260.917C 180.25 256.75 181.083 252.417 181.75 250.5C 182.417 248.583 185.083 246.583 187 245.917C 188.917 245.25 195.583 237.917 199.75 233.083C 203.917 228.25 207.833 223.667 207.667 221.5C 207.5 219.333 205.75 210 202.833 205.5C 202.833 203.917 202.083 202.75 202.083 202.75L202.083 202.75L200.167 197.083C 200.167 197.083 195.833 177.75 194.167 171.833C 192.5 165.917 185.917 145.75 184.583 142.167C 183.25 138.583 182.167 136 182.167 136C 182.167 136 184.833 135.083 182.917 131C 181 126.917 178 122.5 177 120.25C 176 118 171.25 109.5 170.333 109.167C 169.417 108.833 167.083 108.583 167.083 108.583C 167.083 108.583 161.75 102 160.25 100.5C 158.75 99 148.083 86 138.417 85.667C 132.833 86 127.917 87.417 126.333 89.667C 124.75 91.917 121.333 101.333 122.875 109.792" stroke="none" fill="#FFFEFE" fill-rule="nonzero" />
    <path id=""  transform="matrix(1 0 0 -1 0 335)"  d="M197.0625 209.417L193.0625 211.417C 193.0625 211.417 192.9985 211.898 192.8345 212.453C 191.6725 212.237 187.7185 211.02 185.5725 204.39C 186.1465 203.75 187.1965 203.509 188.7495 203.542C 197.3745 202.73 200.0625 197.479 200.0625 197.479C 200.0625 197.479 201.6875 200.542 203.1245 204.292C 203.3125 206.667 197.0625 209.417 197.0625 209.417" stroke="none" fill="#1B66FE" fill-rule="nonzero" />
    <path id=""  transform="matrix(1 0 0 -1 0 335)"  d="M273.5002 297.1668C 269.4982 289.5528 265.0392 288.5708 263.2762 288.5058C 264.5262 291.7668 265.4972 295.2628 266.0002 298.9998C 268.3332 316.3338 259.8332 330.8338 241.0002 332.9998C 216.0002 339.0938 204.6232 333.9078 195.8832 326.2328C 199.1412 326.5358 201.6532 326.0978 201.8012 326.0708C 202.2082 325.9968 202.4782 325.6068 202.4042 325.1998C 202.3312 324.7928 201.9442 324.5218 201.5332 324.5948C 201.4912 324.6028 197.2622 325.5678 192.9082 324.2128C 176.8302 319.2118 176.2852 309.0098 180.8332 302.9998C 190.5002 313.9998 201.8332 311.4998 202.3332 311.1668C 202.3332 311.1668 209.8332 290.9998 229.8332 282.9998C 228.0002 277.6668 230.3332 275.1668 230.3332 275.1668C 230.3332 275.1668 239.6672 289.1668 243.8332 289.6668C 248.0002 290.1668 250.1672 286.1668 248.1672 279.8328C 246.1672 273.4998 241.1672 267.4998 236.0002 267.4998C 236.3332 260.4998 234.5002 257.3328 238.1672 255.8328C 238.1672 255.8328 238.6672 259.1668 245.1672 264.1668C 248.7342 266.9108 253.9532 271.9268 258.3272 278.7488C 256.0212 265.0158 246.3712 246.4428 236.3752 237.0418C 235.7502 234.6668 236.8752 225.1668 236.8752 225.1668C 236.8752 225.1668 241.7502 220.7918 247.6252 217.4168C 253.5002 214.0418 262.2502 211.9168 262.2502 211.9168C 293.0002 259.4168 273.5002 297.1668 273.5002 297.1668M184.8682 292.7588C 183.4312 292.9518 182.0462 291.4728 181.7732 289.4548C 181.5012 287.4368 182.4452 285.6438 183.8822 285.4498C 185.3182 285.2558 186.7042 286.7348 186.9762 288.7538C 187.2492 290.7718 186.3052 292.5648 184.8682 292.7588M202.6182 288.5088C 201.1812 288.7018 199.7962 287.2228 199.5232 285.2048C 199.2512 283.1868 200.1952 281.3938 201.6322 281.1998C 203.0682 281.0058 204.4542 282.4858 204.7262 284.5028C 204.9992 286.5218 204.0552 288.3148 202.6182 288.5088" stroke="none" fill="#222426" fill-rule="nonzero" />
    <path id=""  transform="matrix(1 0 0 -1 0 335)"  d="M209.833 320.5C 209.833 320.5 216.667 326 224.167 318.167C 231.667 310.333 231.833 299.5 246 295" stroke="#FFFEFE" stroke-width="1.5" stroke-linecap="round" fill="none" />
    <path id=""  transform="matrix(1 0 0 -1 0 335)"  d="M222.4053 330C 222.4053 330 248.8333 331.667 256.6673 314.833" stroke="#FFFEFE" stroke-width="1.5" stroke-linecap="round" fill="none" />
    <path id=""  transform="matrix(1 0 0 -1 0 335)"  d="M259.667 306.8335C 259.667 306.8335 261.5 302.3335 259.667 296.8335" stroke="#FFFEFE" stroke-width="1.5" stroke-linecap="round" fill="none" />
    <path id=""  transform="matrix(1 0 0 -1 0 335)"  d="M269 287.9165C 269 287.9165 278.75 267.1665 267.25 238.6665" stroke="#FFFEFE" stroke-width="1.5" stroke-linecap="round" fill="none" />
    <path id=""  transform="matrix(1 0 0 -1 0 335)"  d="M255.6172 237.7959C 258.8112 243.8319 262.2622 251.9759 264.4702 261.8959" stroke="#FFFEFE" stroke-width="1.5" stroke-linecap="round" fill="none" />
    <path id=""  transform="matrix(1 0 0 -1 0 335)"  d="M247.75 225.667C 247.75 225.667 249.245 227.391 251.397 230.651" stroke="#FFFEFE" stroke-width="1.5" stroke-linecap="round" fill="none" />
    <path id=""  transform="matrix(1 0 0 -1 0 335)"  d="M264.25 314.0415C 265.019 314.1635 275 307.4165 275.875 303.5415C 276.75 299.6665 268.625 286.7915 262.5 289.0415" stroke="#212325" stroke-width="1.5" stroke-linecap="round" fill="none" />
    <path id=""  transform="matrix(1 0 0 -1 0 335)"  d="M233 265C 233 265 230.833 252 211.5 247.667C 192.167 243.333 186 246.167 183.5 247.667C 181 249.167 177.239 264.833 178.369 283C 179.167 297 181.667 306.833 181.667 306.833" stroke="#212325" stroke-width="1.5" stroke-linecap="round" fill="none" />
    <path id=""  transform="matrix(1 0 0 -1 0 335)"  d="M245.375 283.792C 244 285.042 241.125 282.917 238.875 279.667C 236.625 276.417 233.75 273.667 233.75 273.667" stroke="#212325" stroke-width="1.5" stroke-linecap="round" fill="none" />
    <path id=""  transform="matrix(1 0 0 -1 0 335)"  d="M238.75 272.792C 238.75 272.792 240.626 276.958 237.688 278.063" stroke="#212325" stroke-width="1.5" stroke-linecap="round" fill="none" />
    <path id=""  transform="matrix(1 0 0 -1 0 335)"  d="M189.5 297.7915C 189.5 298.1665 187.5 301.9995 184.875 301.8335C 182.25 301.6665 179.784 296.8335 179.784 296.8335" stroke="#212325" stroke-width="1.5" stroke-linecap="round" fill="none" />
    <path id=""  transform="matrix(1 0 0 -1 0 335)"  d="M196.375 289.9165C 196.375 289.9165 207.125 291.4165 209 289.9165C 210.875 288.4165 212.125 286.9165 212.125 286.9165" stroke="#212325" stroke-width="1.5" stroke-linecap="round" fill="none" />
    <path id=""  transform="matrix(1 0 0 -1 0 335)"  d="M189.5 285.542C 189.5 285.542 187 279.167 183.875 274.542C 182.5 271.792 188 270.417 188 270.417" stroke="#212325" stroke-width="1.5" stroke-linecap="round" fill="none" />
    <path id=""  transform="matrix(1 0 0 -1 0 335)"  d="M184.5654 259.7676C 183.9584 260.9866 186.3414 261.4996 188.8364 261.2846C 191.3304 261.0686 198.9944 259.3006 198.9944 259.3006" stroke="#212325" stroke-width="1.5" stroke-linecap="round" fill="none" />
    <path id=""  transform="matrix(1 0 0 -1 0 335)"  d="M238.75 258.667C 238.75 258.667 235 235.667 237.25 224.042C 246.5 217.542 256.25 212.917 260.875 211.917C 265.5 210.917 275 210.292 286.125 195.417C 297.25 180.542 306.167 163.833 313.333 156C 320.5 148.167 340.167 123.833 340.833 120.167C 341.5 116.5 326.5 99.70799 326.5 99.70799" stroke="#212325" stroke-width="1.5" stroke-linecap="round" fill="none" />
    <path id=""  transform="matrix(1 0 0 -1 0 335)"  d="M313.5 127C 313 127 307 126.833 299.833 118.5" stroke="#212325" stroke-width="1.5" stroke-linecap="round" fill="none" />
    <path id=""  transform="matrix(1 0 0 -1 0 335)"  d="M308.167 134.333C 308.167 134.333 297 130.042 297.167 119.375" stroke="#212325" stroke-width="1.5" stroke-linecap="round" fill="none" />
    <path id=""  transform="matrix(1 0 0 -1 0 335)"  d="M260.167 157.333C 260.5 156.5 277.167 135.042 293.667 121.375" stroke="#212325" stroke-width="1.5" stroke-linecap="round" fill="none" />
    <path id=""  transform="matrix(1 0 0 -1 0 335)"  d="M283.833 96.833C 284 98.333 294.5 113.5 295.667 115C 296.833 116.5 300.167 117 305.833 114.667C 317.333 110 325.167 96.833 324.833 95.5C 324.5 94.167 307.5 75.5 307.5 75.5L307.5 75.5L305.5 75.167C 305.5 75.167 286.333 50.167 283.333 44.167" stroke="#212325" stroke-width="1.5" stroke-linecap="round" fill="none" />
    <path id=""  transform="matrix(1 0 0 -1 0 335)"  d="M287.167 96.042C 287.167 96.042 301.333 87.708 306 78.708" stroke="#212325" stroke-width="1.5" stroke-linecap="round" fill="none" />
    <path id=""  transform="matrix(1 0 0 -1 0 335)"  d="M302 46.333C 302 46.333 302.833 50.833 301 52C 298.729 53.445 295.667 48 295.167 45.833" stroke="#212325" stroke-width="1.5" stroke-linecap="round" fill="none" />
    <path id=""  transform="matrix(1 0 0 -1 0 335)"  d="M283.333 93.708C 283.333 93.708 264.167 56.5 262.5 52.833C 260.833 49.167 261.167 47.333 263.667 44C 266.167 40.667 289.167 17.5 291.833 17.167C 294.5 16.833 303.333 27.5 304.667 28.5C 306 29.5 306.5 41 306.5 43.5C 306.5 46 299.167 44.167 300.333 35.333L300.333 35.333L297.5 33C 297.5 33 296.333 44 289.167 48.667" stroke="#212325" stroke-width="1.5" stroke-linecap="round" fill="none" />
    <path id=""  transform="matrix(1 0 0 -1 0 335)"  d="M267.333 143.042C 267.333 143.042 254.5 97.16701 254 93.41701C 253.5 89.66701 263.5 55.16701 263.5 55.16701" stroke="#212325" stroke-width="1.5" stroke-linecap="round" fill="none" />
    <path id=""  transform="matrix(1 0 0 -1 0 335)"  d="M262 137.917C 258.5 137.417 250.5 152.167 253.25 179.917C 256 207.667 270.5 208.667 270.5 208.667" stroke="#212325" stroke-width="1.5" stroke-linecap="round" fill="none" />
    <path id=""  transform="matrix(1 0 0 -1 0 335)"  d="M269.25 37.667C 269.25 37.667 266.75 34.667 262.5 32.417C 258.25 42.167 250.5 55.167 250.5 55.167L250.5 55.167L255.5 28.167C 255.5 28.167 226.25 10.417 198.75 12.917C 171.25 15.417 153.75 32.417 153.75 32.417C 153.75 32.417 168.5 63.667 170.5 75.417C 172.5 87.167 164.5 104.917 164.5 104.917" stroke="#212325" stroke-width="1.5" stroke-linecap="round" fill="none" />
    <path id=""  transform="matrix(1 0 0 -1 0 335)"  d="M198.5 245.5C 198.5 245.5 203.667 244.333 201.667 233.833" stroke="#212325" stroke-width="1.5" stroke-linecap="round" fill="none" />
    <path id=""  transform="matrix(1 0 0 -1 0 335)"  d="M203.333 206C 206.833 212.667 208.167 221.333 207.333 223C 207.333 223 196.833 238.233 187.5 245.9" stroke="#212325" stroke-width="1.5" stroke-linecap="round" fill="none" />
    <path id=""  transform="matrix(1 0 0 -1 0 335)"  d="M189.833 217.5C 189.833 217.5 185.667 226.167 178.5 234.667C 171.333 243.167 167.5 255.333 165.167 258.667C 162.833 262 162 263.667 165.167 263.333C 168.333 263 172.5 255.5 172.5 255.5" stroke="#212325" stroke-width="1.5" stroke-linecap="round" fill="none" />
    <path id=""  transform="matrix(1 0 0 -1 0 335)"  d="M175.167 245.833C 175.167 245.833 172.5 254.667 179 260.5" stroke="#212325" stroke-width="1.5" stroke-linecap="round" fill="none" />
    <path id=""  transform="matrix(1 0 0 -1 0 335)"  d="M178.833 246.5C 178.833 246.5 177.667 251.333 180.667 254.5" stroke="#212325" stroke-width="1.5" stroke-linecap="round" fill="none" />
    <path id=""  transform="matrix(1 0 0 -1 0 335)"  d="M191.9258 207.3535C 190.4458 204.4405 188.0128 202.7055 186.4908 203.4785C 184.9698 204.2505 184.9358 207.2395 186.4158 210.1535C 187.8958 213.0665 190.3288 214.8005 191.8508 214.0285C 193.3718 213.2545 193.4048 210.2665 191.9258 207.3535z" stroke="#212325" stroke-width="1.5" stroke-linecap="round" fill="none" />
    <path id=""  transform="matrix(1 0 0 -1 0 335)"  d="M196.625 209.4795C 196.625 209.4795 201.5 208.2295 203.187 204.7925C 202.312 201.7925 200.063 197.3545 200.063 197.3545C 200.063 197.3545 197.812 201.7925 191.938 203.0425" stroke="#212325" stroke-width="1.5" stroke-linecap="round" fill="none" />
    <path id=""  transform="matrix(1 0 0 -1 0 335)"  d="M200.0625 197.3545C 200.0625 197.3545 191.9995 158.6665 181.2505 134.1665" stroke="#212325" stroke-width="1.5" stroke-linecap="round" fill="none" />
    <path id=""  transform="matrix(1 0 0 -1 0 335)"  d="M183.25 135.542C 183.25 135.542 184.875 134.292 182.625 130.542C 180.375 126.792 171.625 110.292 170.75 109.542C 169.875 108.792 164.75 108.292 156.5 113.417C 148.25 118.542 142.25 131.417 141.75 134.917C 141.25 138.417 154.625 155.667 157.5 153.917C 157.5 153.917 175.75 180.417 185.75 201.417" stroke="#212325" stroke-width="1.5" stroke-linecap="round" fill="none" />
    <path id=""  transform="matrix(1 0 0 -1 0 335)"  d="M178.167 134.208C 178.167 134.208 173.75 134.667 165.75 141.292C 157.75 147.917 158.833 150.042 158.833 150.042" stroke="#212325" stroke-width="1.5" stroke-linecap="round" fill="none" />
    <path id=""  transform="matrix(1 0 0 -1 0 335)"  d="M167.25 109.167C 167.25 109.167 150.75 85.167 137.75 85.917C 124.75 86.667 124.5 93.167 122.75 100.417C 121 107.667 126.75 129.417 135 149.667C 143.25 169.917 157 204.167 167.75 209.167C 178.5 214.167 189.25 218.417 189.25 218.417" stroke="#212325" stroke-width="1.5" stroke-linecap="round" fill="none" />
    <path id=""  transform="matrix(1 0 0 -1 0 335)"  d="M155.5 154.417C 155.5 154.417 159 173.167 160.75 184.167C 162.5 195.167 163 204.667 167.75 209.167" stroke="#212325" stroke-width="1.5" stroke-linecap="round" fill="none" />
    <path id=""  transform="matrix(1 0 0 -1 0 335)"  d="M133.25 120.667C 133.25 120.667 137.25 129.167 141.75 134.917" stroke="#212325" stroke-width="1.5" stroke-linecap="round" fill="none" />
    <path id=""  transform="matrix(1 0 0 -1 0 335)"  d="M132.25 127.417C 132.25 127.417 135 130.667 140 132.417" stroke="#212325" stroke-width="1.5" stroke-linecap="round" fill="none" />
    <path id=""  transform="matrix(1 0 0 -1 0 335)"  d="M238.25 223.167C 237.5 222.667 219.25 208.917 210 208.167C 205 208.667 205.25 210.917 205.25 210.917" stroke="#212325" stroke-width="1.5" stroke-linecap="round" fill="none" />
    <path id=""  transform="matrix(1 0 0 -1 0 335)"  d="M243.75 219.417C 243.75 219.417 222 198.417 207.5 197.917" stroke="#212325" stroke-width="1.5" stroke-linecap="round" fill="none" />
    <path id=""  transform="matrix(1 0 0 -1 0 335)"  d="M258.75 134.667C 253.75 136.667 245 146.667 247.75 177.417C 248.75 195.417 255.75 205.917 260.75 208.917" stroke="#212325" stroke-width="1.5" stroke-linecap="round" fill="none" />
    <path id=""  transform="matrix(1 0 0 -1 0 335)"  d="M228.167 131C 215.167 130 205.5 137 196.167 138.333" stroke="#212325" stroke-width="1.5" stroke-linecap="round" fill="none" />
    <path id=""  transform="matrix(1 0 0 -1 0 335)"  d="M163 310C 163 302.268 156.732 296 149 296C 141.268 296 135 302.268 135 310C 135 317.732 141.268 324 149 324C 156.732 324 163 317.732 163 310" stroke="none" fill="#1B66FE" fill-rule="nonzero" />
    <path id=""  transform="matrix(1 0 0 -1 0 335)"  d="M128 261C 128 241.118 111.882 225 92 225C 72.118 225 56 241.118 56 261C 56 280.882 72.118 297 92 297C 111.882 297 128 280.882 128 261" stroke="none" fill="#1B66FE" fill-rule="nonzero" />
    <path id=""  transform="matrix(1 0 0 -1 0 335)"  d="M103 152.5C 103 124.058 79.942 101 51.5 101C 23.058 101 0 124.058 0 152.5C 0 180.942 23.058 204 51.5 204C 79.942 204 103 180.942 103 152.5" stroke="none" fill="#1B66FE" fill-rule="nonzero" />
    <path id=""  transform="matrix(1 0 0 -1 0 335)"  d="M125 38.5C 125 17.237 107.763 0 86.5 0C 65.237 0 48 17.237 48 38.5C 48 59.763 65.237 77 86.5 77C 107.763 77 125 59.763 125 38.5" stroke="none" fill="#1B66FE" fill-rule="nonzero" />
    <path id=""  transform="matrix(1 0 0 -1 0 335)"  d="M74.4099 159.6525C 73.6379 154.4295 70.7429 151.9015 66.8989 151.0155C 72.1769 148.2675 74.8629 144.0545 72.3049 136.7495C 69.1299 127.6775 61.5869 126.9125 51.5569 128.8105L51.5569 128.8105L49.1229 119.0545L49.1229 119.0545L43.2399 120.5215L43.2399 120.5215L45.6439 130.1455C 44.1179 130.5245 42.5609 130.9255 40.9549 131.3625L40.9549 131.3625L38.5449 121.6925L38.5449 121.6925L32.6689 123.1585L32.6689 123.1585L35.1039 132.9315C 33.7299 133.2845 32.3339 133.6575 30.9099 134.0145L30.9099 134.0145L23.2559 135.9225L23.2559 135.9225L26.1759 142.6555C 26.1759 142.6555 30.5099 141.5025 30.4509 141.5875C 32.1159 141.1765 32.8559 142.2615 33.1469 142.9855L33.1469 142.9855L36.9929 158.4075C 37.2089 158.3555 37.4189 158.3015 37.6149 158.2535C 37.3799 158.3465 37.1679 158.4075 37.0029 158.4495L37.0029 158.4495L39.7479 169.4565C 39.8189 170.7075 39.3889 172.2845 37.0069 172.8785C 37.0989 172.9405 32.7339 173.9415 32.7339 173.9415L32.7339 173.9415L34.2999 180.2235L34.2999 180.2235L42.4109 178.1985L42.4109 178.1985L42.4039 178.1675C 43.6239 177.8645 44.8809 177.5765 46.1609 177.2855L46.1609 177.2855L48.5709 186.9455L48.5709 186.9455L54.4499 185.4795L54.4499 185.4795L52.0879 176.0085C 53.6659 175.6485 55.2549 175.2845 56.8009 174.8995L56.8009 174.8995L59.1469 184.3075L59.1469 184.3075L65.0279 182.8415L65.0279 182.8415L62.6189 173.1785C 70.0459 170.6205 75.4779 166.7865 74.4099 159.6525M46.0969 151.3885L42.8669 138.4405C 46.8549 137.4505 59.1529 133.5015 60.9709 140.8055C 62.8709 148.4235 50.0849 150.3935 46.0969 151.3885M50.5029 169.0605L47.5749 157.3165C 50.8959 156.4895 61.1319 153.1135 62.7899 159.7575C 64.5179 166.6885 53.8239 168.2335 50.5029 169.0605" stroke="none" fill="#FFFEFE" fill-rule="nonzero" />
    <path id=""  transform="matrix(1 0 0 -1 0 335)"  d="M99.7247 45.8503L77.9747 62.9373L77.9747 62.9373L71.3387 35.9923L71.3387 35.9923L83.5817 47.1413zM91.0687 26.0343L73.7617 29.2793L73.7617 29.2793L95.4017 14.1953L95.4017 14.1953L102.7797 39.5353zM101.5537 42.8623L84.6977 44.1993L84.6977 44.1993L71.9427 32.5943L71.9427 32.5943L89.86771 29.5693z" stroke="none" fill="#FFFEFE" fill-rule="nonzero" />
    <path id=""  transform="matrix(1 0 0 -1 0 335)"  d="M92.6787 261.1104L94.0387 251.1504L94.0387 251.1504L107.9567 257.3964C 108.4457 257.6164 108.9687 257.2974 109.0597 256.7864L109.0597 256.7864L109.7237 252.0754C 109.7887 251.6204 109.5437 251.1654 109.1137 250.9714L109.1137 250.9714L87.8347 241.4224L87.8347 241.4224L85.9697 255.1984L85.9697 255.1984L82.5567 252.1804L82.5567 252.1804L82.1287 255.4434L82.1287 255.4434L85.5707 258.4734L85.5707 258.4734L82.96571 277.8254C 82.8997 278.2794 83.1447 278.7344 83.57571 278.9274L83.57571 278.9274L88.95271 281.3414C 89.4417 281.5604 89.96471 281.2434 90.0557 280.7314L90.0557 280.7314L92.2497 264.3734L92.2497 264.3734L95.6627 267.3904L95.6627 267.3904L96.10471 264.0994z" stroke="none" fill="#FFFEFE" fill-rule="nonzero" />
		</g>
	</g>
</g>
</svg>