<?xml version="1.0" standalone="no"?>
<!DOCTYPE svg PUBLIC "-//W3C//DTD SVG 1.0//EN" "http://www.w3.org/TR/2001/REC-SVG-20010904/DTD/svg10.dtd">
<svg xmlns="http://www.w3.org/2000/svg" xmlns:xlink="http://www.w3.org/1999/xlink" id="body_1" width="93" height="93">

<defs>
    <clipPath  id="1">

    <path id=""  clip-rule="evenodd" transform="matrix(1 0 0 1 0 0)"  d="M0 70L0 0L0 0L70 0L70 0L70 70L70 70L0 70z" />    </clipPath>
    <clipPath  id="2">

    <path id=""  clip-rule="evenodd" transform="matrix(1 0 0 1 0 0)"  d="M0 0L70 0L70 0L70 70L70 70L0 70z" />    </clipPath>
</defs>

<g transform="matrix(1.3333 0 0 1.3333 0 0)">
	<g clip-path="url(#1)" >
		<g clip-path="url(#2)" >
    <path id=""  transform="matrix(1 0 0 -1 0 70)"  d="M63.0607 19.9487L68.0227 23.4257C 68.5087 24.8097 68.9097 26.2347 69.2197 27.6937L69.2197 27.6937L65.6437 35.4487L65.6437 35.4487L69.2107 42.3457C 68.9017 43.7907 68.5037 45.2027 68.0227 46.5757L68.0227 46.5757L64.1117 48.9487L64.1117 48.9487L64.1117 54.4127C 61.7917 57.8807 58.8747 60.9157 55.4997 63.3607C 51.6287 66.1637 47.1627 68.1917 42.3267 69.2247L42.3267 69.2247L34.6437 65.7817L34.6437 65.7817L27.6737 69.2247C 22.8377 68.1917 18.3717 66.1637 14.4997 63.3607C 11.1237 60.9157 8.207699 57.8807 5.887699 54.4127L5.887699 54.4127L7.7267 51.2197L7.7267 51.2197L1.977699 46.5757C 1.4967 45.2027 1.098698 43.7917 0.7896996 42.3457L0.7896996 42.3457L7.060699 36.4487L7.060699 36.4487L6.560699 32.9487C 6.560699 32.9487 1.333698 27.5227 0.7807007 27.6937C 1.090698 26.2347 1.491699 24.8097 1.977699 23.4257C 2.4207 23.6447 8.5527 21.6327 8.5527 21.6327L8.5527 21.6327L5.887699 15.5877C 8.207699 12.1187 11.1237 9.0837 14.4997 6.6397C 20.2627 2.4667 27.3407 -0.0002994537 34.9997 -0.0002994537C 42.6587 -0.0002994537 49.7377 2.4667 55.4997 6.6397C 58.8747 9.0837 61.7917 12.1187 64.1117 15.5877z" stroke="none" fill="#1B66FF" fill-rule="nonzero" />
    <path id=""  transform="matrix(1 0 0 -1 0 70)"  d="M64.1115 54.4126L42.3265 43.6006L42.3265 43.6006L42.3265 69.2256C 39.9635 69.7296 37.5135 69.9996 35.0005 69.9996C 32.4865 69.9996 30.0375 69.7296 27.6735 69.2256L27.6735 69.2256L27.6735 43.6006L27.6735 43.6006L5.887505 54.4126C 4.272503 51.9956 2.957504 49.3656 1.977505 46.5756L1.977505 46.5756L10.4995 42.3466L10.4995 42.3466L0.789505 42.3466C 0.282505 39.9756 0.00050354 37.5216 0.00050354 34.9996C 0.00050354 32.4916 0.2785034 30.0526 0.7805023 27.6936L0.7805023 27.6936L10.5795 27.6936L10.5795 27.6936L1.977505 23.4256C 2.957504 20.6346 4.272503 18.0036 5.887505 15.5876L5.887505 15.5876L27.6735 26.3996L27.6735 26.3996L27.6735 0.774601C 30.0375 0.2706032 32.4865 -0.0003967285 35.0005 -0.0003967285C 37.5135 -0.0003967285 39.9635 0.2706032 42.3265 0.774601L42.3265 0.774601L42.3265 26.3996L42.3265 26.3996L64.1115 15.5876C 65.7275 18.0036 67.0435 20.6346 68.02251 23.4256L68.02251 23.4256L59.4205 27.6936L59.4205 27.6936L69.21951 27.6936C 69.7205 30.0526 70.0005 32.4916 70.0005 34.9996C 70.0005 37.5216 69.71751 39.9756 69.2115 42.3466L69.2115 42.3466L59.5005 42.3466L59.5005 42.3466L68.02251 46.5756C 67.0435 49.3656 65.7275 51.9956 64.1115 54.4126" stroke="none" fill="#EBEFF5" fill-rule="nonzero" />
    <path id=""  transform="matrix(1 0 0 -1 0 70)"  d="M20.4058 42.3458L3.6978 50.6378C 3.302803 49.8508 2.9408 49.0478 2.604801 48.2278L2.604801 48.2278L14.4568 42.3458zM3.751801 19.2498C 4.151802 18.4608 4.573803 17.6848 5.028801 16.9308L5.028801 16.9308L26.7158 27.6938L26.7158 27.6938L20.7678 27.6938zM69.7178 39.4318L39.4118 39.4318L39.4118 39.4318L39.4118 69.7198C 37.9668 69.9028 36.4948 69.9998 34.9998 69.9998C 33.5048 69.9998 32.0338 69.9028 30.5878 69.7198L30.5878 69.7198L30.5878 39.4318L30.5878 39.4318L0.2828026 39.4318C 0.09780121 37.9798 -0.0001983643 36.5018 -0.0001983643 34.9998C -0.0001983643 33.5118 0.09580231 32.0468 0.2758026 30.6078L0.2758026 30.6078L30.5878 30.6078L30.5878 30.6078L30.5878 0.2787991C 32.0338 0.09679985 33.5048 -0.0002002716 34.9998 -0.0002002716C 36.4948 -0.0002002716 37.9668 0.09679985 39.4118 0.2787991L39.4118 0.2787991L39.4118 30.6078L39.4118 30.6078L69.7238 30.6078C 69.9048 32.0468 69.9998 33.5118 69.9998 34.9998C 69.9998 36.5018 69.9018 37.9798 69.7178 39.4318M66.2478 50.7508C 65.8488 51.5408 65.4268 52.3158 64.9708 53.0688L64.9708 53.0688L43.3648 42.3458L43.3648 42.3458L49.3128 42.3458zM49.5138 27.6938L66.3028 19.3618C 66.6968 20.1488 67.0598 20.9528 67.39481 21.7718L67.39481 21.7718L55.4628 27.6938z" stroke="none" fill="#FF5555" fill-rule="nonzero" />
		</g>
	</g>
</g>
</svg>