<?xml version="1.0" standalone="no"?>
<!DOCTYPE svg PUBLIC "-//W3C//DTD SVG 1.0//EN" "http://www.w3.org/TR/2001/REC-SVG-20010904/DTD/svg10.dtd">
<svg xmlns="http://www.w3.org/2000/svg" xmlns:xlink="http://www.w3.org/1999/xlink" id="body_1" width="717" height="172">

<defs>
    <clipPath  id="1">

    <path id=""  clip-rule="evenodd" transform="matrix(1 0 0 1 0 0)"  d="M0 129L0 -0.6959991L0 -0.6959991L538.205 -0.6959991L538.205 -0.6959991L538.205 129L538.205 129L0 129z" />    </clipPath>
    <clipPath  id="2">

    <path id=""  clip-rule="evenodd" transform="matrix(1 0 0 1 0 0)"  d="M0 18.955L0 99.639C 0 102.644 1.387 104.725 3.236 105.419L3.236 105.419L3.236 105.419L3.236 105.419L64.27 59.182L64.27 59.182L3.468 12.944C 1.387 13.637 0 15.719 0 18.955" />    </clipPath>
    <linearGradient gradientUnits="userSpaceOnUse"  transform="matrix(1 0 0 1 0 0)"  id="506" x1="32.13505" y1="116.0562" x2="32.13505" y2="23.5812"><stop stop-color="#3587B6" offset="0%"/><stop stop-color="#3589B7" offset="1%"/><stop stop-color="#368AB8" offset="2%"/><stop stop-color="#368CB8" offset="3%"/><stop stop-color="#378DB8" offset="4%"/><stop stop-color="#378EB8" offset="5%"/><stop stop-color="#388FB9" offset="6%"/><stop stop-color="#3890B9" offset="7%"/><stop stop-color="#3992B9" offset="8%"/><stop stop-color="#3993BA" offset="9%"/><stop stop-color="#3A94BA" offset="10%"/><stop stop-color="#3A95BA" offset="11%"/><stop stop-color="#3B96BA" offset="12%"/><stop stop-color="#3B97BB" offset="13%"/><stop stop-color="#3C99BB" offset="14%"/><stop stop-color="#3C9ABB" offset="15%"/><stop stop-color="#3D9BBC" offset="16%"/><stop stop-color="#3D9CBC" offset="17%"/><stop stop-color="#3E9DBC" offset="18%"/><stop stop-color="#3E9FBD" offset="19%"/><stop stop-color="#3FA0BD" offset="20%"/><stop stop-color="#3FA1BD" offset="21%"/><stop stop-color="#40A2BD" offset="22%"/><stop stop-color="#40A3BE" offset="23%"/><stop stop-color="#41A5BE" offset="24%"/><stop stop-color="#41A6BE" offset="25%"/><stop stop-color="#42A7BF" offset="26%"/><stop stop-color="#42A8BF" offset="27%"/><stop stop-color="#43A9BF" offset="28%"/><stop stop-color="#43ABBF" offset="29%"/><stop stop-color="#44ACC0" offset="30%"/><stop stop-color="#44ADC0" offset="31%"/><stop stop-color="#45AEC0" offset="32%"/><stop stop-color="#45AFC1" offset="33%"/><stop stop-color="#46B0C1" offset="34%"/><stop stop-color="#46B2C1" offset="35%"/><stop stop-color="#47B3C1" offset="36%"/><stop stop-color="#47B4C2" offset="37%"/><stop stop-color="#48B5C2" offset="38%"/><stop stop-color="#48B6C2" offset="39%"/><stop stop-color="#49B8C3" offset="40%"/><stop stop-color="#49B9C3" offset="41%"/><stop stop-color="#4ABAC3" offset="42%"/><stop stop-color="#4ABBC3" offset="43%"/><stop stop-color="#4BBCC4" offset="44%"/><stop stop-color="#4BBEC4" offset="45%"/><stop stop-color="#4CBFC4" offset="46%"/><stop stop-color="#4CC0C5" offset="47%"/><stop stop-color="#4DC1C5" offset="48%"/><stop stop-color="#4DC2C5" offset="49%"/><stop stop-color="#4DC4C5" offset="50%"/><stop stop-color="#4EC5C6" offset="51%"/><stop stop-color="#4EC6C6" offset="52%"/><stop stop-color="#4FC7C6" offset="53%"/><stop stop-color="#4FC8C7" offset="54%"/><stop stop-color="#50C9C7" offset="55%"/><stop stop-color="#50CBC7" offset="56%"/><stop stop-color="#51CCC8" offset="57%"/><stop stop-color="#51CDC8" offset="58%"/><stop stop-color="#52CEC8" offset="59%"/><stop stop-color="#52CFC8" offset="60%"/><stop stop-color="#53D1C9" offset="61%"/><stop stop-color="#53D2C9" offset="62%"/><stop stop-color="#54D3C9" offset="63%"/><stop stop-color="#54D4CA" offset="64%"/><stop stop-color="#55D5CA" offset="65%"/><stop stop-color="#55D7CA" offset="66%"/><stop stop-color="#56D8CA" offset="67%"/><stop stop-color="#56D9CB" offset="68%"/><stop stop-color="#57DACB" offset="69%"/><stop stop-color="#57DBCB" offset="70%"/><stop stop-color="#58DCCC" offset="71%"/><stop stop-color="#58DECC" offset="72%"/><stop stop-color="#59DFCC" offset="73%"/><stop stop-color="#59E0CC" offset="74%"/><stop stop-color="#5AE1CD" offset="75%"/><stop stop-color="#5AE2CD" offset="76%"/><stop stop-color="#5BE4CD" offset="77%"/><stop stop-color="#5BE5CE" offset="78%"/><stop stop-color="#5CE6CE" offset="79%"/><stop stop-color="#5CE7CE" offset="80%"/><stop stop-color="#5DE8CE" offset="81%"/><stop stop-color="#5DEACF" offset="82%"/><stop stop-color="#5EEBCF" offset="83%"/><stop stop-color="#5EECCF" offset="84%"/><stop stop-color="#5FEDD0" offset="85%"/><stop stop-color="#5FEED0" offset="86%"/><stop stop-color="#60F0D0" offset="87%"/><stop stop-color="#60F1D1" offset="88%"/><stop stop-color="#61F2D1" offset="89%"/><stop stop-color="#61F3D1" offset="90%"/><stop stop-color="#62F4D1" offset="91%"/><stop stop-color="#62F5D2" offset="92%"/><stop stop-color="#63F7D2" offset="93%"/><stop stop-color="#63F8D2" offset="94%"/><stop stop-color="#64F9D3" offset="95%"/><stop stop-color="#64FAD3" offset="96%"/><stop stop-color="#65FBD3" offset="97%"/><stop stop-color="#65FDD3" offset="98%"/><stop stop-color="#66FED4" offset="99%"/><stop stop-color="#66FED4" offset="100%"/>
    </linearGradient>
    <clipPath  id="3">

    <path id=""  clip-rule="evenodd" transform="matrix(1 0 0 1 0 0)"  d="M3.236 105.419C 4.623 105.882 6.473 105.882 8.554 104.725L8.554 104.725L8.554 104.725L8.554 104.725L64.27 74.44L64.27 74.44L52.017 56.176z" />    </clipPath>
    <linearGradient gradientUnits="userSpaceOnUse"  transform="matrix(1 0 0 1 0 0)"  id="5065" x1="3.2366" y1="48.0582" x2="64.2701" y2="48.0582"><stop stop-color="#9535C2" offset="0%"/><stop stop-color="#9735C1" offset="1%"/><stop stop-color="#9835C0" offset="2%"/><stop stop-color="#9835BF" offset="3%"/><stop stop-color="#9936BD" offset="4%"/><stop stop-color="#9A36BC" offset="5%"/><stop stop-color="#9B36BB" offset="6%"/><stop stop-color="#9B36BA" offset="7%"/><stop stop-color="#9C36B9" offset="8%"/><stop stop-color="#9D36B8" offset="9%"/><stop stop-color="#9E36B6" offset="10%"/><stop stop-color="#9E36B5" offset="11%"/><stop stop-color="#9F37B4" offset="12%"/><stop stop-color="#A037B3" offset="13%"/><stop stop-color="#A137B2" offset="14%"/><stop stop-color="#A237B1" offset="15%"/><stop stop-color="#A237B0" offset="16%"/><stop stop-color="#A337AE" offset="17%"/><stop stop-color="#A437AD" offset="18%"/><stop stop-color="#A537AC" offset="19%"/><stop stop-color="#A538AB" offset="20%"/><stop stop-color="#A638AA" offset="21%"/><stop stop-color="#A738A9" offset="22%"/><stop stop-color="#A838A8" offset="23%"/><stop stop-color="#A838A6" offset="24%"/><stop stop-color="#A938A5" offset="25%"/><stop stop-color="#AA38A4" offset="26%"/><stop stop-color="#AB39A3" offset="27%"/><stop stop-color="#AC39A2" offset="28%"/><stop stop-color="#AC39A1" offset="29%"/><stop stop-color="#AD399F" offset="30%"/><stop stop-color="#AE399E" offset="31%"/><stop stop-color="#AF399D" offset="32%"/><stop stop-color="#AF399C" offset="33%"/><stop stop-color="#B0399B" offset="34%"/><stop stop-color="#B13A9A" offset="35%"/><stop stop-color="#B23A99" offset="36%"/><stop stop-color="#B23A97" offset="37%"/><stop stop-color="#B33A96" offset="38%"/><stop stop-color="#B43A95" offset="39%"/><stop stop-color="#B53A94" offset="40%"/><stop stop-color="#B63A93" offset="41%"/><stop stop-color="#B63A92" offset="42%"/><stop stop-color="#B73B91" offset="43%"/><stop stop-color="#B83B8F" offset="44%"/><stop stop-color="#B93B8E" offset="45%"/><stop stop-color="#B93B8D" offset="46%"/><stop stop-color="#BA3B8C" offset="47%"/><stop stop-color="#BB3B8B" offset="48%"/><stop stop-color="#BC3B8A" offset="49%"/><stop stop-color="#BD3B89" offset="50%"/><stop stop-color="#BD3C87" offset="51%"/><stop stop-color="#BE3C86" offset="52%"/><stop stop-color="#BF3C85" offset="53%"/><stop stop-color="#C03C84" offset="54%"/><stop stop-color="#C03C83" offset="55%"/><stop stop-color="#C13C82" offset="56%"/><stop stop-color="#C23C80" offset="57%"/><stop stop-color="#C33D7F" offset="58%"/><stop stop-color="#C33D7E" offset="59%"/><stop stop-color="#C43D7D" offset="60%"/><stop stop-color="#C53D7C" offset="61%"/><stop stop-color="#C63D7B" offset="62%"/><stop stop-color="#C73D7A" offset="63%"/><stop stop-color="#C73D78" offset="64%"/><stop stop-color="#C83D77" offset="65%"/><stop stop-color="#C93E76" offset="66%"/><stop stop-color="#CA3E75" offset="67%"/><stop stop-color="#CA3E74" offset="68%"/><stop stop-color="#CB3E73" offset="69%"/><stop stop-color="#CC3E72" offset="70%"/><stop stop-color="#CD3E70" offset="71%"/><stop stop-color="#CD3E6F" offset="72%"/><stop stop-color="#CE3E6E" offset="73%"/><stop stop-color="#CF3F6D" offset="74%"/><stop stop-color="#D03F6C" offset="75%"/><stop stop-color="#D13F6B" offset="76%"/><stop stop-color="#D13F69" offset="77%"/><stop stop-color="#D23F68" offset="78%"/><stop stop-color="#D33F67" offset="79%"/><stop stop-color="#D43F66" offset="80%"/><stop stop-color="#D44065" offset="81%"/><stop stop-color="#D54064" offset="82%"/><stop stop-color="#D64063" offset="83%"/><stop stop-color="#D74061" offset="84%"/><stop stop-color="#D74060" offset="85%"/><stop stop-color="#D8405F" offset="86%"/><stop stop-color="#D9405E" offset="87%"/><stop stop-color="#DA405D" offset="88%"/><stop stop-color="#DB415C" offset="89%"/><stop stop-color="#DB415A" offset="90%"/><stop stop-color="#DC4159" offset="91%"/><stop stop-color="#DD4158" offset="92%"/><stop stop-color="#DE4157" offset="93%"/><stop stop-color="#DE4156" offset="94%"/><stop stop-color="#DF4155" offset="95%"/><stop stop-color="#E04154" offset="96%"/><stop stop-color="#E14252" offset="97%"/><stop stop-color="#E14251" offset="98%"/><stop stop-color="#E24250" offset="99%"/><stop stop-color="#E2414F" offset="100%"/>
    </linearGradient>
    <clipPath  id="4">

    <path id=""  clip-rule="evenodd" transform="matrix(1 0 0 1 0 0)"  d="M3.468 12.944L51.786 61.955L51.786 61.955L64.039 44.154L64.039 44.154L8.554 13.869C 7.29 13.079 6.026 12.721 4.91 12.721L4.91 12.721L4.91 12.721C 4.392 12.721 3.907 12.798 3.468 12.944" />    </clipPath>
    <linearGradient gradientUnits="userSpaceOnUse"  transform="matrix(1 0 0 1 0 0)"  id="9667" x1="3.4678" y1="91.66194" x2="64.03899" y2="91.66194"><stop stop-color="#5FCAB6" offset="0%"/><stop stop-color="#61CBB6" offset="1%"/><stop stop-color="#62CBB6" offset="2%"/><stop stop-color="#64CCB5" offset="3%"/><stop stop-color="#65CCB5" offset="4%"/><stop stop-color="#66CDB5" offset="5%"/><stop stop-color="#67CDB5" offset="6%"/><stop stop-color="#68CEB5" offset="7%"/><stop stop-color="#69CEB4" offset="8%"/><stop stop-color="#6BCFB4" offset="9%"/><stop stop-color="#6CCFB4" offset="10%"/><stop stop-color="#6DD0B4" offset="11%"/><stop stop-color="#6ED0B4" offset="12%"/><stop stop-color="#6FD1B3" offset="13%"/><stop stop-color="#71D1B3" offset="14%"/><stop stop-color="#72D2B3" offset="15%"/><stop stop-color="#73D2B3" offset="16%"/><stop stop-color="#74D3B3" offset="17%"/><stop stop-color="#75D4B2" offset="18%"/><stop stop-color="#76D4B2" offset="19%"/><stop stop-color="#78D5B2" offset="20%"/><stop stop-color="#79D5B2" offset="21%"/><stop stop-color="#7AD6B2" offset="22%"/><stop stop-color="#7BD6B1" offset="23%"/><stop stop-color="#7CD7B1" offset="24%"/><stop stop-color="#7ED7B1" offset="25%"/><stop stop-color="#7FD8B1" offset="26%"/><stop stop-color="#80D8B1" offset="27%"/><stop stop-color="#81D9B0" offset="28%"/><stop stop-color="#82D9B0" offset="29%"/><stop stop-color="#83DAB0" offset="30%"/><stop stop-color="#85DAB0" offset="31%"/><stop stop-color="#86DBB0" offset="32%"/><stop stop-color="#87DBAF" offset="33%"/><stop stop-color="#88DCAF" offset="34%"/><stop stop-color="#89DDAF" offset="35%"/><stop stop-color="#8ADDAF" offset="36%"/><stop stop-color="#8CDEAF" offset="37%"/><stop stop-color="#8DDEAE" offset="38%"/><stop stop-color="#8EDFAE" offset="39%"/><stop stop-color="#8FDFAE" offset="40%"/><stop stop-color="#90E0AE" offset="41%"/><stop stop-color="#92E0AE" offset="42%"/><stop stop-color="#93E1AD" offset="43%"/><stop stop-color="#94E1AD" offset="44%"/><stop stop-color="#95E2AD" offset="45%"/><stop stop-color="#96E2AD" offset="46%"/><stop stop-color="#97E3AD" offset="47%"/><stop stop-color="#99E3AC" offset="48%"/><stop stop-color="#9AE4AC" offset="49%"/><stop stop-color="#9BE4AC" offset="50%"/><stop stop-color="#9CE5AC" offset="51%"/><stop stop-color="#9DE6AC" offset="52%"/><stop stop-color="#9FE6AB" offset="53%"/><stop stop-color="#A0E7AB" offset="54%"/><stop stop-color="#A1E7AB" offset="55%"/><stop stop-color="#A2E8AB" offset="56%"/><stop stop-color="#A3E8AB" offset="57%"/><stop stop-color="#A4E9AA" offset="58%"/><stop stop-color="#A6E9AA" offset="59%"/><stop stop-color="#A7EAAA" offset="60%"/><stop stop-color="#A8EAAA" offset="61%"/><stop stop-color="#A9EBAA" offset="62%"/><stop stop-color="#AAEBA9" offset="63%"/><stop stop-color="#ACECA9" offset="64%"/><stop stop-color="#ADECA9" offset="65%"/><stop stop-color="#AEEDA9" offset="66%"/><stop stop-color="#AFEEA9" offset="67%"/><stop stop-color="#B0EEA8" offset="68%"/><stop stop-color="#B1EFA8" offset="69%"/><stop stop-color="#B3EFA8" offset="70%"/><stop stop-color="#B4F0A8" offset="71%"/><stop stop-color="#B5F0A8" offset="72%"/><stop stop-color="#B6F1A7" offset="73%"/><stop stop-color="#B7F1A7" offset="74%"/><stop stop-color="#B9F2A7" offset="75%"/><stop stop-color="#BAF2A7" offset="76%"/><stop stop-color="#BBF3A7" offset="77%"/><stop stop-color="#BCF3A6" offset="78%"/><stop stop-color="#BDF4A6" offset="79%"/><stop stop-color="#BEF4A6" offset="80%"/><stop stop-color="#C0F5A6" offset="81%"/><stop stop-color="#C1F5A6" offset="82%"/><stop stop-color="#C2F6A5" offset="83%"/><stop stop-color="#C3F7A5" offset="84%"/><stop stop-color="#C4F7A5" offset="85%"/><stop stop-color="#C5F8A5" offset="86%"/><stop stop-color="#C7F8A5" offset="87%"/><stop stop-color="#C8F9A4" offset="88%"/><stop stop-color="#C9F9A4" offset="89%"/><stop stop-color="#CAFAA4" offset="90%"/><stop stop-color="#CBFAA4" offset="91%"/><stop stop-color="#CDFBA4" offset="92%"/><stop stop-color="#CEFBA3" offset="93%"/><stop stop-color="#CFFCA3" offset="94%"/><stop stop-color="#D0FCA3" offset="95%"/><stop stop-color="#D1FDA3" offset="96%"/><stop stop-color="#D2FDA3" offset="97%"/><stop stop-color="#D4FEA2" offset="98%"/><stop stop-color="#D5FEA2" offset="99%"/><stop stop-color="#D6FEA2" offset="100%"/>
    </linearGradient>
    <clipPath  id="5">

    <path id=""  clip-rule="evenodd" transform="matrix(1 0 0 1 0 0)"  d="M49.011 59.182L64.27 74.44L64.27 74.44L83.69 63.806C 88.313 61.262 88.313 57.332 83.69 54.789L83.69 54.789L83.69 54.789L83.69 54.789L64.039 44.154z" />    </clipPath>
    <linearGradient gradientUnits="userSpaceOnUse"  transform="matrix(1 0 0 1 0 0)"  id="14235" x1="48.67138" y1="84.57561" x2="75.64467" y2="63.16045"><stop stop-color="#FF9877" offset="0%"/><stop stop-color="#FF9877" offset="1%"/><stop stop-color="#FF9877" offset="2%"/><stop stop-color="#FF9976" offset="3%"/><stop stop-color="#FF9976" offset="4%"/><stop stop-color="#FF9A76" offset="5%"/><stop stop-color="#FF9B76" offset="6%"/><stop stop-color="#FF9B76" offset="7%"/><stop stop-color="#FF9B76" offset="8%"/><stop stop-color="#FF9B76" offset="9%"/><stop stop-color="#FF9C75" offset="10%"/><stop stop-color="#FF9C75" offset="11%"/><stop stop-color="#FF9D75" offset="12%"/><stop stop-color="#FF9D75" offset="13%"/><stop stop-color="#FF9E75" offset="14%"/><stop stop-color="#FF9E75" offset="15%"/><stop stop-color="#FF9F74" offset="16%"/><stop stop-color="#FF9F74" offset="17%"/><stop stop-color="#FFA074" offset="18%"/><stop stop-color="#FFA074" offset="19%"/><stop stop-color="#FFA074" offset="20%"/><stop stop-color="#FFA173" offset="21%"/><stop stop-color="#FFA173" offset="22%"/><stop stop-color="#FFA273" offset="23%"/><stop stop-color="#FFA373" offset="24%"/><stop stop-color="#FFA373" offset="25%"/><stop stop-color="#FFA373" offset="26%"/><stop stop-color="#FFA373" offset="27%"/><stop stop-color="#FFA472" offset="28%"/><stop stop-color="#FFA472" offset="29%"/><stop stop-color="#FFA572" offset="30%"/><stop stop-color="#FFA572" offset="31%"/><stop stop-color="#FFA672" offset="32%"/><stop stop-color="#FFA672" offset="33%"/><stop stop-color="#FFA672" offset="34%"/><stop stop-color="#FFA771" offset="35%"/><stop stop-color="#FFA871" offset="36%"/><stop stop-color="#FFA871" offset="37%"/><stop stop-color="#FFA871" offset="38%"/><stop stop-color="#FFA970" offset="39%"/><stop stop-color="#FFA970" offset="40%"/><stop stop-color="#FFAA70" offset="41%"/><stop stop-color="#FFAA70" offset="42%"/><stop stop-color="#FFAA70" offset="43%"/><stop stop-color="#FFAB70" offset="44%"/><stop stop-color="#FFAB70" offset="45%"/><stop stop-color="#FFAC6F" offset="46%"/><stop stop-color="#FFAC6F" offset="47%"/><stop stop-color="#FFAD6F" offset="48%"/><stop stop-color="#FFAD6F" offset="49%"/><stop stop-color="#FFAD6F" offset="50%"/><stop stop-color="#FFAE6E" offset="51%"/><stop stop-color="#FFAE6E" offset="52%"/><stop stop-color="#FFAF6E" offset="53%"/><stop stop-color="#FFAF6E" offset="54%"/><stop stop-color="#FFB06E" offset="55%"/><stop stop-color="#FFB06E" offset="56%"/><stop stop-color="#FFB16D" offset="57%"/><stop stop-color="#FFB16D" offset="58%"/><stop stop-color="#FFB26D" offset="59%"/><stop stop-color="#FFB26D" offset="60%"/><stop stop-color="#FFB26D" offset="61%"/><stop stop-color="#FFB36C" offset="62%"/><stop stop-color="#FFB36C" offset="63%"/><stop stop-color="#FFB46C" offset="64%"/><stop stop-color="#FFB56C" offset="65%"/><stop stop-color="#FFB56C" offset="66%"/><stop stop-color="#FFB56C" offset="67%"/><stop stop-color="#FFB56C" offset="68%"/><stop stop-color="#FFB66B" offset="69%"/><stop stop-color="#FFB66B" offset="70%"/><stop stop-color="#FFB76B" offset="71%"/><stop stop-color="#FFB76B" offset="72%"/><stop stop-color="#FFB86B" offset="73%"/><stop stop-color="#FFB86B" offset="74%"/><stop stop-color="#FFB86B" offset="75%"/><stop stop-color="#FFB96A" offset="76%"/><stop stop-color="#FFBA6A" offset="77%"/><stop stop-color="#FFBA6A" offset="78%"/><stop stop-color="#FFBA6A" offset="79%"/><stop stop-color="#FFBB69" offset="80%"/><stop stop-color="#FFBB69" offset="81%"/><stop stop-color="#FFBC69" offset="82%"/><stop stop-color="#FFBD69" offset="83%"/><stop stop-color="#FFBD69" offset="84%"/><stop stop-color="#FFBD69" offset="85%"/><stop stop-color="#FFBD69" offset="86%"/><stop stop-color="#FFBE68" offset="87%"/><stop stop-color="#FFBE68" offset="88%"/><stop stop-color="#FFBF68" offset="89%"/><stop stop-color="#FFBF68" offset="90%"/><stop stop-color="#FFC068" offset="91%"/><stop stop-color="#FFC068" offset="92%"/><stop stop-color="#FFC068" offset="93%"/><stop stop-color="#FFC167" offset="94%"/><stop stop-color="#FFC267" offset="95%"/><stop stop-color="#FFC267" offset="96%"/><stop stop-color="#FFC267" offset="97%"/><stop stop-color="#FFC366" offset="98%"/><stop stop-color="#FFC366" offset="99%"/><stop stop-color="#FFC366" offset="100%"/>
    </linearGradient>
    <clipPath  id="6">

    <path id=""  clip-rule="evenodd" transform="matrix(1 0 0 1 0 0)"  d="M0 -0.6959991L538.205 -0.6959991L538.205 -0.6959991L538.205 129L538.205 129L0 129z" />    </clipPath>
</defs>

<g transform="matrix(1.3333 0 0 1.3333 0 0)">
	<g clip-path="url(#1)" >
		<g clip-path="url(#2)" >
			<g>
    <path id=""  transform="matrix(1 0 0 -1 0 129)"  d="M0 116.0562L538 116.0562L538 116.0562L538 23.5812L538 23.5812L0 23.5812" stroke="none" fill="url(#506)" />
    <path id=""  transform="matrix(1 0 0 -1 0 129)"  d="M3.4678 0L3.4678 129L3.4678 129L0 129L0 129L0 0" stroke="none" fill="#60CAB6" fill-rule="evenodd" />
    <path id=""  transform="matrix(1 0 0 -1 0 129)"  d="M64.03899 0L64.03899 129L64.03899 129L538 129L538 129L538 0" stroke="none" fill="#D6FFA2" fill-rule="evenodd" />
			</g>
		</g>
		<g clip-path="url(#3)" >
			<g>
    <path id=""  transform="matrix(1 0 0 -1 0 129)"  d="M3.2366 0L3.2366 129L3.2366 129L64.2701 129L64.2701 129L64.2701 0" stroke="none" fill="url(#5065)" />
    <path id=""  transform="matrix(1 0 0 -1 0 129)"  d="M0 22.27199L538 699.9053L538 699.9053L538 129L538 129L0 129" stroke="none" fill="#FF9877" fill-rule="evenodd" />
    <path id=""  transform="matrix(1 0 0 -1 0 129)"  d="M0 -31.11714L538 646.5161L538 646.5161L538 0L538 0L0 0" stroke="none" fill="#FFC466" fill-rule="evenodd" />
			</g>
		</g>
		<g clip-path="url(#4)" >
			<g>
    <path id=""  transform="matrix(1 0 0 -1 0 129)"  d="M3.4678 0L3.4678 129L3.4678 129L64.03899 129L64.03899 129L64.03899 0" stroke="none" fill="url(#9667)" />
			</g>
		</g>
		<g clip-path="url(#5)" >
			<g>
    <path id=""  transform="matrix(1 0 0 -1 0 129)"  d="M0 23L538 701L538 701L538 646L538 646L0 -32" stroke="none" fill="url(#14235)" />
    <path id=""  transform="matrix(1 0 0 -1 0 129)"  d="M0 22.27199L538 699.9053L538 699.9053L538 129L538 129L0 129" stroke="none" fill="#FF9877" fill-rule="evenodd" />
    <path id=""  transform="matrix(1 0 0 -1 0 129)"  d="M0 -31.11714L538 646.5161L538 646.5161L538 0L538 0L0 0" stroke="none" fill="#FFC466" fill-rule="evenodd" />
			</g>
		</g>
		<g clip-path="url(#6)" >
    <path id=""  transform="matrix(1 0 0 -1 0 129)"  d="M247.8325 101.2599C 255.9245 101.2599 261.9355 107.5019 261.9355 115.3629C 261.9355 123.4539 255.6935 129.6969 247.8325 129.6969C 239.9725 129.6969 233.7305 123.2229 233.7305 115.3629C 233.7305 107.5019 239.9725 101.2599 247.8325 101.2599M247.8325 104.4959C 241.8225 104.4959 237.4295 109.3519 237.4295 115.3629C 237.4295 121.3729 241.8225 126.4589 247.8325 126.4589C 253.8435 126.4589 258.4675 121.3729 258.4675 115.3629C 258.4675 109.3519 253.8435 104.4959 247.8325 104.4959M244.5965 18.2639C 256.1565 18.2639 265.1715 27.0489 265.1715 38.6089C 265.1715 50.1669 256.1565 59.1839 244.5965 59.1839C 233.0375 59.1839 224.0205 50.1669 224.0205 38.6089C 224.0205 27.0489 233.0375 18.2639 244.5965 18.2639M244.5965 26.3559C 238.1225 26.3559 233.0375 31.9039 233.0375 38.6089C 233.0375 45.5439 237.8915 51.0919 244.5965 51.0919C 251.5325 51.0919 256.1565 45.7759 256.1565 38.6089C 256.1565 31.9039 251.0695 26.3559 244.5965 26.3559M300.0815 23.3499L300.0815 19.8819C 300.0815 12.4849 296.3825 8.091896 289.2155 8.091896C 281.3555 8.091896 279.0425 15.2579 279.0425 15.2579L279.0425 15.2579L271.1825 12.0219C 271.1825 12.0219 275.5755 -9.918213E-05 289.2155 -9.918213E-05C 301.7005 -9.918213E-05 308.6355 8.091896 308.6355 21.2699L308.6355 21.2699L308.6355 57.7969L308.6355 57.7969L300.0815 57.7969L300.0815 57.7969L300.0815 54.3289C 298.4625 56.6409 294.0705 59.1839 289.2155 59.1839C 278.3495 59.1839 269.5645 49.7049 269.5645 38.6089C 269.5645 27.7429 278.3495 18.2639 289.2155 18.2639C 294.0705 18.2639 298.2325 20.3449 300.0815 23.3499M538.2055 59.4149C 538.2055 59.6469 527.5705 59.6469 527.5705 59.6469L527.5705 59.6469L516.7045 32.3669L516.7045 32.3669L504.9145 59.6469L504.9145 59.6469L494.7415 59.4149L494.7415 59.4149L511.8495 20.8069L511.8495 20.8069L502.3715 0.6939011L502.3715 0.6939011L512.5425 0.6939011zM481.7945 24.7379L482.2575 24.7379L482.2575 24.7379L482.2575 19.1889L482.2575 19.1889L491.2735 19.1889L491.2735 19.1889L491.2735 43.4629C 491.2735 55.9479 482.4885 61.9579 471.8535 61.9579C 458.9075 61.9579 454.9775 52.4799 454.9775 52.4799L454.9775 52.4799L462.8375 48.7809C 462.8375 48.7809 465.1495 53.6359 471.8535 53.6359C 476.7085 53.6359 482.0265 50.6299 482.0265 44.6199C 474.6275 48.7809 453.5895 47.6239 453.5895 32.3669C 453.5895 21.0379 464.9175 17.8009 469.3105 17.8009C 475.0905 17.8009 478.7895 20.1139 481.7945 24.7379M350.0175 18.2639C 358.1095 18.2639 363.8895 22.6569 367.1255 27.2809L367.1255 27.2809L359.9585 31.9039C 359.9585 31.9039 357.1845 26.3559 350.0175 26.3559C 345.6245 26.3559 342.1575 28.4359 340.0775 32.5979L340.0775 32.5979L367.3575 43.9259C 364.8145 51.5549 359.0345 59.1839 349.0935 59.1839C 337.7655 59.1839 329.6735 50.1669 329.6735 38.6089C 329.6735 27.0489 338.4585 18.2639 350.0175 18.2639M199.7465 18.2639C 211.3055 18.2639 220.3225 27.0489 220.3225 38.6089C 220.3225 50.1669 211.3055 59.1839 199.7465 59.1839C 188.1865 59.1839 179.1705 50.1669 179.1705 38.6089C 179.1705 27.0489 188.1865 18.2639 199.7465 18.2639M145.8795 18.2639C 164.3735 18.2639 178.2465 32.1349 175.0085 52.9419L175.0085 52.9419L145.8795 52.9419L145.8795 52.9419L145.8795 44.1569L145.8795 44.1569L166.4555 44.1569C 165.2985 33.2909 157.2075 27.0489 145.8795 27.0489C 132.9325 27.0489 122.9925 37.2209 122.9925 49.9369C 122.9925 63.1149 133.1645 73.0549 145.8795 73.0549C 151.8905 73.0549 156.9765 70.9749 161.3695 66.8129L161.3695 66.8129L167.6115 73.0549C 161.3695 78.6039 154.2025 81.8399 145.8795 81.8399C 128.5395 81.8399 113.5125 67.5069 113.5125 49.9369C 113.5125 32.3669 128.3095 18.2639 145.8795 18.2639M446.1925 78.8349L437.1755 78.8349L437.1755 78.8349L437.1755 19.1889L437.1755 19.1889L446.1925 19.1889zM410.1265 78.8349L389.3205 78.8349L389.3205 78.8349L389.3205 19.1889L389.3205 19.1889L398.3355 19.1889L398.3355 19.1889L398.3355 42.3069L398.3355 42.3069L410.1265 42.3069C 421.2235 42.3069 429.3155 49.7049 429.3155 60.5719C 429.3155 71.4369 421.2235 78.8349 410.1265 78.8349M324.5875 79.5289L315.5705 79.5289L315.5705 79.5289L315.5705 19.4209L315.5705 19.4209L324.5875 19.4209zM289.9095 26.3559C 283.2055 26.3559 278.5805 31.9039 278.5805 38.6089C 278.5805 45.5439 283.2055 51.0919 289.9095 51.0919C 296.6135 51.0919 300.7755 45.5439 300.7755 38.6089C 300.7755 31.9039 296.3825 26.3559 289.9095 26.3559M199.7465 26.3559C 193.2725 26.3559 188.1865 31.9039 188.1865 38.6089C 188.1865 45.5439 193.0415 51.0919 199.7465 51.0919C 206.6815 51.0919 211.3055 45.7759 211.3055 38.6089C 211.3055 31.9039 206.2195 26.3559 199.7465 26.3559M470.4665 26.8179C 467.2305 26.8179 463.0685 28.2049 463.0685 32.1349C 463.0685 40.4579 478.0955 40.4579 482.2575 36.5279C 482.2575 34.2159 477.8655 26.8179 470.4665 26.8179M338.4585 39.3019C 338.4585 47.3939 344.9315 51.3239 349.3245 51.3239C 352.0985 51.3239 355.5665 49.9369 356.9545 46.9309zM410.3585 70.0499C 416.5995 70.0499 420.0685 64.73289 420.0685 60.5719C 420.0685 56.4099 417.0625 51.0919 410.3585 51.0919L410.3585 51.0919L398.3355 51.0919L398.3355 51.0919L398.3355 70.0499zM143.7985 116.2869L130.3895 116.2869L130.3895 116.2869L130.3895 113.0509L130.3895 113.0509L140.3315 113.0509C 140.0995 107.7339 135.7065 104.4959 130.3895 104.4959C 124.6105 104.4959 119.7545 109.1199 119.7545 115.3629C 119.7545 122.2979 125.0725 126.4589 130.3895 126.4589C 135.7065 126.4589 138.0195 123.2229 138.0195 123.2229L138.0195 123.2229L140.3315 125.5349C 140.3315 125.5349 137.3255 129.6969 130.3895 129.6969C 122.5295 129.6969 116.2875 123.4539 116.2875 115.3629C 116.2875 107.7339 122.2975 101.2599 130.3895 101.2599C 138.2495 101.2599 144.9555 107.0399 143.7985 116.2869M269.5645 101.7229L269.5645 124.1479L269.5645 124.1479L283.4365 101.7229L283.4365 101.7229L287.1345 101.7229L287.1345 101.7229L287.1345 129.0029L287.1345 129.0029L283.6665 129.0029L283.6665 129.0029L283.6665 113.0509L283.6665 113.0509L283.8985 107.7339L283.8985 107.7339L283.6665 107.7339L283.6665 107.7339L270.4895 129.0029L270.4895 129.0029L266.0965 129.0029L266.0965 129.0029L266.0965 101.7229zM223.7895 125.7659L223.7895 129.0029L223.7895 129.0029L205.0635 129.0029L205.0635 129.0029L205.0635 125.7659L205.0635 125.7659L212.6925 125.7659L212.6925 125.7659L212.6925 101.7229L212.6925 101.7229L216.1605 101.7229L216.1605 101.7229L216.1605 125.7659zM201.3645 129.0029L197.8965 129.0029L197.8965 129.0029L197.8965 101.7229L197.8965 101.7229L201.3645 101.7229zM185.8745 125.7659L185.8745 129.0029L185.8745 129.0029L167.1485 129.0029L167.1485 129.0029L167.1485 125.7659L167.1485 125.7659L174.7785 125.7659L174.7785 125.7659L174.7785 101.7229L174.7785 101.7229L178.2465 101.7229L178.2465 101.7229L178.2465 125.7659zM164.1435 125.7659L164.1435 129.0029L164.1435 129.0029L148.1915 129.0029L148.1915 129.0029L148.1915 101.7229L148.1915 101.7229L164.1435 101.7229L164.1435 101.7229L164.1435 105.1909L164.1435 105.1909L151.6595 105.1909L151.6595 105.1909L151.6595 113.7449L151.6595 113.7449L162.9875 113.7449L162.9875 113.7449L162.9875 116.9809L162.9875 116.9809L151.6595 116.9809L151.6595 116.9809L151.6595 125.7659z" stroke="none" fill="#222426" fill-rule="nonzero" />
		</g>
	</g>
</g>
</svg>