<?xml version="1.0" standalone="no"?>
<!DOCTYPE svg PUBLIC "-//W3C//DTD SVG 1.0//EN" "http://www.w3.org/TR/2001/REC-SVG-20010904/DTD/svg10.dtd">
<svg xmlns="http://www.w3.org/2000/svg" xmlns:xlink="http://www.w3.org/1999/xlink" id="body_1" width="107" height="107">

<defs>
    <clipPath  id="1">

    <path id=""  clip-rule="evenodd" transform="matrix(1 0 0 1 0 0)"  d="M0 80L0 0L0 0L80 0L80 0L80 80L80 80L0 80z" />    </clipPath>
    <clipPath  id="2">

    <path id=""  clip-rule="evenodd" transform="matrix(1 0 0 1 0 0)"  d="M13.251 0C 5.932 0 0 5.932999 0 13.25L0 13.25L0 13.25L0 13.25L0 66.75C 0 74.067 5.932 80 13.251 80L13.251 80L13.251 80L13.251 80L66.75 80C 74.067 80 80 74.067 80 66.75L80 66.75L80 66.75L80 66.75L80 13.25C 80 5.932999 74.067 0 66.75 0L66.75 0L66.75 0z" />    </clipPath>
    <linearGradient gradientUnits="userSpaceOnUse"  transform="matrix(1 0 0 1 0 0)"  id="526" x1="77.04891" y1="4.854197" x2="2.951088" y2="75.14581"><stop stop-color="#CCFEED" offset="0%"/><stop stop-color="#CCFEED" offset="1%"/><stop stop-color="#CCFEED" offset="2%"/><stop stop-color="#CCFEED" offset="3%"/><stop stop-color="#CCFFEE" offset="4%"/><stop stop-color="#CCFFEE" offset="5%"/><stop stop-color="#CCFEEE" offset="6%"/><stop stop-color="#CCFEEE" offset="7%"/><stop stop-color="#CBFDEF" offset="8%"/><stop stop-color="#CBFCEF" offset="9%"/><stop stop-color="#CBFCEF" offset="10%"/><stop stop-color="#CBFCEF" offset="11%"/><stop stop-color="#CBFCEF" offset="12%"/><stop stop-color="#CBFBF0" offset="13%"/><stop stop-color="#CBFBF0" offset="14%"/><stop stop-color="#CAFAF0" offset="15%"/><stop stop-color="#CAFAF0" offset="16%"/><stop stop-color="#CAF9F1" offset="17%"/><stop stop-color="#CAF8F1" offset="18%"/><stop stop-color="#CAF8F1" offset="19%"/><stop stop-color="#CAF7F1" offset="20%"/><stop stop-color="#C9F7F1" offset="21%"/><stop stop-color="#C9F7F1" offset="22%"/><stop stop-color="#C9F6F2" offset="23%"/><stop stop-color="#C9F6F2" offset="24%"/><stop stop-color="#C9F5F2" offset="25%"/><stop stop-color="#C9F5F2" offset="26%"/><stop stop-color="#C9F5F2" offset="27%"/><stop stop-color="#C8F4F3" offset="28%"/><stop stop-color="#C8F4F3" offset="29%"/><stop stop-color="#C8F3F3" offset="30%"/><stop stop-color="#C8F2F3" offset="31%"/><stop stop-color="#C8F2F3" offset="32%"/><stop stop-color="#C8F2F3" offset="33%"/><stop stop-color="#C8F1F4" offset="34%"/><stop stop-color="#C8F1F4" offset="35%"/><stop stop-color="#C7F0F4" offset="36%"/><stop stop-color="#C7F0F4" offset="37%"/><stop stop-color="#C7EFF5" offset="38%"/><stop stop-color="#C7EEF5" offset="39%"/><stop stop-color="#C7EEF5" offset="40%"/><stop stop-color="#C7EEF5" offset="41%"/><stop stop-color="#C7EEF5" offset="42%"/><stop stop-color="#C6EDF5" offset="43%"/><stop stop-color="#C6EDF5" offset="44%"/><stop stop-color="#C6ECF6" offset="45%"/><stop stop-color="#C6EBF6" offset="46%"/><stop stop-color="#C6EBF6" offset="47%"/><stop stop-color="#C6EBF6" offset="48%"/><stop stop-color="#C5EAF7" offset="49%"/><stop stop-color="#C5EAF7" offset="50%"/><stop stop-color="#C5E9F7" offset="51%"/><stop stop-color="#C5E8F7" offset="52%"/><stop stop-color="#C5E8F7" offset="53%"/><stop stop-color="#C5E8F7" offset="54%"/><stop stop-color="#C5E7F8" offset="55%"/><stop stop-color="#C5E7F8" offset="56%"/><stop stop-color="#C4E6F8" offset="57%"/><stop stop-color="#C4E6F8" offset="58%"/><stop stop-color="#C4E5F8" offset="59%"/><stop stop-color="#C4E5F9" offset="60%"/><stop stop-color="#C4E5F9" offset="61%"/><stop stop-color="#C4E4F9" offset="62%"/><stop stop-color="#C4E4F9" offset="63%"/><stop stop-color="#C3E3F9" offset="64%"/><stop stop-color="#C3E3F9" offset="65%"/><stop stop-color="#C3E2FA" offset="66%"/><stop stop-color="#C3E2FA" offset="67%"/><stop stop-color="#C3E1FA" offset="68%"/><stop stop-color="#C3E1FA" offset="69%"/><stop stop-color="#C3E1FA" offset="70%"/><stop stop-color="#C2E0FB" offset="71%"/><stop stop-color="#C2E0FB" offset="72%"/><stop stop-color="#C2DFFB" offset="73%"/><stop stop-color="#C2DFFB" offset="74%"/><stop stop-color="#C2DEFB" offset="75%"/><stop stop-color="#C2DEFB" offset="76%"/><stop stop-color="#C1DDFC" offset="77%"/><stop stop-color="#C1DCFC" offset="78%"/><stop stop-color="#C1DCFC" offset="79%"/><stop stop-color="#C1DBFC" offset="80%"/><stop stop-color="#C1DBFD" offset="81%"/><stop stop-color="#C1DBFD" offset="82%"/><stop stop-color="#C1DAFD" offset="83%"/><stop stop-color="#C0D9FD" offset="84%"/><stop stop-color="#C0D9FD" offset="85%"/><stop stop-color="#C0D9FE" offset="86%"/><stop stop-color="#C0D8FE" offset="87%"/><stop stop-color="#C0D8FE" offset="88%"/><stop stop-color="#C0D7FE" offset="89%"/><stop stop-color="#C0D7FE" offset="90%"/><stop stop-color="#C0D7FE" offset="91%"/><stop stop-color="#BFD6FF" offset="92%"/><stop stop-color="#BFD6FF" offset="93%"/><stop stop-color="#BFD5FE" offset="94%"/><stop stop-color="#BFD5FE" offset="95%"/><stop stop-color="#BFD5FE" offset="96%"/><stop stop-color="#BFD5FE" offset="97%"/><stop stop-color="#BFD5FE" offset="98%"/><stop stop-color="#BFD5FE" offset="99%"/><stop stop-color="#BFD5FE" offset="100%"/>
    </linearGradient>
    <clipPath  id="3">

    <path id=""  clip-rule="evenodd" transform="matrix(1 0 0 1 0 0)"  d="M0 0L80 0L80 0L80 80L80 80L0 80z" />    </clipPath>
</defs>

<g transform="matrix(1.3333 0 0 1.3333 0 0)">
	<g clip-path="url(#1)" >
		<g clip-path="url(#2)" >
			<g>
    <path id=""  transform="matrix(1 0 0 -1 0 80)"  d="M0 -76L80 8L80 8L80 156L80 156L0 72" stroke="none" fill="url(#526)" />
    <path id=""  transform="matrix(1 0 0 -1 0 80)"  d="M0 -75.36683L80 8.965088L80 8.965088L80 0L80 0L0 0" stroke="none" fill="#CCFFEE" fill-rule="evenodd" />
    <path id=""  transform="matrix(1 0 0 -1 0 80)"  d="M0 71.03491L80 155.3668L80 155.3668L80 80L80 80L0 80" stroke="none" fill="#BFD5FF" fill-rule="evenodd" />
			</g>
		</g>
		<g clip-path="url(#3)" >
    <path id=""  transform="matrix(1 0 0 -1 0 80)"  d="M23.9541 57.9369L23.9541 38.7299C 23.9541 28.8589 30.8531 21.4149 40.0001 21.4149C 45.6141 21.4149 50.3811 24.2179 53.2261 28.6649L53.2261 28.6649L53.4991 28.3919M54.1341 28.3799C 54.1391 28.3839 54.1431 28.3879 54.1471 28.3919C 54.2041 28.4489 54.2441 28.5189 54.2641 28.5929C 55.9821 31.4549 56.9611 34.9209 56.9611 38.7299L56.9611 38.7299L56.9611 59.0419C 56.9611 59.2959 56.7561 59.4999 56.5041 59.4999L56.5041 59.4999L23.5031 59.4999M54.1341 28.3799C 51.1471 23.5549 46.0361 20.4999 40.0001 20.4999C 30.3301 20.4999 23.0381 28.3379 23.0381 38.7299L23.0381 38.7299L23.0381 59.0419C 23.0381 59.1609 23.0841 59.2699 23.1581 59.3519L23.1581 59.3519L23.1721 59.3649C 23.2641 59.4569 23.3841 59.5019 23.5031 59.4999C 23.6181 59.4979 23.7331 59.4539 23.8201 59.3649L23.8201 59.3649L24.6011 58.5849L24.6011 58.5849L56.0451 58.5849L56.0451 58.5849L56.0451 38.7299C 56.0451 35.2759 55.2011 32.1189 53.7111 29.4749" stroke="none" fill="#0D5DFE" fill-rule="evenodd" />
		</g>
	</g>
</g>
</svg>