<?xml version="1.0" standalone="no"?>
<!DOCTYPE svg PUBLIC "-//W3C//DTD SVG 1.0//EN" "http://www.w3.org/TR/2001/REC-SVG-20010904/DTD/svg10.dtd">
<svg xmlns="http://www.w3.org/2000/svg" xmlns:xlink="http://www.w3.org/1999/xlink" id="body_1" width="8" height="25">

<defs>
    <clipPath  id="1">

    <path id=""  clip-rule="evenodd" transform="matrix(1 0 0 1 0 0)"  d="M0 19L0 -0.1021004L0 -0.1021004L6.82324 -0.1021004L6.82324 -0.1021004L6.82324 19L6.82324 19L0 19z" />    </clipPath>
    <clipPath  id="2">

    <path id=""  clip-rule="evenodd" transform="matrix(1 0 0 1 0 0)"  d="M0 -0.1019993L6.823 -0.1019993L6.823 -0.1019993L6.823 19L6.823 19L0 19z" />    </clipPath>
</defs>

<g transform="matrix(1.3333 0 0 1.3333 0 0)">
	<g clip-path="url(#1)" >
		<g clip-path="url(#2)" >
    <path id=""  transform="matrix(1 0 0 -1 0 19)"  d="M5.9407 1.615L5.7537 0.8209991C 4.9917 0.5139999 4.3827 0.2999992 3.9277 0.1809998C 3.4717 0.06099892 3.0817 0 2.7597 0C 2.0947 0 1.5987 0.171999 1.2667 0.5170002C 0.9366999 0.8610001 0.7707 1.285 0.7707 1.792C 0.7707 1.983 0.7866998 2.181999 0.8196998 2.389C 0.8526998 2.596 0.9077001 2.858 0.9816999 3.172999L0.9816999 3.172999L2.2947 8.46C 2.3607 8.75 2.4257 9.061999 2.4877 9.394C 2.5487 9.725 2.5797 10.007 2.5797 10.24C 2.5797 10.704 2.5037 11.013 2.3507 11.166C 2.1967 11.32 1.8867 11.397 1.4137 11.397C 1.2317 11.397 0.9896998 11.367 0.6886997 11.31C 0.3867002 11.251 0.1577001 11.201 -0.0002999306 11.16L-0.0002999306 11.16L0.1866999 11.956C 0.8316998 12.245 1.4117 12.461 1.9257 12.602C 2.4387 12.743 2.8447 12.814 3.1417 12.814C 3.8217 12.814 4.3137 12.652 4.6207 12.328C 4.9277 12.005 5.0817 11.57 5.0817 11.022C 5.0817 10.872 5.0637 10.669 5.0307 10.412C 4.9977 10.156 4.9487 9.898 4.8827 9.641L4.8827 9.641L3.5617 4.354C 3.4797 4.03 3.4077 3.712 3.3447 3.401999C 3.2827 3.09 3.2537 2.835 3.2537 2.636C 3.2537 2.163 3.3587 1.84 3.5677 1.665999C 3.7787 1.490999 4.1207 1.404999 4.5917 1.404999C 4.7477 1.404999 4.9717 1.424999 5.2647 1.466999C 5.5577 1.507999 5.7827 1.558 5.9407 1.615M6.8237 17.511C 6.8237 17.039 6.6697 16.626 6.3627 16.275C 6.0557 15.922 5.6757 15.746 5.2197 15.746C 4.7967 15.746 4.4327 15.914 4.1267 16.25C 3.8197 16.585 3.6657 16.968 3.6657 17.4C 3.6657 17.855 3.8197 18.252 4.1267 18.592C 4.4327 18.932 4.7967 19.102 5.2197 19.102C 5.6927 19.102 6.0777 18.943 6.3767 18.623C 6.6737 18.305 6.8237 17.934 6.8237 17.511" stroke="none" fill="#7A8599" fill-rule="nonzero" />
		</g>
	</g>
</g>
</svg>