<?xml version="1.0" encoding="UTF-8"?>
<svg xmlns="http://www.w3.org/2000/svg" xmlns:xlink="http://www.w3.org/1999/xlink" width="368.329pt" height="475.045pt" viewBox="0 0 368.329 475.045" version="1.1">
<defs>
<clipPath id="clip1">
  <path d="M 80 100 L 368 100 L 368 475.046875 L 80 475.046875 Z M 80 100 "/>
</clipPath>
<clipPath id="clip2">
  <path d="M 353 101 L 368.328125 101 L 368.328125 136 L 353 136 Z M 353 101 "/>
</clipPath>
</defs>
<g id="surface1">
<g clip-path="url(#clip1)" clip-rule="nonzero">
<path style=" stroke:none;fill-rule:nonzero;fill:rgb(0%,80.000305%,53.726196%);fill-opacity:1;" d="M 354.578125 102.164062 L 354.324219 100.148438 C 354.324219 100.148438 334.078125 102.289062 332.578125 103.039062 C 331.078125 103.789062 330.371094 127.800781 330.371094 127.800781 L 328.019531 111.136719 C 328.019531 111.136719 314.328125 117.414062 313.828125 118.914062 C 313.328125 120.414062 318.066406 138.195312 318.066406 138.195312 L 311.953125 127.839844 C 311.953125 127.839844 307.828125 131.914062 306.328125 133.539062 C 304.828125 135.164062 316.203125 152.414062 316.203125 152.789062 C 316.203125 153.164062 306.328125 142.804688 306.328125 142.804688 C 306.328125 142.804688 300.953125 149.789062 301.953125 152.289062 C 302.953125 154.789062 323.125 171.914062 323.125 171.914062 L 328.828125 163.914062 C 328.828125 163.914062 327.953125 162.039062 330.023438 153.550781 C 332.089844 145.066406 335.203125 141.726562 336.265625 141.882812 C 337.328125 142.042969 337.429688 146.160156 337.183594 151.289062 C 336.941406 156.417969 337.148438 161.785156 337.242188 162.132812 C 337.335938 162.476562 341.078125 153.289062 341.078125 153.289062 C 341.078125 153.289062 344.453125 143.789062 349.65625 137.980469 C 354.859375 132.179688 360.328125 134.414062 360.328125 134.414062 C 360.328125 134.414062 365.546875 113.714844 367.578125 105.664062 C 364.453125 104.414062 354.578125 102.164062 354.578125 102.164062 M 237.039062 366.5625 C 229 360.210938 213.414062 344.078125 213.414062 344.078125 C 213.414062 344.078125 211.183594 345.425781 206.03125 349.1875 C 197.507812 355.417969 170.660156 373.957031 168.414062 375.078125 C 166.164062 376.199219 161.890625 369.890625 156.867188 364.128906 C 127.660156 396.097656 100.328125 398.164062 94.328125 400.414062 C 88.328125 402.664062 81.230469 447.171875 81.078125 448.664062 C 78.828125 470.664062 100.078125 471.914062 130.078125 474.664062 C 160.078125 477.414062 203.203125 465.164062 221.578125 443.664062 C 239.953125 422.164062 243.785156 372.394531 243.785156 372.394531 C 243.785156 372.394531 242.378906 370.921875 237.039062 366.5625 "/>
</g>
<path style="fill:none;stroke-width:1.5;stroke-linecap:round;stroke-linejoin:round;stroke:rgb(13.33313%,14.117432%,14.901733%);stroke-opacity:1;stroke-miterlimit:10;" d="M 0.0012625 -0.0017625 C 0.0012625 -0.0017625 -25.666706 -55.833794 -49.666706 -47.833794 C -68.998738 -41.165825 -72.998738 -20.333794 -72.166706 -7.501762 " transform="matrix(1,0,0,-1,289.9128,61.4123)"/>
<path style="fill:none;stroke-width:1.5;stroke-linecap:round;stroke-linejoin:round;stroke:rgb(13.33313%,14.117432%,14.901733%);stroke-opacity:1;stroke-miterlimit:10;" d="M -0.001175 -0.0017625 C -0.001175 -0.0017625 0.186325 2.189644 3.936325 2.939644 " transform="matrix(1,0,0,-1,217.0168,59.3498)"/>
<path style="fill:none;stroke-width:1.5;stroke-linecap:round;stroke-linejoin:round;stroke:rgb(13.33313%,14.117432%,14.901733%);stroke-opacity:1;stroke-miterlimit:10;" d="M -0.001175 -0.0017625 C 0.436325 -0.251762 4.498825 -4.060356 4.373825 -9.001762 " transform="matrix(1,0,0,-1,217.7668,49.9748)"/>
<path style=" stroke:none;fill-rule:nonzero;fill:rgb(13.33313%,14.117432%,14.901733%);fill-opacity:1;" d="M 282.433594 37.09375 C 282.347656 37.433594 282.039062 37.660156 281.703125 37.660156 C 281.644531 37.660156 281.585938 37.65625 281.523438 37.640625 C 281.121094 37.539062 280.875 37.132812 280.976562 36.730469 C 281.121094 36.144531 284.324219 22.273438 267.179688 15.484375 C 266.792969 15.332031 266.605469 14.898438 266.757812 14.511719 C 266.910156 14.125 267.347656 13.9375 267.730469 14.089844 C 286.128906 21.371094 282.472656 36.9375 282.433594 37.09375 M 299.785156 29.398438 C 294.523438 27.390625 290.4375 28.550781 290.171875 28.628906 C 289.773438 28.746094 289.355469 28.527344 289.238281 28.128906 C 289.117188 27.734375 289.339844 27.316406 289.734375 27.195312 C 289.792969 27.175781 293.082031 26.226562 297.621094 27.242188 C 285.707031 5.242188 271.121094 -1.890625 248.414062 0.414062 C 216.789062 3.546875 211.953125 18.84375 211.214844 23.226562 C 213.445312 22.40625 215.003906 21.734375 215.03125 21.722656 C 215.414062 21.558594 215.855469 21.734375 216.019531 22.113281 C 216.183594 22.496094 216.007812 22.9375 215.625 23.101562 C 215.585938 23.117188 211.816406 24.738281 207.53125 26.0625 C 203.03125 28.25 194.910156 32.488281 187.078125 38.078125 C 178.261719 44.378906 177.628906 53.347656 177.128906 63.972656 C 178.117188 77.238281 175.414062 83.203125 172.890625 85.867188 C 171.589844 87.238281 169.992188 88.039062 168.585938 88.039062 C 168.53125 88.039062 168.476562 88.039062 168.417969 88.035156 C 168.007812 88.015625 167.6875 87.667969 167.703125 87.253906 C 167.722656 86.839844 168.066406 86.515625 168.488281 86.539062 C 169.277344 86.566406 170.558594 86.144531 171.800781 84.835938 C 173.058594 83.507812 174.769531 80.71875 175.492188 75.101562 C 146.066406 86.605469 161.078125 111.746094 161.078125 111.746094 C 161.078125 111.746094 170.746094 109.078125 184.078125 105.414062 C 213.414062 97.414062 217.078125 75.078125 218.746094 68.414062 C 213.332031 66.820312 211.578125 60.660156 212.59375 53.429688 C 212.136719 53.4375 211.683594 53.445312 211.210938 53.445312 C 208.429688 53.445312 205.40625 53.300781 202.242188 52.933594 C 201.832031 52.882812 201.535156 52.511719 201.582031 52.097656 C 201.632812 51.6875 202.007812 51.398438 202.417969 51.441406 C 209.589844 52.285156 216.035156 51.996094 220.515625 51.410156 C 222 51.21875 223.445312 50.972656 224.835938 50.699219 C 225.710938 52.523438 226.574219 55.023438 226.746094 57.746094 C 229.765625 56.488281 233.726562 52.953125 234.847656 47.929688 C 235.667969 47.625 236.378906 47.335938 236.941406 47.078125 C 245.144531 43.335938 250.949219 38.40625 254.78125 34.980469 C 251.65625 34.359375 247.738281 33.914062 242.808594 33.785156 C 242.394531 33.777344 242.070312 33.429688 242.078125 33.015625 C 242.089844 32.601562 242.449219 32.242188 242.847656 32.289062 C 256.589844 32.640625 262.953125 35.460938 265.90625 37.953125 C 272.230469 41.554688 277.664062 46.78125 278.746094 48.078125 C 278.746094 48.078125 281.917969 47.472656 285.855469 47.507812 C 288.59375 47.226562 292.144531 47.382812 295.871094 48.972656 C 298.199219 50.085938 299 51.246094 299.269531 52.03125 C 299.441406 52.527344 299.433594 53.003906 299.25 53.371094 C 299.117188 53.636719 298.855469 53.789062 298.578125 53.789062 C 298.464844 53.789062 298.351562 53.761719 298.242188 53.707031 C 297.871094 53.523438 297.722656 53.074219 297.910156 52.703125 C 297.929688 52.535156 297.574219 51.449219 295.253906 50.339844 C 294.679688 50.09375 294.105469 49.898438 293.535156 49.71875 C 291.617188 54.679688 287.414062 65.414062 287.414062 65.414062 C 287.414062 65.414062 299.746094 62.746094 305.414062 58.746094 C 310.863281 54.898438 313.527344 40.570312 299.785156 29.398438 "/>
<path style="fill:none;stroke-width:1.5;stroke-linecap:round;stroke-linejoin:round;stroke:rgb(13.33313%,14.117432%,14.901733%);stroke-opacity:1;stroke-miterlimit:10;" d="M 0.0012625 -0.00029375 C -0.166706 0.667675 0.501262 12.667675 -17.498738 7.831738 " transform="matrix(1,0,0,-1,265.4128,60.7458)"/>
<path style="fill:none;stroke-width:1.5;stroke-linecap:round;stroke-linejoin:round;stroke:rgb(13.33313%,14.117432%,14.901733%);stroke-opacity:1;stroke-miterlimit:10;" d="M 0.0012625 -0.00029375 C 0.501262 0.167675 11.165325 1.331738 13.165325 -0.832325 " transform="matrix(1,0,0,-1,269.9128,68.2458)"/>
<path style=" stroke:none;fill-rule:nonzero;fill:rgb(13.33313%,14.117432%,14.901733%);fill-opacity:1;" d="M 256.585938 64.867188 C 255.769531 67.125 253.84375 68.503906 252.285156 67.9375 C 250.726562 67.375 250.125 65.085938 250.941406 62.824219 C 251.757812 60.566406 253.683594 59.191406 255.242188 59.753906 C 256.800781 60.316406 257.402344 62.605469 256.585938 64.867188 "/>
<path style=" stroke:none;fill-rule:nonzero;fill:rgb(13.33313%,14.117432%,14.901733%);fill-opacity:1;" d="M 274.941406 76.054688 C 274.125 78.3125 272.199219 79.6875 270.640625 79.125 C 269.082031 78.5625 268.480469 76.273438 269.296875 74.011719 C 270.113281 71.753906 272.039062 70.378906 273.597656 70.941406 C 275.15625 71.503906 275.757812 73.792969 274.941406 76.054688 "/>
<path style="fill:none;stroke-width:1.5;stroke-linecap:round;stroke-linejoin:round;stroke:rgb(13.33313%,14.117432%,14.901733%);stroke-opacity:1;stroke-miterlimit:10;" d="M 0.0012625 0.000675 C -0.166706 -0.499325 0.0012625 -9.499325 0.0012625 -9.499325 C 0.0012625 -9.499325 -5.334675 -11.167294 -9.666706 -7.331356 " transform="matrix(1,0,0,-1,264.4128,78.5788)"/>
<path style="fill:none;stroke-width:1.5;stroke-linecap:round;stroke-linejoin:round;stroke:rgb(13.33313%,14.117432%,14.901733%);stroke-opacity:1;stroke-miterlimit:10;" d="M 0.00029375 -0.00029375 C 0.00029375 -0.00029375 -6.999706 1.831738 -4.831737 13.167675 " transform="matrix(1,0,0,-1,247.2458,95.7458)"/>
<path style="fill:none;stroke-width:1.5;stroke-linecap:round;stroke-linejoin:round;stroke:rgb(13.33313%,14.117432%,14.901733%);stroke-opacity:1;stroke-miterlimit:10;" d="M 0.00029375 -0.00029375 C 0.00029375 -0.00029375 3.500294 0.331738 4.832325 -0.168262 " transform="matrix(1,0,0,-1,239.7458,81.7458)"/>
<path style="fill:none;stroke-width:1.5;stroke-linecap:round;stroke-linejoin:round;stroke:rgb(13.33313%,14.117432%,14.901733%);stroke-opacity:1;stroke-miterlimit:10;" d="M -0.001175 -0.0017625 C -5.751175 -28.001762 10.998825 -43.001762 10.998825 -43.001762 C 10.998825 -43.001762 14.748825 -34.001762 21.498825 -26.251762 C 21.498825 -26.251762 30.748825 -33.251762 34.248825 -48.001762 C 44.248825 -42.501762 48.498825 -27.751762 48.498825 -27.751762 C 48.498825 -27.751762 52.748825 -27.853325 52.998825 -38.001762 " transform="matrix(1,0,0,-1,185.5793,103.4123)"/>
<path style="fill:none;stroke-width:1.5;stroke-linecap:round;stroke-linejoin:round;stroke:rgb(13.33313%,14.117432%,14.901733%);stroke-opacity:1;stroke-miterlimit:10;" d="M -0.001175 -0.0017625 C -0.001175 -0.0017625 -2.751175 -13.001762 11.248825 -30.251762 " transform="matrix(1,0,0,-1,195.8293,99.4123)"/>
<path style="fill:none;stroke-width:1.5;stroke-linecap:round;stroke-linejoin:round;stroke:rgb(13.33313%,14.117432%,14.901733%);stroke-opacity:1;stroke-miterlimit:10;" d="M 0.00029375 -0.00029375 C 0.00029375 -0.00029375 -3.331737 11.331738 5.168263 23.331738 " transform="matrix(1,0,0,-1,230.7458,130.2458)"/>
<path style="fill:none;stroke-width:1.5;stroke-linecap:round;stroke-linejoin:round;stroke:rgb(13.33313%,14.117432%,14.901733%);stroke-opacity:1;stroke-miterlimit:10;" d="M 0.00029375 -0.00029375 C 21.832325 -17.168262 7.500294 -34.500294 7.168263 -35.168262 " transform="matrix(1,0,0,-1,230.7458,117.7458)"/>
<path style="fill:none;stroke-width:1.5;stroke-linecap:round;stroke-linejoin:round;stroke:rgb(13.33313%,14.117432%,14.901733%);stroke-opacity:1;stroke-miterlimit:10;" d="M -0.001175 -0.0017625 C -0.001175 -0.0017625 8.916794 -34.333794 10.248825 -42.001762 C 11.584762 -49.665825 8.916794 -80.665825 0.916794 -107.665825 C -7.083206 -134.665825 -4.083206 -190.665825 -4.083206 -190.665825 C -4.083206 -190.665825 -48.415238 -223.333794 -51.415238 -223.665825 C -54.415238 -224.001762 -66.751175 -208.001762 -66.751175 -208.001762 " transform="matrix(1,0,0,-1,219.8293,151.4123)"/>
<path style="fill:none;stroke-width:1.5;stroke-linecap:round;stroke-linejoin:round;stroke:rgb(13.33313%,14.117432%,14.901733%);stroke-opacity:1;stroke-miterlimit:10;" d="M 0.0012625 0.000675 C 2.333294 -3.667294 28.333294 -27.331356 30.333294 -27.667294 C 30.333294 -27.667294 32.665325 -12.667294 32.001262 -10.331356 C 31.333294 -7.999325 17.001262 34.668644 17.001262 39.332706 " transform="matrix(1,0,0,-1,213.4128,344.0788)"/>
<path style="fill:none;stroke-width:1.5;stroke-linecap:round;stroke-linejoin:round;stroke:rgb(13.33313%,14.117432%,14.901733%);stroke-opacity:1;stroke-miterlimit:10;" d="M -0.001175 -0.0017625 C -0.001175 -0.0017625 16.998825 61.666206 22.666794 72.998238 C 28.334763 84.334175 33.666794 86.334175 28.666794 102.998238 C 23.666794 119.666206 23.334763 122.666206 23.334763 122.666206 " transform="matrix(1,0,0,-1,230.0793,295.4123)"/>
<path style="fill:none;stroke-width:1.5;stroke-linecap:round;stroke-linejoin:round;stroke:rgb(13.33313%,14.117432%,14.901733%);stroke-opacity:1;stroke-miterlimit:10;" d="M 0.0012625 -0.00029375 C 0.0012625 -0.00029375 10.001262 -9.668262 11.665325 -13.332325 C 13.333294 -17.000294 29.415325 -69.918262 36.001262 -98.000294 " transform="matrix(1,0,0,-1,243.4128,139.7458)"/>
<path style="fill:none;stroke-width:1.5;stroke-linecap:round;stroke-linejoin:round;stroke:rgb(13.33313%,14.117432%,14.901733%);stroke-opacity:1;stroke-miterlimit:10;" d="M -0.001175 -0.0017625 C -0.001175 -0.0017625 3.498825 6.248238 18.498825 5.748238 " transform="matrix(1,0,0,-1,263.5793,255.9123)"/>
<path style="fill:none;stroke-width:1.5;stroke-linecap:round;stroke-linejoin:round;stroke:rgb(13.33313%,14.117432%,14.901733%);stroke-opacity:1;stroke-miterlimit:10;" d="M -0.001175 -0.0017625 C 0.248825 0.748238 1.248825 7.998238 11.748825 10.248238 " transform="matrix(1,0,0,-1,267.0793,267.9123)"/>
<path style="fill:none;stroke-width:1.5;stroke-linecap:round;stroke-linejoin:round;stroke:rgb(13.33313%,14.117432%,14.901733%);stroke-opacity:1;stroke-miterlimit:10;" d="M -0.001175 -0.0017625 C -0.001175 -0.0017625 6.748825 18.998238 10.498825 24.498238 C 13.248825 15.998238 28.998825 6.248238 38.248825 4.998238 C 47.498825 3.748238 47.998825 5.748238 47.998825 5.748238 C 47.998825 5.748238 48.248825 -21.001762 39.248825 -28.751762 C 34.498825 -31.501762 8.748825 -29.251762 -0.001175 -0.0017625 Z M -0.001175 -0.0017625 " transform="matrix(1,0,0,-1,275.5793,266.9123)"/>
<path style="fill:none;stroke-width:1.5;stroke-linecap:round;stroke-linejoin:round;stroke:rgb(13.33313%,14.117432%,14.901733%);stroke-opacity:1;stroke-miterlimit:10;" d="M -0.001175 -0.0017625 C -7.001175 -13.751763 -18.001175 -15.501763 -22.501175 -15.251763 C -22.501175 -15.251763 -53.001175 2.998237 -69.251175 42.998237 " transform="matrix(1,0,0,-1,311.0793,296.6623)"/>
<path style="fill:none;stroke-width:1.5;stroke-linecap:round;stroke-linejoin:round;stroke:rgb(13.33313%,14.117432%,14.901733%);stroke-opacity:1;stroke-miterlimit:10;" d="M -0.001175 -0.0017625 C -0.001175 -0.0017625 27.998825 46.498238 32.748825 51.998238 C 33.248825 62.498238 35.248825 70.248238 42.748825 78.498238 C 43.248825 89.248238 45.498825 97.498238 49.498825 100.248238 C 53.498825 102.998238 49.498825 84.748238 51.248825 79.998238 C 58.248825 95.998238 61.748825 106.498238 69.748825 108.248238 C 77.748825 109.998238 73.998825 101.748238 72.998825 95.998238 C 71.998825 90.248238 68.748825 72.998238 67.748825 70.748238 C 66.748825 68.498238 52.748825 47.998238 51.998825 44.998238 C 51.248825 41.998238 43.498825 10.748238 37.498825 -18.751762 " transform="matrix(1,0,0,-1,286.0793,242.4123)"/>
<path style="fill:none;stroke-width:1.5;stroke-linecap:round;stroke-linejoin:round;stroke:rgb(13.33313%,14.117432%,14.901733%);stroke-opacity:1;stroke-miterlimit:10;" d="M -0.001175 -0.0017625 C -0.001175 -0.0017625 -1.001175 27.748238 -1.751175 37.748238 C -7.751175 37.998238 -28.751175 35.248238 -29.501175 34.998238 L -23.751175 -5.751762 " transform="matrix(1,0,0,-1,355.8293,134.1623)"/>
<g clip-path="url(#clip2)" clip-rule="nonzero">
<path style="fill:none;stroke-width:1.5;stroke-linecap:round;stroke-linejoin:round;stroke:rgb(13.33313%,14.117432%,14.901733%);stroke-opacity:1;stroke-miterlimit:10;" d="M -0.001175 -0.0017625 L 7.248825 28.748238 C 7.248825 28.748238 2.748825 30.998238 -5.751175 32.248238 " transform="matrix(1,0,0,-1,360.3293,134.4123)"/>
</g>
<path style="fill:none;stroke-width:1.5;stroke-linecap:round;stroke-linejoin:round;stroke:rgb(13.33313%,14.117432%,14.901733%);stroke-opacity:1;stroke-miterlimit:10;" d="M -0.001175 -0.0017625 C -13.751175 -3.251762 -20.751175 -11.251762 -20.751175 -11.251762 C -20.751175 -11.251762 -3.751175 -40.751762 -1.001175 -44.001762 " transform="matrix(1,0,0,-1,327.0793,106.9123)"/>
<path style="fill:none;stroke-width:1.5;stroke-linecap:round;stroke-linejoin:round;stroke:rgb(13.33313%,14.117432%,14.901733%);stroke-opacity:1;stroke-miterlimit:10;" d="M -0.001175 -0.0017625 C -6.751175 -3.251762 -11.501175 -9.501762 -11.501175 -9.501762 L 14.748825 -36.251762 " transform="matrix(1,0,0,-1,310.3293,125.6623)"/>
<path style="fill:none;stroke-width:1.5;stroke-linecap:round;stroke-linejoin:round;stroke:rgb(13.33313%,14.117432%,14.901733%);stroke-opacity:1;stroke-miterlimit:10;" d="M -0.001175 -0.0017625 C -2.251175 1.748238 -22.501175 14.248238 -27.001175 20.248238 C -22.751175 25.748238 -17.501175 30.498238 -17.501175 30.498238 " transform="matrix(1,0,0,-1,322.5793,171.9123)"/>
<path style="fill:none;stroke-width:1.5;stroke-linecap:round;stroke-linejoin:round;stroke:rgb(13.33313%,14.117432%,14.901733%);stroke-opacity:1;stroke-miterlimit:10;" d="M 0.00029375 -0.00029375 C 0.00029375 -0.00029375 2.832325 -42.668262 -7.667675 -63.668262 " transform="matrix(1,0,0,-1,243.7458,371.7458)"/>
<path style="fill:none;stroke-width:1.5;stroke-linecap:round;stroke-linejoin:round;stroke:rgb(13.33313%,14.117432%,14.901733%);stroke-opacity:1;stroke-miterlimit:10;" d="M -0.001175 -0.0017625 C -0.001175 -0.0017625 -10.501175 -34.501762 -11.501175 -55.501762 " transform="matrix(1,0,0,-1,84.5793,390.9123)"/>
<path style="fill:none;stroke-width:1.5;stroke-linecap:round;stroke-linejoin:round;stroke:rgb(13.33313%,14.117432%,14.901733%);stroke-opacity:1;stroke-miterlimit:10;" d="M -0.001175 -0.0017625 C -0.001175 -0.0017625 11.666794 5.834175 22.498825 8.834175 " transform="matrix(1,0,0,-1,140.0793,119.4123)"/>
<path style=" stroke:none;fill-rule:nonzero;fill:rgb(10.588074%,39.99939%,100%);fill-opacity:1;" d="M 204.027344 168.070312 C 204.007812 164.613281 201.605469 161.730469 198.433594 161.324219 C 161.917969 156.671875 153.738281 138.824219 151.910156 130.605469 C 151.320312 127.949219 149.300781 125.953125 146.820312 125.464844 C 138.832031 123.890625 121.808594 120.910156 107.542969 120.910156 L 96.539062 120.910156 C 82.269531 120.910156 65.25 123.890625 57.257812 125.464844 C 54.777344 125.953125 52.757812 127.949219 52.167969 130.605469 C 50.34375 138.824219 42.160156 156.671875 5.644531 161.324219 C 2.476562 161.730469 0.0703125 164.613281 0.0507812 168.070312 C -0.253906 222.859375 -2.246094 352.800781 101.980469 389.875 L 102.003906 389.910156 C 102.015625 389.90625 102.027344 389.902344 102.039062 389.898438 C 102.050781 389.902344 102.0625 389.90625 102.078125 389.910156 L 102.074219 389.886719 C 206.324219 352.820312 204.332031 222.863281 204.027344 168.070312 "/>
<path style=" stroke:none;fill-rule:nonzero;fill:rgb(100%,100%,100%);fill-opacity:1;" d="M 167.039062 247.914062 C 167.039062 283.808594 137.9375 312.914062 102.039062 312.914062 C 66.140625 312.914062 37.039062 283.808594 37.039062 247.914062 C 37.039062 212.015625 66.140625 182.914062 102.039062 182.914062 C 137.9375 182.914062 167.039062 212.015625 167.039062 247.914062 "/>
<path style=" stroke:none;fill-rule:nonzero;fill:rgb(81.96106%,12.548828%,18.823242%);fill-opacity:1;" d="M 149.414062 264.0625 L 133.484375 237.105469 C 132.941406 236.179688 131.605469 236.179688 131.0625 237.105469 L 125.832031 246.171875 C 125.417969 246.882812 125.414062 247.761719 125.824219 248.472656 L 135.5 265.039062 C 135.910156 265.746094 136.664062 266.179688 137.476562 266.179688 L 148.203125 266.179688 C 149.289062 266.179688 149.964844 265 149.414062 264.0625 M 79.707031 247.75 L 73.183594 236.632812 C 72.640625 235.710938 71.304688 235.710938 70.761719 236.632812 L 54.664062 264.0625 C 54.113281 265 54.789062 266.179688 55.875 266.179688 L 69.082031 266.179688 C 69.894531 266.179688 70.648438 265.746094 71.058594 265.039062 L 79.714844 250.050781 C 80.125 249.335938 80.125 248.460938 79.707031 247.75 M 112.175781 251.996094 L 108.433594 251.996094 L 108.433594 247.941406 C 108.433594 246.804688 107.511719 245.882812 106.375 245.882812 L 100.386719 245.882812 C 99.25 245.882812 98.328125 246.804688 98.328125 247.941406 L 98.328125 251.996094 L 94.585938 251.996094 L 94.585938 247.941406 C 94.585938 244.738281 97.183594 242.140625 100.386719 242.140625 L 106.375 242.140625 C 109.578125 242.140625 112.175781 244.738281 112.175781 247.941406 Z M 104.351562 215.875 C 103.921875 215.125 102.839844 215.125 102.40625 215.875 L 74.324219 264.496094 C 73.890625 265.242188 74.433594 266.179688 75.296875 266.179688 L 92.089844 266.179688 L 92.089844 255.402344 C 92.089844 254.417969 92.886719 253.617188 93.875 253.617188 L 112.886719 253.617188 C 113.875 253.617188 114.671875 254.417969 114.671875 255.402344 L 114.671875 258.046875 L 111.503906 258.046875 L 111.503906 259.917969 L 114.671875 259.917969 L 114.671875 261.976562 L 111.503906 261.976562 L 111.503906 263.851562 L 114.671875 263.851562 L 114.671875 266.179688 L 131.464844 266.179688 C 132.328125 266.179688 132.871094 265.242188 132.4375 264.496094 Z M 104.351562 215.875 "/>
</g>
</svg>
