<?xml version="1.0" encoding="UTF-8" standalone="no"?>
<!DOCTYPE svg PUBLIC "-//W3C//DTD SVG 1.1//EN" "http://www.w3.org/Graphics/SVG/1.1/DTD/svg11.dtd">
<svg xmlns="http://www.w3.org/2000/svg" xmlns:xlink="http://www.w3.org/1999/xlink" version="1.1" width="19.128pt" height="19.128pt" viewBox="0 0 19.128 19.128">
<g enable-background="new">
<g>
<g id="Layer-1" data-name="Layer">
<clipPath id="cp0">
<path transform="matrix(1,0,0,-1,0,19.128)" d="M 0 19.128 L 19.128 19.128 L 19.128 0 L 0 0 Z "/>
</clipPath>
<g clip-path="url(#cp0)">
<path transform="matrix(1,0,0,-1,18.3781,9.5638)" stroke-width="1.5" stroke-linecap="butt" stroke-miterlimit="10" stroke-linejoin="miter" fill="none" stroke="#757c8a" d="M 0 0 C 0 -4.868 -3.946 -8.814 -8.814 -8.814 C -13.682 -8.814 -17.628 -4.868 -17.628 0 C -17.628 4.868 -13.682 8.814 -8.814 8.814 C -3.946 8.814 0 4.868 0 0 Z "/>
<path transform="matrix(1,0,0,-1,6.6261,8.2328009)" stroke-width="1.5" stroke-linecap="butt" stroke-miterlimit="10" stroke-linejoin="miter" fill="none" stroke="#757c8a" d="M 0 0 L 2.938 -2.663 L 5.876 0 "/>
</g>
</g>
</g>
</g>
</svg>
