<?xml version="1.0" standalone="no"?>
<!DOCTYPE svg PUBLIC "-//W3C//DTD SVG 1.0//EN" "http://www.w3.org/TR/2001/REC-SVG-20010904/DTD/svg10.dtd">
<svg xmlns="http://www.w3.org/2000/svg" xmlns:xlink="http://www.w3.org/1999/xlink" id="body_1" width="16" height="9">

<defs>
    <clipPath  id="1">

    <path id=""  clip-rule="evenodd" transform="matrix(1 0 0 1 0 0)"  d="M0 7L0 -0.06064987L0 -0.06064987L12.7071 -0.06064987L12.7071 -0.06064987L12.7071 7L12.7071 7L0 7z" />    </clipPath>
    <clipPath  id="2">

    <path id=""  clip-rule="evenodd" transform="matrix(1 0 0 1 0 0)"  d="M0 -0.06099987L12.707 -0.06099987L12.707 -0.06099987L12.707 7L12.707 7L0 7z" />    </clipPath>
</defs>

<g transform="matrix(1.3333 0 0 1.3333 0 0)">
	<g clip-path="url(#1)" >
		<g clip-path="url(#2)" >
    <path id=""  transform="matrix(1 0 0 -1 0 7)"  d="M12.3539 6.7069L6.3539 0.7069001L6.3539 0.7069001L0.3539 6.7069" stroke="#747B88" stroke-width="1" fill="none" />
		</g>
	</g>
</g>
</svg>