<?xml version="1.0" standalone="no"?>
<!DOCTYPE svg PUBLIC "-//W3C//DTD SVG 1.0//EN" "http://www.w3.org/TR/2001/REC-SVG-20010904/DTD/svg10.dtd">
<svg xmlns="http://www.w3.org/2000/svg" xmlns:xlink="http://www.w3.org/1999/xlink" id="body_1" width="107" height="107">

<defs>
    <clipPath  id="1">

    <path id=""  clip-rule="evenodd" transform="matrix(1 0 0 1 0 0)"  d="M0 80L0 0L0 0L80 0L80 0L80 80L80 80L0 80z" />    </clipPath>
    <clipPath  id="2">

    <path id=""  clip-rule="evenodd" transform="matrix(1 0 0 1 0 0)"  d="M13.25 0C 5.933 0 0 5.932999 0 13.25L0 13.25L0 13.25L0 13.25L0 66.75C 0 74.067 5.933 80 13.25 80L13.25 80L13.25 80L13.25 80L66.75 80C 74.067 80 80 74.067 80 66.75L80 66.75L80 66.75L80 66.75L80 13.25C 80 5.932999 74.067 0 66.75 0L66.75 0L66.75 0z" />    </clipPath>
    <linearGradient gradientUnits="userSpaceOnUse"  transform="matrix(1 0 0 1 0 0)"  id="521" x1="77.04891" y1="4.854197" x2="2.951088" y2="75.14581"><stop stop-color="#CCFEED" offset="0%"/><stop stop-color="#CCFEED" offset="1%"/><stop stop-color="#CCFEED" offset="2%"/><stop stop-color="#CCFEED" offset="3%"/><stop stop-color="#CCFFEE" offset="4%"/><stop stop-color="#CCFFEE" offset="5%"/><stop stop-color="#CCFEEE" offset="6%"/><stop stop-color="#CCFEEE" offset="7%"/><stop stop-color="#CBFDEF" offset="8%"/><stop stop-color="#CBFCEF" offset="9%"/><stop stop-color="#CBFCEF" offset="10%"/><stop stop-color="#CBFCEF" offset="11%"/><stop stop-color="#CBFCEF" offset="12%"/><stop stop-color="#CBFBF0" offset="13%"/><stop stop-color="#CBFBF0" offset="14%"/><stop stop-color="#CAFAF0" offset="15%"/><stop stop-color="#CAFAF0" offset="16%"/><stop stop-color="#CAF9F1" offset="17%"/><stop stop-color="#CAF8F1" offset="18%"/><stop stop-color="#CAF8F1" offset="19%"/><stop stop-color="#CAF7F1" offset="20%"/><stop stop-color="#C9F7F1" offset="21%"/><stop stop-color="#C9F7F1" offset="22%"/><stop stop-color="#C9F6F2" offset="23%"/><stop stop-color="#C9F6F2" offset="24%"/><stop stop-color="#C9F5F2" offset="25%"/><stop stop-color="#C9F5F2" offset="26%"/><stop stop-color="#C9F5F2" offset="27%"/><stop stop-color="#C8F4F3" offset="28%"/><stop stop-color="#C8F4F3" offset="29%"/><stop stop-color="#C8F3F3" offset="30%"/><stop stop-color="#C8F2F3" offset="31%"/><stop stop-color="#C8F2F3" offset="32%"/><stop stop-color="#C8F2F3" offset="33%"/><stop stop-color="#C8F1F4" offset="34%"/><stop stop-color="#C8F1F4" offset="35%"/><stop stop-color="#C7F0F4" offset="36%"/><stop stop-color="#C7F0F4" offset="37%"/><stop stop-color="#C7EFF5" offset="38%"/><stop stop-color="#C7EEF5" offset="39%"/><stop stop-color="#C7EEF5" offset="40%"/><stop stop-color="#C7EEF5" offset="41%"/><stop stop-color="#C7EEF5" offset="42%"/><stop stop-color="#C6EDF5" offset="43%"/><stop stop-color="#C6EDF5" offset="44%"/><stop stop-color="#C6ECF6" offset="45%"/><stop stop-color="#C6EBF6" offset="46%"/><stop stop-color="#C6EBF6" offset="47%"/><stop stop-color="#C6EBF6" offset="48%"/><stop stop-color="#C5EAF7" offset="49%"/><stop stop-color="#C5EAF7" offset="50%"/><stop stop-color="#C5E9F7" offset="51%"/><stop stop-color="#C5E8F7" offset="52%"/><stop stop-color="#C5E8F7" offset="53%"/><stop stop-color="#C5E8F7" offset="54%"/><stop stop-color="#C5E7F8" offset="55%"/><stop stop-color="#C5E7F8" offset="56%"/><stop stop-color="#C4E6F8" offset="57%"/><stop stop-color="#C4E6F8" offset="58%"/><stop stop-color="#C4E5F8" offset="59%"/><stop stop-color="#C4E5F9" offset="60%"/><stop stop-color="#C4E5F9" offset="61%"/><stop stop-color="#C4E4F9" offset="62%"/><stop stop-color="#C4E4F9" offset="63%"/><stop stop-color="#C3E3F9" offset="64%"/><stop stop-color="#C3E3F9" offset="65%"/><stop stop-color="#C3E2FA" offset="66%"/><stop stop-color="#C3E2FA" offset="67%"/><stop stop-color="#C3E1FA" offset="68%"/><stop stop-color="#C3E1FA" offset="69%"/><stop stop-color="#C3E1FA" offset="70%"/><stop stop-color="#C2E0FB" offset="71%"/><stop stop-color="#C2E0FB" offset="72%"/><stop stop-color="#C2DFFB" offset="73%"/><stop stop-color="#C2DFFB" offset="74%"/><stop stop-color="#C2DEFB" offset="75%"/><stop stop-color="#C2DEFB" offset="76%"/><stop stop-color="#C1DDFC" offset="77%"/><stop stop-color="#C1DCFC" offset="78%"/><stop stop-color="#C1DCFC" offset="79%"/><stop stop-color="#C1DBFC" offset="80%"/><stop stop-color="#C1DBFD" offset="81%"/><stop stop-color="#C1DBFD" offset="82%"/><stop stop-color="#C1DAFD" offset="83%"/><stop stop-color="#C0D9FD" offset="84%"/><stop stop-color="#C0D9FD" offset="85%"/><stop stop-color="#C0D9FE" offset="86%"/><stop stop-color="#C0D8FE" offset="87%"/><stop stop-color="#C0D8FE" offset="88%"/><stop stop-color="#C0D7FE" offset="89%"/><stop stop-color="#C0D7FE" offset="90%"/><stop stop-color="#C0D7FE" offset="91%"/><stop stop-color="#BFD6FF" offset="92%"/><stop stop-color="#BFD6FF" offset="93%"/><stop stop-color="#BFD5FE" offset="94%"/><stop stop-color="#BFD5FE" offset="95%"/><stop stop-color="#BFD5FE" offset="96%"/><stop stop-color="#BFD5FE" offset="97%"/><stop stop-color="#BFD5FE" offset="98%"/><stop stop-color="#BFD5FE" offset="99%"/><stop stop-color="#BFD5FE" offset="100%"/>
    </linearGradient>
    <clipPath  id="3">

    <path id=""  clip-rule="evenodd" transform="matrix(1 0 0 1 0 0)"  d="M0 0L80 0L80 0L80 80L80 80L0 80z" />    </clipPath>
</defs>

<g transform="matrix(1.3333 0 0 1.3333 0 0)">
	<g clip-path="url(#1)" >
		<g clip-path="url(#2)" >
			<g>
    <path id=""  transform="matrix(1 0 0 -1 0 80)"  d="M0 -76L80 8L80 8L80 156L80 156L0 72" stroke="none" fill="url(#521)" />
    <path id=""  transform="matrix(1 0 0 -1 0 80)"  d="M0 -75.36683L80 8.965088L80 8.965088L80 0L80 0L0 0" stroke="none" fill="#CCFFEE" fill-rule="evenodd" />
    <path id=""  transform="matrix(1 0 0 -1 0 80)"  d="M0 71.03491L80 155.3668L80 155.3668L80 80L80 80L0 80" stroke="none" fill="#BFD5FF" fill-rule="evenodd" />
			</g>
		</g>
		<g clip-path="url(#3)" >
    <path id=""  transform="matrix(1 0 0 -1 0 80)"  d="M56.574 43.3606L23.426 43.3606L23.426 43.3606L23.426 44.2776L23.426 44.2776L56.574 44.2776zM25.976 40.4586C 25.722 40.4586 25.517 40.2526 25.517 40.0006L25.517 40.0006L25.517 32.3636C 25.517 32.1106 25.722 31.9056 25.976 31.9056L25.976 31.9056L31.075 31.9056C 31.329 31.9056 31.534 32.1106 31.534 32.3636L31.534 32.3636L31.534 40.0006C 31.534 40.2526 31.329 40.4586 31.075 40.4586zM26.435 32.8226L30.617 32.8226L30.617 32.8226L30.617 39.54259L30.617 39.54259L26.435 39.54259zM48.466 40.0006C 48.466 40.2526 48.671 40.4586 48.925 40.4586L48.925 40.4586L54.024 40.4586C 54.278 40.4586 54.483 40.2526 54.483 40.0006L54.483 40.0006L54.483 32.3636C 54.483 32.1106 54.278 31.9056 54.024 31.9056L54.024 31.9056L48.925 31.9056C 48.671 31.9056 48.466 32.1106 48.466 32.3636zM53.565 32.8226L49.383 32.8226L49.383 32.8226L49.383 39.54259L49.383 39.54259L53.565 39.54259zM37.45 40.4586C 37.196 40.4586 36.991 40.2526 36.991 40.0006L36.991 40.0006L36.991 32.3636C 36.991 32.1106 37.196 31.9056 37.45 31.9056L37.45 31.9056L42.55 31.9056C 42.804 31.9056 43.009 32.1106 43.009 32.3636L43.009 32.3636L43.009 40.0006C 43.009 40.2526 42.804 40.4586 42.55 40.4586zM37.909 32.8226L42.091 32.8226L42.091 32.8226L42.091 39.54259L42.091 39.54259L37.909 39.54259zM59.124 25.1836L57.033 25.1836L57.033 25.1836L57.033 28.5436C 57.033 28.7976 56.828 29.0026 56.574 29.0026L56.574 29.0026L23.426 29.0026C 23.172 29.0026 22.967 28.7976 22.967 28.5436L22.967 28.5436L22.967 25.1836L22.967 25.1836L20.876 25.1836C 20.622 25.1836 20.417 24.9796 20.417 24.7256L20.417 24.7256L20.417 20.9076C 20.417 20.6536 20.622 20.4496 20.876 20.4496L20.876 20.4496L59.124 20.4496C 59.378 20.4496 59.583 20.6536 59.583 20.9076L59.583 20.9076L59.583 24.7256C 59.583 24.9796 59.378 25.1836 59.124 25.1836M23.885 25.1836L56.115 25.1836L56.115 25.1836L56.115 28.0856L56.115 28.0856L23.885 28.0856zM58.665 21.3666L21.335 21.3666L21.335 21.3666L21.335 24.2676L21.335 24.2676L23.426 24.2676L23.426 24.2676L56.574 24.2676L56.574 24.2676L58.665 24.2676zM36.991 53.1616C 36.991 51.5046 38.342 50.1576 40 50.1576C 41.659 50.1576 43.009 51.5046 43.009 53.1616C 43.009 54.8176 41.659 56.1646 40 56.1646C 38.342 56.1646 36.991 54.8176 36.991 53.1616M42.091 53.1616C 42.091 52.0106 41.152 51.0746 40 51.0746C 38.848 51.0746 37.909 52.0106 37.909 53.1616C 37.909 54.3126 38.848 55.2486 40 55.2486C 41.152 55.2486 42.091 54.3126 42.091 53.1616M59.359 48.0306C 59.537 47.9246 59.621 47.7126 59.566 47.5146C 59.512 47.3166 59.33 47.1796 59.124 47.1796L59.124 47.1796L20.876 47.1796C 20.671 47.1796 20.488 47.3166 20.434 47.5146C 20.379 47.7126 20.463 47.9246 20.64 48.0306L20.64 48.0306L39.764 59.4856C 39.908 59.5726 40.092 59.5726 40.235 59.4856zM40 58.5576L22.533 48.0956L22.533 48.0956L57.467 48.0956z" stroke="none" fill="#0D5DFE" fill-rule="evenodd" />
		</g>
	</g>
</g>
</svg>