<?xml version="1.0" standalone="no"?>
<!DOCTYPE svg PUBLIC "-//W3C//DTD SVG 1.0//EN" "http://www.w3.org/TR/2001/REC-SVG-20010904/DTD/svg10.dtd">
<svg xmlns="http://www.w3.org/2000/svg" xmlns:xlink="http://www.w3.org/1999/xlink" id="body_1" width="167" height="47">

<defs>
    <clipPath  id="1">

    <path id=""  clip-rule="evenodd" transform="matrix(1 0 0 1 0 0)"  d="M0 35L0 -0.4249001L0 -0.4249001L125.722 -0.4249001L125.722 -0.4249001L125.722 35L125.722 35L0 35z" />    </clipPath>
    <clipPath  id="2">

    <path id=""  clip-rule="evenodd" transform="matrix(1 0 0 1 0 0)"  d="M0 -0.4249992L125.722 -0.4249992L125.722 -0.4249992L125.722 35L125.722 35L0 35z" />    </clipPath>
</defs>

<g transform="matrix(1.3333 0 0 1.3333 0 0)">
	<g clip-path="url(#1)" >
		<g clip-path="url(#2)" >
    <path id=""  transform="matrix(1 0 0 -1 0 35)"  d="M17.7117 35.4242C 7.9307 35.4242 -0.0002994537 27.4942 -0.0002994537 17.7122C -0.0002994537 7.9312 7.9307 -0.0007991791 17.7117 -0.0007991791C 27.4947 -0.0007991791 35.4247 7.9312 35.4247 17.7122C 35.4047 27.4942 27.4947 35.4242 17.7117 35.4242M17.9767 17.1432L16.1467 10.9202L16.1467 10.9202L25.9897 10.9202C 26.3347 10.9202 26.5587 10.5952 26.4767 10.2692L26.4767 10.2692L25.6227 7.3212C 25.5417 7.0362 25.2777 6.8322 24.9727 6.8322L24.9727 6.8322L9.923699 6.8322L9.923699 6.8322L12.4657 15.4352L12.4657 15.4352L9.659699 14.5602L9.659699 14.5602L10.2697 16.5942L10.2697 16.5942L13.0957 17.4682L13.0957 17.4682L16.6747 29.5472C 16.7567 29.8322 17.0207 30.0362 17.3267 30.0362L17.3267 30.0362L21.1287 30.0362C 21.4747 30.0362 21.6987 29.7102 21.6177 29.3852L21.6177 29.3852L18.5867 19.1762L18.5867 19.1762L21.3937 20.0512L21.3937 20.0512L20.7837 17.9972z" stroke="none" fill="#7A8599" fill-rule="nonzero" />
    <path id=""  transform="matrix(1 0 0 -1 0 35)"  d="M45.6534 30.0563L44.5554 30.0563C 44.3524 30.0563 44.2104 29.9343 44.1694 29.7313L44.1694 29.7313L41.3224 7.178299C 41.3014 6.9543 41.3634 6.8533 41.5874 6.8533L41.5874 6.8533L42.6844 6.8533C 42.9084 6.8533 43.0304 6.9543 43.0714 7.178299L43.0714 7.178299L45.9384 29.7313C 45.9994 29.9543 45.8774 30.0563 45.6534 30.0563" stroke="none" fill="#7A8599" fill-rule="nonzero" />
    <path id=""  transform="matrix(1 0 0 -1 0 35)"  d="M51.4083 23.5485L50.3103 23.5485C 50.1073 23.5485 49.9653 23.4465 49.9243 23.2235L49.9243 23.2235L47.8903 7.157499C 47.8703 6.9345 47.9923 6.8325 48.1953 6.8325L48.1953 6.8325L49.2943 6.8325C 49.4973 6.8325 49.6393 6.9345 49.6793 7.157499L49.6793 7.157499L51.6933 23.2025C 51.7143 23.4265 51.6333 23.5485 51.4083 23.5485" stroke="none" fill="#7A8599" fill-rule="nonzero" />
    <path id=""  transform="matrix(1 0 0 -1 0 35)"  d="M99.5234 23.8135C 97.99841 23.8135 96.6764 23.3865 95.5574 22.5115C 94.4394 21.6375 93.70741 20.4985 93.3414 19.0745C 93.0364 17.9155 92.7714 16.2885 92.6494 15.1915C 92.4874 13.7065 92.34441 12.4855 92.34441 11.3065C 92.3654 9.8625 92.8334 8.724501 93.70741 7.849501C 94.6014 6.995501 95.8224 6.5485 97.3674 6.5485C 98.87241 6.5485 100.1944 6.9755 101.3124 7.849501C 102.4304 8.7035 103.1634 9.8625 103.5294 11.3065C 103.7734 12.2625 104.0174 13.5435 104.2204 15.1915C 104.4244 16.8995 104.5254 18.2005 104.5254 19.0955C 104.5254 20.5195 104.0784 21.6575 103.1834 22.5115C 102.2684 23.3865 101.0484 23.8135 99.5234 23.8135M102.6144 16.7565C 102.5124 15.9435 102.4514 15.4145 102.4304 15.1915C 102.2274 13.5235 102.0454 12.3435 101.8824 11.6325C 101.6374 10.5745 101.1094 9.720501 100.3164 9.0695C 99.5234 8.4185 98.5884 8.113501 97.5514 8.113501C 96.4934 8.113501 95.6594 8.4395 95.0294 9.0695C 94.39841 9.6995 94.0934 10.5335 94.0934 11.5705C 94.0934 12.1195 94.1544 12.8115 94.2564 13.6245C 94.35741 14.4385 94.4194 14.9675 94.4394 15.1915C 94.6424 16.7775 94.8254 17.9565 94.9884 18.7495C 95.23241 19.8075 95.76041 20.6605 96.55341 21.3125C 97.34641 21.9625 98.2824 22.2675 99.3194 22.2675C 100.3774 22.2675 101.2114 21.9425 101.8414 21.3315C 102.4714 20.7015 102.7764 19.8675 102.7764 18.8305C 102.7764 18.2405 102.7164 17.5695 102.6144 16.7565" stroke="none" fill="#7A8599" fill-rule="nonzero" />
    <path id=""  transform="matrix(1 0 0 -1 0 35)"  d="M110.7892 23.5485L109.7112 23.5485C 109.5082 23.5485 109.3652 23.4265 109.3252 23.2235L109.3252 23.2235L107.2702 7.157499C 107.2512 6.9345 107.3732 6.8325 107.5762 6.8325L107.5762 6.8325L108.6742 6.8325C 108.8782 6.8325 109.0192 6.9345 109.0602 7.157499L109.0602 7.157499L111.0742 23.2025C 111.0942 23.4265 111.0132 23.5485 110.7892 23.5485" stroke="none" fill="#7A8599" fill-rule="nonzero" />
    <path id=""  transform="matrix(1 0 0 -1 0 35)"  d="M124.6583 22.5934C 123.9053 23.3864 122.8473 23.7724 121.4653 23.7724C 120.5703 23.7724 119.7573 23.6104 119.0053 23.2644C 118.2523 22.9184 117.6223 22.4094 117.0933 21.7184C 116.9913 21.6374 116.9513 21.6574 116.9513 21.7804L116.9513 21.7804L117.1133 23.2024C 117.1343 23.4064 117.0533 23.5284 116.8483 23.5284L116.8483 23.5284L115.7513 23.5284C 115.5483 23.5284 115.4053 23.4064 115.3643 23.2024L115.3643 23.2024L113.3513 7.157399C 113.3313 6.954399 113.3913 6.832399 113.6153 6.832399L113.6153 6.832399L114.7143 6.832399C 114.9173 6.832399 115.0593 6.954399 115.0803 7.157399L115.0803 7.157399L116.5443 18.6684C 116.7883 19.7454 117.2973 20.6204 118.0493 21.2504C 118.8023 21.8814 119.6963 22.2064 120.7543 22.2064C 121.7293 22.2064 122.5023 21.9024 123.0723 21.2914C 123.6413 20.6814 123.9263 19.8674 123.9263 18.8304C 123.9263 18.5264 123.9053 18.2814 123.8853 18.0994L123.8853 18.0994L122.4823 7.157399C 122.4823 7.056399 122.4823 6.995399 122.5223 6.934399C 122.5843 6.873399 122.6653 6.832399 122.7873 6.832399L122.7873 6.832399L123.8853 6.832399C 124.0893 6.832399 124.2303 6.934399 124.2513 7.157399L124.2513 7.157399L125.6543 18.3634C 125.6953 18.8104 125.7163 19.1364 125.7163 19.3604C 125.7763 20.7424 125.4103 21.8204 124.6583 22.5934" stroke="none" fill="#7A8599" fill-rule="nonzero" />
    <path id=""  transform="matrix(1 0 0 -1 0 35)"  d="M52.1202 30.0358C 51.4702 30.3818 50.6362 30.1378 50.3102 29.4668C 49.9652 28.8158 50.2292 27.9818 50.8802 27.6368C 51.5302 27.2908 52.3442 27.5558 52.6892 28.2058C 53.0352 28.8768 52.7912 29.6898 52.1202 30.0358" stroke="none" fill="#7A8599" fill-rule="nonzero" />
    <path id=""  transform="matrix(1 0 0 -1 0 35)"  d="M111.5821 30.0358C 110.9321 30.3818 110.0981 30.1378 109.7721 29.4668C 109.4271 28.8158 109.6901 27.9818 110.3421 27.6368C 110.9921 27.2908 111.8261 27.5558 112.1721 28.2058C 112.4971 28.8768 112.2321 29.6898 111.5821 30.0358" stroke="none" fill="#7A8599" fill-rule="nonzero" />
    <path id=""  transform="matrix(1 0 0 -1 0 35)"  d="M85.2071 23.8132C 83.6821 23.8132 82.3591 23.3662 81.2411 22.5112C 80.1231 21.6372 79.3911 20.4992 79.0241 19.0752C 78.7201 17.9162 78.4351 16.0852 78.3331 15.1912C 78.1901 13.8892 78.0281 12.4862 78.0281 11.3062C 78.0491 9.8632 78.5171 8.7242 79.3911 7.8492C 80.2851 6.996201 81.5061 6.548201 83.0511 6.548201C 84.5561 6.548201 85.8781 6.975201 86.9961 7.8492C 88.1141 8.7042 88.8471 9.8632 89.2131 11.3062C 89.2331 11.4282 89.2731 11.5502 89.2941 11.6722C 89.3141 11.7742 89.2331 11.8562 89.1511 11.8562L89.1511 11.8562L87.7891 11.8562C 87.7081 11.8562 87.6061 11.8152 87.5861 11.6932C 87.5861 11.6722 87.5651 11.6322 87.5651 11.6322C 87.3211 10.5752 86.7931 9.7202 86.0001 9.0702C 85.2071 8.4182 84.2711 8.1142 83.2341 8.1142C 82.1771 8.1142 81.3431 8.4392 80.7131 9.0702C 80.0821 9.7002 79.7771 10.5342 79.7771 11.5712C 79.7771 12.1202 79.8381 12.8112 79.9391 13.6252C 80.0211 14.3162 80.1031 14.9672 80.1231 15.1912C 80.3261 16.7772 80.5091 17.9572 80.6721 18.7502C 80.9161 19.8072 81.4441 20.6612 82.2371 21.3122C 83.0301 21.9622 83.9661 22.2672 85.0031 22.2672C 86.0401 22.2672 86.8941 21.9622 87.5251 21.3322C 88.1551 20.7022 88.4601 19.8682 88.4601 18.8312L88.4601 18.8312L88.4601 18.8102C 88.4601 18.6682 88.5821 18.5462 88.7251 18.5462L88.7251 18.5462L90.0061 18.5462C 90.1071 18.5462 90.2091 18.6272 90.2091 18.7502L90.2091 18.7502L90.2091 19.1362C 90.2091 20.5592 89.7621 21.6982 88.8671 22.5522C 87.9521 23.3862 86.7521 23.8132 85.2071 23.8132" stroke="none" fill="#7A8599" fill-rule="nonzero" />
    <path id=""  transform="matrix(1 0 0 -1 0 35)"  d="M74.1644 22.5112C 73.26939 23.3662 72.0494 23.8132 70.5244 23.8132C 68.9994 23.8132 67.6774 23.3862 66.5584 22.5112C 65.4404 21.6372 64.7084 20.4992 64.3414 19.0752C 64.0374 17.9162 63.8944 16.8782 63.6504 15.1912C 63.4264 13.5232 63.3454 12.4862 63.3454 11.3062C 63.3664 9.863201 63.8344 8.724201 64.7084 7.849201C 65.60239 6.996201 66.82339 6.548201 68.3694 6.548201C 69.8734 6.548201 71.1954 6.975201 72.3134 7.849201C 73.4324 8.704201 74.1644 9.863201 74.5304 11.3062C 74.5504 11.4282 74.5914 11.5502 74.6114 11.6722C 74.63239 11.7742 74.5714 11.8562 74.4694 11.8562L74.4694 11.8562L73.1064 11.8562C 73.0254 11.8562 72.9244 11.8152 72.9034 11.6932C 72.9034 11.6722 72.88239 11.6322 72.88239 11.6322C 72.6394 10.5752 72.1104 9.720201 71.3174 9.070201C 70.5244 8.4182 69.58939 8.114201 68.5514 8.114201C 67.4944 8.114201 66.6604 8.4392 66.0304 9.070201C 65.3994 9.700201 65.0944 10.5342 65.0944 11.5712C 65.0944 12.0592 65.1354 12.6692 65.2164 13.3612L65.2164 13.3612L75.0994 16.4312C 75.3024 16.4922 75.3844 16.5942 75.4244 16.8372C 75.4864 17.3462 75.5264 18.2202 75.5264 19.1162C 75.50739 20.3972 75.05939 21.6582 74.1644 22.5112M73.7784 17.8952C 73.7784 17.7932 73.7164 17.7122 73.61539 17.6922L73.61539 17.6922L65.42039 15.1502L65.42039 15.1502L65.42039 15.1912C 65.6234 16.7772 65.8064 17.9572 65.9684 18.7492C 66.21339 19.8072 66.74239 20.6612 67.5354 21.3122C 68.3284 21.9622 69.2634 22.2672 70.3004 22.2672C 71.3584 22.2672 72.1914 21.9422 72.8224 21.3322C 73.8184 20.2942 73.83939 19.2382 73.7784 17.8952" stroke="none" fill="#7A8599" fill-rule="nonzero" />
    <path id=""  transform="matrix(1 0 0 -1 0 35)"  d="M59.5841 8.6022C 59.7871 8.7042 60.0111 8.561199 59.9701 8.337199L59.9701 8.337199L59.8281 7.2402C 59.8081 7.097199 59.7061 6.9752 59.5841 6.9142C 58.6071 6.5482 57.2451 6.3852 56.1461 6.873199C 54.8861 7.4432 54.5611 8.6832 54.7441 10.2292L54.7441 10.2292L56.1881 22.0032L56.1881 22.0032L56.3911 23.6912L56.3911 23.6912L56.8791 27.4332C 56.8991 27.6572 57.0421 27.7582 57.2661 27.7582L57.2661 27.7582L58.3231 27.7582C 58.5661 27.7582 58.6281 27.6162 58.5871 27.4332L58.5871 27.4332L57.9571 22.1052L57.9571 22.1052L61.3941 22.1052C 61.5971 22.1052 61.6781 21.9832 61.6781 21.7802L61.6781 21.7802L61.5761 21.0062C 61.5571 20.8842 61.5361 20.8242 61.4751 20.7432C 61.4141 20.6812 61.2921 20.6612 61.2111 20.6612L61.2111 20.6612L57.7941 20.6612L57.7941 20.6612L56.5951 11.0012C 56.4731 9.964199 56.3301 9.0292 56.8581 8.521199C 57.5501 7.9512 58.8931 8.2772 59.5841 8.6022" stroke="none" fill="#7A8599" fill-rule="nonzero" />
		</g>
	</g>
</g>
</svg>