<?xml version="1.0" standalone="no"?>
<!DOCTYPE svg PUBLIC "-//W3C//DTD SVG 1.0//EN" "http://www.w3.org/TR/2001/REC-SVG-20010904/DTD/svg10.dtd">
<svg xmlns="http://www.w3.org/2000/svg" xmlns:xlink="http://www.w3.org/1999/xlink" id="body_3" width="19" height="25">

<defs>
    <clipPath  id="1">

    <path id=""  clip-rule="evenodd" transform="matrix(1 0 0 1 0 0)"  d="M0 19L0 -0.6875L0 -0.6875L14.0625 -0.6875L14.0625 -0.6875L14.0625 19L14.0625 19L0 19z" />    </clipPath>
    <clipPath  id="2">

    <path id=""  clip-rule="evenodd" transform="matrix(1 0 0 1 0 0)"  d="M0 -0.6870003L14.063 -0.6870003L14.063 -0.6870003L14.063 19L14.063 19L0 19z" />    </clipPath>
</defs>

<g transform="matrix(1.3333 0 0 1.3333 0 0)">
	<g clip-path="url(#1)" >
		<g clip-path="url(#2)" >
    <path id=""  transform="matrix(1 0 0 -1 0 19)"  d="M12.6562 1.4058L1.4062 1.4058L1.4062 1.4058L1.4062 9.8438L1.4062 9.8438L12.6562 9.8438zM4.218201 15.4688C 4.218201 17.0218 5.4782 18.2808 7.0312 18.2808C 8.5842 18.2808 9.843201 17.0218 9.843201 15.4688L9.843201 15.4688L9.843201 11.2498L9.843201 11.2498L4.218201 11.2498zM12.6562 11.2498L11.2502 11.2498L11.2502 11.2498L11.2502 15.4688C 11.2502 17.7988 9.3612 19.6878 7.0312 19.6878C 4.7012 19.6878 2.812201 17.7988 2.812201 15.4688L2.812201 15.4688L2.812201 11.2498L2.812201 11.2498L1.4062 11.2498C 0.6302004 11.2498 0.0002002716 10.6208 0.0002002716 9.8438L0.0002002716 9.8438L0.0002002716 1.4058C 0.0002002716 0.6297998 0.6302004 -0.0002002716 1.4062 -0.0002002716L1.4062 -0.0002002716L12.6562 -0.0002002716C 13.4332 -0.0002002716 14.0622 0.6297998 14.0622 1.4058L14.0622 1.4058L14.0622 9.8438C 14.0622 10.6208 13.4332 11.2498 12.6562 11.2498" stroke="none" fill="#222426" fill-rule="evenodd" />
		</g>
	</g>
</g>
</svg>