<?xml version="1.0" encoding="UTF-8" standalone="no"?>
<!DOCTYPE svg PUBLIC "-//W3C//DTD SVG 1.1//EN" "http://www.w3.org/Graphics/SVG/1.1/DTD/svg11.dtd">
<svg xmlns="http://www.w3.org/2000/svg" xmlns:xlink="http://www.w3.org/1999/xlink" version="1.1" width="127.5pt" height="18.75pt" viewBox="0 0 127.5 18.75">
<g enable-background="new">
<g>
<g id="Layer-1" data-name="Layer">
<clipPath id="cp0">
<path transform="matrix(1,0,0,-1,0,18.75)" d="M 0 18.75 L 127.5 18.75 L 127.5 0 L 0 0 Z "/>
</clipPath>
<g clip-path="url(#cp0)">
<path transform="matrix(1,0,0,-1,8.6064,17.9346)" d="M 0 0 L 5.296 12.326 L 1.594 12.326 L -1.619 4.5 L -4.855 12.326 L -8.558 12.326 L -3.261 0 Z M 7.685 13.377 C 8.837 13.377 9.769 14.282 9.769 15.432 C 9.769 16.605 8.837 17.511 7.685 17.511 C 6.532 17.511 5.601 16.605 5.601 15.432 C 5.601 14.282 6.532 13.377 7.685 13.377 M 9.524 12.326 L 5.8710005 12.326 L 5.8710005 0 L 9.524 0 Z M 15.713 -.343 C 19.342 -.343 21.156 1.296 21.156 3.815 C 21.156 5.454 20.151 6.628 18.116 7.312 C 16.743 7.802 15.713 7.973 15.247 8.168 C 14.855 8.339 14.732 8.511 14.732 8.829 C 14.732 9.293 15.174 9.611 15.958 9.611 C 17.013 9.611 17.896 9.318 18.557 8.707 L 20.298 11.103 C 19.195 12.155 17.797 12.693 16.057 12.693 C 14.708 12.693 13.58 12.35 12.648 11.641 C 11.716 10.956 11.25 9.978 11.25 8.731 C 11.25 7.093 12.207 5.968 14.095 5.308 C 14.463 5.185 15.026 5.014 15.762 4.843 C 16.498 4.671 16.988 4.5 17.258 4.353 C 17.527 4.206 17.675 4.011 17.675 3.767 C 17.675 3.106 17.062 2.764 15.811 2.764 C 14.414 2.764 13.114 3.302 12.428 4.108 L 10.319 1.858 C 11.521 .392 13.31 -.343 15.713 -.343 M 24.011 13.377 C 25.164 13.377 26.095 14.282 26.095 15.432 C 26.095 16.605 25.164 17.511 24.011 17.511 C 22.859 17.511 21.927 16.605 21.927 15.432 C 21.927 14.282 22.859 13.377 24.011 13.377 M 25.85 12.326 L 22.197 12.326 L 22.197 0 L 25.85 0 Z M 33.927 -.366 C 35.815 -.366 37.434 .269 38.782 1.517 C 40.131 2.788 40.793 4.329 40.793 6.163 C 40.793 7.997 40.131 9.538 38.782 10.785 C 37.434 12.057 35.815 12.693 33.927 12.693 C 32.015 12.693 30.396 12.057 29.048 10.785 C 27.724 9.538 27.062 7.997 27.062 6.163 C 27.062 4.329 27.724 2.788 29.048 1.517 C 30.396 .269 32.015 -.366 33.927 -.366 M 33.927 2.935 C 33.02 2.935 32.26 3.253 31.647 3.864 C 31.034 4.476 30.715 5.258 30.715 6.163 C 30.715 7.067 31.034 7.825 31.647 8.438 C 32.26 9.073 33.02 9.391 33.927 9.391 C 34.834 9.391 35.595 9.073 36.208 8.438 C 36.821 7.825 37.14 7.067 37.14 6.163 C 37.14 5.258 36.821 4.5 36.208 3.864 C 35.595 3.253 34.834 2.935 33.927 2.935 M 45.658 0 L 45.658 6.921 C 45.658 8.364 46.688 9.367 48.085 9.367 C 49.532 9.367 50.341 8.486 50.341 7.044 L 50.341 0 L 53.995 0 L 53.995 7.483 C 53.995 10.688 52.278 12.595 49.262 12.595 C 47.571 12.595 46.173 11.861 45.658 10.785 L 45.658 12.326 L 42.005 12.326 L 42.005 0 Z M 61.042 0 L 63.2 7.044 L 65.382 0 L 68.397 0 L 72.321 12.326 L 68.938 12.326 L 66.755 5.454 L 64.622 12.326 L 61.777 12.326 L 59.669 5.454 L 57.487 12.326 L 54.103 12.326 L 58.002 0 Z M 77.726 -.22 C 79.589 -.22 81.036 .538 81.403 1.614 L 81.403 0 L 85.057 0 L 85.057 12.326 L 81.403 12.326 L 81.403 10.712 C 81.036 11.788 79.589 12.546 77.726 12.546 C 75.985 12.546 74.514 11.935 73.337 10.688 C 72.185 9.464 71.596 7.948 71.596 6.163 C 71.596 4.378 72.185 2.861 73.337 1.614 C 74.514 .392 75.985 -.22 77.726 -.22 M 78.388 3.081 C 77.505 3.081 76.77 3.375 76.156 3.962 C 75.544 4.573 75.249 5.308 75.249 6.163 C 75.249 7.019 75.544 7.753 76.156 8.339 C 76.77 8.951 77.505 9.244 78.388 9.244 C 79.295 9.244 80.055 8.951 80.668 8.339 C 81.306 7.753 81.624 7.019 81.624 6.163 C 81.624 5.308 81.306 4.573 80.668 3.962 C 80.055 3.375 79.295 3.081 78.388 3.081 M 90.438 17.046 L 86.785 17.046 L 86.785 0 L 90.438 0 Z M 95.842 17.046 L 92.189 17.046 L 92.189 0 L 95.842 0 Z M 103.821 -.294 C 105.905 -.294 107.695 .464 109.142 1.956 L 107.009 3.986 C 106.15 3.179 105.146 2.788 103.993 2.788 C 102.056 2.788 100.781 3.741 100.707 5.209 L 110.049 5.209 C 110.073 5.575 110.098 5.968 110.098 6.383 C 110.098 8.168 109.51 9.636 108.333 10.834 C 107.156 12.032 105.636 12.644 103.748 12.644 C 101.811 12.644 100.192 12.057 98.941 10.858 C 97.691 9.685 97.054 8.119 97.054 6.187 L 97.054 6.089 C 97.054 4.157 97.667 2.616 98.917 1.442 C 100.168 .294 101.786 -.294 103.821 -.294 M 106.42 7.581 L 100.756 7.581 C 100.854 8.731 102.154 9.636 103.748 9.636 C 105.219 9.636 106.42 8.731 106.42 7.581 M 115.576 0 L 115.576 9.024 L 118.298 9.024 L 118.298 12.326 L 115.576 12.326 L 115.576 17.046 L 112.021 17.046 L 112.021 12.326 L 110.378 12.326 L 110.378 9.024 L 112.021 9.024 L 112.021 0 Z " fill="#222426"/>
</g>
</g>
</g>
</g>
</svg>
