<?xml version="1.0" encoding="UTF-8" standalone="no"?>
<svg
   xmlns:dc="http://purl.org/dc/elements/1.1/"
   xmlns:cc="http://creativecommons.org/ns#"
   xmlns:rdf="http://www.w3.org/1999/02/22-rdf-syntax-ns#"
   xmlns:svg="http://www.w3.org/2000/svg"
   xmlns="http://www.w3.org/2000/svg"
   viewBox="0 0 146.16667 25.023199"
   height="25.023199"
   width="146.16667"
   xml:space="preserve"
   id="svg2"
   version="1.1"><metadata
     id="metadata8"><rdf:RDF><cc:Work
         rdf:about=""><dc:format>image/svg+xml</dc:format><dc:type
           rdf:resource="http://purl.org/dc/dcmitype/StillImage" /></cc:Work></rdf:RDF></metadata><defs
     id="defs6"><clipPath
       id="clipPath18"
       clipPathUnits="userSpaceOnUse"><path
         id="path16"
         d="M 0,18.767 H 109.625 V 0 H 0 Z" /></clipPath></defs><g
     transform="matrix(1.3333333,0,0,-1.3333333,0,25.0232)"
     id="g10"><g
       id="g12"><g
         clip-path="url(#clipPath18)"
         id="g14"><g
           transform="translate(24.4805,14.832)"
           id="g20"><path
             id="path22"
             style="fill:#48c2a0;fill-opacity:1;fill-rule:nonzero;stroke:none"
             d="m 0,0 c 0.23,-0.867 0.345,-2.015 0.345,-3.439 v -10.899 h -3.49 l 0.033,10.667 c 0,0.877 -0.077,1.574 -0.231,2.092 -0.153,0.514 -0.46,0.992 -0.922,1.433 -0.307,0.305 -0.674,0.542 -1.102,0.707 -0.428,0.165 -0.873,0.247 -1.334,0.247 -0.527,0 -1.031,-0.106 -1.515,-0.314 -0.482,-0.209 -0.9,-0.51 -1.25,-0.906 -0.329,-0.416 -0.555,-0.844 -0.675,-1.283 -0.121,-0.44 -0.182,-0.945 -0.182,-1.515 v -0.229 l -0.033,-10.899 h -3.457 v 10.667 c 0,0.877 -0.077,1.574 -0.23,2.092 -0.153,0.514 -0.461,0.992 -0.922,1.433 -0.308,0.305 -0.669,0.542 -1.086,0.707 -0.418,0.165 -0.857,0.247 -1.317,0.247 -0.549,0 -1.065,-0.106 -1.549,-0.314 -0.482,-0.209 -0.888,-0.51 -1.218,-0.906 -0.351,-0.416 -0.587,-0.844 -0.707,-1.283 -0.121,-0.44 -0.181,-0.945 -0.181,-1.515 V -14.338 H -24.48 V 3.441 h 3.062 V 1.499 c 0.593,0.746 1.334,1.333 2.222,1.763 0.889,0.426 1.828,0.64 2.816,0.64 0.768,0 1.53,-0.121 2.288,-0.363 0.757,-0.241 1.387,-0.614 1.893,-1.119 0.417,-0.373 0.79,-0.844 1.119,-1.414 v 0.033 c 0.571,0.898 1.339,1.6 2.305,2.107 0.965,0.503 1.987,0.756 3.062,0.756 0.768,0 1.53,-0.121 2.288,-0.363 C -2.667,3.298 -2.037,2.925 -1.532,2.42 -0.741,1.675 -0.231,0.866 0,0" /></g><g
           transform="translate(40.3657,13.8779)"
           id="g24"><path
             id="path26"
             style="fill:#48c2a0;fill-opacity:1;fill-rule:nonzero;stroke:none"
             d="m 0,0 c -0.855,1.088 -2.118,1.631 -3.787,1.631 -1.668,0 -2.924,-0.551 -3.769,-1.647 -0.845,-1.098 -1.267,-2.59 -1.267,-4.478 0,-1.909 0.432,-3.408 1.3,-4.494 0.867,-1.088 2.112,-1.631 3.736,-1.631 1.669,0 2.932,0.556 3.787,1.665 0.856,1.105 1.285,2.595 1.285,4.46 C 1.285,-2.586 0.856,-1.086 0,0 m -8.379,-12.692 c -1.306,0.79 -2.317,1.898 -3.029,3.326 -0.714,1.425 -1.07,3.051 -1.07,4.872 0,1.845 0.362,3.477 1.086,4.905 0.725,1.428 1.74,2.531 3.046,3.311 1.305,0.776 2.826,1.168 4.559,1.168 1.757,0 3.293,-0.397 4.61,-1.186 1.317,-0.79 2.333,-1.898 3.046,-3.326 0.714,-1.425 1.07,-3.051 1.07,-4.872 0,-1.845 -0.356,-3.473 -1.07,-4.89 -0.713,-1.415 -1.734,-2.518 -3.061,-3.308 -1.329,-0.789 -2.861,-1.186 -4.595,-1.186 -1.755,0 -3.287,0.397 -4.592,1.186" /></g><g
           transform="translate(59.0034,12.9082)"
           id="g28"><path
             id="path30"
             style="fill:#48c2a0;fill-opacity:1;fill-rule:nonzero;stroke:none"
             d="m 0,0 c -0.155,0.921 -0.604,1.623 -1.351,2.106 -0.746,0.481 -1.668,0.723 -2.765,0.723 -0.944,0 -1.723,-0.185 -2.338,-0.558 -0.615,-0.374 -0.922,-0.867 -0.922,-1.482 0,-0.507 0.191,-0.923 0.576,-1.253 0.384,-0.329 0.949,-0.591 1.696,-0.789 0.768,-0.242 1.865,-0.538 3.293,-0.888 1.843,-0.463 3.21,-1.083 4.099,-1.862 0.889,-0.779 1.334,-1.88 1.334,-3.308 0,-1.756 -0.659,-3.127 -1.976,-4.116 -1.317,-0.987 -3.019,-1.481 -5.104,-1.481 -2.173,0 -3.957,0.45 -5.35,1.35 -1.394,0.901 -2.255,2.272 -2.585,4.116 l 3.523,0.558 c 0.22,-0.988 0.741,-1.733 1.564,-2.238 0.823,-0.504 1.816,-0.756 2.98,-0.756 0.988,0 1.799,0.208 2.436,0.625 0.637,0.417 0.955,1.008 0.955,1.777 0,0.636 -0.225,1.12 -0.675,1.449 -0.45,0.329 -1.136,0.625 -2.057,0.889 l -4.017,1.119 c -2.767,0.79 -4.149,2.349 -4.149,4.677 0,1.096 0.317,2.04 0.955,2.829 0.635,0.793 1.475,1.384 2.519,1.781 1.041,0.393 2.178,0.591 3.408,0.591 1.996,0 3.687,-0.465 5.07,-1.399 C 2.501,3.526 3.303,2.248 3.522,0.625 Z" /></g><path
           id="path32"
           style="fill:#000000;fill-opacity:1;fill-rule:nonzero;stroke:none"
           d="M 67.502,0.494 H 65.5 v 2.002 h 2.002 z" /><g
           transform="translate(77.9834,7.0693)"
           id="g34"><path
             id="path36"
             style="fill:#000000;fill-opacity:1;fill-rule:nonzero;stroke:none"
             d="m 0,0 c 0.13,-0.629 0.196,-1.405 0.196,-2.327 v -4.248 h -1.987 v 4.167 c 0,1.247 -0.233,2.088 -0.699,2.522 -0.359,0.336 -0.82,0.505 -1.384,0.505 -0.51,0 -0.922,-0.136 -1.237,-0.406 -0.368,-0.282 -0.602,-0.69 -0.7,-1.221 -0.064,-0.337 -0.097,-0.918 -0.097,-1.742 v -3.825 h -1.969 v 8.789 h 1.741 V 1.237 l 0.179,0.211 c 0.271,0.316 0.607,0.555 1.009,0.718 0.401,0.162 0.814,0.254 1.238,0.275 0.086,0.012 0.216,0.017 0.39,0.017 0.998,0 1.812,-0.299 2.441,-0.895 C -0.423,1.151 -0.13,0.63 0,0" /></g><g
           transform="translate(82.5488,7.3057)"
           id="g38"><path
             id="path40"
             style="fill:#000000;fill-opacity:1;fill-rule:nonzero;stroke:none"
             d="M 0,0 C -0.364,-0.342 -0.6,-0.816 -0.708,-1.424 H 3.605 C 3.519,-0.772 3.313,-0.287 2.987,0.032 2.662,0.353 2.167,0.513 1.506,0.513 0.865,0.513 0.364,0.343 0,0 m -0.065,-4.622 c 0.385,-0.397 0.909,-0.595 1.571,-0.595 0.466,0 0.876,0.107 1.229,0.318 0.352,0.212 0.626,0.524 0.822,0.936 L 5.493,-4.55 C 5.179,-5.32 4.664,-5.931 3.947,-6.381 3.231,-6.831 2.45,-7.056 1.604,-7.056 c -0.891,0 -1.674,0.194 -2.352,0.577 -0.679,0.386 -1.203,0.923 -1.571,1.613 -0.369,0.688 -0.554,1.472 -0.554,2.351 0,0.934 0.183,1.759 0.546,2.475 0.363,0.716 0.873,1.271 1.53,1.668 0.656,0.395 1.424,0.594 2.303,0.594 1.302,0 2.311,-0.421 3.027,-1.261 C 5.249,0.12 5.608,-1 5.608,-2.4 c 0,-0.25 -0.006,-0.44 -0.017,-0.57 h -6.347 c 0.075,-0.706 0.306,-1.257 0.691,-1.652" /></g><g
           transform="translate(101.3076,9.2832)"
           id="g42"><path
             id="path44"
             style="fill:#000000;fill-opacity:1;fill-rule:nonzero;stroke:none"
             d="m 0,0 -2.686,-8.789 h -1.643 l -1.872,6.056 -1.987,-6.056 H -9.717 L -12.403,0.017 -10.466,0 -8.74,-5.632 -7.015,0 h 1.643 L -3.63,-5.632 -1.921,0 Z" /></g><g
           transform="translate(107.5576,6.5811)"
           id="g46"><path
             id="path48"
             style="fill:#000000;fill-opacity:1;fill-rule:nonzero;stroke:none"
             d="M 0,0 C -0.043,0.381 -0.23,0.685 -0.562,0.912 -0.893,1.14 -1.296,1.254 -1.774,1.254 -2.187,1.254 -2.525,1.178 -2.792,1.026 -3.057,0.874 -3.19,0.668 -3.19,0.407 c 0,-0.227 0.078,-0.409 0.236,-0.546 0.157,-0.134 0.404,-0.257 0.741,-0.366 0.216,-0.064 0.547,-0.156 0.992,-0.275 l 0.57,-0.147 c 0.933,-0.239 1.62,-0.554 2.059,-0.944 0.439,-0.391 0.659,-0.939 0.659,-1.645 0,-0.879 -0.328,-1.568 -0.984,-2.066 -0.657,-0.5 -1.501,-0.749 -2.532,-0.749 -1.107,0 -2.008,0.23 -2.702,0.691 -0.694,0.462 -1.122,1.164 -1.286,2.109 l 2.003,0.309 c 0.097,-0.457 0.33,-0.803 0.7,-1.042 0.369,-0.239 0.814,-0.358 1.335,-0.358 0.422,0 0.773,0.087 1.049,0.261 0.277,0.173 0.415,0.423 0.415,0.749 0,0.27 -0.098,0.479 -0.293,0.626 -0.195,0.147 -0.488,0.274 -0.878,0.382 l -0.57,0.163 c -0.684,0.184 -1.188,0.326 -1.514,0.423 -0.608,0.173 -1.085,0.456 -1.433,0.847 -0.347,0.391 -0.52,0.884 -0.52,1.481 0,0.564 0.157,1.044 0.472,1.44 0.314,0.396 0.732,0.694 1.253,0.896 0.521,0.2 1.091,0.3 1.709,0.3 0.998,0 1.839,-0.224 2.522,-0.675 0.685,-0.45 1.08,-1.088 1.189,-1.913 z" /></g></g></g></g></svg>