<?xml version="1.0" encoding="UTF-8" standalone="no"?>
<svg
   xmlns:dc="http://purl.org/dc/elements/1.1/"
   xmlns:cc="http://creativecommons.org/ns#"
   xmlns:rdf="http://www.w3.org/1999/02/22-rdf-syntax-ns#"
   xmlns:svg="http://www.w3.org/2000/svg"
   xmlns="http://www.w3.org/2000/svg"
   viewBox="0 0 155.992 23.967199"
   height="23.967199"
   width="155.992"
   xml:space="preserve"
   id="svg2"
   version="1.1"><metadata
     id="metadata8"><rdf:RDF><cc:Work
         rdf:about=""><dc:format>image/svg+xml</dc:format><dc:type
           rdf:resource="http://purl.org/dc/dcmitype/StillImage" /></cc:Work></rdf:RDF></metadata><defs
     id="defs6"><clipPath
       id="clipPath18"
       clipPathUnits="userSpaceOnUse"><path
         id="path16"
         d="M 0,17.975 H 116.994 V 0 H 0 Z" /></clipPath></defs><g
     transform="matrix(1.3333333,0,0,-1.3333333,0,23.9672)"
     id="g10"><g
       id="g12"><g
         clip-path="url(#clipPath18)"
         id="g14"><g
           transform="translate(112.9334,17.6131)"
           id="g20"><path
             id="path22"
             style="fill:#000000;fill-opacity:1;fill-rule:nonzero;stroke:none"
             d="M 0,0 C -0.576,-2.691 -0.986,-4.957 -1.23,-6.798 -1.312,-5.633 -1.669,-3.367 -2.304,0 h -4.06 l 3.107,-11.007 v -6.244 h 4.094 v 6.244 L 4.06,0 Z m -11.206,-11.092 c 0.115,1.527 0.398,3.943 0.848,7.245 0.225,-2.876 0.449,-5.292 0.673,-7.245 z M -13.73,0 -15.985,-17.251 h 4.569 l 0.266,3.101 h 1.581 l 0.237,-3.101 h 4.517 L -7.343,0 Z m -7.32,-11.795 c 0,-1.151 -0.073,-1.856 -0.22,-2.115 -0.147,-0.26 -0.539,-0.389 -1.176,-0.389 v 11.348 c 0.483,0 0.812,-0.052 0.987,-0.154 0.175,-0.104 0.287,-0.266 0.336,-0.486 0.049,-0.22 0.073,-0.721 0.073,-1.502 z m 3.538,10.517 c -0.392,0.454 -0.964,0.781 -1.717,0.98 C -19.981,-0.1 -21.424,0 -23.559,0 h -3.306 v -17.251 h 5.574 c 1.057,0 1.847,0.059 2.372,0.176 0.525,0.117 0.966,0.323 1.323,0.618 0.357,0.295 0.607,0.703 0.75,1.226 0.144,0.522 0.216,1.557 0.216,3.105 v 6.042 c 0,1.634 -0.049,2.729 -0.147,3.287 -0.098,0.558 -0.343,1.064 -0.735,1.519 M -32.933,-12.36 c 0,-1.016 -0.042,-1.659 -0.126,-1.929 -0.084,-0.27 -0.276,-0.404 -0.577,-0.404 -0.294,0 -0.481,0.117 -0.562,0.351 -0.08,0.235 -0.12,0.853 -0.12,1.854 v 8.055 c 0,0.888 0.061,1.423 0.183,1.604 0.123,0.182 0.3,0.272 0.531,0.272 0.272,0 0.453,-0.112 0.54,-0.336 0.087,-0.223 0.131,-0.737 0.131,-1.54 z m 3.506,10.911 c -0.441,0.603 -1.023,1.056 -1.747,1.358 -0.725,0.302 -1.542,0.453 -2.451,0.453 -0.959,0 -1.799,-0.159 -2.52,-0.479 -0.721,-0.32 -1.293,-0.778 -1.716,-1.375 -0.424,-0.596 -0.676,-1.255 -0.756,-1.977 -0.081,-0.72 -0.121,-1.947 -0.121,-3.68 v -2.953 c 0,-1.775 0.042,-3.018 0.126,-3.728 0.084,-0.711 0.346,-1.368 0.787,-1.972 0.441,-0.603 1.024,-1.056 1.748,-1.358 0.724,-0.302 1.541,-0.453 2.452,-0.453 0.958,0 1.798,0.16 2.519,0.479 0.72,0.32 1.293,0.779 1.716,1.375 0.424,0.597 0.675,1.255 0.756,1.977 0.08,0.72 0.121,1.948 0.121,3.68 v 2.953 c 0,1.775 -0.042,3.018 -0.126,3.729 -0.084,0.71 -0.347,1.367 -0.788,1.971 m -19.85,-2.003 h 2.613 v -13.799 h 4.42 v 13.799 h 2.624 V 0 h -9.657 z m -13.7,0 h 2.615 v -13.799 h 4.419 v 13.799 h 2.624 V 0 h -9.658 z m -3.474,-6.553 h 2.761 v 3.281 h -2.761 v 3.272 h 2.95 V 0 h -7.369 v -17.251 h 7.663 v 3.452 h -3.244 z M -76.339,-7.768 -78.817,0 h -3.695 v -17.251 h 3.695 v 7.843 l 2.299,-7.843 h 3.873 V 0 h -3.694 z m -13.314,-3.324 c 0.115,1.527 0.398,3.943 0.848,7.245 0.225,-2.876 0.449,-5.292 0.673,-7.245 z M -92.178,0 -94.432,-17.251 h 4.569 l 0.266,3.101 h 1.581 l 0.237,-3.101 h 4.516 L -85.79,0 Z m -5.545,0 h -4.419 v -17.251 h 7.107 v 3.452 h -2.688 z m -9.384,-5.786 c 0,-0.639 -0.079,-1.06 -0.237,-1.263 -0.157,-0.202 -0.439,-0.303 -0.844,-0.303 -0.092,0 -0.2,0.003 -0.326,0.01 v 4.391 c 0.574,0 0.951,-0.089 1.134,-0.267 0.182,-0.178 0.273,-0.561 0.273,-1.15 z m 2.86,4.667 c -0.325,0.362 -0.812,0.64 -1.459,0.832 -0.648,0.191 -1.573,0.287 -2.776,0.287 h -4.452 v -17.251 h 4.42 v 6.947 h 1.186 c 0.966,0 1.748,0.135 2.347,0.406 0.598,0.269 1.009,0.656 1.233,1.161 0.224,0.505 0.335,1.306 0.335,2.408 v 1.503 c 0,1.079 -0.057,1.877 -0.172,2.391 -0.116,0.515 -0.336,0.955 -0.662,1.316" /></g></g></g></g></svg>