<?xml version="1.0" encoding="UTF-8" standalone="no"?>
<svg
   xmlns:dc="http://purl.org/dc/elements/1.1/"
   xmlns:cc="http://creativecommons.org/ns#"
   xmlns:rdf="http://www.w3.org/1999/02/22-rdf-syntax-ns#"
   xmlns:svg="http://www.w3.org/2000/svg"
   xmlns="http://www.w3.org/2000/svg"
   viewBox="0 0 155.99068 29.329067"
   height="29.329067"
   width="155.99068"
   xml:space="preserve"
   id="svg2"
   version="1.1"><metadata
     id="metadata8"><rdf:RDF><cc:Work
         rdf:about=""><dc:format>image/svg+xml</dc:format><dc:type
           rdf:resource="http://purl.org/dc/dcmitype/StillImage" /></cc:Work></rdf:RDF></metadata><defs
     id="defs6"><clipPath
       id="clipPath18"
       clipPathUnits="userSpaceOnUse"><path
         id="path16"
         d="M 0,21.997 H 116.993 V 0 H 0 Z" /></clipPath></defs><g
     transform="matrix(1.3333333,0,0,-1.3333333,0,29.329067)"
     id="g10"><g
       id="g12"><g
         clip-path="url(#clipPath18)"
         id="g14"><g
           transform="translate(108.4747,13.0178)"
           id="g20"><path
             id="path22"
             style="fill:#000000;fill-opacity:1;fill-rule:nonzero;stroke:none"
             d="M 0,0 C 0.331,1.504 1.25,2.256 2.756,2.256 3.584,2.256 4.198,2.067 4.598,1.691 4.997,1.315 5.249,0.752 5.354,0 Z m 8.518,-1.489 c 0,1.263 -0.226,2.38 -0.678,3.35 C 7.388,2.831 6.729,3.583 5.863,4.117 4.997,4.65 3.961,4.918 2.756,4.918 1.536,4.918 0.459,4.644 -0.475,4.095 -1.409,3.545 -2.132,2.774 -2.644,1.782 -3.156,0.789 -3.412,-0.361 -3.412,-1.67 c 0,-1.203 0.264,-2.282 0.791,-3.237 0.527,-0.955 1.272,-1.7 2.237,-2.234 0.964,-0.533 2.071,-0.8 3.321,-0.8 1.175,0 2.263,0.315 3.265,0.947 1.002,0.632 1.721,1.489 2.158,2.572 l -3.073,0.88 C 5.046,-4.039 4.707,-4.419 4.27,-4.682 3.833,-4.945 3.329,-5.076 2.756,-5.076 c -0.813,0 -1.461,0.236 -1.943,0.711 -0.482,0.473 -0.783,1.138 -0.904,1.996 h 8.564 c 0.03,0.39 0.045,0.684 0.045,0.88 M -7.569,3.993 C -8.127,3.632 -8.563,3.173 -8.88,2.617 V 4.58 h -2.711 V -7.604 h 3.095 v 6.228 c 0,1.398 0.558,2.36 1.672,2.888 0.467,0.21 0.979,0.315 1.537,0.315 0.301,0 0.587,-0.038 0.858,-0.112 V 4.58 c -0.301,0.029 -0.534,0.045 -0.7,0.045 -0.934,0 -1.747,-0.211 -2.44,-0.632 M -17.85,-0.723 c 0,-1.112 -0.045,-1.886 -0.135,-2.323 -0.136,-0.692 -0.437,-1.211 -0.904,-1.557 -0.422,-0.315 -0.942,-0.473 -1.559,-0.473 -0.783,0 -1.386,0.232 -1.807,0.699 -0.543,0.587 -0.814,1.654 -0.814,3.203 V 4.58 h -3.118 v -5.889 c 0,-0.857 0.022,-1.576 0.068,-2.154 0.045,-0.58 0.165,-1.15 0.361,-1.715 0.196,-0.564 0.497,-1.049 0.904,-1.455 0.904,-0.888 2.094,-1.331 3.57,-1.331 0.693,0 1.37,0.112 2.034,0.338 0.662,0.226 1.205,0.595 1.626,1.105 l 0.159,0.181 v -1.264 h 2.711 V 4.58 H -17.85 Z M -32.197,7.964 H -35.27 V 4.58 h -2.079 V 2.211 h 2.079 v -4.648 -1.196 c 0,-0.571 0.038,-1.056 0.113,-1.455 0.075,-0.398 0.218,-0.756 0.429,-1.071 0.317,-0.467 0.663,-0.813 1.04,-1.038 0.376,-0.226 0.858,-0.391 1.446,-0.496 0.451,-0.076 0.986,-0.114 1.604,-0.114 0.798,0 1.453,0.069 1.966,0.203 v 2.55 c -0.528,-0.075 -1.025,-0.112 -1.492,-0.112 -0.226,0 -0.391,0.007 -0.497,0.021 -0.602,0.061 -1.031,0.294 -1.287,0.701 -0.091,0.134 -0.155,0.323 -0.193,0.563 -0.037,0.24 -0.056,0.542 -0.056,0.902 v 0.723 4.467 h 3.525 V 4.58 h -3.525 z M -43.788,2.053 c 0.572,0 1.081,-0.177 1.525,-0.531 0.444,-0.353 0.757,-0.845 0.938,-1.477 l 3.073,0.812 c -0.271,1.248 -0.896,2.237 -1.875,2.967 -0.98,0.729 -2.185,1.094 -3.616,1.094 -1.22,0 -2.29,-0.278 -3.208,-0.835 -0.919,-0.557 -1.631,-1.319 -2.135,-2.29 -0.505,-0.97 -0.757,-2.071 -0.757,-3.305 0,-1.218 0.244,-2.316 0.734,-3.294 0.489,-0.977 1.19,-1.745 2.101,-2.301 0.912,-0.556 1.985,-0.834 3.22,-0.834 1.416,0 2.606,0.349 3.57,1.048 0.964,0.7 1.619,1.696 1.966,2.99 l -3.141,0.654 c -0.196,-0.617 -0.478,-1.075 -0.847,-1.376 -0.369,-0.301 -0.885,-0.451 -1.548,-0.451 -0.903,0 -1.597,0.323 -2.079,0.97 -0.482,0.646 -0.723,1.511 -0.723,2.594 0,1.068 0.234,1.929 0.701,2.583 0.467,0.655 1.167,0.982 2.101,0.982 m -11.839,-9.657 h 3.073 V 4.58 h -3.073 z m 0,13.875 h 3.073 v 2.707 h -3.073 z m -6.688,-10.457 c -0.482,-0.684 -1.197,-1.026 -2.146,-1.026 -1.868,0 -2.802,1.233 -2.802,3.7 0,1.158 0.218,2.065 0.655,2.719 0.437,0.654 1.115,0.981 2.034,0.981 0.979,0 1.72,-0.346 2.225,-1.038 0.505,-0.691 0.757,-1.579 0.757,-2.662 0,-1.097 -0.241,-1.989 -0.723,-2.674 m 1.22,8.281 c -0.874,0.549 -1.883,0.823 -3.028,0.823 -1.25,0 -2.296,-0.338 -3.14,-1.016 V 4.58 h -2.712 v -17.598 h 3.096 v 5.843 c 0.814,-0.511 1.785,-0.766 2.915,-0.766 1.099,0 2.074,0.278 2.926,0.834 0.85,0.556 1.514,1.324 1.988,2.301 0.475,0.978 0.712,2.076 0.712,3.294 0,1.234 -0.241,2.339 -0.723,3.317 -0.482,0.977 -1.16,1.74 -2.034,2.29 M -79.26,0.992 v -2.368 h 3.163 c -0.061,-0.436 -0.196,-0.877 -0.407,-1.32 -0.211,-0.444 -0.49,-0.816 -0.836,-1.117 -0.753,-0.647 -1.627,-0.962 -2.621,-0.948 -0.678,-0.014 -1.318,0.114 -1.92,0.384 -0.603,0.271 -1.085,0.654 -1.447,1.15 -0.663,0.873 -1.009,2.122 -1.039,3.746 0.03,1.639 0.376,2.887 1.039,3.745 0.362,0.496 0.844,0.88 1.447,1.15 0.602,0.272 1.242,0.398 1.92,0.384 1.054,0.014 1.928,-0.293 2.621,-0.925 0.317,-0.286 0.557,-0.583 0.723,-0.892 0.166,-0.307 0.309,-0.657 0.429,-1.048 l 3.367,0.473 c -0.196,0.827 -0.493,1.579 -0.892,2.256 -0.4,0.678 -0.946,1.294 -1.639,1.851 -0.648,0.526 -1.367,0.902 -2.157,1.128 -0.791,0.225 -1.677,0.338 -2.655,0.338 -1.19,0 -2.282,-0.218 -3.276,-0.655 -0.995,-0.435 -1.846,-1.09 -2.554,-1.962 -1.235,-1.489 -1.852,-3.437 -1.852,-5.843 0,-2.256 0.624,-4.189 1.875,-5.798 0.662,-0.858 1.494,-1.516 2.497,-1.975 1.001,-0.458 2.104,-0.687 3.31,-0.687 1.16,0 2.233,0.191 3.22,0.575 0.986,0.384 1.826,0.981 2.519,1.794 0.617,0.721 1.099,1.556 1.446,2.504 0.346,0.947 0.52,1.985 0.52,3.113 0,0.361 -0.016,0.677 -0.046,0.947 z m -14.37,-8.596 h 3.073 V 8.64 h -3.073 z m -6.417,3.475 c -0.422,-0.391 -0.934,-0.586 -1.536,-0.586 h -3.774 v 4.151 h 3.774 c 0.692,0 1.22,-0.18 1.581,-0.541 0.377,-0.376 0.565,-0.888 0.565,-1.535 0,-0.601 -0.203,-1.098 -0.61,-1.489 m -5.31,9.904 h 3.344 c 0.557,0 0.994,-0.158 1.311,-0.473 0.331,-0.331 0.497,-0.76 0.497,-1.286 0,-0.527 -0.128,-0.918 -0.384,-1.173 -0.362,-0.362 -0.836,-0.542 -1.424,-0.542 h -3.344 z m 7.728,-5.437 c -0.287,0.24 -0.633,0.443 -1.04,0.609 0.106,0.045 0.241,0.136 0.407,0.271 0.346,0.286 0.629,0.673 0.847,1.162 0.219,0.488 0.328,1.012 0.328,1.568 0,1.444 -0.475,2.61 -1.424,3.497 -0.467,0.436 -0.979,0.744 -1.536,0.925 -0.557,0.181 -1.205,0.271 -1.943,0.271 h -6.485 V -7.604 h 6.869 c 0.964,0 1.729,0.091 2.293,0.272 0.565,0.18 1.088,0.488 1.571,0.925 0.933,0.872 1.401,2.128 1.401,3.767 0,0.572 -0.117,1.128 -0.351,1.669 -0.233,0.542 -0.546,0.979 -0.937,1.309" /></g></g></g></g></svg>