<?xml version="1.0" encoding="UTF-8"?>
<svg xmlns="http://www.w3.org/2000/svg" xmlns:xlink="http://www.w3.org/1999/xlink" width="296.613pt" height="452.929pt" viewBox="0 0 296.613 452.929" version="1.1">
<defs>
<clipPath id="clip1">
  <path d="M 2 205 L 120 205 L 120 452.929688 L 2 452.929688 Z M 2 205 "/>
</clipPath>
<clipPath id="clip2">
  <path d="M 179 205 L 296.613281 205 L 296.613281 452.929688 L 179 452.929688 Z M 179 205 "/>
</clipPath>
<clipPath id="clip3">
  <path d="M 128 360 L 170 360 L 170 452.929688 L 128 452.929688 Z M 128 360 "/>
</clipPath>
</defs>
<g id="surface1">
<path style=" stroke:none;fill-rule:nonzero;fill:rgb(0%,80.000305%,53.726196%);fill-opacity:1;" d="M 223.347656 93.554688 C 223.347656 93.554688 203.847656 107.304688 203.347656 107.429688 C 202.847656 107.554688 193.222656 116.804688 193.222656 116.804688 C 193.222656 116.804688 198.472656 99.554688 201.097656 87.179688 C 203.722656 74.804688 205.472656 61.429688 205.472656 61.429688 C 205.472656 61.429688 211.222656 58.429688 218.347656 58.804688 C 225.472656 59.179688 236.722656 61.929688 236.472656 73.554688 C 236.222656 85.179688 223.347656 93.554688 223.347656 93.554688 M 105.722656 116.054688 C 103.890625 112.011719 78.972656 95.929688 78.972656 95.929688 C 78.972656 95.929688 63.472656 84.804688 62.722656 73.929688 C 62.347656 57.179688 85.597656 57.304688 93.472656 60.929688 C 95.472656 73.554688 106.929688 118.71875 105.722656 116.054688 M 248.972656 66.261719 C 245.140625 56.097656 239.890625 49.679688 226.054688 46.679688 C 212.222656 43.679688 203.054688 48.679688 203.054688 48.679688 C 203.054688 48.679688 198.472656 40.179688 185.304688 32.429688 C 172.140625 24.679688 157.472656 24.429688 157.472656 24.429688 C 157.472656 24.429688 158.722656 22.347656 158.640625 19.179688 C 158.222656 13.761719 152.304688 11.597656 152.304688 11.597656 C 152.304688 11.597656 144.972656 10.679688 142.054688 15.011719 C 139.140625 19.347656 141.972656 24.261719 141.972656 24.261719 C 141.972656 24.261719 132.804688 24.929688 122.804688 28.347656 C 112.804688 31.761719 104.890625 37.347656 96.640625 48.429688 C 80.890625 42.847656 69.222656 46.847656 62.640625 50.847656 C 56.054688 54.847656 48.804688 62.597656 49.640625 74.097656 C 50.472656 85.597656 55.554688 92.761719 62.871094 99.53125 C 70.183594 106.304688 86.832031 117.058594 91.175781 120.097656 C 95.519531 123.136719 94.664062 124.027344 94.375 126.398438 C 94.085938 128.765625 90.140625 131.179688 89.140625 135.113281 C 88.140625 139.050781 90.722656 142.011719 94.628906 142.335938 C 98.535156 142.65625 100.289062 140.421875 104.0625 135.875 C 107.839844 131.328125 108.125 125.097656 107.554688 120.097656 C 112.804688 129.929688 122.722656 136.347656 133.222656 138.226562 C 133.554688 145.855469 131.640625 151.867188 129.984375 155.097656 C 128.746094 161.429688 123.71875 164.460938 123.71875 164.460938 L 120.84375 168.851562 L 118.222656 172.429688 L 115.082031 195.390625 L 175.890625 195.390625 C 175.890625 195.390625 180.890625 195.429688 183.554688 195.261719 C 183.554688 192.597656 180.613281 172.429688 180.390625 172.179688 C 180.167969 171.929688 176.140625 165.097656 174.722656 163.929688 C 173.304688 162.761719 169.304688 157.011719 169.304688 157.011719 C 169.304688 157.011719 168.472656 154.847656 167.972656 152.847656 C 165.722656 147.597656 166.054688 138.511719 166.054688 138.511719 C 166.054688 138.511719 174.640625 136.097656 180.972656 132.179688 C 187.304688 128.261719 192.640625 119.347656 192.640625 119.347656 C 192.640625 119.347656 191.222656 124.847656 192.222656 128.179688 C 193.222656 131.511719 196.054688 139.261719 200.640625 141.429688 C 206.890625 143.429688 208.722656 140.761719 210.222656 137.679688 C 211.804688 133.761719 207.390625 130.011719 205.222656 126.847656 C 203.054688 123.679688 206.640625 121.011719 207.054688 120.847656 C 207.472656 120.679688 220.390625 112.011719 228.304688 106.097656 C 236.640625 99.761719 243.722656 91.511719 245.222656 88.847656 C 246.722656 86.179688 252.804688 76.429688 248.972656 66.261719 "/>
<path style=" stroke:none;fill-rule:nonzero;fill:rgb(100%,100%,100%);fill-opacity:1;" d="M 105.722656 116.054688 C 105.714844 116.03125 105.691406 116.003906 105.679688 115.980469 C 106.605469 118.472656 107.332031 120.429688 107.675781 121.347656 C 107.640625 120.925781 107.601562 120.503906 107.554688 120.097656 C 110.730469 126.042969 115.617188 130.726562 121.300781 133.925781 C 108.222656 121.835938 103.269531 70.933594 102.222656 63.597656 C 101.054688 55.429688 104.390625 51.929688 108.222656 50.761719 C 110.722656 40.597656 130.390625 26.261719 147.054688 23.761719 C 143.554688 14.261719 150.890625 11.929688 150.890625 11.929688 L 151.195312 11.523438 C 149.035156 11.460938 144.273438 11.71875 142.054688 15.011719 C 139.140625 19.347656 141.972656 24.261719 141.972656 24.261719 C 141.972656 24.261719 132.804688 24.929688 122.804688 28.347656 C 112.804688 31.761719 104.890625 37.347656 96.640625 48.429688 C 96.476562 48.371094 96.324219 48.328125 96.164062 48.273438 L 93.890625 54.261719 L 93.472656 60.929688 C 95.472656 73.554688 106.929688 118.71875 105.722656 116.054688 "/>
<path style=" stroke:none;fill-rule:nonzero;fill:rgb(100%,100%,100%);fill-opacity:1;" d="M 119.890625 170.429688 C 119.890625 170.429688 120.222656 178.597656 123.390625 179.261719 C 126.558594 179.929688 154.722656 170.429688 154.722656 170.429688 Z M 119.890625 170.429688 "/>
<path style=" stroke:none;fill-rule:nonzero;fill:rgb(100%,100%,100%);fill-opacity:1;" d="M 55.058594 77.761719 C 53.722656 66.429688 60.890625 55.09375 74.390625 52.429688 C 87.890625 49.761719 96.722656 52.929688 96.722656 52.929688 L 101.222656 48.59375 C 101.222656 48.59375 100.292969 46.992188 99.222656 45.136719 C 98.363281 46.179688 97.503906 47.269531 96.640625 48.429688 C 80.890625 42.84375 69.222656 46.84375 62.640625 50.84375 C 56.058594 54.84375 48.808594 62.59375 49.640625 74.09375 C 50.472656 85.59375 55.558594 92.761719 62.871094 99.535156 C 65.359375 101.839844 68.933594 104.609375 72.738281 107.375 C 63 98.855469 56.28125 88.171875 55.058594 77.761719 "/>
<path style=" stroke:none;fill-rule:nonzero;fill:rgb(100%,100%,100%);fill-opacity:1;" d="M 248.210938 64.34375 C 244.425781 55.285156 238.996094 49.484375 226.058594 46.679688 C 217.199219 44.757812 210.273438 46.117188 206.425781 47.339844 C 207.519531 47.769531 213.167969 49.945312 215.722656 50.09375 C 218.558594 50.261719 233.058594 50.59375 240.222656 60.761719 C 243.175781 64.953125 246.269531 65.683594 248.210938 64.34375 "/>
<g clip-path="url(#clip1)" clip-rule="nonzero">
<path style=" stroke:none;fill-rule:nonzero;fill:rgb(13.33313%,14.117432%,14.901733%);fill-opacity:1;" d="M 82.503906 410.882812 C 82.449219 410.703125 82.46875 410.507812 82.554688 410.339844 C 85.828125 403.902344 99.507812 394.460938 102.945312 392.15625 C 96.839844 385.828125 90.847656 379.199219 90.847656 377.554688 C 90.847656 375.117188 100.445312 353.773438 104.0625 345.808594 L 85.835938 337.777344 C 85.601562 340.167969 85.210938 342.664062 84.570312 345 C 84.480469 345.335938 84.179688 345.554688 83.847656 345.554688 C 83.78125 345.554688 83.71875 345.546875 83.652344 345.527344 C 83.25 345.417969 83.015625 345.007812 83.125 344.605469 C 84.265625 340.425781 84.585938 335.617188 84.628906 331.953125 C 84.609375 329.0625 84.367188 325.828125 83.472656 324.679688 C 82.683594 323.664062 80.167969 323.566406 77.640625 323.761719 C 73.394531 324.417969 67.867188 325.679688 62.402344 328.113281 C 62.304688 328.15625 62.199219 328.179688 62.097656 328.179688 C 61.8125 328.179688 61.539062 328.011719 61.414062 327.734375 C 61.246094 327.355469 61.414062 326.910156 61.792969 326.742188 C 64.882812 325.367188 67.996094 324.355469 70.894531 323.613281 C 68.144531 318.542969 56.078125 296.433594 48.683594 284.792969 C 44.527344 286.46875 40.34375 286.78125 37.804688 286.78125 C 36.417969 286.78125 35.523438 286.6875 35.390625 286.675781 C 34.980469 286.628906 34.683594 286.257812 34.726562 285.847656 C 34.773438 285.433594 35.144531 285.136719 35.554688 285.183594 C 35.648438 285.195312 42.714844 285.910156 49.171875 282.917969 C 52.480469 280.402344 53.246094 275.6875 53.417969 273.65625 C 50.964844 274.21875 48.765625 274.46875 46.816406 274.46875 C 36.511719 274.46875 32.972656 267.855469 32.929688 267.769531 C 32.742188 267.402344 32.886719 266.949219 33.257812 266.761719 C 33.625 266.574219 34.074219 266.71875 34.265625 267.085938 C 34.464844 267.46875 39.128906 275.96875 54.394531 271.875 C 59.027344 267.835938 80.511719 249.234375 98.472656 235.929688 C 80.972656 231.679688 76.472656 205.429688 76.472656 205.429688 C 10.472656 256.429688 3.222656 268.679688 2.222656 273.929688 C 20.972656 331.429688 53.722656 382.429688 53.722656 382.429688 L 37.972656 452.929688 L 99.972656 452.929688 C 100.078125 452.59375 100.183594 452.25 100.285156 451.910156 C 100.074219 451.464844 99.84375 450.980469 99.597656 450.46875 C 95.277344 441.429688 85.167969 420.261719 82.503906 410.882812 M 104.007812 393.253906 C 101.144531 395.171875 87.421875 404.574219 84.027344 410.761719 C 86.777344 420.144531 96.664062 440.851562 100.933594 449.78125 C 105.5 434.492188 109.148438 417.28125 111.96875 401.269531 C 109.792969 399.117188 106.929688 396.261719 104.007812 393.253906 M 105.472656 346.429688 L 105.4375 346.414062 C 99.925781 358.535156 92.347656 375.804688 92.347656 377.554688 C 92.578125 379.210938 102.308594 389.574219 112.28125 399.46875 C 117.449219 369.632812 119.722656 344.429688 119.722656 344.429688 Z M 105.472656 346.429688 "/>
</g>
<path style="fill:none;stroke-width:1.5;stroke-linecap:round;stroke-linejoin:round;stroke:rgb(13.33313%,14.117432%,14.901733%);stroke-opacity:1;stroke-miterlimit:10;" d="M -0.00054375 -0.0006875 C -0.00054375 -0.0006875 13.249456 14.499312 18.8393 19.749312 C 7.43305 23.749312 6.749456 40.999312 6.749456 41.749312 L -12.176325 26.846969 " transform="matrix(1,0,0,-1,85.2232,235.929)"/>
<path style="fill:none;stroke-width:1.5;stroke-linecap:round;stroke-linejoin:round;stroke:rgb(13.33313%,14.117432%,14.901733%);stroke-opacity:1;stroke-miterlimit:10;" d="M 0.000925 -0.0006875 C 1.168894 -0.332719 10.000925 -2.918656 3.332956 12.327437 " transform="matrix(1,0,0,-1,93.3897,235.929)"/>
<path style="fill:none;stroke-width:1.5;stroke-linecap:round;stroke-linejoin:round;stroke:rgb(13.33313%,14.117432%,14.901733%);stroke-opacity:1;stroke-miterlimit:10;" d="M -0.0015 -0.0006875 C -0.0015 -0.0006875 8.994594 3.581344 10.494594 16.417281 C 11.994594 29.249312 13.994594 43.249312 14.158656 43.749312 C 14.326625 44.249312 17.494594 47.917281 18.994594 50.749312 C 20.494594 53.581344 26.994594 57.249312 25.326625 63.249312 C 24.494594 64.417281 23.326625 64.249312 23.326625 64.249312 L 14.658656 56.081344 L 6.658656 46.581344 " transform="matrix(1,0,0,-1,104.064,216.179)"/>
<path style="fill:none;stroke-width:1.5;stroke-linecap:round;stroke-linejoin:round;stroke:rgb(13.33313%,14.117432%,14.901733%);stroke-opacity:1;stroke-miterlimit:10;" d="M 0.00134375 -0.00065 C 2.782594 6.542319 0.384156 9.956381 -1.947875 10.12435 C -1.947875 10.12435 -17.43225 -13.211588 -18.772094 -16.211588 C -20.115844 -19.211588 -27.283812 -37.961588 -27.283812 -37.961588 L -30.678344 -40.348306 " transform="matrix(1,0,0,-1,122.8385,156.2181)"/>
<path style="fill:none;stroke-width:1.5;stroke-linecap:round;stroke-linejoin:round;stroke:rgb(13.33313%,14.117432%,14.901733%);stroke-opacity:1;stroke-miterlimit:10;" d="M 0.000925 0.00078125 C 0.000925 0.00078125 -3.366262 -6.217969 -12.932669 -9.108594 " transform="matrix(1,0,0,-1,125.3897,198.2625)"/>
<g clip-path="url(#clip2)" clip-rule="nonzero">
<path style=" stroke:none;fill-rule:nonzero;fill:rgb(13.33313%,14.117432%,14.901733%);fill-opacity:1;" d="M 216.335938 410.882812 C 216.386719 410.703125 216.367188 410.507812 216.28125 410.339844 C 213.007812 403.902344 199.328125 394.460938 195.890625 392.15625 C 202 385.828125 207.988281 379.199219 207.988281 377.554688 C 207.988281 375.117188 198.390625 353.773438 194.773438 345.808594 L 213.003906 337.777344 C 213.234375 340.167969 213.628906 342.664062 214.265625 345 C 214.355469 345.335938 214.660156 345.554688 214.988281 345.554688 C 215.054688 345.554688 215.121094 345.546875 215.183594 345.527344 C 215.585938 345.417969 215.820312 345.007812 215.710938 344.605469 C 214.570312 340.425781 214.25 335.617188 214.207031 331.953125 C 214.226562 329.0625 214.46875 325.828125 215.363281 324.679688 C 216.152344 323.664062 218.667969 323.566406 221.195312 323.761719 C 225.441406 324.417969 230.96875 325.679688 236.433594 328.113281 C 236.53125 328.15625 236.636719 328.179688 236.738281 328.179688 C 237.023438 328.179688 237.296875 328.011719 237.421875 327.734375 C 237.589844 327.355469 237.421875 326.910156 237.042969 326.742188 C 233.953125 325.367188 230.839844 324.355469 227.941406 323.613281 C 230.691406 318.542969 242.757812 296.433594 250.152344 284.792969 C 254.308594 286.46875 258.496094 286.78125 261.035156 286.78125 C 262.417969 286.78125 263.3125 286.6875 263.445312 286.675781 C 263.859375 286.628906 264.152344 286.257812 264.109375 285.847656 C 264.0625 285.433594 263.691406 285.136719 263.28125 285.183594 C 263.191406 285.195312 256.125 285.910156 249.664062 282.917969 C 246.355469 280.402344 245.589844 275.6875 245.417969 273.65625 C 247.871094 274.21875 250.074219 274.46875 252.019531 274.46875 C 262.324219 274.46875 265.863281 267.855469 265.90625 267.769531 C 266.09375 267.402344 265.949219 266.949219 265.582031 266.761719 C 265.210938 266.574219 264.761719 266.71875 264.570312 267.085938 C 264.371094 267.46875 259.707031 275.96875 244.441406 271.875 C 239.808594 267.835938 218.324219 249.234375 200.363281 235.929688 C 217.863281 231.679688 222.363281 205.429688 222.363281 205.429688 C 288.363281 256.429688 295.613281 268.679688 296.613281 273.929688 C 277.863281 331.429688 245.113281 382.429688 245.113281 382.429688 L 260.863281 452.929688 L 198.863281 452.929688 C 198.757812 452.59375 198.65625 452.25 198.550781 451.910156 C 198.761719 451.464844 198.996094 450.980469 199.238281 450.46875 C 203.558594 441.429688 213.667969 420.261719 216.335938 410.882812 M 194.832031 393.253906 C 197.695312 395.171875 211.414062 404.574219 214.808594 410.761719 C 212.058594 420.144531 202.171875 440.851562 197.90625 449.78125 C 193.335938 434.492188 189.6875 417.28125 186.871094 401.269531 C 189.042969 399.117188 191.90625 396.261719 194.832031 393.253906 M 193.363281 346.429688 L 193.402344 346.414062 C 198.910156 358.535156 206.488281 375.804688 206.488281 377.554688 C 206.257812 379.210938 196.527344 389.574219 186.554688 399.46875 C 181.386719 369.632812 179.113281 344.429688 179.113281 344.429688 Z M 193.363281 346.429688 "/>
</g>
<path style="fill:none;stroke-width:1.5;stroke-linecap:round;stroke-linejoin:round;stroke:rgb(13.33313%,14.117432%,14.901733%);stroke-opacity:1;stroke-miterlimit:10;" d="M -0.00011875 -0.0006875 C -0.00011875 -0.0006875 -13.250119 14.499312 -18.839962 19.749312 C -7.433712 23.749312 -6.750119 40.999312 -6.750119 41.749312 L 12.179569 26.846969 " transform="matrix(1,0,0,-1,213.6134,235.929)"/>
<path style="fill:none;stroke-width:1.5;stroke-linecap:round;stroke-linejoin:round;stroke:rgb(13.33313%,14.117432%,14.901733%);stroke-opacity:1;stroke-miterlimit:10;" d="M -0.0015875 -0.0006875 C -1.16565 -0.332719 -10.001587 -2.918656 -3.333619 12.327437 " transform="matrix(1,0,0,-1,205.4469,235.929)"/>
<path style="fill:none;stroke-width:1.5;stroke-linecap:round;stroke-linejoin:round;stroke:rgb(13.33313%,14.117432%,14.901733%);stroke-opacity:1;stroke-miterlimit:10;" d="M 0.0009375 -0.0006875 C 0.0009375 -0.0006875 -8.99125 3.581344 -10.49125 16.417281 C -11.99125 29.249312 -13.99125 43.249312 -14.159219 43.749312 C -14.327187 44.249312 -17.49125 47.917281 -18.99125 50.749312 C -20.49125 53.581344 -26.99125 57.249312 -25.327187 63.249312 C -24.49125 64.417281 -23.327187 64.249312 -23.327187 64.249312 L -14.659219 56.081344 L -6.659219 46.581344 " transform="matrix(1,0,0,-1,194.7725,216.179)"/>
<path style="fill:none;stroke-width:1.5;stroke-linecap:round;stroke-linejoin:round;stroke:rgb(13.33313%,14.117432%,14.901733%);stroke-opacity:1;stroke-miterlimit:10;" d="M 0.0019 -0.00065 C -2.783256 6.542319 -0.384819 9.956381 1.947212 10.12435 C 1.947212 10.12435 17.435494 -13.211588 18.775337 -16.211588 C 20.115181 -19.211588 27.28315 -37.961588 27.28315 -37.961588 L 30.681587 -40.348306 " transform="matrix(1,0,0,-1,175.9981,156.2181)"/>
<path style="fill:none;stroke-width:1.5;stroke-linecap:round;stroke-linejoin:round;stroke:rgb(13.33313%,14.117432%,14.901733%);stroke-opacity:1;stroke-miterlimit:10;" d="M -0.0015875 0.00078125 C -0.0015875 0.00078125 3.3656 -6.217969 12.932006 -9.108594 " transform="matrix(1,0,0,-1,173.4469,198.2625)"/>
<path style="fill:none;stroke-width:1.5;stroke-linecap:round;stroke-linejoin:round;stroke:rgb(13.33313%,14.117432%,14.901733%);stroke-opacity:1;stroke-miterlimit:10;" d="M 0.00136875 0.000275 C -0.893163 0.121369 -1.779881 0.433869 -2.592381 0.949494 C -5.678319 2.906525 -16.561131 3.586212 -23.955663 -0.581756 C -28.6666 -3.241913 -30.900975 -7.249725 -30.779881 -12.835663 C -30.525975 -24.691131 -14.897069 -34.929413 -3.486913 -42.402069 C 4.536525 -47.655975 10.329494 -51.45285 12.567775 -56.206756 C 17.212306 -66.073944 10.868556 -75.519256 6.391994 -79.542694 C 5.149806 -80.659881 3.595119 -81.210663 2.048244 -81.210663 C 0.266994 -81.210663 -1.506444 -80.480194 -2.787694 -79.054413 C -5.186131 -76.386444 -4.971288 -72.273163 -2.299413 -69.874725 C -2.287694 -69.863006 2.477931 -65.300506 0.806056 -61.745819 C -0.174413 -60.113006 -6.205663 -56.163788 -10.608006 -53.277069 C -24.436131 -44.222381 -43.377538 -31.816131 -43.779881 -13.116913 C -44.002538 -2.749725 -39.2291 5.722931 -30.342381 10.738556 C -19.553319 16.8284 -4.615819 16.582306 3.11465 12.6409 " transform="matrix(1,0,0,-1,93.5416,61.2034)"/>
<path style="fill:none;stroke-width:1.5;stroke-linecap:round;stroke-linejoin:round;stroke:rgb(13.33313%,14.117432%,14.901733%);stroke-opacity:1;stroke-miterlimit:10;" d="M 0.00134375 0.000275 C 0.895875 0.121369 1.778688 0.433869 2.591188 0.949494 C 5.677125 2.906525 16.563844 3.586212 23.954469 -0.581756 C 28.669313 -3.241913 30.903688 -7.249725 30.782594 -12.835663 C 30.528688 -24.691131 14.895875 -34.929413 3.485719 -42.402069 C -4.533812 -47.655975 -10.326781 -51.45285 -12.565062 -56.206756 C -17.209594 -66.073944 -10.86975 -75.519256 -6.389281 -79.542694 C -5.147094 -80.659881 -3.596312 -81.210663 -2.045531 -81.210663 C -0.268187 -81.210663 1.50525 -80.480194 2.790406 -79.054413 C 5.188844 -76.386444 4.970094 -72.273163 2.298219 -69.874725 C 2.2865 -69.863006 -2.479125 -65.300506 -0.803344 -61.745819 C 0.173219 -60.113006 6.204469 -56.163788 10.606813 -53.277069 C 24.438844 -44.222381 43.376344 -31.816131 43.778688 -13.116913 C 44.001344 -2.749725 39.231813 5.722931 30.345094 10.738556 C 19.552125 16.8284 4.614625 16.582306 -3.115844 12.6409 " transform="matrix(1,0,0,-1,205.9635,61.2034)"/>
<path style="fill:none;stroke-width:1.5;stroke-linecap:round;stroke-linejoin:round;stroke:rgb(13.33313%,14.117432%,14.901733%);stroke-opacity:1;stroke-miterlimit:10;" d="M 0.00140625 0.00175 C 11.001406 0.00175 37.833438 2.165813 44.501406 26.00175 C 51.165469 49.833781 57.333438 82.00175 56.333438 85.333781 C 55.333438 88.665813 42.165469 116.165813 0.00140625 116.165813 C -42.166562 116.165813 -55.334531 88.665813 -56.334531 85.333781 C -57.334531 82.00175 -51.166562 49.833781 -44.498594 26.00175 C -37.834531 2.165813 -10.998594 0.00175 0.00140625 0.00175 Z M 0.00140625 0.00175 " transform="matrix(1,0,0,-1,149.7525,140.0955)"/>
<path style="fill:none;stroke-width:1.5;stroke-linecap:round;stroke-linejoin:round;stroke:rgb(13.33313%,14.117432%,14.901733%);stroke-opacity:1;stroke-miterlimit:10;" d="M 0.001425 0.00078125 C -12.053262 5.66875 -37.697794 7.582812 -56.385294 7.582812 C -75.072794 7.582812 -100.721231 5.66875 -112.772012 0.00078125 " transform="matrix(1,0,0,-1,206.1392,54.7625)"/>
<path style="fill:none;stroke-width:1.5;stroke-linecap:round;stroke-linejoin:round;stroke:rgb(13.33313%,14.117432%,14.901733%);stroke-opacity:1;stroke-miterlimit:10;" d="M 0.0018875 -0.00119375 C -0.591863 1.178494 -0.923894 2.510525 -0.923894 3.920681 C -0.923894 8.752713 2.990169 12.670681 7.826106 12.670681 C 12.658137 12.670681 16.576106 8.752713 16.576106 3.920681 C 16.576106 2.385525 16.177669 0.940213 15.482356 -0.313694 " transform="matrix(1,0,0,-1,141.9278,23.9324)"/>
<path style="fill:none;stroke-width:1.5;stroke-linecap:round;stroke-linejoin:round;stroke:rgb(13.33313%,14.117432%,14.901733%);stroke-opacity:1;stroke-miterlimit:10;" d="M 0.00085625 -0.0016625 C 0.00085625 -0.0016625 0.868044 -9.704788 -3.237425 -17.704788 " transform="matrix(1,0,0,-1,133.2218,138.2249)"/>
<path style="fill:none;stroke-width:1.5;stroke-linecap:round;stroke-linejoin:round;stroke:rgb(13.33313%,14.117432%,14.901733%);stroke-opacity:1;stroke-miterlimit:10;" d="M 0.00185625 -0.0016625 C 0.00185625 -0.0016625 -0.755956 -8.474319 2.494044 -16.114944 " transform="matrix(1,0,0,-1,166.2833,138.2249)"/>
<path style="fill:none;stroke-width:1.5;stroke-linecap:round;stroke-linejoin:round;stroke:rgb(13.33313%,14.117432%,14.901733%);stroke-opacity:1;stroke-miterlimit:10;" d="M -0.0010375 0.000275 L 68.123962 0.000275 " transform="matrix(1,0,0,-1,115.4151,195.3909)"/>
<path style="fill:none;stroke-width:1.5;stroke-linecap:round;stroke-linejoin:round;stroke:rgb(13.33313%,14.117432%,14.901733%);stroke-opacity:1;stroke-miterlimit:10;" d="M 0.0003875 -0.000175 L 36.465231 -0.000175 " transform="matrix(1,0,0,-1,120.0543,170.2967)"/>
<path style="fill:none;stroke-width:1.5;stroke-linecap:round;stroke-linejoin:round;stroke:rgb(13.33313%,14.117432%,14.901733%);stroke-opacity:1;stroke-miterlimit:10;" d="M -0.00011875 -0.000175 L 12.273319 -0.000175 " transform="matrix(1,0,0,-1,166.1759,170.2967)"/>
<path style="fill:none;stroke-width:1.5;stroke-linecap:round;stroke-linejoin:round;stroke:rgb(13.33313%,14.117432%,14.901733%);stroke-opacity:1;stroke-miterlimit:10;" d="M 0.00139375 0.00078125 C 0.00139375 0.00078125 -8.834544 9.500781 -21.084544 12.000781 " transform="matrix(1,0,0,-1,187.6822,43.7625)"/>
<path style="fill:none;stroke-width:1.5;stroke-linecap:round;stroke-linejoin:round;stroke:rgb(13.33313%,14.117432%,14.901733%);stroke-opacity:1;stroke-miterlimit:10;" d="M -0.00059375 0.00030625 C 2.843156 -2.968444 6.354875 -7.917663 6.354875 -9.433288 C 6.354875 -9.433288 3.979875 -19.183288 5.354875 -21.308288 C 6.729875 -23.433288 7.854875 -24.183288 7.854875 -24.183288 L 7.940812 -24.183288 C 6.483781 -48.058288 -5.266219 -57.308288 -8.434188 -59.140319 C -11.602156 -60.97235 -15.102156 -61.058288 -18.266219 -61.058288 L -21.352156 -61.058288 C -24.516219 -61.058288 -28.016219 -60.97235 -31.184188 -59.140319 C -34.352156 -57.308288 -46.102156 -48.058288 -47.559188 -24.183288 C -47.559188 -24.183288 -46.434188 -23.433288 -45.059188 -21.308288 C -43.684188 -19.183288 -46.059188 -9.433288 -46.059188 -9.433288 C -46.059188 -7.433288 -39.934188 0.566712 -37.309188 2.066712 C -34.684188 3.566712 -27.059188 4.941712 -19.809188 0.191712 " transform="matrix(1,0,0,-1,168.692,268.1214)"/>
<path style="fill:none;stroke-width:1.5;stroke-linecap:round;stroke-linejoin:round;stroke:rgb(13.33313%,14.117432%,14.901733%);stroke-opacity:1;stroke-miterlimit:10;" d="M -0.0000875 -0.00073125 C -0.0000875 -0.00073125 9.249912 -0.910888 12.874912 5.589112 " transform="matrix(1,0,0,-1,150.6329,264.6438)"/>
<path style="fill:none;stroke-width:1.5;stroke-linecap:round;stroke-linejoin:round;stroke:rgb(13.33313%,14.117432%,14.901733%);stroke-opacity:1;stroke-miterlimit:10;" d="M -0.0000875 -0.0006875 C -0.0000875 -0.0006875 4.874912 -0.750688 8.874912 4.874312 C 12.874912 10.499312 11.624912 19.624312 4.437412 23.249312 C -1.000088 18.999312 -10.000088 16.124312 -21.000088 13.124312 C -32.000088 10.124312 -37.625088 7.9915 -39.875088 2.057906 " transform="matrix(1,0,0,-1,163.5079,263.929)"/>
<path style="fill:none;stroke-width:1.5;stroke-linecap:round;stroke-linejoin:round;stroke:rgb(13.33313%,14.117432%,14.901733%);stroke-opacity:1;stroke-miterlimit:10;" d="M -0.0000875 -0.0006875 C -0.0000875 -0.0006875 -7.449306 13.1165 3.124913 21.999312 " transform="matrix(1,0,0,-1,118.6329,284.929)"/>
<path style="fill:none;stroke-width:1.5;stroke-linecap:round;stroke-linejoin:round;stroke:rgb(13.33313%,14.117432%,14.901733%);stroke-opacity:1;stroke-miterlimit:10;" d="M 0.0013875 -0.0006875 C 0.0013875 -0.0006875 7.450606 13.1165 -3.123613 21.999312 " transform="matrix(1,0,0,-1,178.9283,284.929)"/>
<path style="fill:none;stroke-width:1.5;stroke-linecap:round;stroke-linejoin:round;stroke:rgb(13.33313%,14.117432%,14.901733%);stroke-opacity:1;stroke-miterlimit:10;" d="M 0.0014 0.00130625 C -1.885319 -0.451819 -5.885319 -1.619788 -6.635319 3.962244 C -7.385319 9.548181 -8.225163 17.462244 -4.139225 17.630212 " transform="matrix(1,0,0,-1,123.0611,304.8099)"/>
<path style="fill:none;stroke-width:1.5;stroke-linecap:round;stroke-linejoin:round;stroke:rgb(13.33313%,14.117432%,14.901733%);stroke-opacity:1;stroke-miterlimit:10;" d="M 0.00141875 0.00130625 C 1.888137 -0.451819 5.888137 -1.619788 6.638137 3.962244 C 7.388137 9.548181 8.227981 17.462244 4.138137 17.630212 " transform="matrix(1,0,0,-1,175.0103,304.8099)"/>
<path style="fill:none;stroke-width:1.5;stroke-linecap:round;stroke-linejoin:round;stroke:rgb(13.33313%,14.117432%,14.901733%);stroke-opacity:1;stroke-miterlimit:10;" d="M -0.0000875 0.00078125 C -0.0000875 0.00078125 11.081944 0.91875 16.667881 -7.83125 " transform="matrix(1,0,0,-1,152.2579,275.2625)"/>
<path style="fill:none;stroke-width:1.5;stroke-linecap:round;stroke-linejoin:round;stroke:rgb(13.33313%,14.117432%,14.901733%);stroke-opacity:1;stroke-miterlimit:10;" d="M -0.0000875 0.00175 C -0.0000875 0.00175 -9.000088 0.50175 -14.082119 -4.666219 " transform="matrix(1,0,0,-1,143.5079,279.5955)"/>
<path style=" stroke:none;fill-rule:nonzero;fill:rgb(13.33313%,14.117432%,14.901733%);fill-opacity:1;" d="M 141.507812 289.511719 C 141.507812 291.582031 140.109375 293.261719 138.382812 293.261719 C 136.65625 293.261719 135.257812 291.582031 135.257812 289.511719 C 135.257812 287.441406 136.65625 285.761719 138.382812 285.761719 C 140.109375 285.761719 141.507812 287.441406 141.507812 289.511719 "/>
<path style=" stroke:none;fill-rule:nonzero;fill:rgb(13.33313%,14.117432%,14.901733%);fill-opacity:1;" d="M 162.507812 289.511719 C 162.507812 291.582031 161.109375 293.261719 159.382812 293.261719 C 157.65625 293.261719 156.257812 291.582031 156.257812 289.511719 C 156.257812 287.441406 157.65625 285.761719 159.382812 285.761719 C 161.109375 285.761719 162.507812 287.441406 162.507812 289.511719 "/>
<path style="fill:none;stroke-width:1.5;stroke-linecap:round;stroke-linejoin:round;stroke:rgb(13.33313%,14.117432%,14.901733%);stroke-opacity:1;stroke-miterlimit:10;" d="M -0.0000875 0.00078125 C -0.0000875 0.00078125 -7.168056 0.16875 -7.332119 2.332812 C -7.500088 4.500781 -4.168056 8.500781 -4.000088 12.91875 " transform="matrix(1,0,0,-1,151.7579,303.5125)"/>
<path style="fill:none;stroke-width:1.5;stroke-linecap:round;stroke-linejoin:round;stroke:rgb(13.33313%,14.117432%,14.901733%);stroke-opacity:1;stroke-miterlimit:10;" d="M -0.0000875 0.00175 C -0.500088 0.00175 -8.668056 -3.084187 -19.793056 0.00175 " transform="matrix(1,0,0,-1,156.2579,309.0955)"/>
<path style="fill:none;stroke-width:1.5;stroke-linecap:round;stroke-linejoin:round;stroke:rgb(13.33313%,14.117432%,14.901733%);stroke-opacity:1;stroke-miterlimit:10;" d="M -0.0000875 -0.00015 C -0.0000875 -0.00015 -2.796963 -7.230619 -11.293056 -7.230619 C -19.793056 -7.230619 -20.558681 0.113131 -20.558681 0.113131 " transform="matrix(1,0,0,-1,159.3829,309.7811)"/>
<path style="fill:none;stroke-width:1.5;stroke-linecap:round;stroke-linejoin:round;stroke:rgb(13.33313%,14.117432%,14.901733%);stroke-opacity:1;stroke-miterlimit:10;" d="M -0.00055 -0.0006875 C -4.621644 0.749312 -13.211488 7.999312 -17.273988 18.249312 C -12.746644 23.249312 -13.305238 34.159469 -13.305238 34.159469 " transform="matrix(1,0,0,-1,146.5318,358.179)"/>
<path style="fill:none;stroke-width:1.5;stroke-linecap:round;stroke-linejoin:round;stroke:rgb(13.33313%,14.117432%,14.901733%);stroke-opacity:1;stroke-miterlimit:10;" d="M -0.0000875 -0.0006875 C -0.0000875 -0.0006875 -9.750088 12.624312 -11.722744 20.249312 " transform="matrix(1,0,0,-1,129.2579,373.554)"/>
<path style="fill:none;stroke-width:1.5;stroke-linecap:round;stroke-linejoin:round;stroke:rgb(13.33313%,14.117432%,14.901733%);stroke-opacity:1;stroke-miterlimit:10;" d="M -0.00105 -0.0006875 C -0.00105 -0.0006875 4.022388 4.624312 11.100513 6.124312 " transform="matrix(1,0,0,-1,118.1573,346.054)"/>
<path style="fill:none;stroke-width:1.5;stroke-linecap:round;stroke-linejoin:round;stroke:rgb(13.33313%,14.117432%,14.901733%);stroke-opacity:1;stroke-miterlimit:10;" d="M -0.0005375 -0.0006875 C 4.624463 0.749312 13.2104 7.999312 17.2729 18.249312 C 12.749463 23.249312 13.308056 34.159469 13.308056 34.159469 " transform="matrix(1,0,0,-1,151.5396,358.179)"/>
<path style="fill:none;stroke-width:1.5;stroke-linecap:round;stroke-linejoin:round;stroke:rgb(13.33313%,14.117432%,14.901733%);stroke-opacity:1;stroke-miterlimit:10;" d="M -0.0011 -0.0006875 C -0.0011 -0.0006875 9.7489 12.624312 11.721556 20.249312 " transform="matrix(1,0,0,-1,168.8136,373.554)"/>
<path style="fill:none;stroke-width:1.5;stroke-linecap:round;stroke-linejoin:round;stroke:rgb(13.33313%,14.117432%,14.901733%);stroke-opacity:1;stroke-miterlimit:10;" d="M -0.0000375 -0.0006875 C -0.0000375 -0.0006875 -4.019569 4.624312 -11.1016 6.124312 " transform="matrix(1,0,0,-1,179.9141,346.054)"/>
<g clip-path="url(#clip3)" clip-rule="nonzero">
<path style=" stroke:none;fill-rule:nonzero;fill:rgb(10.588074%,39.99939%,100%);fill-opacity:1;" d="M 155.472656 379.804688 C 159.722656 376.929688 164.042969 368.492188 164.042969 368.492188 C 164.042969 368.492188 157.597656 360.867188 149.035156 360.492188 C 140.472656 360.867188 134.027344 368.492188 134.027344 368.492188 C 134.027344 368.492188 138.347656 376.929688 142.597656 379.804688 L 128.597656 452.929688 L 169.472656 452.929688 Z M 155.472656 379.804688 "/>
</g>
<path style="fill:none;stroke-width:1.5;stroke-linecap:round;stroke-linejoin:round;stroke:rgb(13.33313%,14.117432%,14.901733%);stroke-opacity:1;stroke-miterlimit:10;" d="M -0.00054375 -0.0006875 C -7.31695 -0.0006875 -13.250544 -5.930375 -13.250544 -13.250688 C -13.250544 -5.930375 -19.180231 -0.0006875 -26.500544 -0.0006875 C -19.180231 -0.0006875 -13.250544 5.932906 -13.250544 13.249312 C -13.250544 5.932906 -7.31695 -0.0006875 -0.00054375 -0.0006875 Z M -0.00054375 -0.0006875 " transform="matrix(1,0,0,-1,294.4732,26.429)"/>
<path style="fill:none;stroke-width:1.5;stroke-linecap:round;stroke-linejoin:round;stroke:rgb(13.33313%,14.117432%,14.901733%);stroke-opacity:1;stroke-miterlimit:10;" d="M 0.00043125 -0.001225 C -8.917537 -0.001225 -16.148006 -7.227788 -16.148006 -16.149663 C -16.148006 -7.227788 -23.378475 -0.001225 -32.296444 -0.001225 C -23.378475 -0.001225 -16.148006 7.229244 -16.148006 16.147212 C -16.148006 7.229244 -8.917537 -0.001225 0.00043125 -0.001225 Z M 0.00043125 -0.001225 " transform="matrix(1,0,0,-1,273.7691,148.5769)"/>
<path style="fill:none;stroke-width:1.5;stroke-linecap:round;stroke-linejoin:round;stroke:rgb(13.33313%,14.117432%,14.901733%);stroke-opacity:1;stroke-miterlimit:10;" d="M 0.00190625 -0.00024375 C -6.400437 -0.00024375 -11.591844 -5.187744 -11.591844 -11.590088 C -11.591844 -5.187744 -16.779344 -0.00024375 -23.177781 -0.00024375 C -16.779344 -0.00024375 -11.591844 5.187256 -11.591844 11.5896 C -11.591844 5.187256 -6.400437 -0.00024375 0.00190625 -0.00024375 Z M 0.00190625 -0.00024375 " transform="matrix(1,0,0,-1,99.1895,12.3396)"/>
<path style="fill:none;stroke-width:1.5;stroke-linecap:round;stroke-linejoin:round;stroke:rgb(13.33313%,14.117432%,14.901733%);stroke-opacity:1;stroke-miterlimit:10;" d="M 0.00141875 0.0012375 C -9.514206 0.0012375 -17.22905 -7.713606 -17.22905 -17.229231 C -17.22905 -7.713606 -24.939988 0.0012375 -34.455613 0.0012375 C -24.939988 0.0012375 -17.22905 7.712175 -17.22905 17.2278 C -17.22905 7.712175 -9.514206 0.0012375 0.00141875 0.0012375 Z M 0.00141875 0.0012375 " transform="matrix(1,0,0,-1,76.0103,150.2903)"/>
<path style="fill:none;stroke-width:1.5;stroke-linecap:round;stroke-linejoin:round;stroke:rgb(13.33313%,14.117432%,14.901733%);stroke-opacity:1;stroke-miterlimit:10;" d="M -0.001575 0.00078125 C -5.5797 0.00078125 -10.103137 -4.522656 -10.103137 -10.100781 C -10.103137 -4.522656 -14.626575 0.00078125 -20.2047 0.00078125 C -14.626575 0.00078125 -10.103137 4.524219 -10.103137 10.102344 C -10.103137 4.524219 -5.5797 0.00078125 -0.001575 0.00078125 Z M -0.001575 0.00078125 " transform="matrix(1,0,0,-1,20.9547,82.0125)"/>
<path style=" stroke:none;fill-rule:nonzero;fill:rgb(100%,100%,100%);fill-opacity:1;" d="M 149.292969 70.746094 L 131.417969 70.746094 C 128.828125 70.746094 126.730469 68.644531 126.730469 66.054688 C 126.730469 63.464844 128.828125 61.367188 131.417969 61.367188 L 153.621094 61.367188 C 157.136719 61.367188 159.984375 64.214844 159.984375 67.730469 C 159.984375 69.722656 159.597656 71.691406 158.847656 73.535156 L 143.59375 111.003906 C 142.832031 112.882812 141.007812 114.109375 138.984375 114.109375 C 135.441406 114.109375 133.03125 110.519531 134.371094 107.242188 Z M 149.292969 70.746094 "/>
<path style=" stroke:none;fill-rule:nonzero;fill:rgb(100%,100%,100%);fill-opacity:1;" d="M 174.46875 109.996094 C 174.867188 109.601562 175.066406 109.136719 175.066406 108.605469 C 175.066406 108.074219 174.867188 107.613281 174.46875 107.214844 C 174.070312 106.816406 173.609375 106.617188 173.078125 106.617188 C 172.546875 106.617188 172.085938 106.816406 171.6875 107.214844 C 171.289062 107.613281 171.09375 108.074219 171.09375 108.605469 C 171.09375 109.136719 171.289062 109.601562 171.6875 109.996094 C 172.085938 110.394531 172.546875 110.59375 173.078125 110.59375 C 173.609375 110.59375 174.070312 110.394531 174.46875 109.996094 M 170.328125 113.375 C 169.492188 112.886719 168.824219 112.21875 168.324219 111.371094 C 167.824219 110.527344 167.574219 109.605469 167.574219 108.605469 C 167.574219 107.625 167.828125 106.714844 168.339844 105.871094 C 168.847656 105.023438 169.527344 104.351562 170.371094 103.851562 C 171.21875 103.351562 172.121094 103.101562 173.078125 103.101562 C 174.078125 103.101562 174.992188 103.347656 175.828125 103.835938 C 176.664062 104.324219 177.332031 104.992188 177.832031 105.839844 C 178.332031 106.683594 178.582031 107.605469 178.582031 108.605469 C 178.582031 109.605469 178.332031 110.527344 177.832031 111.371094 C 177.332031 112.21875 176.664062 112.886719 175.828125 113.375 C 174.992188 113.863281 174.078125 114.109375 173.078125 114.109375 C 172.078125 114.109375 171.164062 113.863281 170.328125 113.375 M 161.628906 98.074219 C 162.027344 97.675781 162.226562 97.210938 162.226562 96.683594 C 162.226562 96.152344 162.027344 95.6875 161.628906 95.289062 C 161.230469 94.894531 160.769531 94.695312 160.238281 94.695312 C 159.707031 94.695312 159.242188 94.894531 158.847656 95.289062 C 158.449219 95.6875 158.25 96.152344 158.25 96.683594 C 158.25 97.210938 158.449219 97.675781 158.847656 98.074219 C 159.242188 98.472656 159.707031 98.667969 160.238281 98.667969 C 160.769531 98.667969 161.230469 98.472656 161.628906 98.074219 M 157.027344 109.523438 L 173.523438 93.027344 C 174.289062 92.261719 175.53125 92.265625 176.296875 93.035156 C 177.054688 93.800781 177.046875 95.035156 176.285156 95.796875 L 159.78125 112.277344 C 159.019531 113.035156 157.789062 113.035156 157.027344 112.273438 C 156.269531 111.515625 156.269531 110.28125 157.027344 109.523438 M 157.488281 101.453125 C 156.652344 100.960938 155.984375 100.292969 155.484375 99.449219 C 154.984375 98.605469 154.734375 97.679688 154.734375 96.683594 C 154.734375 95.703125 154.988281 94.792969 155.5 93.945312 C 156.007812 93.101562 156.6875 92.429688 157.53125 91.929688 C 158.375 91.429688 159.28125 91.179688 160.238281 91.179688 C 161.238281 91.179688 162.152344 91.425781 162.988281 91.914062 C 163.824219 92.402344 164.492188 93.070312 164.992188 93.914062 C 165.492188 94.761719 165.742188 95.683594 165.742188 96.683594 C 165.742188 97.679688 165.492188 98.605469 164.992188 99.449219 C 164.492188 100.292969 163.824219 100.960938 162.988281 101.453125 C 162.152344 101.941406 161.238281 102.183594 160.238281 102.183594 C 159.238281 102.183594 158.324219 101.941406 157.488281 101.453125 "/>
</g>
</svg>
