<?xml version="1.0" encoding="UTF-8" standalone="no"?>
<svg
   xmlns:dc="http://purl.org/dc/elements/1.1/"
   xmlns:cc="http://creativecommons.org/ns#"
   xmlns:rdf="http://www.w3.org/1999/02/22-rdf-syntax-ns#"
   xmlns:svg="http://www.w3.org/2000/svg"
   xmlns="http://www.w3.org/2000/svg"
   viewBox="0 0 415.19467 116.20133"
   height="116.20133"
   width="415.19467"
   xml:space="preserve"
   id="svg2"
   version="1.1"><metadata
     id="metadata8"><rdf:RDF><cc:Work
         rdf:about=""><dc:format>image/svg+xml</dc:format><dc:type
           rdf:resource="http://purl.org/dc/dcmitype/StillImage" /></cc:Work></rdf:RDF></metadata><defs
     id="defs6"><clipPath
       id="clipPath18"
       clipPathUnits="userSpaceOnUse"><path
         id="path16"
         d="M 0,87.151 H 311.396 V 0 H 0 Z" /></clipPath></defs><g
     transform="matrix(1.3333333,0,0,-1.3333333,0,116.20133)"
     id="g10"><g
       id="g12"><g
         clip-path="url(#clipPath18)"
         id="g14"><g
           transform="translate(10.2327,68.5289)"
           id="g20"><path
             id="path22"
             style="fill:#219845;fill-opacity:1;fill-rule:nonzero;stroke:none"
             d="m 0,0 c 0.271,-2.084 0.515,-3.956 0.761,-5.851 1.721,1.45 3.206,2.925 4.906,4.087 4.335,2.965 9.24,3.431 14.331,2.993 4.392,-0.377 8.059,-2.26 11.205,-5.239 0.786,-0.744 1.388,-1.681 2.073,-2.532 0.405,-0.501 0.805,-0.745 1.321,-0.106 3.336,4.124 7.75,6.413 12.87,7.414 5.51,1.076 10.959,1.072 16.118,-1.516 5.859,-2.938 9.231,-7.747 10.235,-14.183 0.273,-1.756 0.285,-3.565 0.287,-5.35 0.024,-14.731 0.001,-29.462 0.046,-44.193 0.004,-1.377 -0.285,-1.784 -1.767,-1.693 -2.797,0.173 -5.617,0.121 -8.418,-0.019 -1.372,-0.07 -1.644,0.445 -1.641,1.644 0.024,11.784 0.014,23.569 0.014,35.354 0,3.176 -0.043,6.353 0.012,9.529 0.109,6.31 -4.341,10.008 -10.045,10.531 -3.187,0.292 -6.328,0.079 -9.156,-1.651 -3.376,-2.067 -5.232,-5.034 -5.231,-9.064 10e-4,-14.869 -0.009,-29.738 0.019,-44.607 0.002,-1.211 -0.112,-1.772 -1.627,-1.694 -3.068,0.156 -6.152,0.027 -9.228,-0.054 -0.946,-0.025 -1.052,0.439 -1.049,1.18 0.014,3.361 0.006,6.721 0.006,10.082 0,11.647 0.003,23.293 -0.001,34.94 -0.002,6.909 -4.498,10.531 -10.724,10.92 -3.504,0.22 -6.846,-0.249 -9.743,-2.461 -2.652,-2.025 -4.052,-4.709 -4.057,-8.041 -0.022,-14.868 -0.013,-29.737 -0.014,-44.607 0,-1.935 0.006,-1.941 -1.86,-1.95 -2.9,-0.015 -5.8,0.002 -8.699,-0.046 -0.836,-0.013 -1.167,0.278 -1.15,1.111 0.034,1.564 0.018,3.13 0.018,4.694 -0.006,19.61 -0.003,39.222 -0.045,58.832 -0.002,1.215 0.365,1.596 1.558,1.567 C -5.83,-0.045 -2.981,0 0,0" /></g><g
           transform="translate(264.908,65.2311)"
           id="g24"><path
             id="path26"
             style="fill:#219845;fill-opacity:1;fill-rule:nonzero;stroke:none"
             d="m 0,0 c -2.02,0.027 -7.138,-2.791 -10.486,-5.898 1.868,-1.012 3.62,-1.992 5.417,-2.882 0.174,-0.087 0.765,0.297 0.918,0.591 C -2.749,-5.5 -1.4,-2.781 0,0 m 20.773,0.189 c -0.096,-0.086 -0.191,-0.174 -0.288,-0.261 0.179,-0.345 0.348,-0.697 0.537,-1.035 0.957,-1.704 1.997,-3.366 2.861,-5.115 1.427,-2.886 1.393,-2.935 4.308,-1.416 0.966,0.503 1.842,1.178 2.895,1.863 -3.273,2.773 -6.541,4.813 -10.313,5.964 m 10.421,-52.622 c -1.951,1.048 -3.683,2.015 -5.462,2.885 -0.202,0.099 -0.828,-0.262 -0.99,-0.556 -1.384,-2.516 -2.712,-5.063 -4.038,-7.611 -0.105,-0.202 -0.07,-0.478 -0.131,-0.976 3.956,1.432 7.406,3.245 10.621,6.258 m -41.822,-0.031 c 3.396,-2.901 6.721,-4.971 10.767,-6.157 -0.077,0.405 -0.07,0.596 -0.146,0.744 -1.353,2.632 -2.697,5.269 -4.106,7.87 -0.148,0.274 -0.808,0.564 -1.036,0.451 -1.749,-0.857 -3.45,-1.813 -5.479,-2.908 m 22.9,-0.519 c 0,-1.884 -0.033,-3.77 0.021,-5.652 0.015,-0.532 0.318,-1.518 0.433,-1.511 0.78,0.056 1.953,0.074 2.25,0.56 2.202,3.612 4.241,7.324 6.282,11.032 0.121,0.22 -0.123,0.937 -0.303,0.98 -2.55,0.61 -5.116,1.153 -7.683,1.691 -0.83,0.173 -1.017,-0.307 -1.008,-1.034 0.024,-2.021 0.008,-4.044 0.008,-6.066 m 0,47.733 c 0,-2.025 0.033,-4.052 -0.015,-6.076 -0.021,-0.856 0.296,-1.232 1.121,-1.071 2.09,0.405 4.201,0.747 6.253,1.301 2.184,0.59 2.158,0.684 1.138,2.739 -0.081,0.162 -0.125,0.343 -0.218,0.497 -1.783,2.979 -3.497,6.005 -5.422,8.888 -0.377,0.565 -1.575,0.581 -2.395,0.85 C 12.58,1.298 12.312,0.721 12.293,0.136 12.235,-1.658 12.272,-3.454 12.272,-5.25 M 8.395,-53.156 c 0,1.929 -0.07,3.863 0.024,5.789 0.067,1.374 -0.473,1.731 -1.715,1.429 -2.154,-0.525 -4.301,-1.103 -6.479,-1.5 -1.029,-0.187 -1.169,-0.635 -0.762,-1.38 1.966,-3.589 3.909,-7.196 6.032,-10.691 0.317,-0.523 1.541,-0.564 2.363,-0.641 0.131,-0.013 0.493,0.956 0.512,1.48 0.064,1.836 0.025,3.675 0.025,5.514 m 0.008,47.873 c 0,2.022 0.036,4.046 -0.031,6.066 C 8.358,1.178 7.832,1.919 7.726,1.887 6.901,1.641 5.769,1.465 5.388,0.857 3.231,-2.58 1.244,-6.124 -0.746,-9.661 c -0.13,-0.232 0.117,-0.989 0.309,-1.039 2.368,-0.618 4.755,-1.166 7.144,-1.698 1.307,-0.291 1.801,0.236 1.723,1.6 -0.105,1.832 -0.026,3.676 -0.027,5.515 m 10.701,-25.869 v -0.015 c -1.885,0 -3.771,-0.036 -5.655,0.015 -0.915,0.025 -1.203,-0.323 -1.191,-1.209 0.038,-2.805 0.031,-5.611 0.003,-8.415 -0.007,-0.786 0.253,-1.046 1.069,-1.227 2.83,-0.626 5.656,-1.311 8.417,-2.185 1.019,-0.322 1.35,-0.033 1.619,0.757 1.239,3.636 2.24,7.325 2.473,11.187 0.052,0.853 -0.219,1.135 -1.08,1.108 -1.884,-0.055 -3.77,-0.016 -5.655,-0.016 m -17.651,0.01 v -0.039 c -1.791,0 -3.589,-0.09 -5.372,0.03 -1.352,0.09 -1.613,-0.478 -1.396,-1.62 0.356,-1.875 0.611,-3.773 1.06,-5.625 0.427,-1.76 1.052,-3.471 1.581,-5.208 0.209,-0.685 0.49,-0.892 1.299,-0.656 2.864,0.837 5.755,1.593 8.663,2.26 0.784,0.18 1.126,0.418 1.122,1.212 -0.017,2.848 -0.012,5.695 -0.005,8.543 0.002,0.799 -0.316,1.142 -1.166,1.12 -1.928,-0.051 -3.858,-0.017 -5.786,-0.017 m 17.545,3.838 v -0.019 c 1.841,0 3.683,0.041 5.522,-0.017 1.004,-0.031 1.537,0.274 1.31,1.331 -0.793,3.692 -1.586,7.383 -2.435,11.061 -0.198,0.853 -0.72,0.987 -1.666,0.702 -2.861,-0.863 -5.789,-1.505 -8.671,-2.307 -0.328,-0.091 -0.744,-0.645 -0.751,-0.992 -0.061,-2.852 -0.014,-5.706 -0.047,-8.559 -0.011,-0.895 0.322,-1.233 1.216,-1.212 1.84,0.042 3.681,0.012 5.522,0.012 M 1.359,-27.315 v -0.007 c 1.933,0 3.866,0.012 5.799,-0.007 0.764,-0.007 1.248,0.226 1.246,1.082 -0.005,2.945 0.016,5.891 -0.031,8.836 -0.005,0.291 -0.357,0.758 -0.634,0.835 -3.015,0.836 -6.057,1.577 -9.068,2.426 -0.773,0.217 -1.159,0.035 -1.334,-0.671 -0.917,-3.709 -1.843,-7.416 -2.705,-11.137 -0.196,-0.85 0.19,-1.393 1.204,-1.369 1.84,0.042 3.682,0.012 5.523,0.012 m 39.919,-6.265 c 0.008,2.411 0.008,2.418 -1.857,2.423 -2.758,0.008 -5.516,-0.024 -8.274,0.022 -1.046,0.017 -1.426,-0.345 -1.499,-1.425 -0.282,-4.166 -1.255,-8.195 -2.793,-12.072 -0.355,-0.895 -0.177,-1.342 0.629,-1.744 1.471,-0.733 2.942,-1.474 4.366,-2.294 2.014,-1.161 2.039,-1.227 3.491,0.621 3.473,4.42 5.218,9.539 5.937,14.469 m -56.227,2.414 v 0.021 c -1.565,0 -3.13,-0.018 -4.695,0.008 -0.893,0.016 -1.265,-0.274 -1.053,-1.234 0.522,-2.355 0.832,-4.766 1.503,-7.075 1.056,-3.637 2.921,-6.888 5.439,-9.729 0.231,-0.261 0.929,-0.403 1.237,-0.251 1.961,0.97 3.875,2.035 5.802,3.074 0.578,0.312 0.863,0.652 0.59,1.429 -1.44,4.093 -2.714,8.233 -2.921,12.615 -0.04,0.843 -0.473,1.19 -1.347,1.158 -1.517,-0.056 -3.037,-0.016 -4.555,-0.016 m -0.14,3.852 v 0.006 c 1.562,0 3.125,0.031 4.686,-0.01 0.956,-0.026 1.341,0.471 1.392,1.32 0.256,4.273 1.48,8.33 2.83,12.348 0.313,0.929 0.109,1.26 -0.716,1.665 -1.798,0.881 -3.552,1.861 -5.279,2.877 -0.765,0.45 -1.183,0.454 -1.802,-0.312 -3.835,-4.737 -6.137,-10.077 -6.651,-16.17 -0.136,-1.613 -0.059,-1.718 1.543,-1.723 1.332,-0.004 2.665,-0.001 3.997,-0.001 m 50.75,-0.009 c 1.334,0 2.672,0.068 4,-0.021 1.208,-0.08 1.883,0.215 1.619,1.57 -0.365,1.867 -0.671,3.748 -1.109,5.597 -0.977,4.129 -2.967,7.747 -5.785,10.9 -0.247,0.275 -0.979,0.43 -1.302,0.271 -1.877,-0.93 -3.67,-2.034 -5.556,-2.947 -1.022,-0.495 -1.062,-1.056 -0.631,-1.954 0.347,-0.722 0.666,-1.483 0.826,-2.262 0.688,-3.346 1.275,-6.712 2.006,-10.048 0.095,-0.438 0.789,-1.015 1.246,-1.054 1.552,-0.131 3.123,-0.05 4.686,-0.052 M 10.339,6.845 C 30.363,6.917 46.33,-8.719 46.487,-28.877 46.646,-49.346 30.872,-64.1 13.026,-65.155 -10.612,-66.554 -25.613,-48.394 -25.86,-29.853 -26.133,-9.294 -10.039,6.97 10.339,6.845" /></g><g
           transform="translate(122.8987,42.3288)"
           id="g28"><path
             id="path30"
             style="fill:#219845;fill-opacity:1;fill-rule:nonzero;stroke:none"
             d="m 0,0 v 0.014 c 3.868,0 7.735,0.002 11.603,-0.001 2.147,-0.002 2.41,0.3 2.299,2.447 -0.18,3.489 -0.976,6.789 -3.009,9.685 -3.168,4.512 -7.747,6.58 -12.588,4.701 -6.944,-2.697 -10.283,-8.416 -12.01,-15.321 -0.339,-1.356 0.261,-1.553 1.412,-1.542 C -8.196,0.026 -4.098,0 0,0 m 22.635,-25.131 c -0.254,-1.442 -0.455,-2.681 -0.692,-3.912 -0.458,-2.38 -0.853,-4.778 -1.457,-7.121 -0.186,-0.722 -0.84,-1.52 -1.499,-1.89 -4.035,-2.264 -8.459,-2.945 -13.033,-3.234 -7.609,-0.482 -14.483,1.372 -20.421,6.14 -4.861,3.903 -8.248,8.945 -10.167,14.89 -1.714,5.308 -2.524,10.746 -2.053,16.351 0.604,7.178 2.4,13.952 6.694,19.861 4.278,5.888 9.854,9.994 17.109,11.255 C 9.98,29.445 21.851,22.124 24.958,9.048 25.606,6.319 25.602,3.426 25.772,0.6 c 0.036,-0.586 -0.353,-1.334 -0.779,-1.789 -2.385,-2.54 -4.869,-4.988 -7.255,-7.527 -0.699,-0.745 -1.426,-0.976 -2.415,-0.973 -9.481,0.032 -18.961,0.009 -28.442,0.034 -0.99,0.002 -1.568,-0.113 -1.421,-1.344 0.65,-5.438 2.415,-10.391 6.287,-14.389 3.524,-3.638 7.86,-5.526 12.952,-5.646 6.391,-0.151 12.16,1.588 17.202,5.586 0.131,0.103 0.314,0.139 0.734,0.317" /></g><g
           transform="translate(154.843,58.9039)"
           id="g32"><path
             id="path34"
             style="fill:#219845;fill-opacity:1;fill-rule:nonzero;stroke:none"
             d="m 0,0 v 9.506 c 0.654,0.042 1.24,0.111 1.826,0.113 2.577,0.009 5.156,0.053 7.732,-0.029 1.173,-0.037 1.49,0.37 1.466,1.5 -0.066,3.175 0.021,6.353 -0.047,9.528 -0.024,1.141 0.259,1.778 1.371,2.322 3.12,1.529 6.146,3.249 9.214,4.886 0.269,0.144 0.567,0.232 1.042,0.421 V 26.67 c 0,-5.156 0.049,-10.313 -0.033,-15.468 -0.022,-1.343 0.454,-1.615 1.664,-1.605 5.523,0.047 11.047,0.017 16.571,0.015 h 1.801 C 42.038,6.467 41.543,3.556 40.937,0.669 40.875,0.373 40.14,0.032 39.715,0.028 c -5.201,-0.044 -10.404,-0.067 -15.605,0 -1.247,0.017 -1.534,-0.387 -1.53,-1.575 0.039,-12.521 -0.066,-25.044 0.07,-37.563 0.052,-4.772 3.386,-7.767 7.9,-8.031 2.258,-0.13 4.554,0.398 6.825,0.627 -0.33,-1.742 -0.7,-3.728 -1.086,-5.711 -0.218,-1.118 -0.541,-2.221 -0.674,-3.348 -0.108,-0.917 -0.581,-1.23 -1.403,-1.392 -10.153,-2.003 -21.131,2.66 -22.833,14.601 -0.226,1.584 -0.358,3.195 -0.362,4.794 -0.03,11.968 -0.037,23.938 0.013,35.907 0.006,1.328 -0.345,1.736 -1.688,1.694 C 6.269,-0.066 3.19,0 0,0" /></g><g
           transform="translate(207.0295,68.5182)"
           id="g36"><path
             id="path38"
             style="fill:#219845;fill-opacity:1;fill-rule:nonzero;stroke:none"
             d="m 0,0 c 3.281,0 6.409,-0.062 9.533,0.03 1.269,0.037 1.523,-0.429 1.522,-1.581 -0.002,-2.25 0.15,-4.501 0.263,-6.75 0.017,-0.342 0.169,-0.678 0.281,-1.1 1.163,1.55 2.143,3.071 3.334,4.4 2.736,3.054 6.356,4.52 10.282,5.272 1.612,0.309 3.269,0.403 4.911,0.504 0.34,0.022 0.967,-0.303 1.02,-0.559 0.617,-2.998 1.152,-6.013 1.697,-9.025 0.03,-0.167 -0.051,-0.353 -0.105,-0.671 -0.633,-0.044 -1.262,-0.11 -1.893,-0.129 -6.104,-0.192 -10.987,-2.757 -14.681,-7.589 -2.76,-3.61 -4.169,-7.792 -4.257,-12.25 -0.221,-11.318 -0.199,-22.639 -0.273,-33.958 -0.004,-0.552 -0.02,-1.106 0.01,-1.657 0.044,-0.833 -0.299,-1.1 -1.147,-1.088 -3.445,0.046 -6.891,0.018 -10.497,0.018 z" /></g><g
           transform="translate(310.4778,73.7457)"
           id="g40"><path
             id="path42"
             style="fill:#219845;fill-opacity:1;fill-rule:nonzero;stroke:none"
             d="M 0,0 C 0.112,2.398 -1.785,4.489 -4.226,4.427 -6.971,4.356 -8.401,2.737 -8.673,0.127 -8.903,-2.086 -6.82,-4.264 -4.491,-4.31 -2.474,-4.349 -0.054,-3.27 0,0 m 0.707,0.034 c 0.315,-2.353 -2.387,-5.191 -5.229,-4.972 -2.596,0.201 -4.746,2.304 -4.741,5.054 0.006,2.832 2.127,4.934 4.98,4.933 2.937,0 4.99,-2.064 4.99,-5.015" /></g><g
           transform="translate(304.8977,74.6354)"
           id="g44"><path
             id="path46"
             style="fill:#219845;fill-opacity:1;fill-rule:nonzero;stroke:none"
             d="m 0,0 c 0.137,-0.147 0.275,-0.294 0.413,-0.441 0.633,0.226 1.283,0.42 1.884,0.714 C 2.385,0.316 2.31,1.058 2.194,1.092 1.649,1.255 1.011,1.454 0.515,1.296 0.234,1.207 0.165,0.454 0,0 m 2.838,-3.633 c -0.148,0.315 -0.322,0.62 -0.436,0.946 -0.118,0.342 -0.064,0.842 -0.288,1.029 -0.379,0.312 -0.91,0.547 -1.392,0.575 -0.186,0.011 -0.488,-0.607 -0.598,-0.98 -0.143,-0.482 -0.146,-1.005 -0.209,-1.51 -0.183,0.018 -0.365,0.037 -0.547,0.056 0,1.706 -0.01,3.413 0.016,5.118 0.003,0.179 0.242,0.519 0.34,0.507 1.041,-0.123 2.09,-0.244 3.1,-0.51 C 3.048,1.539 3.353,0.731 3.229,0.574 2.258,-0.665 3.151,-1.798 3.314,-2.969 3.337,-3.132 3.261,-3.309 3.231,-3.479 3.1,-3.53 2.969,-3.581 2.838,-3.633" /></g></g></g></g></svg>