<?xml version="1.0" encoding="UTF-8" standalone="no"?>
<svg
   xmlns:dc="http://purl.org/dc/elements/1.1/"
   xmlns:cc="http://creativecommons.org/ns#"
   xmlns:rdf="http://www.w3.org/1999/02/22-rdf-syntax-ns#"
   xmlns:svg="http://www.w3.org/2000/svg"
   xmlns="http://www.w3.org/2000/svg"
   viewBox="0 0 527.06268 118.6452"
   height="118.6452"
   width="527.06268"
   xml:space="preserve"
   id="svg2"
   version="1.1"><metadata
     id="metadata8"><rdf:RDF><cc:Work
         rdf:about=""><dc:format>image/svg+xml</dc:format><dc:type
           rdf:resource="http://purl.org/dc/dcmitype/StillImage" /></cc:Work></rdf:RDF></metadata><defs
     id="defs6"><clipPath
       id="clipPath18"
       clipPathUnits="userSpaceOnUse"><path
         id="path16"
         d="M 0,88.984 H 395.297 V 0 H 0 Z" /></clipPath></defs><g
     transform="matrix(1.3333333,0,0,-1.3333333,0,118.6452)"
     id="g10"><g
       id="g12"><g
         clip-path="url(#clipPath18)"
         id="g14"><g
           transform="translate(376.8269,44.2926)"
           id="g20"><path
             id="path22"
             style="fill:#c40b13;fill-opacity:1;fill-rule:evenodd;stroke:none"
             d="M 0,0 8.664,38.824 H 18.47 L 9.806,0 Z m -64.279,38.824 h 38.863 l -1.504,-6.74 H -41.308 L -48.468,0 h -9.806 l 7.16,32.084 H -65.783 Z M -97.185,23.996 h 16.81 l 3.309,14.828 h 9.806 L -75.925,0 H -85.73 L -82,16.716 H -98.81 L -102.54,0 h -9.806 l 8.664,38.824 h 9.806 z m -37.262,0 h 20.065 l -1.625,-7.28 h -20.065 l -1.805,-8.088 h 24.475 L -115.328,0 h -34.28 l 8.665,38.824 h 34.28 l -1.505,-6.74 h -24.474 z m -50.091,0.263 -5.413,-24.26 h -9.806 l 7.649,34.276 -28.466,-34.276 h -9.932 l 12.687,15.277 -7.728,16.807 h -11.596 l -7.16,-32.084 h -9.806 l 8.665,38.824 h 27.333 l 7.073,-15.382 12.776,15.382 h 21.891 l 2.555,-25.635 16.149,25.635 h 12.521 l -8.664,-38.824 h -9.806 l 5.2,23.3 -14.676,-23.3 -9.027,0.003 z m -89.357,-59.039 -7.335,-7.929 h -10.409 l 35.034,37.856 h 10.658 l -8.447,-37.856 h -10.647 l 1.769,7.929 z m 5.986,6.47 h 6.081 l 1.933,8.664 z m -35.435,38.685 4.927,22.076 -20.423,-22.076 z M -19.526,0 h -11.572 l 8.664,38.824 h 9.806 l -2.467,-11.053 h 4.772 C 8.916,27.771 2.448,-0.195 -19.526,0 m 6.822,21.03 h -3.895 L -19.367,8.628 h 3.687 c 8.03,0 13.009,12.402 2.976,12.402 m -147.667,-43.677 h -3.536 l -2.708,-12.133 h 2.049 c 9.429,0 12.125,12.133 4.195,12.133 m -10.211,17.793 h 10.646 l -2.407,-10.784 h 2.785 c 20.972,0 14.084,-27.073 -8.348,-27.073 l -11.125,0.002 z m 22.65,-37.855 8.448,37.855 h 10.646 l -8.448,-37.855 z m -116.325,81.533 h -17.609 L -290.53,0 h 9.805 l 2.829,12.672 h 8.863 c 21.092,-0.554 25.277,26.151 4.776,26.152 m -6.471,-18.873 h -5.544 l 2.708,12.133 h 8.074 c 8.408,0 8.179,-12.134 -5.238,-12.133 m -45.879,-31.275 c -10.073,10e-4 -11.92,-12.773 -3.137,-12.773 h 8.708 l 2.85,12.773 z m 26.58,0 c 13.12,0 8.485,-12.773 -2.584,-12.773 h -7.78 l 2.851,12.773 z m 1.546,6.471 h -7.615 l 11.057,49.544 h -13.601 l -63.307,-68.429 4.215,18.885 h -10.647 l -8.448,-37.856 h 8.877 l 19.316,20.88 -4.659,-20.88 h 10.646 l 8.044,36.046 9.592,10.367 h 20.178 l -1.909,-8.557 h -10.816 c -20.233,0 -23.743,-25.714 -3.831,-25.714 h 8.908 l -3.063,-13.726 h 10.647 l 3.062,13.726 h 10.953 c 16.775,0 24.996,25.714 2.401,25.714 m 113.72,-6.741 h -13.295 L -195,-42.709 h -10.646 l 6.943,31.115 h -15.866 l -10.984,-7.987 13.977,-23.128 h -12.138 l -10.271,16.996 -3.783,-2.751 -3.179,-14.245 h -10.646 l 8.448,37.856 h 10.646 l -2.999,-13.441 18.48,13.441 h 43.761 z" /></g></g></g></g></svg>