<?xml version="1.0" standalone="no"?>
<!DOCTYPE svg PUBLIC "-//W3C//DTD SVG 1.0//EN" "http://www.w3.org/TR/2001/REC-SVG-20010904/DTD/svg10.dtd">
<svg xmlns="http://www.w3.org/2000/svg" xmlns:xlink="http://www.w3.org/1999/xlink" id="body_5" width="24" height="25">

<defs>
    <clipPath  id="1">

    <path id=""  clip-rule="evenodd" transform="matrix(1 0 0 1 0 0)"  d="M0 19L0 -0.6875L0 -0.6875L18.9844 -0.6875L18.9844 -0.6875L18.9844 19L18.9844 19L0 19z" />    </clipPath>
    <clipPath  id="2">

    <path id=""  clip-rule="evenodd" transform="matrix(1 0 0 1 0 0)"  d="M0 -0.6870003L18.984 -0.6870003L18.984 -0.6870003L18.984 19L18.984 19L0 19z" />    </clipPath>
</defs>

<g transform="matrix(1.3333 0 0 1.3333 0 0)">
	<g clip-path="url(#1)" >
		<g clip-path="url(#2)" >
    <path id=""  transform="matrix(1 0 0 -1 0 19)"  d="M11.9534 12.656L17.5394 12.656C 17.2064 15.593 14.8894 17.91 11.9534 18.242zM18.2814 11.25L11.2504 11.25C 10.8614 11.25 10.5474 11.564 10.5474 11.953L10.5474 11.953L10.5474 18.984C 10.5474 19.373 10.8614 19.687 11.2504 19.687C 15.5194 19.683 18.9794 16.223 18.9844 11.953C 18.9844 11.767 18.9104 11.588 18.7784 11.456C 18.6464 11.324 18.4674 11.25 18.2814 11.25M7.0314 14.023C 3.7384 13.655 1.2884 10.811 1.4114 7.5C 1.5344 4.189 4.1894 1.534 7.5004 1.411C 10.8104 1.288 13.6554 3.739 14.0234 7.031L14.0234 7.031L7.7344 7.031C 7.3464 7.031 7.0314 7.346 7.0314 7.734zM7.7344 0C 3.4634 0 0.0003995895 3.463 0.0003995895 7.734C 0.0003995895 12.006 3.4634 15.469 7.7344 15.469C 8.1224 15.469 8.4374 15.154 8.4374 14.766L8.4374 14.766L8.4374 8.438L8.4374 8.438L14.7654 8.438C 15.1534 8.438 15.4684 8.123 15.4684 7.734C 15.4634 3.465 12.0044 0.005 7.7344 0" stroke="none" fill="#222426" fill-rule="evenodd" />
		</g>
	</g>
</g>
</svg>