<?xml version="1.0" encoding="UTF-8" standalone="no"?>
<!DOCTYPE svg PUBLIC "-//W3C//DTD SVG 1.1//EN" "http://www.w3.org/Graphics/SVG/1.1/DTD/svg11.dtd">
<svg xmlns="http://www.w3.org/2000/svg" xmlns:xlink="http://www.w3.org/1999/xlink" version="1.1" width="667.392pt" height="654.951pt" viewBox="0 0 667.392 654.951">
<g enable-background="new">
<g>
<g id="Layer-1" data-name="Layer">
<clipPath id="cp0">
<path transform="matrix(1,0,0,-1,0,654.951)" d="M 0 654.951 L 667.392 654.951 L 667.392 0 L 0 0 Z "/>
</clipPath>
<g clip-path="url(#cp0)">
<path transform="matrix(1,0,0,-1,117.8924,118.750308)" stroke-width="1.5" stroke-linecap="round" stroke-linejoin="round" fill="none" stroke="#222426" d="M 0 0 L 86.839 0 C 100.379 8.63 110.464 22.202 114.527 38.186 C 132.364 40.053 146.037 55.915 144.361 74.596 C 142.943 90.398 130.298 103.202 114.514 104.819 C 107.673 105.521 101.206 104.146 95.642 101.27 C 84.264 111.66 69.123 118 52.5 118 C 26.39 118 3.946 102.355 -6.007 79.936 C -6.667 79.975 -7.331 80 -8 80 C -23.365 80 -36.305 69.651 -40.253 55.548 C -45.349 56.947 -50.836 57.398 -56.533 56.624 C -75.174 54.09 -89.791 38.696 -91.356 19.948 C -91.369 19.795 -91.381 19.641 -91.392 19.487 C -92.155 8.937 -83.676 0 -73.098 0 L -41.25 0 "/>
<path transform="matrix(1,0,0,-1,76.3924,69.750308)" stroke-width="1.5" stroke-linecap="round" stroke-linejoin="round" fill="none" stroke="#222426" d="M 0 0 C 0 0 .41 3.429 1.247 6.548 "/>
<path transform="matrix(1,0,0,-1,111.8851,38.814699)" stroke-width="1.5" stroke-linecap="round" stroke-linejoin="round" fill="none" stroke="#222426" d="M 0 0 C 0 0 6.924 .314 13.424 -2.103 "/>
<path transform="matrix(1,0,0,-1,134.7259,45.417177)" stroke-width="1.5" stroke-linecap="round" stroke-linejoin="round" fill="none" stroke="#222426" d="M 0 0 C 0 0 -2.083 1.334 -3.667 1.917 "/>
<path transform="matrix(1,0,0,-1,213.5345,17.480713)" stroke-width="1.5" stroke-linecap="round" stroke-linejoin="round" fill="none" stroke="#222426" d="M 0 0 C 0 0 1.858 -1.353 3.691 -4.103 "/>
<path transform="matrix(1,0,0,-1,80.3924,95.417179)" stroke-width="1.5" stroke-linecap="round" stroke-linejoin="round" fill="none" stroke="#222426" d="M 0 0 L 53.333 0 "/>
<path transform="matrix(1,0,0,-1,69.1424,221.25019)" stroke-width="1.5" stroke-linecap="round" stroke-linejoin="round" fill="none" stroke="#222426" d="M 0 0 C 0 0 -3.875 10 3.5 15.75 C 10.875 21.5 18.5 19.375 23 25.25 C 27.5 31.125 23.875 42.125 23.875 42.125 L 23.917 42.167 L -.417 58.833 L -.5 58.75 C -.5 58.75 3.125 47.75 -1.375 41.875 C -5.875 36 -13.5 38.125 -20.875 32.375 C -28.25 26.625 -24.375 16.625 -24.375 16.625 L -24.229 16.542 L .104 -.125 L 0 0 Z "/>
<path transform="matrix(1,0,0,-1,30.617,175.29218)" stroke-width="1.5" stroke-linecap="round" stroke-linejoin="round" fill="none" stroke="#222426" d="M 0 0 C 0 0 -2.574 6.643 2.325 10.462 C 7.224 14.281 12.289 12.87 15.277 16.772 C 18.267 20.675 15.859 27.981 15.859 27.981 L 15.886 28.009 L -.277 39.08 L -.333 39.024 C -.333 39.024 2.076 31.718 -.914 27.815 C -3.903 23.913 -8.967 25.324 -13.866 21.505 C -18.765 17.686 -16.191 11.043 -16.191 11.043 L -16.094 10.987 L .069 -.083 L 0 0 Z "/>
<path transform="matrix(1,0,0,-1,141.117,178.29218)" stroke-width="1.5" stroke-linecap="round" stroke-linejoin="round" fill="none" stroke="#222426" d="M 0 0 C 0 0 -2.574 6.643 2.325 10.462 C 7.224 14.281 12.289 12.87 15.277 16.772 C 18.267 20.675 15.859 27.981 15.859 27.981 L 15.886 28.009 L -.277 39.08 L -.333 39.024 C -.333 39.024 2.076 31.718 -.914 27.815 C -3.903 23.913 -8.967 25.324 -13.866 21.505 C -18.765 17.686 -16.191 11.043 -16.191 11.043 L -16.094 10.987 L .069 -.083 L 0 0 Z "/>
<path transform="matrix(1,0,0,-1,13.8567,246.31079)" stroke-width="1.5" stroke-linecap="round" stroke-linejoin="round" fill="none" stroke="#222426" d="M 0 0 C 0 0 -2 5.162 1.807 8.13 C 5.613 11.098 9.549 10.001 11.872 13.033 C 14.194 16.065 12.323 21.743 12.323 21.743 L 12.345 21.765 L -.215 30.368 L -.258 30.324 C -.258 30.324 1.613 24.646 -.71 21.614 C -3.033 18.582 -6.968 19.679 -10.775 16.711 C -14.582 13.743 -12.582 8.581 -12.582 8.581 L -12.506 8.538 L .054 -.064 L 0 0 Z "/>
<path transform="matrix(1,0,0,-1,101.9798,95.58911)" stroke-width="1.5" stroke-linecap="round" stroke-linejoin="round" fill="none" stroke="#222426" d="M 0 0 C -.315 -.755 -.714 -1.469 -1.212 -2.119 C -5.712 -7.994 -13.337 -5.869 -20.712 -11.619 C -28.087 -17.369 -24.212 -27.369 -24.212 -27.369 L -24.066 -27.453 L .267 -44.119 L .163 -43.994 C .163 -43.994 -3.712 -33.994 3.663 -28.244 C 11.038 -22.494 18.663 -24.619 23.163 -18.744 C 27.663 -12.869 24.038 -1.869 24.038 -1.869 L 24.079 -1.828 L 21.344 .046 "/>
<path transform="matrix(1,0,0,-1,643.8924,341.75019)" d="M 0 0 L -429 0 C -441.979 0 -452.5 10.521 -452.5 23.5 L -452.5 276.5 C -452.5 289.478 -441.979 300 -429 300 L 0 300 C 12.979 300 23.5 289.478 23.5 276.5 L 23.5 23.5 C 23.5 10.521 12.979 0 0 0 " fill="#cce1ff"/>
<path transform="matrix(1,0,0,-1,627.8924,326.75019)" d="M 0 0 L -429 0 C -441.979 0 -452.5 10.521 -452.5 23.5 L -452.5 276.5 C -452.5 289.478 -441.979 300 -429 300 L 0 300 C 12.979 300 23.5 289.478 23.5 276.5 L 23.5 23.5 C 23.5 10.521 12.979 0 0 0 " fill="#1b66ff"/>
<path transform="matrix(1,0,0,-1,622.8924,317.41719)" d="M 0 0 L -419 0 C -428.625 0 -436.5 7.875 -436.5 17.5 L -436.5 235.167 C -436.5 244.792 -428.625 252.667 -419 252.667 L 0 252.667 C 9.625 252.667 17.5 244.792 17.5 235.167 L 17.5 17.5 C 17.5 7.875 9.625 0 0 0 " fill="#cce1ff"/>
<path transform="matrix(1,0,0,-1,213.3924,47.000307)" stroke-width="1.5" stroke-linecap="butt" stroke-miterlimit="10" stroke-linejoin="miter" fill="none" stroke="#ffffff" d="M 0 0 C 0 -4.557 -3.694 -8.25 -8.25 -8.25 C -12.806 -8.25 -16.5 -4.557 -16.5 0 C -16.5 4.557 -12.806 8.25 -8.25 8.25 C -3.694 8.25 0 4.557 0 0 Z "/>
<path transform="matrix(1,0,0,-1,241.8924,47.000307)" stroke-width="1.5" stroke-linecap="butt" stroke-miterlimit="10" stroke-linejoin="miter" fill="none" stroke="#ffffff" d="M 0 0 C 0 -4.557 -3.694 -8.25 -8.25 -8.25 C -12.806 -8.25 -16.5 -4.557 -16.5 0 C -16.5 4.557 -12.806 8.25 -8.25 8.25 C -3.694 8.25 0 4.557 0 0 Z "/>
<path transform="matrix(1,0,0,-1,270.3924,47.000307)" stroke-width="1.5" stroke-linecap="butt" stroke-miterlimit="10" stroke-linejoin="miter" fill="none" stroke="#ffffff" d="M 0 0 C 0 -4.557 -3.694 -8.25 -8.25 -8.25 C -12.806 -8.25 -16.5 -4.557 -16.5 0 C -16.5 4.557 -12.806 8.25 -8.25 8.25 C -3.694 8.25 0 4.557 0 0 Z "/>
<path transform="matrix(1,0,0,-1,208.1263,100.80591)" d="M 0 0 L 3.549 8.259 L 1.068 8.259 L -1.084 3.016 L -3.253 8.259 L -5.734 8.259 L -2.185 0 Z M 5.149 8.964 C 5.921 8.964 6.546 9.57 6.546 10.34 C 6.546 11.127 5.921 11.733 5.149 11.733 C 4.377 11.733 3.753 11.127 3.753 10.34 C 3.753 9.57 4.377 8.964 5.149 8.964 M 6.381 8.259 L 3.933 8.259 L 3.933 0 L 6.381 0 Z M 10.529 -.229 C 12.96 -.229 14.176 .868 14.176 2.557 C 14.176 3.654 13.502 4.44 12.139 4.899 C 11.219 5.228 10.529 5.342 10.216 5.474 C 9.954 5.588 9.872 5.703 9.872 5.916 C 9.872 6.228 10.167 6.44 10.693 6.44 C 11.399 6.44 11.991 6.243 12.435 5.834 L 13.601 7.439 C 12.862 8.145 11.925 8.505 10.759 8.505 C 9.855 8.505 9.099 8.275 8.475 7.8 C 7.851 7.341 7.539 6.686 7.539 5.851 C 7.539 4.752 8.179 3.998 9.444 3.557 C 9.691 3.474 10.069 3.359 10.562 3.245 C 11.054 3.13 11.383 3.016 11.563 2.917 C 11.745 2.818 11.843 2.688 11.843 2.523 C 11.843 2.081 11.432 1.852 10.594 1.852 C 9.658 1.852 8.787 2.212 8.327 2.753 L 6.914 1.245 C 7.719 .262 8.918 -.229 10.529 -.229 M 16.089 8.964 C 16.861 8.964 17.485 9.57 17.485 10.34 C 17.485 11.127 16.861 11.733 16.089 11.733 C 15.316 11.733 14.692 11.127 14.692 10.34 C 14.692 9.57 15.316 8.964 16.089 8.964 M 17.321 8.259 L 14.872999 8.259 L 14.872999 0 L 17.321 0 Z M 22.733 -.245 C 23.998 -.245 25.083 .181 25.986 1.016 C 26.89 1.868 27.333 2.9 27.333 4.13 C 27.333 5.358 26.89 6.391 25.986 7.227 C 25.083 8.079 23.998 8.505 22.733 8.505 C 21.452 8.505 20.367 8.079 19.464 7.227 C 18.577 6.391 18.133 5.358 18.133 4.13 C 18.133 2.9 18.577 1.868 19.464 1.016 C 20.367 .181 21.452 -.245 22.733 -.245 M 22.733 1.967 C 22.125 1.967 21.616 2.18 21.205 2.589 C 20.794 2.999 20.581 3.523 20.581 4.13 C 20.581 4.736 20.794 5.244 21.205 5.653 C 21.616 6.08 22.125 6.293 22.733 6.293 C 23.341 6.293 23.851 6.08 24.261 5.653 C 24.672 5.244 24.885 4.736 24.885 4.13 C 24.885 3.523 24.672 3.016 24.261 2.589 C 23.851 2.18 23.341 1.967 22.733 1.967 M 30.593 0 L 30.593 4.638 C 30.593 5.604 31.284 6.276 32.22 6.276 C 33.189 6.276 33.731 5.687 33.731 4.72 L 33.731 0 L 36.179 0 L 36.179 5.015 C 36.179 7.161 35.029 8.439 33.008 8.439 C 31.875 8.439 30.938 7.948 30.593 7.227 L 30.593 8.259 L 28.146 8.259 L 28.146 0 Z M 40.901 0 L 42.347 4.72 L 43.81 0 L 45.831 0 L 48.459 8.259 L 46.192 8.259 L 44.729 3.654 L 43.3 8.259 L 41.395 8.259 L 39.981 3.654 L 38.52 8.259 L 36.252 8.259 L 38.864 0 Z M 52.081 -.147 C 53.329 -.147 54.298 .36 54.545 1.082 L 54.545 0 L 56.993 0 L 56.993 8.259 L 54.545 8.259 L 54.545 7.178 C 54.298 7.898 53.329 8.406 52.081 8.406 C 50.914 8.406 49.928 7.997 49.14 7.161 C 48.368 6.342 47.973 5.326 47.973 4.13 C 47.973 2.934 48.368 1.917 49.14 1.082 C 49.928 .262 50.914 -.147 52.081 -.147 M 52.524 2.064 C 51.933 2.064 51.44 2.262 51.029 2.655 C 50.618 3.064 50.421 3.557 50.421 4.13 C 50.421 4.703 50.618 5.194 51.029 5.588 C 51.44 5.997 51.933 6.194 52.524 6.194 C 53.132 6.194 53.641 5.997 54.052 5.588 C 54.479 5.194 54.693 4.703 54.693 4.13 C 54.693 3.557 54.479 3.064 54.052 2.655 C 53.641 2.262 53.132 2.064 52.524 2.064 M 60.598 11.422 L 58.15 11.422 L 58.15 0 L 60.598 0 Z M 64.219 11.422 L 61.771005 11.422 L 61.771005 0 L 64.219 0 Z M 69.566 -.196 C 70.962 -.196 72.162 .312 73.131 1.312 L 71.702 2.671 C 71.126 2.13 70.453 1.868 69.681 1.868 C 68.383 1.868 67.529 2.507 67.48 3.49 L 73.739 3.49 C 73.755 3.736 73.771 3.998 73.771 4.277 C 73.771 5.474 73.377 6.457 72.589 7.26 C 71.8 8.063 70.782 8.472 69.517 8.472 C 68.219 8.472 67.134 8.079 66.296 7.275 C 65.459 6.489 65.031 5.44 65.031 4.146 L 65.031 4.08 C 65.031 2.786 65.442 1.754 66.28 .967 C 67.118 .196 68.202 -.196 69.566 -.196 M 71.307 5.08 L 67.512 5.08 C 67.578 5.851 68.449 6.457 69.517 6.457 C 70.502 6.457 71.307 5.851 71.307 5.08 M 77.442 0 L 77.442 6.047 L 79.266 6.047 L 79.266 8.259 L 77.442 8.259 L 77.442 11.422 L 75.06 11.422 L 75.06 8.259 L 73.959 8.259 L 73.959 6.047 L 75.06 6.047 L 75.06 0 Z " fill="#1b66ff"/>
<path transform="matrix(1,0,0,-1,315.2484,223.75019)" d="M 0 0 L -96.231 0 C -102.79 0 -108.106 5.316 -108.106 11.875 L -108.106 89.125 C -108.106 95.684 -102.79 101 -96.231 101 L 0 101 C 6.558 101 11.875 95.684 11.875 89.125 L 11.875 11.875 C 11.875 5.316 6.558 0 0 0 " fill="#1b66ff"/>
<path transform="matrix(1,0,0,-1,461.5076,223.75019)" d="M 0 0 L -96.23 0 C -102.789 0 -108.105 5.316 -108.105 11.875 L -108.105 89.125 C -108.105 95.684 -102.789 101 -96.23 101 L 0 101 C 6.559 101 11.875 95.684 11.875 89.125 L 11.875 11.875 C 11.875 5.316 6.559 0 0 0 " fill="#1b66ff"/>
<path transform="matrix(1,0,0,-1,607.7674,223.75019)" d="M 0 0 L -96.231 0 C -102.789 0 -108.106 5.316 -108.106 11.875 L -108.106 89.125 C -108.106 95.684 -102.789 101 -96.231 101 L 0 101 C 6.559 101 11.875 95.684 11.875 89.125 L 11.875 11.875 C 11.875 5.316 6.559 0 0 0 " fill="#1b66ff"/>
<path transform="matrix(1,0,0,-1,521.5154,149.65448)" d="M 0 0 C -.218 -.216 -.454 -.373 -.711 -.467 C -.969 -.562 -1.273 -.609 -1.626 -.609 L -5.241 -.609 L -5.241 3.576 L -1.565 3.576 C -.86 3.576 -.312 3.358 .081 2.926 C .419 2.546 .589 2.053 .589 1.442 C .589 .86 .392 .379 0 0 M -.102 7.66 C -.102 7.159 -.224 6.767 -.467 6.481 C -.833 6.075 -1.327 5.872 -1.951 5.872 L -5.241 5.872 L -5.241 9.408 L -1.951 9.408 C -1.368 9.408 -.914 9.245 -.589 8.919 C -.264 8.596 -.102 8.175 -.102 7.66 M 2.773 2.946 C 2.576 3.421 2.31 3.807 1.972 4.104 C 1.646 4.389 1.279 4.612 .873 4.774 C 1.117 4.938 1.294 5.073 1.401 5.181 C 1.7 5.438 1.939 5.781 2.124 6.208 C 2.307 6.634 2.396 7.084 2.396 7.559 C 2.396 8.817 1.984 9.834 1.159 10.606 C .738 10.999 .281 11.28 -.213 11.449 C -.352 11.497 -.51 11.522 -.66 11.557 L -.66 14.404 L -2.624 14.404 L -2.624 11.704 L -4.183 11.704 L -4.183 14.404 L -6.146 14.404 L -6.146 11.704 L -7.721 11.704 L -7.721 -2.926 L -6.146 -2.926 L -6.146 -5.626 L -4.183 -5.626 L -4.183 -2.926 L -2.624 -2.926 L -2.624 -5.626 L -.66 -5.626 L -.66 -2.875 C -.235 -2.836 .146 -2.776 .447 -2.682 C .962 -2.52 1.435 -2.221 1.87 -1.787 C 2.668 -1.028 3.068 .068 3.068 1.503 C 3.068 1.992 2.97 2.472 2.773 2.946 " fill="#ffffff"/>
<path transform="matrix(1,0,0,-1,605.5096,141.19068)" d="M 0 0 L -68.122 0 C -69.503 0 -70.622 1.119 -70.622 2.5 C -70.622 3.881 -69.503 5 -68.122 5 L 0 5 C 1.381 5 2.5 3.881 2.5 2.5 C 2.5 1.119 1.381 0 0 0 " fill="#ffffff"/>
<path transform="matrix(1,0,0,-1,607.0096,148.21018)" d="M 0 0 L -71.272 0 C -71.825 0 -72.272 .447 -72.272 1 C -72.272 1.553 -71.825 2 -71.272 2 L 0 2 C .553 2 1 1.553 1 1 C 1 .447 .553 0 0 0 " fill="#ffffff"/>
<path transform="matrix(1,0,0,-1,607.0096,154.82828)" d="M 0 0 L -71.272 0 C -71.825 0 -72.272 .447 -72.272 1 C -72.272 1.553 -71.825 2 -71.272 2 L 0 2 C .553 2 1 1.553 1 1 C 1 .447 .553 0 0 0 " fill="#ffffff"/>
<path transform="matrix(1,0,0,-1,377.5174,149.216)" d="M 0 0 C 0 -.717 -.193 -1.413 -.58 -2.093 C -.967 -2.771 -1.497 -3.301 -2.168 -3.681 C -2.664 -3.973 -3.256 -4.177 -3.942 -4.293 L -3.942 -6.286 L -6.57 -6.286 L -6.57 -4.271 C -7.228 -4.109 -7.823 -3.852 -8.355 -3.494 C -8.889 -3.136 -9.315 -2.688 -9.637 -2.147 C -10.22 -1.271 -10.513 -.321 -10.513 .7 L -7.84 .7 C -7.84 .48 -7.801 .236 -7.721 -.034 C -7.64 -.305 -7.527 -.534 -7.382 -.724 C -7.134 -1.088 -6.83 -1.377 -6.472 -1.588 C -6.113 -1.8 -5.724 -1.906 -5.301 -1.906 C -4.555 -1.906 -3.958 -1.731 -3.504 -1.381 C -3.021 -1.03 -2.782 -.541 -2.782 .087 C -2.782 .378 -2.844 .635 -2.967 .854 C -3.092 1.073 -3.308 1.283 -3.613 1.488 C -3.891 1.679 -4.177 1.843 -4.468 1.981 C -4.76 2.12 -5.153 2.291 -5.649 2.496 C -6.367 2.773 -6.863 2.993 -7.141 3.153 C -8.177 3.649 -8.957 4.263 -9.482 4.993 C -9.717 5.314 -9.907 5.694 -10.053 6.133 C -10.199 6.57 -10.271 7.016 -10.271 7.467 C -10.271 8.066 -10.145 8.661 -9.888 9.254 C -9.633 9.844 -9.286 10.337 -8.848 10.731 C -8.206 11.315 -7.446 11.695 -6.57 11.87 L -6.57 13.841 L -3.942 13.841 L -3.942 11.827 C -3.417 11.68 -2.924 11.457 -2.464 11.158 C -2.004 10.858 -1.62 10.49 -1.314 10.053 C -.657 9.177 -.321 8.213 -.307 7.161 L -3.089 7.161 C -3.089 7.614 -3.227 8.066 -3.504 8.52 C -4 9.177 -4.606 9.505 -5.321 9.505 C -5.643 9.505 -5.946 9.441 -6.231 9.318 C -6.516 9.193 -6.761 9.022 -6.964 8.804 C -7.314 8.481 -7.491 8.044 -7.491 7.489 C -7.491 7.109 -7.396 6.774 -7.205 6.481 C -7.044 6.22 -6.809 5.992 -6.493 5.804 C -6.181 5.614 -5.76 5.409 -5.234 5.189 C -3.949 4.649 -3.066 4.252 -2.584 3.997 C -2.103 3.74 -1.643 3.395 -1.204 2.957 C -.402 2.152 0 1.167 0 0 " fill="#ffffff"/>
<path transform="matrix(1,0,0,-1,353.4022,96.625308)" stroke-width="5" stroke-linecap="round" stroke-linejoin="round" fill="none" stroke="#1b66ff" d="M 0 0 L 42.621 0 "/>
<path transform="matrix(1,0,0,-1,427.9412,96.625308)" stroke-width="5" stroke-linecap="round" stroke-linejoin="round" fill="none" stroke="#1b66ff" d="M 0 0 L 42.622 0 "/>
<path transform="matrix(1,0,0,-1,502.4813,96.625308)" stroke-width="5" stroke-linecap="round" stroke-linejoin="round" fill="none" stroke="#1b66ff" d="M 0 0 L 42.621 0 "/>
<path transform="matrix(1,0,0,-1,577.0213,96.625308)" stroke-width="5" stroke-linecap="round" stroke-linejoin="round" fill="none" stroke="#1b66ff" d="M 0 0 L 42.621 0 "/>
<path transform="matrix(1,0,0,-1,589.6863,183.54319)" stroke-width="2" stroke-linecap="round" stroke-linejoin="round" fill="none" stroke="#cce1ff" d="M 0 0 L 15.642 15.265 "/>
<path transform="matrix(1,0,0,-1,573.0574,177.4231)" stroke-width="2" stroke-linecap="round" stroke-linejoin="round" fill="none" stroke="#cce1ff" d="M 0 0 L 9.203 -6.838 "/>
<path transform="matrix(1,0,0,-1,551.7205,194.9133)" stroke-width="2" stroke-linecap="round" stroke-linejoin="round" fill="none" stroke="#cce1ff" d="M 0 0 L 13.813 17.142 "/>
<path transform="matrix(1,0,0,-1,534.1776,191.63208)" stroke-width="2" stroke-linecap="round" stroke-linejoin="round" fill="none" stroke="#cce1ff" d="M 0 0 L 9.722 -5.272 "/>
<path transform="matrix(1,0,0,-1,511.0594,206.12418)" stroke-width="2" stroke-linecap="round" stroke-linejoin="round" fill="none" stroke="#cce1ff" d="M 0 0 L 15.42 13.218 "/>
<path transform="matrix(1,0,0,-1,534.6268,189.6955)" stroke-width="2" stroke-linecap="round" stroke-linejoin="round" fill="none" stroke="#ffffff" d="M 0 0 C 0 -2.423 -1.965 -4.387 -4.387 -4.387 C -6.81 -4.387 -8.773 -2.423 -8.773 0 C -8.773 2.423 -6.81 4.387 -4.387 4.387 C -1.965 4.387 0 2.423 0 0 Z "/>
<path transform="matrix(1,0,0,-1,552.4598,198.52948)" stroke-width="2" stroke-linecap="round" stroke-linejoin="round" fill="none" stroke="#ffffff" d="M 0 0 C 0 -2.422 -1.964 -4.386 -4.387 -4.386 C -6.81 -4.386 -8.773 -2.422 -8.773 0 C -8.773 2.423 -6.81 4.387 -4.387 4.387 C -1.964 4.387 0 2.423 0 0 Z "/>
<path transform="matrix(1,0,0,-1,590.4598,186.36249)" stroke-width="2" stroke-linecap="round" stroke-linejoin="round" fill="none" stroke="#ffffff" d="M 0 0 C 0 -2.423 -1.964 -4.387 -4.387 -4.387 C -6.81 -4.387 -8.773 -2.423 -8.773 0 C -8.773 2.423 -6.81 4.387 -4.387 4.387 C -1.964 4.387 0 2.423 0 0 Z "/>
<path transform="matrix(1,0,0,-1,573.3318,174.98749)" stroke-width="2" stroke-linecap="round" stroke-linejoin="round" fill="none" stroke="#ffffff" d="M 0 0 C 0 -2.423 -1.964 -4.387 -4.387 -4.387 C -6.81 -4.387 -8.773 -2.423 -8.773 0 C -8.773 2.423 -6.81 4.387 -4.387 4.387 C -1.964 4.387 0 2.423 0 0 Z "/>
<path transform="matrix(1,0,0,-1,459.0438,141.19068)" d="M 0 0 L -68.122 0 C -69.503 0 -70.622 1.119 -70.622 2.5 C -70.622 3.881 -69.503 5 -68.122 5 L 0 5 C 1.381 5 2.5 3.881 2.5 2.5 C 2.5 1.119 1.381 0 0 0 " fill="#ffffff"/>
<path transform="matrix(1,0,0,-1,460.5438,148.21018)" d="M 0 0 L -71.272 0 C -71.825 0 -72.272 .447 -72.272 1 C -72.272 1.553 -71.825 2 -71.272 2 L 0 2 C .553 2 1 1.553 1 1 C 1 .447 .553 0 0 0 " fill="#ffffff"/>
<path transform="matrix(1,0,0,-1,460.5438,154.82828)" d="M 0 0 L -71.272 0 C -71.825 0 -72.272 .447 -72.272 1 C -72.272 1.553 -71.825 2 -71.272 2 L 0 2 C .553 2 1 1.553 1 1 C 1 .447 .553 0 0 0 " fill="#ffffff"/>
<path transform="matrix(1,0,0,-1,223.4578,145.12418)" d="M 0 0 L 4.087 0 C 4.606 0 5.033 .057 5.367 .168 C 6.165 .409 6.729 .798 7.064 1.335 C 7.396 1.873 7.564 2.549 7.564 3.366 C 7.564 4.107 7.388 4.778 7.036 5.383 C 6.684 5.984 6.128 6.389 5.367 6.593 C 5.052 6.685 4.626 6.732 4.087 6.732 L 0 6.732 Z M 0 -2.863 L 0 -4.784 L 6.536 -4.784 L 6.536 -7.427 L 0 -7.427 L 0 -10.151 L -3.337 -10.151 L -3.337 -7.427 L -5.341 -7.427 L -5.341 -4.784 L -3.337 -4.784 L -3.337 -2.863 L -5.341 -2.863 L -5.341 0 L -3.337 0 L -3.337 9.874 L 4.227 9.874 C 4.839 9.874 5.376 9.837 5.841 9.764 C 7.527 9.503 8.798 8.803 9.65 7.662 C 10.504 6.523 10.93 5.089 10.93 3.366 C 10.93 1.678 10.504 .307 9.65 -.751 C 8.798 -1.808 7.527 -2.475 5.841 -2.753 C 5.376 -2.826 4.839 -2.863 4.227 -2.863 Z " fill="#ffffff"/>
<path transform="matrix(1,0,0,-1,312.5433,141.19068)" d="M 0 0 L -68.122 0 C -69.503 0 -70.622 1.119 -70.622 2.5 C -70.622 3.881 -69.503 5 -68.122 5 L 0 5 C 1.381 5 2.5 3.881 2.5 2.5 C 2.5 1.119 1.381 0 0 0 " fill="#ffffff"/>
<path transform="matrix(1,0,0,-1,314.0433,148.21018)" d="M 0 0 L -71.272 0 C -71.825 0 -72.272 .447 -72.272 1 C -72.272 1.553 -71.825 2 -71.272 2 L 0 2 C .553 2 1 1.553 1 1 C 1 .447 .553 0 0 0 " fill="#ffffff"/>
<path transform="matrix(1,0,0,-1,314.0433,154.82828)" d="M 0 0 L -71.272 0 C -71.825 0 -72.272 .447 -72.272 1 C -72.272 1.553 -71.825 2 -71.272 2 L 0 2 C .553 2 1 1.553 1 1 C 1 .447 .553 0 0 0 " fill="#ffffff"/>
<path transform="matrix(1,0,0,-1,447.6424,196.27069)" d="M 0 0 L -3.25 12.75 L -11.5 26.25 C -11.5 26.25 -11.354 26.342 -11.104 26.5 L -42.128 26.5 C -44.542 26.5 -46.5 24.542 -46.5 22.127 L -46.5 -11.378 C -46.5 -13.793 -44.542 -15.75 -42.128 -15.75 L -11.32 -15.75 Z " fill="#ffffff"/>
<path transform="matrix(1,0,0,-1,457.0203,169.77069)" d="M 0 0 L -21.841 0 C -25.663 -6.132 -27.878 -13.368 -27.878 -21.125 C -27.878 -28.883 -25.663 -36.119 -21.841 -42.25 L 0 -42.25 C 2.414 -42.25 4.372 -40.293 4.372 -37.878 L 4.372 -4.373 C 4.372 -1.958 2.414 0 0 0 " fill="#cce1ff"/>
<path transform="matrix(1,0,0,-1,368.3924,169.20038)" stroke-width="2" stroke-linecap="round" stroke-linejoin="round" fill="none" stroke="#cce1ff" d="M 0 0 L 0 -7.625 C 0 -15.563 6.436 -22 14.375 -22 L 22.25 -22 "/>
<path transform="matrix(1,0,0,-1,385.6629,197.844)" stroke-width="2" stroke-linecap="round" stroke-linejoin="round" fill="none" stroke="#cce1ff" d="M 0 0 L 5 6.875 L 5 7.021 L 0 13.896 "/>
<path transform="matrix(1,0,0,-1,415.1844,190.22968)" d="M 0 0 L -7.333 0 C -8.254 0 -9 .746 -9 1.667 L -9 5.5 C -9 6.421 -8.254 7.167 -7.333 7.167 L 0 7.167 C .921 7.167 1.667 6.421 1.667 5.5 L 1.667 1.667 C 1.667 .746 .921 0 0 0 " fill="#1b66ff"/>
<path transform="matrix(1,0,0,-1,415.8504,198.72968)" d="M 0 0 L -8.666 0 C -9.219 0 -9.666 .447 -9.666 1 C -9.666 1.553 -9.219 2 -8.666 2 L 0 2 C .553 2 1 1.553 1 1 C 1 .447 .553 0 0 0 " fill="#1b66ff"/>
<path transform="matrix(1,0,0,-1,429.0174,198.72968)" d="M 0 0 L -8.666 0 C -9.219 0 -9.666 .447 -9.666 1 C -9.666 1.553 -9.219 2 -8.666 2 L 0 2 C .553 2 1 1.553 1 1 C 1 .447 .553 0 0 0 " fill="#1b66ff"/>
<path transform="matrix(1,0,0,-1,442.1834,198.72968)" d="M 0 0 L -8.666 0 C -9.219 0 -9.666 .447 -9.666 1 C -9.666 1.553 -9.219 2 -8.666 2 L 0 2 C .553 2 1 1.553 1 1 C 1 .447 .553 0 0 0 " fill="#1b66ff"/>
<path transform="matrix(1,0,0,-1,455.3504,198.72968)" d="M 0 0 L -8.666 0 C -9.219 0 -9.666 .447 -9.666 1 C -9.666 1.553 -9.219 2 -8.666 2 L 0 2 C .553 2 1 1.553 1 1 C 1 .447 .553 0 0 0 " fill="#1b66ff"/>
<path transform="matrix(1,0,0,-1,311.0565,171.62519)" d="M 0 0 L -87.927 0 C -90.046 0 -91.763 1.718 -91.763 3.836 C -91.763 5.954 -90.046 7.672 -87.927 7.672 L 0 7.672 C 2.119 7.672 3.836 5.954 3.836 3.836 C 3.836 1.718 2.119 0 0 0 " fill="#cce1ff"/>
<path transform="matrix(1,0,0,-1,312.9744,179.53928)" d="M 0 0 L -91.763 0 C -92.822 0 -93.681 .858 -93.681 1.918 C -93.681 2.978 -92.822 3.836 -91.763 3.836 L 0 3.836 C 1.059 3.836 1.918 2.978 1.918 1.918 C 1.918 .858 1.059 0 0 0 " fill="#cce1ff"/>
<path transform="matrix(1,0,0,-1,311.0565,197.50019)" d="M 0 0 L -87.927 0 C -90.046 0 -91.763 1.718 -91.763 3.836 C -91.763 5.954 -90.046 7.672 -87.927 7.672 L 0 7.672 C 2.119 7.672 3.836 5.954 3.836 3.836 C 3.836 1.718 2.119 0 0 0 " fill="#cce1ff"/>
<path transform="matrix(1,0,0,-1,312.9744,205.41428)" d="M 0 0 L -91.763 0 C -92.822 0 -93.681 .858 -93.681 1.918 C -93.681 2.978 -92.822 3.836 -91.763 3.836 L 0 3.836 C 1.059 3.836 1.918 2.978 1.918 1.918 C 1.918 .858 1.059 0 0 0 " fill="#cce1ff"/>
<path transform="matrix(1,0,0,-1,400.9119,239.75019)" d="M 0 0 L -9.039 0 C -12.065 0 -14.52 -2.454 -14.52 -5.48 L -14.52 -34.81 L -3.387 -44.333 L 5.48 -34.81 L 5.48 -5.48 C 5.48 -2.453 3.027 0 0 0 M -33 0 L -42.039 0 C -45.066 0 -47.52 -2.453 -47.52 -5.48 L -47.52 -46.31 C -47.52 -46.31 -39.428 -54.667 -38.415 -54.667 C -37.402 -54.667 -27.52 -46.31 -27.52 -46.31 L -27.52 -5.48 C -27.52 -2.453 -29.973 0 -33 0 M 67 0 L 57.961 0 C 54.935 0 52.48 -2.454 52.48 -5.48 L 52.48 -11.81 L 67.67 -25.667 L 72.48 -11.81 L 72.48 -5.48 C 72.48 -2.453 70.027 0 67 0 M 34 0 L 24.961 0 C 21.935 0 19.48 -2.454 19.48 -5.48 L 19.48 -21.81 L 29.941 -35.667 L 39.48 -21.81 L 39.48 -5.48 C 39.48 -2.453 37.027 0 34 0 " fill="#ffffff"/>
<path transform="matrix(1,0,0,-1,473.3924,251.75019)" d="M 0 0 L -20 0 L -20 -42.749 C -20 -45.649 -17.649 -48 -14.749 -48 L -5.251 -48 C -2.351 -48 0 -45.649 0 -42.749 Z " fill="#1b66ff"/>
<path transform="matrix(1,0,0,-1,440.3924,261.75019)" d="M 0 0 L -20 0 L -20 -32.744 C -20 -35.647 -17.647 -38 -14.744 -38 L -5.256 -38 C -2.353 -38 0 -35.647 0 -32.744 Z " fill="#1b66ff"/>
<path transform="matrix(1,0,0,-1,406.3924,274.75019)" d="M 0 0 L -20 0 L -20 -19.733 C -20 -22.642 -17.642 -25 -14.733 -25 L -5.267 -25 C -2.358 -25 0 -22.642 0 -19.733 Z " fill="#1b66ff"/>
<path transform="matrix(1,0,0,-1,373.3924,285.75019)" d="M 0 0 L -20 0 L -20 -7.804 C -20 -10.674 -17.674 -13 -14.804 -13 L -5.196 -13 C -2.326 -13 0 -10.674 0 -7.804 Z " fill="#1b66ff"/>
<path transform="matrix(1,0,0,-1,548.0389,250.75019)" d="M 0 0 L -43.293 0 C -46.25 0 -48.646 2.396 -48.646 5.354 L -48.646 5.646 C -48.646 8.604 -46.25 11 -43.293 11 L 0 11 C 2.957 11 5.354 8.604 5.354 5.646 L 5.354 5.354 C 5.354 2.396 2.957 0 0 0 " fill="#1b66ff"/>
<path transform="matrix(1,0,0,-1,548.0389,274.75019)" d="M 0 0 L -43.293 0 C -46.25 0 -48.646 2.396 -48.646 5.354 L -48.646 5.646 C -48.646 8.604 -46.25 11 -43.293 11 L 0 11 C 2.957 11 5.354 8.604 5.354 5.646 L 5.354 5.354 C 5.354 2.396 2.957 0 0 0 " fill="#1b66ff"/>
<path transform="matrix(1,0,0,-1,548.0389,299.75019)" d="M 0 0 L -43.293 0 C -46.25 0 -48.646 2.396 -48.646 5.354 L -48.646 5.646 C -48.646 8.604 -46.25 11 -43.293 11 L 0 11 C 2.957 11 5.354 8.604 5.354 5.646 L 5.354 5.354 C 5.354 2.396 2.957 0 0 0 " fill="#1b66ff"/>
<path transform="matrix(1,0,0,-1,619.6277,262.009)" d="M 0 0 L -22.292 -2.157 L -32.519 -21.246 C -29.574 -22.631 -26.288 -23.408 -22.818 -23.408 C -10.208 -23.408 .015 -13.185 .015 -.574 C .015 -.382 .005 -.191 0 0 M -.264 2.989 C -1.976 13.906 -11.421 22.259 -22.818 22.259 C -29.131 22.259 -34.845 19.697 -38.978 15.557 C -33.981 11.012 -26.648 4.37 -22.72 .815 Z M -40.951 13.297 C -43.897 9.451 -45.652 4.645 -45.652 -.574 C -45.652 -8.645 -41.462 -15.73 -35.143 -19.792 L -25.111 -1.066 C -27.74 1.312 -35.573 8.404 -40.951 13.297 " fill="#1b66ff"/>
<path transform="matrix(1,0,0,-1,94.5589,482.91719)" d="M 0 0 C -2.333 5.167 -2.333 9.167 -1.167 11.167 C 1.303 15.401 29.167 18 29.167 18 C 29.167 18 71.5 24.667 131.167 24.667 C 40.5 16 -2.167 7.5 0 0 M 240.834 -3.5 L 193.667 2.167 L 50.167 72 L 51.333 160 L 54.333 180 L 49.333 191 L 15.833 213.667 C 15.833 213.667 14.829 213.63 12.973 213.501 C 3.724 211.699 -78.279 195.349 -80.167 181.667 C -82.167 167.167 -56.667 142.167 -56.667 142.167 C -56.667 142.167 -4.851 -19.136 21.791 -53.03 C 23.967 -54.671 26.766 -54.633 36.167 -56.333 C 59.5 -60.666 71.667 -61.5 71.667 -61.5 L 121.167 -63 C 121.167 -63 145.833 -62.833 147.333 -62.5 C 148.833 -62.166 195.667 -49.5 224.334 -37.666 C 242.834 -30.666 249.501 -28 250.167 -18.833 C 250.834 -9.666 240.834 -3.5 240.834 -3.5 " fill="#00cc89"/>
<path transform="matrix(1,0,0,-1,458.0594,578.0832)" d="M 0 0 L -34.667 -20.5 L -31.834 -24 L -22.5 -25.167 L -7.167 -22.834 C -7.167 -22.834 -1 -16 7.833 -6.667 C 3.333 -6 0 0 0 0 M -10.167 57.166 C -7.5 57.333 -10.834 61.333 -10.834 61.333 L -11.667 64.333 C -11.667 64.333 -11.167 65.166 -3.167 69.833 C -9.667 74.833 -12.834 84.833 -12.834 84.833 C -20.5 76.166 -27.667 59.833 -27.667 59.833 C -27.667 59.833 -12.834 57 -10.167 57.166 M -98.917 408.333 C -102.917 411.458 -119.042 408.458 -124.167 405.708 C -129.292 402.958 -136.292 398.958 -145.417 389.583 C -154.542 380.208 -157.542 372.333 -157.542 372.333 L -161.5 364.166 C -161.5 364.166 -165.5 356.166 -143.5 345.833 C -138.834 355.166 -136.042 360.458 -136.042 360.458 L -133.917 364.333 C -133.917 364.333 -127.042 365.833 -121.917 367.208 C -116.792 368.583 -115.042 370.208 -113.792 375.833 C -112.542 381.458 -115.917 390.833 -117.417 394.208 C -114.917 399.333 -102.292 401.083 -99.917 401.833 C -97.542 402.583 -96.667 406.458 -98.917 408.333 M -250.292 69.208 C -257.917 61.708 -268.167 52.958 -284.917 47.458 C -301.667 41.958 -313.542 44.583 -316.542 45.583 C -319.542 46.583 -323.417 48.833 -330.292 61.708 C -337.167 74.583 -341.542 90.958 -341.542 90.958 L -354.667 90.583 C -354.667 90.583 -347.292 61.958 -337.292 49.083 C -327.292 36.208 -319.417 32.958 -304.042 32.833 C -288.667 32.708 -271.167 39.958 -259.667 46.708 C -248.167 53.458 -237.292 64.208 -230.042 75.083 C -222.792 85.958 -219.667 99.458 -219.667 99.458 C -219.667 99.458 -224.167 99.208 -231.667 98.583 C -235.292 87.583 -242.667 76.708 -250.292 69.208 M -198 135 C -198 135 -206.001 140 -210.334 140.666 C -215.334 139.833 -222.573 137.95 -225.501 131.333 C -229.334 122.666 -226.667 119.833 -226.667 119.833 C -226.667 119.833 -219.167 119.833 -213.167 116.5 C -212.667 106.5 -208.167 94.166 -202.501 87.333 C -205.501 79.333 -206.501 72.5 -204.334 71.5 C -200.5 70.333 -190.333 79.666 -189.333 80.833 C -188.333 82 -183.833 101 -183.333 102.5 C -182.833 104 -183 104.5 -187.5 116.666 C -192.167 129.166 -198 135 -198 135 M -339.5 293.583 C -330.75 287.583 -327.5 282.583 -327.5 282.583 C -327.5 282.583 -323.75 279.083 -321 278.166 C -312.25 270.666 -313.5 262 -313.5 262 L -312.833 257.416 L -290.25 237.5 L -263.083 205.75 L -236.001 153.75 L -210.584 146.25 L -207.417 146.333 L -203.834 148.666 L -204.417 151.25 C -204.417 151.25 -207.001 158.666 -207.584 160.583 C -208.167 162.5 -222.251 187.75 -222.251 187.75 C -222.251 187.75 -242.167 235.833 -242.834 237.166 C -243.501 238.5 -259.417 259 -259.417 259 L -272.667 270.916 L -279.083 276.25 C -279.083 276.25 -281.083 280.166 -281.333 280.5 C -281.583 280.833 -280.167 281.916 -280.167 281.916 L -277.5 283.916 C -277.5 283.916 -276.677 287.832 -276.75 289.333 C -276.917 292.75 -279.083 310.75 -279.083 310.75 C -279.083 310.75 -280.667 315 -281.083 316.583 C -281.5 318.166 -288 330.583 -288 330.583 C -288 330.583 -291.25 336.166 -291.833 337.75 C -292.417 339.333 -292.083 343.5 -292.083 343.5 C -292.083 343.5 -294.167 349.583 -294.667 350.833 C -295.167 352.083 -296.25 351.833 -300.583 355.666 C -304.917 359.5 -315.75 361.083 -317.667 361.333 C -319.583 361.583 -320.917 360 -321.333 359.75 C -321.75 359.5 -324.667 355.5 -326.667 353.333 C -328.667 351.166 -329.5 349.666 -332.5 346.666 C -335.5 343.666 -342.583 337.333 -342.583 337.333 C -346.083 333.333 -348.083 329.833 -348.083 329.833 C -348.083 329.833 -350.875 321.041 -350.75 316.166 C -349.5 306.458 -346.583 299.75 -339.5 293.583 " fill="#ffffff"/>
<path transform="matrix(1,0,0,-1,527.7518,605.0129)" d="M 0 0 C -1 3.5 -9.375 5 -10.375 5.125 C -11.375 5.25 -38.25 10.5 -45.5 14.5 C -52.75 18.5 -56 24 -56 24 C -56 24 -64.5 22.125 -67.75 19.75 C -68.75 12.5 -72.875 11 -79.5 10.125 C -83.64 9.578 -89.096 10.642 -92.669 11.639 L -66.25 27.375 C -66.25 27.375 -71.625 35 -78.625 48 C -82.149 54.544 -85.646 60.518 -88.625 66.625 C -85.978 66.223 -82.491 65.814 -81.75 66 C -79.75 66.5 -77.922 67.263 -74.047 66.513 C -70.172 65.763 -42.547 63.263 -34.547 63.638 C -26.547 64.013 -20 69.625 -18.25 71.25 C -16.5 72.875 -16.5 77 -18.25 79.5 C -20 82 -56.625 91 -58.75 91.875 C -60.875 92.75 -68.25 98.625 -69.75 99.375 C -71.25 100.125 -78.125 95.5 -80.5 93.625 C -82.875 91.75 -82.5 88.5 -81 87.375 C -79.5 86.25 -79.75 84.875 -82.375 85 C -88.899 85.336 -93.67 86.612 -96.759 87.779 C -92.295 98.632 -82.25 112.542 -82.25 112.542 C -82.25 112.542 -81.417 109.208 -78.75 105.542 C -76.25 107.542 -75.417 111.875 -75.584 113.708 C -75.75 115.542 -76.417 116.875 -81.917 123.542 C -88.417 131.375 -101.343 144.442 -110.234 161.888 C -117.152 175.463 -131.359 204.43 -135.192 209.263 C -139.026 214.096 -143.359 216.93 -157.526 214.263 C -171.692 211.596 -204.797 202.263 -215.297 198.763 C -225.797 195.263 -253.25 186.042 -257.75 184.042 C -260.095 182.999 -266.103 180.42 -271.321 178.187 L -272.125 182.25 L -272.838 182.895 C -273.983 187.294 -276.955 198.833 -278.199 204.868 C -279.757 212.422 -283.971 234.431 -284.917 238.397 C -285.863 242.365 -291.76 266.208 -291.76 266.208 C -291.76 266.208 -279.802 274.483 -267.859 280.263 C -255.859 286.763 -244.73 292.401 -233.907 296.138 C -226.372 299.367 -224.652 300.482 -223.077 304.679 C -221.5 308.875 -216.422 326.26 -214.888 331.748 C -213.354 337.236 -207.304 359.9 -205.937 365.125 C -204.569 370.35 -203.454 374.625 -203.454 374.625 C -203.454 374.625 -202.249 378.23 -208.791 381.845 C -211.231 377.357 -213.846 373.013 -213.846 373.013 C -213.846 373.013 -226.193 379.7 -230.263 385.871 C -232.084 390.042 -230.159 393.5 -230.159 393.5 C -230.159 393.5 -232.133 396.585 -233.475 394.862 C -234.817 393.141 -235.934 388.855 -237.092 387.073 C -238.25 385.292 -249.301 353.346 -250.442 351.818 C -251.584 350.292 -257.517 331.855 -258.584 331.393 C -259.651 330.93 -264.709 330.343 -266.646 325.025 C -269.667 325.542 -272.9 325.292 -273.575 318.792 C -277.381 319.062 -279.717 319.076 -285.484 314.763 C -289.753 312.868 -299.991 310.168 -301.984 309.221 C -303.978 308.274 -311.557 305.368 -311.917 305.368 C -312.277 305.368 -315.542 307.74 -316.359 307.638 C -317.177 307.535 -322.901 306.805 -328.734 301.346 C -333.734 301.638 -343.834 301.125 -344.25 298.542 C -335.75 293.125 -323.994 278.74 -319.75 272.375 C -316.75 267.875 -312.574 262.338 -312.12 260.023 C -311.667 257.708 -297.401 226.016 -296.867 223.195 C -296.334 220.375 -281.882 190.565 -281.365 189.486 C -280.849 188.407 -274.75 176.722 -274.75 176.722 C -277.128 175.706 -279.027 174.896 -279.83 174.554 C -279.83 174.554 -280.923 174.251 -281.426 174.128 C -281.57 174.092 -281.715 174.115 -281.843 174.189 C -282.901 174.801 -288.932 177.955 -305.25 180.875 C -304.937 192.042 -305.502 199.875 -310.751 209.75 C -316 219.625 -333.552 240.897 -341.221 250.149 C -348.889 259.4 -354.808 268.352 -369.839 277.874 C -378.326 283.379 -384.584 287.875 -384.584 287.875 L -388.75 280.625 C -388.75 280.625 -404.625 262.75 -407.5 259.625 C -410.375 256.5 -410.625 252.519 -410.875 241.5 C -411.125 230.481 -405.875 205.25 -403.5 193.875 C -401.125 182.5 -391.5 154.5 -389 151.125 C -386.5 147.75 -382 143.125 -382 143.125 C -382 143.125 -332.75 146.75 -321.625 147.25 C -312.586 147.656 -299.601 147.073 -294.575 146.84 C -296.06 150.015 -297.01 154.541 -294.25 159.292 C -290.625 166.625 -278.834 168.625 -278.834 168.625 L -276.25 167.875 C -274.5 167.125 -267.834 163.375 -266.5 161.875 C -265.167 160.375 -252.334 134.708 -252.667 130.625 C -253 126.542 -258.167 108.542 -259.334 107.458 C -259.711 107.108 -260.919 106.085 -262.45 104.858 C -260.524 105.206 -259.417 105.375 -259.417 105.375 L -235.084 117.375 C -235.084 117.375 -191.25 115.375 -176.084 114.375 C -172.917 106.708 -167.584 107.708 -167.584 107.708 C -167.584 107.708 -166.964 101.345 -158.75 88.708 C -150.084 75.375 -140 60.336 -135.625 53.125 C -131 45.5 -135 34.875 -110.75 14.208 C -108.25 6.875 -104.584 4.542 -104.584 4.542 L -101.537 6.356 C -102.36 1.905 -102.918 -5.61 -100.484 -11.237 C -94.234 -13.987 -76.984 -13.987 -76.984 -13.987 L -74.047 -10.362 C -74.047 -10.362 -62.609 -14.05 -51.359 -14.425 C -40.109 -14.8 -2.609 -11.237 -.609 -10.862 C 1.391 -10.487 1 -3.5 0 0 M -364.375 121.375 C -357.25 99 -343 88.375 -343 88.375 C -343 88.375 -336.375 88.25 -331.625 87.375 C -309.75 100.125 -301.375 125.875 -301.375 125.875 Z M -282.834 129.708 C -282.834 129.708 -282.817 129.611 -282.789 129.445 C -284.785 128 -287.253 127.059 -289.602 126.632 C -291.813 115.515 -298.827 102.898 -307.75 91.542 C -296.636 96.509 -284.421 99.986 -275.049 102.213 C -274.829 104.985 -274.218 109.989 -272.584 115.125 C -275.402 119.092 -278.972 126.195 -281.247 130.951 C -281.83 129.932 -282.834 129.708 -282.834 129.708 " fill="#222426"/>
<path transform="matrix(1,0,0,-1,176.5174,316.50019)" d="M 0 0 C -.105 .665 11.875 -1 13.875 -3.5 C 15.875 -6 18.75 -16 18.75 -16 C 18.75 -16 34.375 -32.25 50.25 -60.875 C 59.5 -76.375 63 -84.625 63 -84.625 C 63 -84.625 67.688 -108.938 69.938 -114.313 C 60.25 -111.063 45.5 -107.813 45.5 -107.813 C 45.5 -107.813 48.75 -95.625 42.75 -83.625 C 36.75 -71.625 35.625 -69 35.625 -69 L 8.625 -20.875 L -.125 -15.5 C -.125 -15.5 1.125 -7.125 0 0 " fill="#00cc89"/>
<path transform="matrix(1,0,0,-1,106.7674,269.50019)" stroke-width="1.5" stroke-linecap="round" stroke-linejoin="round" fill="none" stroke="#222426" d="M 0 0 C 0 0 -29.132 -.382 -93.632 -20.382 "/>
<path transform="matrix(1,0,0,-1,135.2474,239.5246)" stroke-width="1.5" stroke-linecap="round" stroke-linejoin="round" fill="none" stroke="#222426" d="M 0 0 C .502 0 9.673 1.759 15.2 .628 C 20.728 -.502 24.622 8.919 24.622 8.919 "/>
<path transform="matrix(1,0,0,-1,165.5223,238.51978)" stroke-width="1.5" stroke-linecap="round" stroke-linejoin="round" fill="none" stroke="#222426" d="M 0 0 C 0 0 2.387 12.186 -9.17 16.959 C -20.728 21.732 -26.506 22.109 -28.014 20.603 C -29.521 19.095 -32.913 14.572 -37.687 9.171 C -42.46 3.769 -54.52 -4.146 -55.776 -11.557 "/>
<path transform="matrix(1,0,0,-1,108.49,254.0969)" stroke-width="1.5" stroke-linecap="round" stroke-linejoin="round" fill="none" stroke="#222426" d="M 0 0 C 0 0 -2.764 -8.668 1.256 -17.964 C 5.276 -27.26 10.427 -31.405 16.708 -36.053 C 22.989 -40.701 25.127 -45.726 27.827 -45.852 "/>
<path transform="matrix(1,0,0,-1,138.8904,288.1399)" stroke-width="1.5" stroke-linecap="round" stroke-linejoin="round" fill="none" stroke="#222426" d="M 0 0 C 0 0 -1.633 -4.899 -6.909 -1.131 C -12.186 2.638 -13.441 6.281 -14.823 8.039 C -16.205 9.798 -15.2 14.697 -11.934 15.828 C -8.668 16.959 -4.522 14.446 -4.522 14.446 C -4.522 14.446 -1.675 20.979 -4.522 24.496 C -5.851 26.137 -7.361 27.741 -8.595 28.986 C -10.181 30.587 -10.614 32.987 -9.698 35.046 C -8.677 37.342 -7.071 40.154 -4.857 41.748 C -.67 44.763 5.025 47.442 5.025 47.442 "/>
<path transform="matrix(1,0,0,-1,134.6194,278.719)" stroke-width="1.5" stroke-linecap="round" stroke-linejoin="round" fill="none" stroke="#222426" d="M 0 0 C 0 0 -3.643 2.639 -5.653 2.262 "/>
<path transform="matrix(1,0,0,-1,134.6194,283.24049)" stroke-width="1.5" stroke-linecap="round" stroke-linejoin="round" fill="none" stroke="#222426" d="M 0 0 C 0 0 -4.196 2.172 -1.847 5.671 "/>
<path transform="matrix(1,0,0,-1,141.5286,292.2854)" stroke-width="1.5" stroke-linecap="round" stroke-linejoin="round" fill="none" stroke="#222426" d="M 0 0 C 0 0 4.899 -5.276 7.035 -6.532 C 9.17 -7.789 27.637 -7.537 30.777 -6.532 C 33.917 -5.527 39.445 -2.262 39.822 0 C 40.199 2.261 37.938 23.783 36.807 26.589 C 35.676 29.396 32.662 36.179 31.028 39.068 C 29.396 41.957 26.045 52.761 19.932 57.221 "/>
<path transform="matrix(1,0,0,-1,165.6932,260.9065)" stroke-width="1.5" stroke-linecap="round" stroke-linejoin="round" fill="none" stroke="#222426" d="M 0 0 C .125 -.503 4.402 -4.279 6.914 -6.712 C 9.427 -9.145 7.668 -11.028 4.025 -13.541 "/>
<path transform="matrix(1,0,0,-1,161.992,251.65448)" stroke-width="1.5" stroke-linecap="round" stroke-linejoin="round" fill="none" stroke="#222426" d="M 0 0 C 0 0 1.851 5.552 7.683 4.662 "/>
<path transform="matrix(1,0,0,-1,155.5633,254.88498)" stroke-width="1.5" stroke-linecap="round" stroke-linejoin="round" fill="none" stroke="#222426" d="M 0 0 C 0 0 -7.911 -.729 -9.299 -9.723 "/>
<path transform="matrix(1,0,0,-1,162.6819,282.6594)" stroke-width="1.5" stroke-linecap="round" stroke-linejoin="round" fill="none" stroke="#222426" d="M 0 0 C 0 0 -1.968 -1.768 -1.175 -4.801 "/>
<path transform="matrix(1,0,0,-1,176.4163,281.0149)" stroke-width="1.5" stroke-linecap="round" stroke-linejoin="round" fill="none" stroke="#222426" d="M 0 0 C 0 0 -4.375 -5.778 -13.734 -4.271 "/>
<path transform="matrix(1,0,0,-1,156.8167,263.4582)" d="M 0 0 C .866 -1.373 .678 -3.047 -.42 -3.74 C -1.518 -4.433 -3.11 -3.882 -3.977 -2.509 C -4.842 -1.137 -4.654 .538 -3.556 1.23 C -2.458 1.923 -.866 1.372 0 0 " fill="#222426"/>
<path transform="matrix(1,0,0,-1,170.8304,254.61939)" d="M 0 0 C .774 -1.227 .606 -2.723 -.375 -3.342 C -1.356 -3.961 -2.779 -3.469 -3.553 -2.242 C -4.327 -1.016 -4.159 .48 -3.178 1.1 C -2.196 1.719 -.773 1.227 0 0 " fill="#222426"/>
<path transform="matrix(1,0,0,-1,178.8924,301.87519)" stroke-width="1.5" stroke-linecap="round" stroke-linejoin="round" fill="none" stroke="#222426" d="M 0 0 C -1.812 2.938 -1.589 2.955 -2.5 4.5 "/>
<path transform="matrix(1,0,0,-1,137.242,299.7092)" stroke-width="1.5" stroke-linecap="round" stroke-linejoin="round" fill="none" stroke="#222426" d="M 0 0 C 0 0 6.258 -7.186 7.525 -18.229 "/>
<path transform="matrix(1,0,0,-1,145.8855,319.63209)" stroke-width="1.5" stroke-linecap="round" stroke-linejoin="round" fill="none" stroke="#222426" d="M 0 0 C 4 -.25 30.75 3.25 30.75 3.25 C 30.75 3.25 37.125 13 34.25 15.375 "/>
<path transform="matrix(1,0,0,-1,172.2688,338.38209)" stroke-width="1.5" stroke-linecap="round" stroke-linejoin="round" fill="none" stroke="#222426" d="M 0 0 C 6.259 -.126 4.367 22 4.367 22 C 4.367 22 15.957 21.632 25.624 17.132 "/>
<path transform="matrix(1,0,0,-1,296.7606,213.88208)" stroke-width="1.5" stroke-linecap="round" stroke-linejoin="round" fill="none" stroke="#222426" d="M 0 0 L 3.75 8.25 C 3.75 8.25 8.625 .25 16.5 -2.375 C 24.375 -5 25.75 -3.25 25.75 -3.25 L 18 -17.5 "/>
<path transform="matrix(1,0,0,-1,302.0106,203.38208)" stroke-width="1.5" stroke-linecap="round" stroke-linejoin="round" fill="none" stroke="#222426" d="M 0 0 C 0 0 4.625 10.25 16.625 20.25 C 28.625 30.25 34.25 33 45.125 34.625 C 56 36.25 58.125 33.5 58.5 31 C 58.875 28.5 57.125 26.875 49.5 25.25 C 41.875 23.625 41.625 22.5 41.625 22.5 "/>
<path transform="matrix(1,0,0,-1,339.5106,180.75708)" stroke-width="1.5" stroke-linecap="round" stroke-linejoin="round" fill="none" stroke="#222426" d="M 0 0 C 0 0 3.625 -8 4.25 -12 C 4.875 -16 6.625 -26.625 -.875 -29.25 C -8.375 -31.875 -17.5 -33.25 -17.5 -33.25 "/>
<path transform="matrix(1,0,0,-1,190.3523,319.63209)" stroke-width="1.5" stroke-linecap="round" stroke-linejoin="round" fill="none" stroke="#222426" d="M 0 0 C 0 0 3.616 -6.917 5.059 -12.917 C -.332 -13.75 -5.05 -18.226 -5.05 -18.226 L -14.025 -12.282 "/>
<path transform="matrix(1,0,0,-1,236.1263,393.9075)" stroke-width="1.5" stroke-linecap="round" stroke-linejoin="round" fill="none" stroke="#222426" d="M 0 0 C -3.107 6.779 -28.772 50.192 -40.715 61.358 "/>
<path transform="matrix(1,0,0,-1,185.302,337.85758)" stroke-width="1.5" stroke-linecap="round" stroke-linejoin="round" fill="none" stroke="#222426" d="M 0 0 C 0 0 25.923 -43.435 31.59 -57.81 "/>
<path transform="matrix(1,0,0,-1,238.2269,398.31169)" stroke-width="1.5" stroke-linecap="round" stroke-linejoin="round" fill="none" stroke="#222426" d="M 0 0 C 0 0 6.121 -27.567 7.832 -31.938 "/>
<path transform="matrix(1,0,0,-1,243.3113,460.2151)" stroke-width="1.5" stroke-linecap="round" stroke-linejoin="round" fill="none" stroke="#222426" d="M 0 0 C 0 0 -1.676 6.333 7.324 13.333 C 12.991 17.5 17.324 16.833 17.324 16.833 L 6.831 22.715 "/>
<path transform="matrix(1,0,0,-1,246.8665,473.9787)" stroke-width="1.5" stroke-linecap="round" stroke-linejoin="round" fill="none" stroke="#222426" d="M 0 0 C -2.352 -2.823 -6.276 -4.33 -8.64 -4.653 C -12.298 -5.153 -148.231 -15.903 -150.981 -12.653 C -152.55 -10.8 -153.63 -5.855 -154.269 -1.948 C -154.76 1.05 -152.853 3.932 -149.889 4.604 C -113.144 12.938 -36.986 16.329 -21.731 15.964 C -11.919 15.729 -5.422 14.484 -1.752 12.02 C -1.752 12.02 -1.398 -5.903 8.769 -16.736 C 5.436 -26.57 4.519 -31.07 6.977 -32.736 C 9.436 -34.403 20.769 -24.903 22.102 -22.903 C 23.436 -20.903 28.436 -1.236 27.936 .847 C 27.436 2.93 19.102 25.43 13.769 30.597 "/>
<path transform="matrix(1,0,0,-1,98.7142,468.9914)" stroke-width="1.5" stroke-linecap="round" stroke-linejoin="round" fill="none" stroke="#222426" d="M 0 0 C 0 0 -39.579 104.109 -51.079 136.442 C -64.829 168.776 -87.579 179.859 -93.079 173.504 C -93.079 173.504 -103.329 160.859 -66.079 127.109 C -54.829 91.609 -16.922 -6.641 0 -38.891 C 16.921 -71.141 17.921 -68.641 26.421 -69.391 "/>
<path transform="matrix(1,0,0,-1,53.3855,332.5491)" stroke-width="1.5" stroke-linecap="round" stroke-linejoin="round" fill="none" stroke="#222426" d="M 0 0 C 0 0 53.05 14.179 88.804 20.599 "/>
<path transform="matrix(1,0,0,-1,103.6355,487.2434)" stroke-width="1.5" stroke-linecap="round" stroke-linejoin="round" fill="none" stroke="#222426" d="M 0 0 C 0 0 10.5 -52.889 39.75 -57.389 C 69 -61.889 108.5 -42.889 124.75 -14.889 C 133 -.639 134.591 8.611 134.591 8.611 "/>
<path transform="matrix(1,0,0,-1,226.6145,479.6233)" stroke-width="1.5" stroke-linecap="round" stroke-linejoin="round" fill="none" stroke="#222426" d="M 0 0 C 0 0 -8.049 -28.471 -43.109 -47.009 C -59.479 -55.259 -75.979 -55.009 -84.729 -53.009 C -93.479 -51.009 -106.925 -23.324 -110.077 -7.291 "/>
<path transform="matrix(1,0,0,-1,177.4686,517.7151)" stroke-width="1.5" stroke-linecap="round" stroke-linejoin="round" fill="none" stroke="#222426" d="M 0 0 C 0 0 10.502 1.066 19.251 -.634 "/>
<path transform="matrix(1,0,0,-1,264.7151,501.1887)" stroke-width="1.5" stroke-linecap="round" stroke-linejoin="round" fill="none" stroke="#222426" d="M 0 0 C 12.569 1.997 27.419 3.137 44.17 2.307 "/>
<path transform="matrix(1,0,0,-1,218.7605,515.0071)" stroke-width="1.5" stroke-linecap="round" stroke-linejoin="round" fill="none" stroke="#222426" d="M 0 0 C 0 0 12.136 6.616 33.556 11.443 "/>
<path transform="matrix(1,0,0,-1,340.4109,490.55879)" stroke-width="1.5" stroke-linecap="round" stroke-linejoin="round" fill="none" stroke="#222426" d="M 0 0 C 0 0 11.225 -12.482 -2.275 -21.403 C -15.775 -30.323 -89.365 -53.143 -98.07 -54.732 C -106.775 -56.323 -178.315 -54.035 -178.315 -54.035 "/>
<path transform="matrix(1,0,0,-1,142.9842,596.1252)" d="M 0 0 L 31.25 11.375 C 31.25 11.375 33.625 12.375 28.625 12.625 L 1.625 11.375 C 1.625 11.375 1.875 8 -.625 7 C -.375 3.75 0 0 0 0 M -37.458 -30.958 C -34.708 -24.708 -27.875 -25.875 -27.875 -25.875 L -27.042 -24.208 L -27.792 -23.458 C -27.792 -23.458 -28.125 -18.708 -27.708 -17.542 C -27.292 -16.375 -17.542 -9.208 -17.542 -9.208 C -17.542 -9.208 -19.792 -6.958 -20.708 -1.625 C -21.375 5.625 -12.792 6.458 -12.792 6.458 C -12.792 6.458 -12.458 6.375 -11.708 7.542 C -13.292 8.292 -12.875 13.875 -12.458 15.375 C -12.042 16.875 7.542 21.042 21.542 22.542 C 35.542 24.042 60.708 23.625 61.875 23.542 C 63.042 23.458 65.375 23.458 66.125 25.708 C 66.958 31.292 67.625 48.042 67.625 50.458 C 71.958 49.375 91.125 50.458 91.125 50.458 C 90.792 42.958 91.792 30.458 92.542 26.792 C 93.292 23.125 96.708 23.625 96.708 23.625 C 96.708 23.625 115.792 22.458 116.125 22.542 C 116.459 22.625 154.459 19.875 175.875 14.625 C 197.292 9.375 203.375 5.625 203.375 5.625 C 203.375 5.625 205.042 2.792 205.709 -1.958 C 210.209 -4.042 212.375 -8.542 212.375 -8.542 C 212.375 -8.542 215.459 -11.208 215.125 -15.875 C 213.959 -23.958 208.459 -25.292 204.625 -25.292 C 195.625 -24.208 195.709 -16.708 195.709 -16.708 C 195.709 -16.708 193.709 -15.208 191.875 -12.042 C 190.042 -8.875 192.459 -2.792 192.459 -2.792 L 190.459 -1.958 L 190.959 .625 C 190.959 .625 183.042 3.708 169.625 4.958 C 156.209 6.208 128.542 7.208 128.542 7.208 C 128.542 7.208 129.459 3.292 126.625 .542 C 123.709 -.042 118.459 .625 115.209 1.375 C 111.958 2.125 111.458 7.042 111.458 7.042 C 111.458 7.042 107.458 7.208 102.292 7.208 C 113.042 -7.208 122.959 -23.042 122.959 -23.042 C 122.959 -23.042 124.125 -23.625 124.375 -26.542 C 124.625 -29.458 123.875 -32.292 123.875 -32.292 C 123.875 -32.292 123.709 -32.708 123.375 -34.292 C 128.209 -36.625 127.709 -42.625 127.709 -42.625 C 127.709 -42.625 127.875 -46.958 128.042 -50.375 C 128.209 -53.792 128.042 -56.458 126.042 -57.542 C 124.042 -58.625 113.875 -58.208 112.292 -57.708 C 110.708 -57.208 110.292 -55.875 108.708 -49.208 C 107.125 -42.542 109.708 -36.125 109.708 -36.125 L 109.708 -31.958 C 109.708 -31.958 107.875 -27.208 106.958 -25.792 C 106.042 -24.375 97.875 -14.042 91.292 -7.708 C 84.708 -1.375 78.292 2.708 71.292 4.042 C 63.125 4.125 42.375 -.042 25.875 -5.292 C 9.375 -10.542 -11.708 -19.125 -11.708 -19.125 C -11.708 -19.125 -12.125 -20.625 -13.958 -23.708 C -12.542 -35.708 -15.375 -36.958 -15.375 -36.958 C -15.375 -36.958 -14.875 -37.792 -15.042 -40.875 C -15.542 -44.875 -18.625 -48.292 -22.792 -48.875 C -28.542 -49.375 -32.042 -44.292 -32.042 -44.292 L -39.125 -38.792 C -39.125 -38.792 -40.208 -37.208 -37.458 -30.958 " fill="#222426"/>
<path transform="matrix(1,0,0,-1,241.6038,584.6477)" stroke-width="1.5" stroke-linecap="round" stroke-linejoin="round" fill="none" stroke="#ffffff" d="M 0 0 C 12.803 -13.921 25.504 -36.682 25.504 -36.682 C 25.504 -36.682 25.911 -42.473 25.504 -43.489 C 25.098 -44.505 17.883 -44.606 14.022 -44.403 C 10.161 -44.2 9.754 -40.949 9.145 -39.323 C 8.535 -37.697 .203 -26.114 -8.739 -17.375 C -17.68 -8.637 -27.435 -7.52 -27.435 -7.52 C -27.435 -7.52 -53.65 -7.011 -110.755 -30.788 C -111.365 -33.836 -112.178 -35.056 -112.178 -35.056 C -112.178 -35.056 -119.798 -36.936 -126.352 -35.259 C -126.657 -31.448 -126.352 -28.857 -126.352 -28.857 C -126.352 -28.857 -117.665 -16.309 -66.301 .508 C -44.048 6.808 -38.256 8.18 -38.256 8.18 "/>
<path transform="matrix(1,0,0,-1,245.3772,588.9963)" stroke-width="1.5" stroke-linecap="round" stroke-linejoin="round" fill="none" stroke="#ffffff" d="M 0 0 C 70.379 .885 88.285 -6.371 88.285 -6.371 C 88.285 -6.371 88.285 -7.286 87.98 -9.114 C 95.601 -12.011 103.07 -9.114 103.07 -9.114 C 103.07 -9.114 103.375 -4.237 101.393 -1.646 C 75.025 13.595 -6.212 16.339 -6.212 16.339 C -6.212 16.339 -8.157 16.466 -9.108 17.71 C -12.388 22.979 -11.547 41.56 -11.547 41.56 "/>
<path transform="matrix(1,0,0,-1,254.5594,588.925)" stroke-width="1.5" stroke-linecap="round" stroke-linejoin="round" fill="none" stroke="#ffffff" d="M 0 0 C .458 -8.494 10.364 -6.747 13.869 -6.747 C 13.869 -6.747 17.225 -6.926 17.071 -.131 "/>
<path transform="matrix(1,0,0,-1,335.6902,598.8264)" stroke-width="1.5" stroke-linecap="round" stroke-linejoin="round" fill="none" stroke="#ffffff" d="M 0 0 C 0 0 -1.723 -3.196 -1.52 -6.144 C -1.316 -9.09 .004 -13.256 2.646 -13.662 "/>
<path transform="matrix(1,0,0,-1,338.6414,611.8283)" stroke-width="1.5" stroke-linecap="round" stroke-linejoin="round" fill="none" stroke="#ffffff" d="M 0 0 C 0 -5.359 4.345 -9.704 9.704 -9.704 C 15.063 -9.704 19.407 -5.359 19.407 0 C 19.407 5.359 15.063 9.704 9.704 9.704 C 4.345 9.704 0 5.359 0 0 Z "/>
<path transform="matrix(1,0,0,-1,348.4471,598.1106)" stroke-width="1.5" stroke-linecap="round" stroke-linejoin="round" fill="none" stroke="#ffffff" d="M 0 0 C 0 0 6.496 -2.678 8.252 -8.782 "/>
<path transform="matrix(1,0,0,-1,266.4412,628.553)" stroke-width="1.5" stroke-linecap="round" stroke-linejoin="round" fill="none" stroke="#ffffff" d="M 0 0 L 0 -2.022 C 0 -2.022 4.223 -2.937 4.325 -11.473 C 4.325 -17.569 3.365 -18.382 .847 -18.483 C -1.67 -18.585 -7.767 -18.483 -7.767 -18.483 C -7.767 -18.483 -11.222 -18.89 -11.323 -14.419 C -11.425 -9.948 -11.73 -4.258 -13.762 -3.648 C -14.27 -1.921 -13.762 .649 -13.762 .649 "/>
<path transform="matrix(1,0,0,-1,252.679,632.2014)" stroke-width="1.5" stroke-linecap="round" stroke-linejoin="round" fill="none" stroke="#ffffff" d="M 0 0 C 0 0 -1.549 -3.099 -1.397 -8.967 C -1.284 -13.31 -.025 -20.322 1.804 -21.312 C 3.633 -22.304 14.759 -22.15 16.512 -21.312 C 18.265 -20.475 18.577 -14.363 18.087 -8.967 "/>
<path transform="matrix(1,0,0,-1,175.303,584.1399)" stroke-width="1.5" stroke-linecap="round" stroke-linejoin="round" fill="none" stroke="#ffffff" d="M 0 0 C -7.316 1.017 -31.55 -.711 -31.55 -.711 C -31.55 -.711 -30.331 -4.287 -33.379 -4.785 C -36.427 -5.283 -43.591 -5.588 -44.81 -3.76 C -46.029 -1.931 -44.81 3.404 -44.81 3.404 C -44.81 3.404 -21.948 13.921 30.483 11.482 C 30.483 11.482 32.34 11.225 33.531 11.849 C 35.208 19.074 35.056 36.703 35.056 36.703 "/>
<path transform="matrix(1,0,0,-1,110.1204,635.7073)" stroke-width="1.5" stroke-linecap="round" stroke-linejoin="round" fill="none" stroke="#ffffff" d="M 0 0 C 0 -5.135 3.98 -9.297 8.891 -9.297 C 13.801 -9.297 17.782 -5.135 17.782 0 C 17.782 5.135 13.801 9.298 8.891 9.298 C 3.98 9.298 0 5.135 0 0 Z "/>
<path transform="matrix(1,0,0,-1,129.0179,619.7951)" stroke-width="1.5" stroke-linecap="round" stroke-linejoin="round" fill="none" stroke="#ffffff" d="M 0 0 C 0 0 1.757 -12.047 -1.407 -13.548 "/>
<path transform="matrix(1,0,0,-1,116.3113,620.1438)" stroke-width="1.5" stroke-linecap="round" stroke-linejoin="round" fill="none" stroke="#ffffff" d="M 0 0 L -1.195 -1.896 C -1.195 -1.896 -12.186 -.575 -12.694 -14.293 C -11.271 -16.833 -4.825 -20.553 -4.577 -20.903 "/>
<path transform="matrix(1,0,0,-1,131.1761,588.47)" stroke-width="1.5" stroke-linecap="round" stroke-linejoin="round" fill="none" stroke="#ffffff" d="M 0 0 L -.734 -1.462 C -.734 -1.462 -8.964 -1.156 -9.066 -8.879 C -9.066 -13.756 -5.699 -16.99 -5.699 -16.99 "/>
<path transform="matrix(1,0,0,-1,127.9021,592.7766)" stroke-width="1.5" stroke-linecap="round" stroke-linejoin="round" fill="none" stroke="#ffffff" d="M 0 0 C 0 0 4.191 -1.767 5.042 -8.453 "/>
<path transform="matrix(1,0,0,-1,141.9241,588.925)" stroke-width="1.5" stroke-linecap="round" stroke-linejoin="round" fill="none" stroke="#ffffff" d="M 0 0 C 0 0 1.189 -5.411 .798 -7.578 "/>
<path transform="matrix(1,0,0,-1,171.576,501.9651)" stroke-width="1.5" stroke-linecap="round" stroke-linejoin="round" fill="none" stroke="#222426" d="M 0 0 C 0 0 -23.206 -1.042 -46.028 -9.997 "/>
<path transform="matrix(1,0,0,-1,210.802,522.5422)" stroke-width="1.5" stroke-linecap="round" stroke-linejoin="round" fill="none" stroke="#222426" d="M 0 0 C 0 0 32.762 2.041 34.176 0 C 35.59 -2.041 36.167 -11.258 36.167 -11.258 "/>
<path transform="matrix(1,0,0,-1,250.7259,519.5832)" stroke-width="1.5" stroke-linecap="round" stroke-linejoin="round" fill="none" stroke="#222426" d="M 0 0 C 0 0 9 3.333 17.667 5.666 "/>
<path transform="matrix(1,0,0,-1,91.8924,357.75019)" stroke-width="1.5" stroke-linecap="round" stroke-linejoin="round" fill="none" stroke="#222426" d="M 0 0 C .5 .167 3.5 .833 3.5 .833 "/>
<path transform="matrix(1,0,0,-1,102.3924,354.75019)" stroke-width="1.5" stroke-linecap="round" stroke-linejoin="round" fill="none" stroke="#222426" d="M 0 0 L 14.667 3.167 "/>
<path transform="matrix(1,0,0,-1,101.8924,378.0832)" stroke-width="1.5" stroke-linecap="round" stroke-linejoin="round" fill="none" stroke="#222426" d="M 0 0 L 15 3.5 "/>
<path transform="matrix(1,0,0,-1,109.7259,395.0832)" stroke-width="1.5" stroke-linecap="round" stroke-linejoin="round" fill="none" stroke="#222426" d="M 0 0 L 10 2 "/>
<path transform="matrix(1,0,0,-1,105.8924,415.41719)" stroke-width="1.5" stroke-linecap="round" stroke-linejoin="round" fill="none" stroke="#222426" d="M 0 0 C 0 0 12.167 3.167 18 4.334 "/>
<path transform="matrix(1,0,0,-1,116.7259,431.41719)" stroke-width="1.5" stroke-linecap="round" stroke-linejoin="round" fill="none" stroke="#222426" d="M 0 0 C 0 0 10 2.334 12.833 2.834 "/>
<path transform="matrix(1,0,0,-1,126.7259,450.41719)" stroke-width="1.5" stroke-linecap="round" stroke-linejoin="round" fill="none" stroke="#222426" d="M 0 0 L 8.667 2 "/>
<path transform="matrix(1,0,0,-1,93.8924,399.25019)" stroke-width="1.5" stroke-linecap="round" stroke-linejoin="round" fill="none" stroke="#222426" d="M 0 0 L 4.5 1 "/>
<path transform="matrix(1,0,0,-1,119.2259,336.5832)" stroke-width="1.5" stroke-linecap="round" stroke-linejoin="round" fill="none" stroke="#222426" d="M 0 0 C .667 .166 12.333 3.333 12.333 3.333 "/>
<path transform="matrix(1,0,0,-1,426.5594,598.8332)" stroke-width="1.5" stroke-linecap="round" stroke-linejoin="round" fill="none" stroke="#222426" d="M 0 0 C 0 0 -3.25 -6.75 .75 -17.5 C 8 -20.5 24.25 -20 24.25 -20 L 27 -16.25 C 27 -16.25 33.75 -18.75 45 -20.25 C 56.25 -21.75 99.75 -17.5 101 -16.75 C 102.25 -16 102.5 -7 99.75 -4.75 C 97 -2.5 74.75 1.75 62.75 4.75 C 50.75 7.75 45.25 17.25 45.25 17.25 C 45.25 17.25 33.75 15.25 33 11.5 C 32.25 7.75 30 3.75 19.25 3.25 "/>
<path transform="matrix(1,0,0,-1,446.2049,494.62519)" stroke-width="1.5" stroke-linecap="round" stroke-linejoin="round" fill="none" stroke="#222426" d="M 0 0 C .5 -1.75 3.104 -8.458 7.354 -12.708 "/>
<path transform="matrix(1,0,0,-1,446.0594,539.3332)" stroke-width="1.5" stroke-linecap="round" stroke-linejoin="round" fill="none" stroke="#222426" d="M 0 0 C 0 0 3.5 2 5.25 1.25 C 7 .5 40.75 -2.75 49.25 -1.75 C 57.75 -.75 64.5 6.25 64.5 6.25 C 64.5 6.25 66.25 13.5 60.75 14.75 C 55.25 16 23.25 25.25 22.25 25.75 C 21.25 26.25 13.5 33.25 11.5 33.25 C 9.5 33.25 .75 27 .75 27 C .75 27 -2.5 24.5 1 20.5 C 4.5 16.5 -12.5 20 -12.5 20 "/>
<path transform="matrix(1,0,0,-1,139.1355,324.63209)" stroke-width="1.5" stroke-linecap="round" stroke-linejoin="round" fill="none" stroke="#ffffff" d="M 0 0 C 0 0 -10.167 -11.75 -18.75 -21 "/>
<path transform="matrix(1,0,0,-1,143.302,317.38209)" stroke-width="1.5" stroke-linecap="round" stroke-linejoin="round" fill="none" stroke="#ffffff" d="M 0 0 C 0 0 -3.917 -6.5 -4.167 -7.25 C -4.167 -7.25 19.958 -37.125 21.333 -38.5 C 22.708 -39.875 34.215 -37.319 45.84 -41.118 "/>
<path transform="matrix(1,0,0,-1,222.3089,424.00019)" stroke-width="1.5" stroke-linecap="round" stroke-linejoin="round" fill="none" stroke="#ffffff" d="M 0 0 C 0 0 3.702 15.993 -8.923 33.868 C -21.548 51.743 -41.548 76.743 -49.173 84.743 C -56.798 92.743 -78.75 106.5 -78.75 106.5 "/>
<path transform="matrix(1,0,0,-1,218.7605,410.38209)" stroke-width="1.5" stroke-linecap="round" stroke-linejoin="round" fill="none" stroke="#ffffff" d="M 0 0 C 0 0 -13.125 22.125 -42.25 34.75 C -44.625 47 -42.243 53.882 -42.243 53.882 "/>
<path transform="matrix(1,0,0,-1,256.2259,427.3332)" stroke-width="1.5" stroke-linecap="round" stroke-linejoin="round" fill="none" stroke="#ffffff" d="M 0 0 C 0 0 -6.59 24.451 -9.34 41.451 C -12.09 58.451 -19.59 85.076 -21.59 93.576 C -23.59 102.076 -24.34 106.201 -24.34 106.201 "/>
<path transform="matrix(1,0,0,-1,218.7605,303.50709)" stroke-width="1.5" stroke-linecap="round" stroke-linejoin="round" fill="none" stroke="#ffffff" d="M 0 0 C -.5 .375 -5.493 6.049 -6.868 6.424 C -8.243 6.799 -17.375 3.25 -20.375 0 "/>
<path transform="matrix(1,0,0,-1,204.8855,304.25709)" stroke-width="1.5" stroke-linecap="round" stroke-linejoin="round" fill="none" stroke="#ffffff" d="M 0 0 C 0 0 -18.875 2.583 -21.25 -2.458 C -21.502 -2.994 -2.827 -18.826 8 -36.375 C 10.706 -40.762 27.375 -81.75 29.25 -85.5 C 31.125 -89.25 47.132 -123.368 47.757 -124.118 "/>
<path transform="matrix(1,0,0,-1,215.6087,299.8889)" stroke-width="1.5" stroke-linecap="round" stroke-linejoin="round" fill="none" stroke="#ffffff" d="M 0 0 C 0 0 12.027 5.507 14.652 5.757 C 17.277 6.007 25.777 8.882 28.089 10.882 C 30.402 12.882 32.777 13.757 37.777 13.882 "/>
<path transform="matrix(1,0,0,-1,254.3855,289.50709)" stroke-width="1.5" stroke-linecap="round" stroke-linejoin="round" fill="none" stroke="#ffffff" d="M 0 0 C 0 0 -.75 7.75 2.5 9.125 C 5.75 10.5 19.25 7.5 26.5 -1.5 "/>
<path transform="matrix(1,0,0,-1,288.2606,280.0637)" stroke-width="1.5" stroke-linecap="round" stroke-linejoin="round" fill="none" stroke="#ffffff" d="M 0 0 C -.625 .807 -16.25 6.557 -18.25 6.182 C -20.25 5.807 -25.625 4.317 -26.5 0 "/>
<path transform="matrix(1,0,0,-1,270.7606,270.25709)" stroke-width="1.5" stroke-linecap="round" stroke-linejoin="round" fill="none" stroke="#ffffff" d="M 0 0 C 0 0 12.75 32.125 14 35.125 C 15.25 38.125 20.625 53.25 21 55.375 C 21.375 57.5 24 60.25 24 60.25 "/>
<path transform="matrix(1,0,0,-1,324.4315,230.63208)" stroke-width="1.5" stroke-linecap="round" stroke-linejoin="round" fill="none" stroke="#ffffff" d="M 0 0 C 0 0 -10.046 -38.625 -11.921 -44.5 C -13.796 -50.375 -17.546 -60.375 -19.046 -67.75 C -20.546 -75.125 -24.671 -76.625 -26.046 -76.75 C -26.046 -76.75 -41.296 -82.75 -45.546 -84.5 C -49.796 -86.25 -63.546 -94.242 -68.921 -96.559 C -74.296 -98.875 -88.305 -109.066 -88.305 -109.066 "/>
<path transform="matrix(1,0,0,-1,145.8855,367.0491)" stroke-width="1.5" stroke-linecap="round" stroke-linejoin="round" fill="none" stroke="#ffffff" d="M 0 0 L -2.583 4 "/>
<path transform="matrix(1,0,0,-1,139.1355,358.3332)" stroke-width="1.5" stroke-linecap="round" stroke-linejoin="round" fill="none" stroke="#ffffff" d="M 0 0 C 0 0 -9.5 13.784 -18.75 12.701 C -22.167 12.284 -23.983 -.456 -21.325 -22.669 C -18.667 -44.882 -8.138 -74.703 -4.819 -86.043 C -1.5 -97.382 5.444 -102.604 5.444 -102.604 "/>
<path transform="matrix(1,0,0,-1,154.1355,440.7151)" stroke-width="1.5" stroke-linecap="round" stroke-linejoin="round" fill="none" stroke="#ffffff" d="M 0 0 C 0 0 7.167 16.333 15.833 19.333 C 24.5 22.333 27 19.333 27 19.333 "/>
<path transform="matrix(1,0,0,-1,232.9236,456.9065)" stroke-width="1.5" stroke-linecap="round" stroke-linejoin="round" fill="none" stroke="#ffffff" d="M 0 0 C 0 0 -2.959 .716 -1.038 7.191 C 3.302 21.823 25.135 20.156 25.135 20.156 C 25.135 20.156 7.402 28.406 .469 29.989 C -6.464 31.573 -28.622 35.857 -44.663 35.524 C -60.705 35.191 -62.622 25.524 -63.622 25.024 "/>
<path transform="matrix(1,0,0,-1,156.302,382.2151)" stroke-width="1.5" stroke-linecap="round" stroke-linejoin="round" fill="none" stroke="#ffffff" d="M 0 0 C 0 0 4.125 -15.439 7.396 -21.637 C 10.667 -27.834 14.632 -34.931 14.465 -38.598 "/>
<path transform="matrix(1,0,0,-1,155.4686,422.54908)" stroke-width="1.5" stroke-linecap="round" stroke-linejoin="round" fill="none" stroke="#ffffff" d="M 0 0 C 0 0 2.833 4.167 10.833 4.167 "/>
<path transform="matrix(1,0,0,-1,430.9686,517.7151)" stroke-width="1.5" stroke-linecap="round" stroke-linejoin="round" fill="none" stroke="#ffffff" d="M 0 0 C 9.5 19.833 17.132 28.882 20.5 28 L -1.333 55.833 C -2 56.666 -16.333 78.666 -24.167 95.666 C -32 112.666 -36.833 123.166 -43.833 126.333 C -50.833 129.5 -65.333 127 -103.833 115.833 C -142.333 104.666 -174.076 90.724 -174.576 90.298 "/>
<path transform="matrix(1,0,0,-1,269.4759,499.66719)" stroke-width="1.5" stroke-linecap="round" stroke-linejoin="round" fill="none" stroke="#ffffff" d="M 0 0 C 0 0 43.326 19.618 73.66 40.285 C 103.993 60.952 107.993 63.452 111.326 63.618 C 114.66 63.785 119.993 67.785 127.993 49.118 C 135.993 30.452 164.16 -25.215 169.993 -39.048 C 175.826 -52.882 189.493 -73.715 190.16 -74.882 C 190.826 -76.048 191.993 -78.548 191.993 -78.548 C 191.993 -78.548 154.993 -100.382 153.993 -101.382 C 152.993 -102.382 147.493 -92.382 147.493 -91.715 C 147.493 -91.048 130.609 -78.621 128.083 -69.083 C 122.5 -48 102.826 -24.382 97.993 -14.882 C 93.16 -5.382 89.993 2.618 89.993 2.618 "/>
<path transform="matrix(1,0,0,-1,354.0799,480.7151)" stroke-width="1.5" stroke-linecap="round" stroke-linejoin="round" fill="none" stroke="#ffffff" d="M 0 0 C 0 0 -7.521 -14.702 5.396 -17.202 "/>
<path transform="matrix(1,0,0,-1,372.8016,475.88209)" stroke-width="1.5" stroke-linecap="round" stroke-linejoin="round" fill="none" stroke="#ffffff" d="M 0 0 C -.5 -.167 -10.166 -7.667 -13.333 -18 "/>
<path transform="matrix(1,0,0,-1,351.9451,491.54908)" stroke-width="1.5" stroke-linecap="round" stroke-linejoin="round" fill="none" stroke="#ffffff" d="M 0 0 C 0 0 -43.594 3.903 -59.928 2.736 "/>
<path transform="matrix(1,0,0,-1,163.9549,485.56269)" stroke-width="1.5" stroke-linecap="round" stroke-linejoin="round" fill="none" stroke="#ffffff" d="M 0 0 C 0 0 4.25 -19.94 19.75 -30.187 "/>
<path transform="matrix(1,0,0,-1,434.3924,495.25019)" stroke-width="1.5" stroke-linecap="round" stroke-linejoin="round" fill="none" stroke="#ffffff" d="M 0 0 C 0 0 -7 -7 -8.667 -14 "/>
<path transform="matrix(1,0,0,-1,429.3924,585.2502)" stroke-width="1.5" stroke-linecap="round" stroke-linejoin="round" fill="none" stroke="#ffffff" d="M 0 0 L -12 -7.333 "/>
<path transform="matrix(1,0,0,-1,309.0589,479.75019)" stroke-width="1.5" stroke-linecap="round" stroke-linejoin="round" fill="none" stroke="#ffffff" d="M 0 0 C 0 0 12.833 .333 18.5 -.167 "/>
<path transform="matrix(1,0,0,-1,335.0594,480.5832)" stroke-width="1.5" stroke-linecap="round" stroke-linejoin="round" fill="none" stroke="#ffffff" d="M 0 0 L 3.5 -.334 "/>
<path transform="matrix(1,0,0,-1,332.2254,472.0832)" stroke-width="1.5" stroke-linecap="round" stroke-linejoin="round" fill="none" stroke="#ffffff" d="M 0 0 L -8.666 .333 "/>
<path transform="matrix(1,0,0,-1,189.0589,304.16719)" stroke-width="1.5" stroke-linecap="round" stroke-linejoin="round" fill="none" stroke="#ffffff" d="M 0 0 C 0 0 20.917 -13.083 25.167 -19.083 C 25.984 -20.237 24.958 -37.958 24.958 -37.958 "/>
<path transform="matrix(1,0,0,-1,236.7361,395.094)" stroke-width="1.5" stroke-linecap="round" stroke-linejoin="round" fill="none" stroke="#ffffff" d="M 0 0 C -2.167 32.833 -7.193 56.551 -8.177 57.177 C -10.01 58.344 -16.01 61.344 -21.844 61.844 "/>
<path transform="matrix(1,0,0,-1,384.9588,429.23359)" stroke-width="1.5" stroke-linecap="round" stroke-linejoin="round" fill="none" stroke="#ffffff" d="M 0 0 C 0 0 -2.25 -5.75 -7.75 -8 "/>
<path transform="matrix(1,0,0,-1,385.3924,501.75019)" stroke-width="1.5" stroke-linecap="round" stroke-linejoin="round" fill="none" stroke="#ffffff" d="M 0 0 C 0 0 5.5 -10.5 8.25 -34 "/>
<path transform="matrix(1,0,0,-1,319.1424,223.62519)" stroke-width="1.5" stroke-linecap="round" stroke-linejoin="round" fill="none" stroke="#222426" d="M 0 0 C 5.875 -2.879 4.625 -6.875 3.5 -7.875 C 2.375 -8.875 .868 -9.882 -2.632 -9.382 C -6.132 -8.882 -11.882 -4.757 -17.757 -.257 C -23.632 4.243 -22.382 9.743 -22.382 9.743 "/>
<path transform="matrix(1,0,0,-1,258.9759,440.3332)" stroke-width="1.5" stroke-linecap="round" stroke-linejoin="round" fill="none" stroke="#ffffff" d="M 0 0 C 0 0 2.167 2.5 -.917 3.583 "/>
</g>
</g>
</g>
</g>
</svg>
