<?xml version="1.0" encoding="UTF-8" standalone="no"?>
<!DOCTYPE svg PUBLIC "-//W3C//DTD SVG 1.1//EN" "http://www.w3.org/Graphics/SVG/1.1/DTD/svg11.dtd">
<svg xmlns="http://www.w3.org/2000/svg" xmlns:xlink="http://www.w3.org/1999/xlink" version="1.1" width="17.5pt" height="17.5pt" viewBox="0 0 17.5 17.5">
<g enable-background="new">
<g>
<g id="Layer-1" data-name="Layer">
<clipPath id="cp0">
<path transform="matrix(1,0,0,-1,0,17.5)" d="M 0 17.5 L 17.5 17.5 L 17.5 0 L 0 0 Z "/>
</clipPath>
<g clip-path="url(#cp0)">
<path transform="matrix(1,0,0,-1,14.4004,16.75)" stroke-width="1.5" stroke-linecap="butt" stroke-miterlimit="10" stroke-linejoin="miter" fill="none" stroke="#3d7efe" d="M 0 0 L -11.301 0 C -12.599 0 -13.65 1.052 -13.65 2.349 L -13.65 13.651 C -13.65 14.948 -12.599 16 -11.301 16 L 0 16 C 1.298 16 2.35 14.948 2.35 13.651 L 2.35 2.349 C 2.35 1.052 1.298 0 0 0 Z "/>
<path transform="matrix(1,0,0,-1,4.5,7.75)" stroke-width="1.5" stroke-linecap="butt" stroke-miterlimit="10" stroke-linejoin="miter" fill="none" stroke="#3d7efe" d="M 0 0 L 3.5 -3.333 L 8.5 1.667 "/>
</g>
</g>
</g>
</g>
</svg>
