<?xml version="1.0" standalone="no"?>
<!DOCTYPE svg PUBLIC "-//W3C//DTD SVG 1.0//EN" "http://www.w3.org/TR/2001/REC-SVG-20010904/DTD/svg10.dtd">
<svg xmlns="http://www.w3.org/2000/svg" xmlns:xlink="http://www.w3.org/1999/xlink" id="body_1" width="91" height="59">

<defs>
    <clipPath  id="1">

    <path id=""  clip-rule="evenodd" transform="matrix(1 0 0 1 0 0)"  d="M0 44L0 -0.7853012L0 -0.7853012L68.186 -0.7853012L68.186 -0.7853012L68.186 44L68.186 44L0 44z" />    </clipPath>
    <clipPath  id="2">

    <path id=""  clip-rule="evenodd" transform="matrix(1 0 0 1 0 0)"  d="M0 -0.7849998L68.186 -0.7849998L68.186 -0.7849998L68.186 44L68.186 44L0 44z" />    </clipPath>
</defs>

<g transform="matrix(1.3333 0 0 1.3333 0 0)">
	<g clip-path="url(#1)" >
		<g clip-path="url(#2)" >
    <path id=""  transform="matrix(1 0 0 -1 0 44)"  d="M49.8204 20.5298C 49.8204 9.1918 40.6294 -0.0002002716 29.2914 -0.0002002716C 17.9534 -0.0002002716 8.761402 9.1918 8.761402 20.5298C 8.761402 31.8678 17.9534 41.0588 29.2914 41.0588C 40.6294 41.0588 49.8204 31.8678 49.8204 20.5298" stroke="none" fill="#7A8599" fill-rule="nonzero" />
    <path id=""  transform="matrix(1 0 0 -1 0 44)"  d="M27.4131 17.9556L27.4131 16.1426L27.4131 16.1426L33.5851 16.1426L33.5851 16.1426L33.5851 13.6486L33.5851 13.6486L27.4131 13.6486L27.4131 13.6486L27.4131 11.0746L27.4131 11.0746L24.2621 11.0746L24.2621 11.0746L24.2621 13.6486L24.2621 13.6486L22.3701 13.6486L22.3701 13.6486L22.3701 16.1426L22.3701 16.1426L24.2621 16.1426L24.2621 16.1426L24.2621 17.9556L24.2621 17.9556L22.3701 17.9556L22.3701 17.9556L22.3701 20.6606L22.3701 20.6606L24.2621 20.6606L24.2621 20.6606L24.2621 29.9836L24.2621 29.9836L31.4041 29.9836C 31.9821 29.9836 32.4901 29.9486 32.9281 29.8796C 34.5211 29.6336 35.7211 28.9736 36.5261 27.8956C 37.3311 26.8196 37.7341 25.4676 37.7341 23.8386C 37.7341 22.2456 37.3311 20.9496 36.5261 19.9526C 35.7211 18.9536 34.5211 18.3236 32.9281 18.0606C 32.4901 17.9906 31.9821 17.9556 31.4041 17.9556zM27.4131 20.6606L31.2731 20.6606C 31.7641 20.6606 32.1661 20.7136 32.4811 20.8186C 33.2341 21.0456 33.7681 21.4136 34.0841 21.9216C 34.3981 22.4296 34.5571 23.0676 34.5571 23.8386C 34.5571 24.5386 34.3901 25.1736 34.0581 25.7426C 33.7251 26.3106 33.1991 26.6926 32.4811 26.8856C 32.1841 26.9726 31.7811 27.0166 31.2731 27.0166L31.2731 27.0166L27.4131 27.0166z" stroke="none" fill="#D9DDE5" fill-rule="nonzero" />
		</g>
	</g>
</g>
</svg>