<?xml version="1.0" standalone="no"?>
<!DOCTYPE svg PUBLIC "-//W3C//DTD SVG 1.0//EN" "http://www.w3.org/TR/2001/REC-SVG-20010904/DTD/svg10.dtd">
<svg xmlns="http://www.w3.org/2000/svg" xmlns:xlink="http://www.w3.org/1999/xlink" id="body_1" width="143" height="143">

<defs>
    <clipPath  id="1">

    <path id=""  clip-rule="evenodd" transform="matrix(1 0 0 1 0 0)"  d="M0 107L0 -0.3259964L0 -0.3259964L107.686 -0.3259964L107.686 -0.3259964L107.686 107L107.686 107L0 107z" />    </clipPath>
    <clipPath  id="2">

    <path id=""  clip-rule="evenodd" transform="matrix(1 0 0 1 0 0)"  d="M0 -0.3259964L107.686 -0.3259964L107.686 -0.3259964L107.686 107L107.686 107L0 107z" />    </clipPath>
</defs>

<g transform="matrix(1.3333 0 0 1.3333 0 0)">
	<g clip-path="url(#1)" >
		<g clip-path="url(#2)" >
    <path id=""  transform="matrix(1 0 0 -1 0 107)"  d="M53.8428 -0.0005C 83.5798 -0.0005 107.6858 24.0255 107.6858 53.6625C 107.6858 83.3005 83.5798 107.3255 53.8428 107.3255C 24.1068 107.3255 -0.0001983643 83.3005 -0.0001983643 53.6625C -0.0001983643 24.0255 24.1068 -0.0005 53.8428 -0.0005" stroke="none" fill="#DADEE6" fill-rule="nonzero" />
    <path id=""  transform="matrix(1 0 0 -1 0 107)"  d="M52.9212 72.6941C 53.3982 72.6941 53.7862 72.3091 53.7862 71.8311C 53.7862 71.35509 53.3982 70.9691 52.9212 70.9691C 52.4422 70.9691 52.0552 71.35509 52.0552 71.8311C 52.0552 72.3091 52.4422 72.6941 52.9212 72.6941M55.8052 72.6941C 56.2822 72.6941 56.6712 72.3091 56.6712 71.8311C 56.6712 71.35509 56.2822 70.9691 55.8052 70.9691C 55.3262 70.9691 54.9402 71.35509 54.9402 71.8311C 54.9402 72.3091 55.3262 72.6941 55.8052 72.6941M58.6902 72.6941C 59.1672 72.6941 59.5552 72.3091 59.5552 71.8311C 59.5552 71.35509 59.1672 70.9691 58.6902 70.9691C 58.2112 70.9691 57.8242 71.35509 57.8242 71.8311C 57.8242 72.3091 58.2112 72.6941 58.6902 72.6941M61.0542 74.18909L33.2482 74.18909L33.2482 74.18909L33.2472 69.4751L33.2472 69.4751L61.0542 69.4751zM47.1512 64.1271L35.6132 64.1271L35.6132 64.1271L35.6132 65.16209L35.6132 65.16209L47.1512 65.16209zM47.1522 59.8161L35.6142 59.8161L35.6142 59.8161L35.6142 60.8501L35.6142 60.8501L47.1522 60.8501zM47.1522 55.5031L35.6142 55.5031L35.6142 55.5031L35.6142 56.5381L35.6142 56.5381L47.1522 56.5381zM61.0542 68.4411L33.2472 68.4411L33.2472 68.4411L33.2482 47.9131L33.2482 47.9131L54.2232 47.9131C 53.9752 48.6651 53.8432 49.4601 53.8432 50.2711C 53.8432 54.3441 57.0332 57.6911 61.0542 57.9581zM61.5732 75.2241C 61.8592 75.2241 62.0922 74.9931 62.0922 74.7061L62.0922 74.7061L62.0932 57.9581C 66.1152 57.6911 69.3042 54.3451 69.3042 50.2711C 69.3042 47.9161 68.1922 45.6961 66.3422 44.2451C 72.3742 42.2241 76.4982 36.5851 76.4982 30.1641L76.4982 30.1641L75.4592 30.1641C 75.4592 36.4851 71.1632 41.9931 65.0122 43.5581C 64.8072 43.6101 64.6542 43.7811 64.6252 43.9901C 64.5982 44.1981 64.6992 44.4041 64.8822 44.5081C 66.9692 45.7021 68.2652 47.9101 68.2652 50.2711C 68.2652 53.9481 65.2642 56.9411 61.5732 56.9411C 57.8852 56.9411 54.8822 53.9481 54.8822 50.2711C 54.8822 47.9101 56.1782 45.7021 58.2652 44.5081C 58.4482 44.4041 58.5512 44.1981 58.5222 43.9901C 58.4932 43.7811 58.3402 43.6101 58.1352 43.5581C 51.9842 41.9931 47.6882 36.4851 47.6882 30.1641L47.6882 30.1641L46.6492 30.1641C 46.6492 36.5851 50.7732 42.2241 56.8052 44.2451C 55.7712 45.0561 54.9672 46.1081 54.4592 47.2891L54.4592 47.2891L54.4602 46.8781L54.4602 46.8781L32.7292 46.8781C 32.4422 46.8781 32.2092 47.1101 32.2092 47.3961L32.2092 47.3961L32.2092 74.7061C 32.2092 74.9931 32.4422 75.2241 32.7292 75.2241z" stroke="none" fill="#7A8599" fill-rule="evenodd" />
		</g>
	</g>
</g>
</svg>