<?xml version="1.0" standalone="no"?>
<!DOCTYPE svg PUBLIC "-//W3C//DTD SVG 1.0//EN" "http://www.w3.org/TR/2001/REC-SVG-20010904/DTD/svg10.dtd">
<svg xmlns="http://www.w3.org/2000/svg" xmlns:xlink="http://www.w3.org/1999/xlink" id="body_2" width="143" height="143">

<defs>
    <clipPath  id="1">

    <path id=""  clip-rule="evenodd" transform="matrix(1 0 0 1 0 0)"  d="M0 107L0 -0.3259964L0 -0.3259964L107.686 -0.3259964L107.686 -0.3259964L107.686 107L107.686 107L0 107z" />    </clipPath>
    <clipPath  id="2">

    <path id=""  clip-rule="evenodd" transform="matrix(1 0 0 1 0 0)"  d="M0 -0.3259964L107.686 -0.3259964L107.686 -0.3259964L107.686 107L107.686 107L0 107z" />    </clipPath>
</defs>

<g transform="matrix(1.3333 0 0 1.3333 0 0)">
	<g clip-path="url(#1)" >
		<g clip-path="url(#2)" >
    <path id=""  transform="matrix(1 0 0 -1 0 107)"  d="M53.8428 -0.0005C 83.5798 -0.0005 107.6858 24.0255 107.6858 53.6625C 107.6858 83.3005 83.5798 107.3255 53.8428 107.3255C 24.1068 107.3255 -0.0001983643 83.3005 -0.0001983643 53.6625C -0.0001983643 24.0255 24.1068 -0.0005 53.8428 -0.0005" stroke="none" fill="#DADEE6" fill-rule="nonzero" />
    <path id=""  transform="matrix(1 0 0 -1 0 107)"  d="M32.7288 44.0043L39.9398 44.0043C 40.2268 44.0043 40.4588 44.2383 40.4588 44.5223L40.4588 44.5223L40.4588 54.5833C 40.4588 54.8693 40.2268 55.1013 39.9398 55.1013L39.9398 55.1013L32.7288 55.1013C 32.4418 55.1013 32.2098 54.8693 32.2098 54.5833L32.2098 54.5833L32.2098 44.5223C 32.2098 44.2383 32.4418 44.0043 32.7288 44.0043M33.2478 45.0393L39.4208 45.0393L39.4208 45.0393L39.4208 54.0653L39.4208 54.0653L33.2478 54.0653zM60.8508 44.0053L65.1788 44.0053C 66.0838 44.0053 66.8228 43.2693 66.8228 42.3663C 66.8228 41.4623 66.0838 40.7283 65.1788 40.7283L65.1788 40.7283L58.6888 40.7283L58.6888 40.7283L58.6888 39.6933L58.6888 39.6933L62.4958 39.6933L62.4958 39.6933L62.4958 37.3353L62.4958 37.3353L63.5328 37.3353L63.5328 37.3353L63.5328 39.6933L63.5328 39.6933L65.1788 39.6933C 66.6568 39.6933 67.8618 40.8923 67.8618 42.3663C 67.8618 43.8393 66.6568 45.0403 65.1788 45.0403L65.1788 45.0403L60.8508 45.0403C 59.9458 45.0403 59.2078 45.7753 59.2078 46.6793C 59.2078 47.5813 59.9458 48.3173 60.8508 48.3173L60.8508 48.3173L67.3418 48.3173L67.3418 48.3173L67.3418 49.3523L67.3418 49.3523L63.5328 49.3523L63.5328 49.3523L63.5328 51.7093L63.5328 51.7093L62.4958 51.7093L62.4958 51.7093L62.4958 49.3523L62.4958 49.3523L60.8508 49.3523C 59.3718 49.3523 58.1698 48.1523 58.1698 46.6793C 58.1698 45.2033 59.3718 44.0053 60.8508 44.0053M51.4768 63.7263L44.2658 63.7263C 43.9798 63.7263 43.7458 63.4933 43.7458 63.2083L43.7458 63.2083L43.7458 44.5223C 43.7458 44.2363 43.9798 44.0043 44.2658 44.0043L44.2658 44.0043L49.5418 44.0043C 49.8178 36.8253 55.7468 31.0683 63.0138 31.0683C 70.4568 31.0683 76.5138 37.1033 76.5138 44.5223C 76.5138 51.7653 70.7368 57.6733 63.5328 57.9493L63.5328 57.9493L63.5328 74.7063C 63.5328 74.9933 63.3008 75.2243 63.0138 75.2243L63.0138 75.2243L55.8028 75.2243C 55.5178 75.2243 55.2838 74.9933 55.2838 74.7063L55.2838 74.7063L55.2838 55.5293C 54.0048 54.6423 52.8898 53.5413 51.9958 52.2743L51.9958 52.2743L51.9958 63.2083C 51.9958 63.4933 51.7638 63.7263 51.4768 63.7263M44.7838 62.6913L50.9568 62.6913L50.9568 62.6913L50.9568 50.5543C 50.7388 50.1233 50.5448 49.6813 50.3728 49.2303C 50.3498 49.1643 50.3338 49.0953 50.3108 49.0313C 50.1618 48.6193 50.0298 48.2013 49.9248 47.7763C 49.8808 47.6113 49.8568 47.4413 49.8218 47.2733C 49.7528 46.9443 49.6858 46.6143 49.6408 46.2803C 49.6138 46.0843 49.6028 45.8873 49.5858 45.6893C 49.5668 45.4723 49.5338 45.2573 49.5258 45.0393L49.5258 45.0393L44.7838 45.0393zM56.3218 74.1903L62.4948 74.1903L62.4948 74.1903L62.4948 57.9663C 62.1108 57.9513 61.7308 57.9003 61.3518 57.8543C 61.2218 57.8373 61.0888 57.8353 60.9588 57.8153C 60.3578 57.7233 59.7648 57.5893 59.1858 57.4183C 59.0318 57.3733 58.8868 57.3103 58.7358 57.2603C 58.3098 57.1173 57.8898 56.9603 57.4788 56.7763C 57.2828 56.6873 57.0928 56.5873 56.9028 56.4903C 56.7088 56.3923 56.5098 56.3113 56.3218 56.2033zM56.0928 54.8433C 58.1438 56.2163 60.5378 56.9413 63.0138 56.9413C 69.8848 56.9413 75.4748 51.3693 75.4748 44.5223C 75.4748 37.6743 69.8848 32.1033 63.0138 32.1033C 56.1438 32.1033 50.5538 37.6743 50.5538 44.5223C 50.5538 45.0583 50.5958 45.5913 50.6658 46.1223C 50.8518 47.5433 51.2798 48.9293 51.9398 50.1953C 52.8978 52.0753 54.3318 53.6823 56.0928 54.8433" stroke="none" fill="#7A8599" fill-rule="evenodd" />
		</g>
	</g>
</g>
</svg>