<?xml version="1.0" standalone="no"?>
<!DOCTYPE svg PUBLIC "-//W3C//DTD SVG 1.0//EN" "http://www.w3.org/TR/2001/REC-SVG-20010904/DTD/svg10.dtd">
<svg xmlns="http://www.w3.org/2000/svg" xmlns:xlink="http://www.w3.org/1999/xlink" id="body_1" width="107" height="107">

<defs>
    <clipPath  id="1">

    <path id=""  clip-rule="evenodd" transform="matrix(1 0 0 1 0 0)"  d="M0 80L0 0L0 0L80 0L80 0L80 80L80 80L0 80z" />    </clipPath>
    <clipPath  id="2">

    <path id=""  clip-rule="evenodd" transform="matrix(1 0 0 1 0 0)"  d="M13.251 0C 5.932 0 0 5.932999 0 13.25L0 13.25L0 13.25L0 13.25L0 66.75C 0 74.067 5.932 80 13.251 80L13.251 80L13.251 80L13.251 80L66.75 80C 74.067 80 80 74.067 80 66.75L80 66.75L80 66.75L80 66.75L80 13.25C 80 5.932999 74.067 0 66.75 0L66.75 0L66.75 0z" />    </clipPath>
    <linearGradient gradientUnits="userSpaceOnUse"  transform="matrix(1 0 0 1 0 0)"  id="526" x1="77.04891" y1="4.854197" x2="2.951088" y2="75.14581"><stop stop-color="#CCFEED" offset="0%"/><stop stop-color="#CCFEED" offset="1%"/><stop stop-color="#CCFEED" offset="2%"/><stop stop-color="#CCFEED" offset="3%"/><stop stop-color="#CCFFEE" offset="4%"/><stop stop-color="#CCFFEE" offset="5%"/><stop stop-color="#CCFEEE" offset="6%"/><stop stop-color="#CCFEEE" offset="7%"/><stop stop-color="#CBFDEF" offset="8%"/><stop stop-color="#CBFCEF" offset="9%"/><stop stop-color="#CBFCEF" offset="10%"/><stop stop-color="#CBFCEF" offset="11%"/><stop stop-color="#CBFCEF" offset="12%"/><stop stop-color="#CBFBF0" offset="13%"/><stop stop-color="#CBFBF0" offset="14%"/><stop stop-color="#CAFAF0" offset="15%"/><stop stop-color="#CAFAF0" offset="16%"/><stop stop-color="#CAF9F1" offset="17%"/><stop stop-color="#CAF8F1" offset="18%"/><stop stop-color="#CAF8F1" offset="19%"/><stop stop-color="#CAF7F1" offset="20%"/><stop stop-color="#C9F7F1" offset="21%"/><stop stop-color="#C9F7F1" offset="22%"/><stop stop-color="#C9F6F2" offset="23%"/><stop stop-color="#C9F6F2" offset="24%"/><stop stop-color="#C9F5F2" offset="25%"/><stop stop-color="#C9F5F2" offset="26%"/><stop stop-color="#C9F5F2" offset="27%"/><stop stop-color="#C8F4F3" offset="28%"/><stop stop-color="#C8F4F3" offset="29%"/><stop stop-color="#C8F3F3" offset="30%"/><stop stop-color="#C8F2F3" offset="31%"/><stop stop-color="#C8F2F3" offset="32%"/><stop stop-color="#C8F2F3" offset="33%"/><stop stop-color="#C8F1F4" offset="34%"/><stop stop-color="#C8F1F4" offset="35%"/><stop stop-color="#C7F0F4" offset="36%"/><stop stop-color="#C7F0F4" offset="37%"/><stop stop-color="#C7EFF5" offset="38%"/><stop stop-color="#C7EEF5" offset="39%"/><stop stop-color="#C7EEF5" offset="40%"/><stop stop-color="#C7EEF5" offset="41%"/><stop stop-color="#C7EEF5" offset="42%"/><stop stop-color="#C6EDF5" offset="43%"/><stop stop-color="#C6EDF5" offset="44%"/><stop stop-color="#C6ECF6" offset="45%"/><stop stop-color="#C6EBF6" offset="46%"/><stop stop-color="#C6EBF6" offset="47%"/><stop stop-color="#C6EBF6" offset="48%"/><stop stop-color="#C5EAF7" offset="49%"/><stop stop-color="#C5EAF7" offset="50%"/><stop stop-color="#C5E9F7" offset="51%"/><stop stop-color="#C5E8F7" offset="52%"/><stop stop-color="#C5E8F7" offset="53%"/><stop stop-color="#C5E8F7" offset="54%"/><stop stop-color="#C5E7F8" offset="55%"/><stop stop-color="#C5E7F8" offset="56%"/><stop stop-color="#C4E6F8" offset="57%"/><stop stop-color="#C4E6F8" offset="58%"/><stop stop-color="#C4E5F8" offset="59%"/><stop stop-color="#C4E5F9" offset="60%"/><stop stop-color="#C4E5F9" offset="61%"/><stop stop-color="#C4E4F9" offset="62%"/><stop stop-color="#C4E4F9" offset="63%"/><stop stop-color="#C3E3F9" offset="64%"/><stop stop-color="#C3E3F9" offset="65%"/><stop stop-color="#C3E2FA" offset="66%"/><stop stop-color="#C3E2FA" offset="67%"/><stop stop-color="#C3E1FA" offset="68%"/><stop stop-color="#C3E1FA" offset="69%"/><stop stop-color="#C3E1FA" offset="70%"/><stop stop-color="#C2E0FB" offset="71%"/><stop stop-color="#C2E0FB" offset="72%"/><stop stop-color="#C2DFFB" offset="73%"/><stop stop-color="#C2DFFB" offset="74%"/><stop stop-color="#C2DEFB" offset="75%"/><stop stop-color="#C2DEFB" offset="76%"/><stop stop-color="#C1DDFC" offset="77%"/><stop stop-color="#C1DCFC" offset="78%"/><stop stop-color="#C1DCFC" offset="79%"/><stop stop-color="#C1DBFC" offset="80%"/><stop stop-color="#C1DBFD" offset="81%"/><stop stop-color="#C1DBFD" offset="82%"/><stop stop-color="#C1DAFD" offset="83%"/><stop stop-color="#C0D9FD" offset="84%"/><stop stop-color="#C0D9FD" offset="85%"/><stop stop-color="#C0D9FE" offset="86%"/><stop stop-color="#C0D8FE" offset="87%"/><stop stop-color="#C0D8FE" offset="88%"/><stop stop-color="#C0D7FE" offset="89%"/><stop stop-color="#C0D7FE" offset="90%"/><stop stop-color="#C0D7FE" offset="91%"/><stop stop-color="#BFD6FF" offset="92%"/><stop stop-color="#BFD6FF" offset="93%"/><stop stop-color="#BFD5FE" offset="94%"/><stop stop-color="#BFD5FE" offset="95%"/><stop stop-color="#BFD5FE" offset="96%"/><stop stop-color="#BFD5FE" offset="97%"/><stop stop-color="#BFD5FE" offset="98%"/><stop stop-color="#BFD5FE" offset="99%"/><stop stop-color="#BFD5FE" offset="100%"/>
    </linearGradient>
    <clipPath  id="3">

    <path id=""  clip-rule="evenodd" transform="matrix(1 0 0 1 0 0)"  d="M0 0L80 0L80 0L80 80L80 80L0 80z" />    </clipPath>
</defs>

<g transform="matrix(1.3333 0 0 1.3333 0 0)">
	<g clip-path="url(#1)" >
		<g clip-path="url(#2)" >
			<g>
    <path id=""  transform="matrix(1 0 0 -1 0 80)"  d="M0 -76L80 8L80 8L80 156L80 156L0 72" stroke="none" fill="url(#526)" />
    <path id=""  transform="matrix(1 0 0 -1 0 80)"  d="M0 -75.36683L80 8.965088L80 8.965088L80 0L80 0L0 0" stroke="none" fill="#CCFFEE" fill-rule="evenodd" />
    <path id=""  transform="matrix(1 0 0 -1 0 80)"  d="M0 71.03491L80 155.3668L80 155.3668L80 80L80 80L0 80" stroke="none" fill="#BFD5FF" fill-rule="evenodd" />
			</g>
		</g>
		<g clip-path="url(#3)" >
    <path id=""  transform="matrix(1 0 0 -1 0 80)"  d="M36.1156 43.96L34.8756 47.771L34.8756 47.771L31.9186 42.653L31.9186 42.653L31.1276 43.111L31.1276 43.111L34.5956 49.116C 34.6876 49.272 34.8766 49.361 35.0396 49.341C 35.2186 49.323 35.3706 49.2 35.4266 49.028L35.4266 49.028L36.6686 45.213L36.6686 45.213L39.6716 50.386C 39.7566 50.532 39.9106 50.622 40.0866 50.612C 40.2566 50.605 40.4096 50.504 40.4816 50.35L40.4816 50.35L42.9486 45.072L42.9486 45.072L47.2956 52.296L47.2956 52.296L48.0786 51.825L48.0786 51.825L43.2896 43.866C 43.2036 43.722 43.0406 43.628 42.8746 43.645C 42.7056 43.653 42.5556 43.753 42.4836 43.907L42.4836 43.907L40.0246 49.171L40.0246 49.171L36.9456 43.872C 36.8546 43.716 36.6736 43.629 36.5016 43.646C 36.3236 43.666 36.1716 43.788 36.1156 43.96M27.3726 20.5C 27.2516 20.5 27.1336 20.549 27.0486 20.634L27.0486 20.634L20.7016 26.981C 20.6156 27.067 20.5666 27.184 20.5666 27.305L20.5666 27.305L20.5666 46.348C 20.5666 46.601 20.7716 46.805 21.0256 46.805L21.0256 46.805L26.9386 46.805C 27.1806 53.845 32.9686 59.5 40.0676 59.5C 47.3196 59.5 53.2196 53.6 53.2196 46.348C 53.2196 42.99 51.9556 39.831 49.6726 37.386L49.6726 37.386L59.4326 27.628L59.4326 27.628L58.7876 26.981L58.7876 26.981L49.0266 36.74C 46.6946 34.563 43.7116 33.327 40.5246 33.219L40.5246 33.219L40.5246 20.958C 40.5246 20.705 40.3206 20.5 40.0676 20.5zM22.1286 26.848L26.9146 22.061L26.9146 22.061L26.9146 26.848zM52.3046 46.348C 52.3046 53.095 46.8156 58.586 40.0676 58.586C 33.3196 58.586 27.8296 53.095 27.8296 46.348C 27.8296 39.599 33.3196 34.109 40.0676 34.109C 43.3346 34.109 46.4076 35.383 48.7196 37.694C 51.0316 40.008 52.3046 43.082 52.3046 46.348M26.9436 45.627C 26.9346 45.715 26.9256 45.802 26.9226 45.891L26.9226 45.891L21.4816 45.891L21.4816 45.891L21.4816 27.762L21.4816 27.762L27.3726 27.762C 27.6256 27.762 27.8296 27.558 27.8296 27.305L27.8296 27.305L27.8296 21.414L27.8296 21.414L39.6096 21.414L39.6096 21.414L39.6096 33.203C 39.5056 33.206 39.4026 33.217 39.2996 33.227C 39.2416 33.233 39.1826 33.239 39.1236 33.244C 39.0896 33.246 39.0536 33.249 39.0196 33.251C 38.8596 33.262 38.6996 33.273 38.5396 33.292C 38.3006 33.32 38.0646 33.359 37.8286 33.401C 37.7956 33.407 37.7606 33.412 37.7276 33.418C 37.5736 33.443 37.4196 33.47 37.2656 33.503C 37.0636 33.547 36.8636 33.602 36.6646 33.656C 36.6346 33.665 36.6046 33.673 36.5756 33.681C 36.5316 33.692 36.4876 33.704 36.4426 33.716C 36.3066 33.753 36.1706 33.79 36.0376 33.833C 35.8176 33.904 35.6026 33.987 35.3876 34.07L35.3876 34.07L35.3676 34.079C 35.3216 34.097 35.2766 34.113 35.2316 34.13C 35.1056 34.177 34.9806 34.223 34.8576 34.277C 34.6696 34.358 34.4876 34.449 34.3036 34.541C 34.2726 34.558 34.2406 34.574 34.2096 34.59C 34.1576 34.615 34.1056 34.64 34.0536 34.665C 33.9466 34.717 33.8396 34.769 33.7356 34.827C 33.5456 34.931 33.3646 35.045 33.1826 35.161C 33.1576 35.176 33.1326 35.192 33.1086 35.208C 33.0556 35.241 33.0036 35.273 32.9506 35.305C 32.8576 35.36 32.7646 35.417 32.6736 35.479C 32.4996 35.597 32.3336 35.726 32.1666 35.856C 32.1296 35.884 32.0926 35.911 32.0556 35.94C 32.0076 35.978 31.9596 36.014 31.9106 36.049C 31.8336 36.106 31.7556 36.162 31.6826 36.224C 31.4256 36.437 31.1806 36.665 30.9416 36.898C 30.8246 37.011 30.7106 37.126 30.5986 37.243C 30.3746 37.477 30.1506 37.713 29.9436 37.963C 29.8716 38.049 29.8046 38.141 29.7376 38.231C 29.7006 38.282 29.6636 38.333 29.6256 38.383C 29.5916 38.426 29.5586 38.469 29.5266 38.512C 29.4156 38.655 29.3036 38.8 29.2006 38.95C 29.1256 39.06 29.0566 39.174 28.9886 39.287C 28.9576 39.341 28.9246 39.394 28.8926 39.447C 28.8616 39.496 28.8306 39.547 28.7986 39.597C 28.7146 39.731 28.6296 39.867 28.5506 40.007C 28.4836 40.129 28.4226 40.254 28.3626 40.381L28.3626 40.381L28.2806 40.548C 28.2636 40.581 28.2476 40.613 28.2306 40.647C 28.1516 40.805 28.0726 40.963 28.0016 41.128C 27.9386 41.273 27.8826 41.421 27.8276 41.569C 27.8116 41.613 27.7956 41.656 27.7786 41.7C 27.7646 41.736 27.7516 41.773 27.7366 41.811C 27.6736 41.975 27.6116 42.138 27.5566 42.304C 27.5076 42.456 27.4656 42.611 27.4246 42.767C 27.4126 42.812 27.4006 42.858 27.3876 42.903C 27.3826 42.923 27.3776 42.942 27.3726 42.961C 27.3206 43.15 27.2676 43.34 27.2256 43.532C 27.1886 43.699 27.1606 43.87 27.1316 44.04C 27.1256 44.077 27.1196 44.115 27.1126 44.154C 27.1086 44.181 27.1036 44.206 27.0996 44.232C 27.0686 44.422 27.0376 44.611 27.0136 44.803C 26.9926 44.99 26.9786 45.179 26.9646 45.368C 26.9646 45.394 26.9626 45.418 26.9606 45.442C 26.9566 45.505 26.9496 45.566 26.9436 45.627" stroke="none" fill="#0D5DFE" fill-rule="evenodd" />
		</g>
	</g>
</g>
</svg>