<?xml version="1.0" standalone="no"?>
<!DOCTYPE svg PUBLIC "-//W3C//DTD SVG 1.0//EN" "http://www.w3.org/TR/2001/REC-SVG-20010904/DTD/svg10.dtd">
<svg xmlns="http://www.w3.org/2000/svg" xmlns:xlink="http://www.w3.org/1999/xlink" id="body_1" width="143" height="143">

<defs>
    <clipPath  id="1">

    <path id=""  clip-rule="evenodd" transform="matrix(1 0 0 1 0 0)"  d="M0 107L0 -0.3259964L0 -0.3259964L107.686 -0.3259964L107.686 -0.3259964L107.686 107L107.686 107L0 107z" />    </clipPath>
    <clipPath  id="2">

    <path id=""  clip-rule="evenodd" transform="matrix(1 0 0 1 0 0)"  d="M0 -0.3259964L107.686 -0.3259964L107.686 -0.3259964L107.686 107L107.686 107L0 107z" />    </clipPath>
</defs>

<g transform="matrix(1.3333 0 0 1.3333 0 0)">
	<g clip-path="url(#1)" >
		<g clip-path="url(#2)" >
    <path id=""  transform="matrix(1 0 0 -1 0 107)"  d="M53.8429 -0.0005C 83.5799 -0.0005 107.6859 24.0255 107.6859 53.6625C 107.6859 83.3005 83.5799 107.3255 53.8429 107.3255C 24.1059 107.3255 -9.918213E-05 83.3005 -9.918213E-05 53.6625C -9.918213E-05 24.0255 24.1059 -0.0005 53.8429 -0.0005" stroke="none" fill="#DADEE6" fill-rule="nonzero" />
    <path id=""  transform="matrix(1 0 0 -1 0 107)"  d="M54.3617 75.2231L54.3617 44.8511L54.3617 44.8511L62.6537 53.1151L62.6537 53.1151L63.3877 52.3821L63.3877 52.3821L53.8427 42.8701L53.8427 42.8701L44.2977 52.3821L44.2977 52.3821L45.0327 53.1151L45.0327 53.1151L53.3237 44.8501L53.3237 44.8501L53.3237 75.2231zM32.7287 43.6001L32.7287 32.6201L32.7287 32.6201L74.9577 32.6201L74.9577 32.6201L74.9577 43.6001L74.9577 43.6001L75.9957 43.6001L75.9957 43.6001L75.9957 32.1011C 75.9957 31.8161 75.7637 31.5831 75.4767 31.5831L75.4767 31.5831L32.2097 31.5831C 31.9227 31.5831 31.6897 31.8161 31.6897 32.1011L31.6897 32.1011L31.6897 43.6001z" stroke="none" fill="#7A8599" fill-rule="evenodd" />
		</g>
	</g>
</g>
</svg>