<?xml version="1.0" standalone="no"?>
<!DOCTYPE svg PUBLIC "-//W3C//DTD SVG 1.0//EN" "http://www.w3.org/TR/2001/REC-SVG-20010904/DTD/svg10.dtd">
<svg xmlns="http://www.w3.org/2000/svg" xmlns:xlink="http://www.w3.org/1999/xlink" id="body_1" width="55" height="55">

<defs>
    <clipPath  id="1">

    <path id=""  clip-rule="evenodd" transform="matrix(1 0 0 1 0 0)"  d="M0 41L0 -0.05929947L0 -0.05929947L41.0593 -0.05929947L41.0593 -0.05929947L41.0593 41L41.0593 41L0 41z" />    </clipPath>
    <clipPath  id="2">

    <path id=""  clip-rule="evenodd" transform="matrix(1 0 0 1 0 0)"  d="M0 -0.05899811L41.059 -0.05899811L41.059 -0.05899811L41.059 41L41.059 41L0 41z" />    </clipPath>
</defs>

<g transform="matrix(1.3333 0 0 1.3333 0 0)">
	<g clip-path="url(#1)" >
		<g clip-path="url(#2)" >
    <path id=""  transform="matrix(1 0 0 -1 0 41)"  d="M41.0592 20.5301C 41.0592 9.1911 31.8682 9.918213E-05 20.5302 9.918213E-05C 9.1912 9.918213E-05 -0.0008010864 9.1911 -0.0008010864 20.5301C -0.0008010864 31.8681 9.1912 41.0591 20.5302 41.0591C 31.8682 41.0591 41.0592 31.8681 41.0592 20.5301" stroke="none" fill="#7A8599" fill-rule="nonzero" />
    <path id=""  transform="matrix(1 0 0 -1 0 41)"  d="M26.8326 15.9988C 26.8326 15.1418 26.6006 14.3058 26.1366 13.4908C 25.6726 12.6768 25.0376 12.0428 24.2326 11.5868C 23.6376 11.2368 22.9286 10.9918 22.1046 10.8518L22.1046 10.8518L22.1046 8.4618L22.1046 8.4618L18.9536 8.4618L18.9536 8.4618L18.9536 10.8778C 18.1656 11.0708 17.4516 11.3818 16.8126 11.8108C 16.1736 12.2388 15.6616 12.7778 15.2766 13.4258C 14.5766 14.4768 14.2266 15.6138 14.2266 16.8398L14.2266 16.8398L17.4306 16.8398C 17.4306 16.5768 17.4786 16.2838 17.5746 15.9598C 17.6716 15.6358 17.8076 15.3598 17.9816 15.1328C 18.2796 14.6948 18.6426 14.3488 19.0716 14.0958C 19.5006 13.8418 19.9696 13.7148 20.4776 13.7148C 21.3696 13.7148 22.0876 13.9248 22.6306 14.3448C 23.2086 14.7658 23.4966 15.3518 23.4966 16.1038C 23.4966 16.4548 23.4226 16.7608 23.2736 17.0228C 23.1246 17.2868 22.8666 17.5398 22.4996 17.7848C 22.1666 18.0128 21.8246 18.2098 21.4756 18.3758C 21.1246 18.5418 20.6516 18.7478 20.0566 18.9938C 19.1986 19.3248 18.6036 19.5888 18.2706 19.7808C 17.0266 20.3768 16.0916 21.1108 15.4606 21.9868C 15.1806 22.3728 14.9526 22.8278 14.7776 23.3528C 14.6026 23.8788 14.5156 24.4118 14.5156 24.9548C 14.5156 25.6728 14.6686 26.3868 14.9756 27.0958C 15.2806 27.8048 15.6966 28.3948 16.2226 28.8678C 16.9926 29.5678 17.9026 30.0238 18.9536 30.2338L18.9536 30.2338L18.9536 32.5978L18.9536 32.5978L22.1046 32.5978L22.1046 32.5978L22.1046 30.1818C 22.7346 30.0068 23.3266 29.7388 23.8776 29.3808C 24.4296 29.0208 24.8896 28.5788 25.2566 28.0538C 26.0446 27.0038 26.4466 25.8488 26.4646 24.5868L26.4646 24.5868L23.1296 24.5868C 23.1296 25.1298 22.9626 25.6728 22.6306 26.2158C 22.0346 27.0038 21.3086 27.3978 20.4506 27.3978C 20.0646 27.3978 19.7016 27.3228 19.3606 27.1738C 19.0196 27.0248 18.7266 26.8198 18.4806 26.5578C 18.0616 26.1718 17.8516 25.6468 17.8516 24.9808C 17.8516 24.5248 17.9646 24.1238 18.1916 23.7728C 18.3846 23.4578 18.6686 23.1858 19.0456 22.9588C 19.4226 22.7308 19.9256 22.4858 20.5556 22.2238C 22.0966 21.5758 23.1556 21.0988 23.7336 20.7928C 24.3116 20.4858 24.8626 20.0698 25.3886 19.5448C 26.3516 18.5818 26.8326 17.3998 26.8326 15.9988" stroke="none" fill="#D9DDE5" fill-rule="nonzero" />
		</g>
	</g>
</g>
</svg>